<svg xmlns="http://www.w3.org/2000/svg" xmlns:xlink="http://www.w3.org/1999/xlink" width="495.295" height="360.965" viewBox="0 0 495.295 360.965"><defs><style>.a{fill:url(#a);}.b{fill:#fff;opacity:0.1;}</style><linearGradient id="a" x1="0.2" y1="0.216" x2="1" y2="1" gradientUnits="objectBoundingBox"><stop offset="0" stop-color="#1bc1e8"/><stop offset="1" stop-color="#00b5e0"/></linearGradient></defs><g transform="translate(46.638 60.965)"><path class="a" d="M0,0H428V300H0Z"/><g transform="translate(0 -90)"><rect class="b" width="175.734" height="175.734" transform="matrix(0.5, 0.866, -0.866, 0.5, 251.406, 100.713)"/><path class="b" d="M175.734,60.409V175.734h-65.9Z" transform="matrix(0.5, 0.866, -0.866, 0.5, 298.044, -92.398)"/><path class="b" d="M0,0H136.377l39.357,23.536v152.2H0Z" transform="matrix(0.5, 0.866, -0.866, 0.5, 360.789, 138.053)"/><path class="b" d="M136.159,54.043l39.576,23.625v98.066H65.9Z" transform="matrix(0.5, 0.866, -0.866, 0.5, 407.428, -55.058)"/><path class="b" d="M0,0H175.734V175.734H93.359L0,120.817Z" transform="matrix(0.5, 0.866, -0.866, 0.5, 105.552, 39.663)"/></g></g></svg>