<svg xmlns="http://www.w3.org/2000/svg" width="495.295" height="349.076" viewBox="0 0 495.295 349.076"><defs><style>.a{fill:#fff;opacity:0.1;}</style></defs><g transform="translate(46.638 60.965)"><g transform="translate(0 -90)"><rect class="a" width="175.734" height="175.734" transform="matrix(0.5, 0.866, -0.866, 0.5, 251.406, 100.713)"/><path class="a" d="M175.734,60.409V175.734h-65.9Z" transform="matrix(0.5, 0.866, -0.866, 0.5, 298.044, -92.398)"/><path class="a" d="M0,0H136.377l39.357,23.536v152.2H0Z" transform="matrix(0.5, 0.866, -0.866, 0.5, 360.789, 138.053)"/><path class="a" d="M136.159,54.043l39.576,23.625v98.066H65.9Z" transform="matrix(0.5, 0.866, -0.866, 0.5, 407.428, -55.058)"/><path class="a" d="M0,0H175.734V175.734H93.359L0,120.817Z" transform="matrix(0.5, 0.866, -0.866, 0.5, 105.552, 39.663)"/></g></g></svg>