<svg xmlns="http://www.w3.org/2000/svg" xmlns:xlink="http://www.w3.org/1999/xlink" width="159" height="110" viewBox="0 0 159 110"><defs><style>.a{fill:#7599fd;stroke:#fff;stroke-width:3px;}.b{fill:#fff;fill-rule:evenodd;}.c{stroke:none;}.d{fill:none;}.e{filter:url(#a);}</style><filter id="a" x="0" y="0" width="159" height="110" filterUnits="userSpaceOnUse"><feOffset dy="10" input="SourceAlpha"/><feGaussianBlur stdDeviation="10" result="b"/><feFlood flood-opacity="0.102"/><feComposite operator="in" in2="b"/><feComposite in="SourceGraphic"/></filter></defs><g transform="translate(-54 -807)"><g transform="translate(-4328 -139)"><g class="e" transform="matrix(1, 0, 0, 1, 4382, 946)"><g class="a" transform="translate(30 20)"><rect class="c" width="99" height="50" rx="25"/><rect class="d" x="1.5" y="1.5" width="96" height="47" rx="23.5"/></g></g></g><path class="b" d="M81.422,114.56v13.018a.339.339,0,0,0,.339.339H86.6a.339.339,0,0,0,.339-.339v-13.23h3.5a.339.339,0,0,0,.338-.31l.337-3.986a.339.339,0,0,0-.338-.368H86.934v-2.828a1.2,1.2,0,0,1,1.2-1.2h2.7a.339.339,0,0,0,.339-.339V101.33a.339.339,0,0,0-.339-.339H86.271a4.849,4.849,0,0,0-4.849,4.849v3.843H79a.339.339,0,0,0-.338.339v3.986a.339.339,0,0,0,.338.339h2.418Z" transform="translate(48.334 738.009)"/></g></svg>