<svg xmlns="http://www.w3.org/2000/svg" width="20.156" height="22" viewBox="0 0 20.156 22"><defs><style>.a{fill:#fafafa;}</style></defs><g transform="translate(100.49 -64.267) rotate(90)"><path class="a" d="M85.406,82.345H72.3a2.639,2.639,0,0,0-5.126,0H65.128a.942.942,0,0,0,0,1.877h2.046a2.639,2.639,0,0,0,5.126,0H85.406a.942.942,0,0,0,0-1.877Z" transform="translate(0)"/><path class="a" d="M85.406,210.878H83.36a2.639,2.639,0,0,0-5.126,0H65.128a.942.942,0,0,0,0,1.877H78.235a2.639,2.639,0,0,0,5.126,0h2.046a.942.942,0,0,0,0-1.877Z" transform="translate(0 -121.404)"/><path class="a" d="M85.406,339.411h-9.42a2.639,2.639,0,0,0-5.126,0H65.128a.942.942,0,0,0,0,1.877h5.733a2.639,2.639,0,0,0,5.126,0h9.42a.942.942,0,0,0,0-1.877Z" transform="translate(0 -242.808)"/></g></svg>