<svg xmlns="http://www.w3.org/2000/svg" width="99" height="50" viewBox="0 0 99 50"><defs><style>.a{fill:#fc6d62;stroke:#fff;stroke-width:3px;}.b{fill:#fff;}.c{stroke:none;}.d{fill:none;}</style></defs><g transform="translate(-225 -827)"><g transform="translate(-4187 -139)"><g class="a" transform="translate(4412 966)"><rect class="c" width="99" height="50" rx="25"/><rect class="d" x="1.5" y="1.5" width="96" height="47" rx="23.5"/></g></g><g transform="translate(4 3)"><path class="b" d="M27.782,15.459h3.16V12.3H34.1v3.16h3.132V18.62H34.1V21.78h-3.16V18.62h-3.16ZM21,8.873l-2.99,2.9C14.186,8.036,6.743,10.76,6.743,17.026c0,8.5,12.062,9.079,13.109,2.207H13.614v-3.79h10.4c1.181,6.172-2.8,12.627-10.4,12.627v0A11.025,11.025,0,1,1,21,8.873Z" transform="translate(250.422 832.001)"/></g></g></svg>