j<svg xmlns="http://www.w3.org/2000/svg" width="21.235" height="14.334" viewBox="0 0 21.235 14.334"><defs><style>.a{fill:#838383;}</style></defs><path class="a" d="M.072,17.132V5.338q0-.02.061-.389l6.942,5.938L.154,17.542a1.735,1.735,0,0,1-.082-.41Zm.921-13a.882.882,0,0,1,.348-.061h18.7a1.159,1.159,0,0,1,.369.061l-6.962,5.959-.921.737L10.7,12.32,8.877,10.825l-.921-.737Zm.02,14.211L8,11.644l2.7,2.191,2.7-2.191,6.983,6.7a.983.983,0,0,1-.348.061H1.342a.927.927,0,0,1-.328-.061Zm13.31-7.454,6.921-5.938a1.222,1.222,0,0,1,.061.389V17.132a1.569,1.569,0,0,1-.061.41Z" transform="translate(-0.072 -4.068)"/></svg>