<svg xmlns="http://www.w3.org/2000/svg" width="18" height="19" viewBox="0 0 18 19"><defs><style>.a{fill:#838383;}</style></defs><g transform="translate(-4.5 -3.375)"><path class="a" d="M28.568,8.88a.37.37,0,0,0,.52,0l.52-.52a.37.37,0,0,0,0-.52L28.434,6.665a.37.37,0,0,0-.52,0l-.52.52a.37.37,0,0,0,0,.52Z" transform="translate(-7.545 -1.099)"/><path class="a" d="M5.632,8.88a.37.37,0,0,0,.52,0L7.326,7.706a.37.37,0,0,0,0-.52l-.52-.52a.37.37,0,0,0-.52,0L5.112,7.835a.37.37,0,0,0,0,.52Z" transform="translate(-0.174 -1.099)"/><path class="a" d="M14.625,4.905v-.8a.743.743,0,0,0-.75-.731h-.75a.743.743,0,0,0-.75.731v.8a8.853,8.853,0,0,0-7.875,8.7,8.889,8.889,0,0,0,9,8.769,8.889,8.889,0,0,0,9-8.769A8.853,8.853,0,0,0,14.625,4.905Zm-.469,10.016V15.8a.656.656,0,0,1-1.312,0v-.877a1.447,1.447,0,0,1,0-2.631V7.76a.656.656,0,0,1,1.313,0V12.29a1.447,1.447,0,0,1,0,2.631Z" transform="translate(0)"/></g></svg>