<svg xmlns="http://www.w3.org/2000/svg" width="12" height="16" viewBox="0 0 12 16"><defs><style>.a{fill:#34b94c;}</style></defs><path class="a" d="M11.55,4.536A.44.44,0,0,0,12,4.107V2.679a.44.44,0,0,0-.45-.429H.45A.44.44,0,0,0,0,2.679v1.6a.44.44,0,0,0,.45.429h3.2a2.762,2.762,0,0,1,2.286.973H.45A.44.44,0,0,0,0,6.107V7.536a.44.44,0,0,0,.45.429H6.4a2.566,2.566,0,0,1-2.8,2.094H.45a.44.44,0,0,0-.45.429V12.38a.42.42,0,0,0,.145.315l6.189,5.441a.463.463,0,0,0,.305.114h3.1a.426.426,0,0,0,.305-.743L4.383,12.532A5.042,5.042,0,0,0,9.57,7.964h1.98A.44.44,0,0,0,12,7.536V6.107a.44.44,0,0,0-.45-.429h-2.2a4.78,4.78,0,0,0-.534-1.143Z" transform="translate(0 -2.25)"/></svg>