<svg xmlns="http://www.w3.org/2000/svg" width="294.148" height="176.564" viewBox="0 0 294.148 176.564"><defs><style>.a{fill:#ecf3fe;}.b{fill:#b7cae5;}.c{fill:#e6e6e6;}.d{fill:#e0e0e0;}.e,.s{fill:#fafafa;}.aa,.f{fill:#f5f5f5;}.g{fill:#f0f0f0;}.h,.z{fill:#fff;}.i{fill:#e58a7b;}.j,.k{fill:#ed4a69;}.k,.l{opacity:0.2;}.m{fill:#e8ecf1;}.aa,.m{mix-blend-mode:multiply;isolation:isolate;}.n{fill:#263238;}.o{fill:#cf6f64;}.p{fill:#1a3166;}.q,.t{fill:#407bff;}.r{fill:#df5753;}.s{opacity:0.56;}.t{opacity:0.07;}.u{fill:#795e35;opacity:0.47;}.v{fill:#f4b545;}.w{fill:#e03959;}.x{opacity:0.6;}.y,.z{opacity:0.4;}.ab,.ac{fill:#555;}.ac{opacity:0.3;}.ad{fill:#97d9ef;}.ae{fill:#fbad1d;}</style></defs><g transform="translate(-62.203 -260.498)"><g transform="translate(101 207.047)"><g transform="translate(9.925 13.997)"><g transform="translate(-16.924 39.454)"><path class="a" d="M570.827,720.541a91.938,91.938,0,1,0-88.022,0Z" transform="translate(-434.878 -547.867)"/><path class="a" d="M1030.64,836.629h73.552a81.212,81.212,0,1,0-73.552,0Z" transform="translate(-908.526 -663.955)"/><ellipse class="b" cx="103.155" cy="6.345" rx="103.155" ry="6.345" transform="translate(21.477 163.873)"/></g><g transform="translate(8.757 58.447)"><rect class="c" width="209.953" height="0.105" transform="translate(0 137.496)"/><rect class="c" width="13.908" height="0.105" transform="translate(38.507 143.849)"/><rect class="c" width="8.059" height="0.105" transform="translate(26.047 143.849)"/><rect class="c" width="8.059" height="0.105" transform="translate(80.354 145.394)"/><rect class="c" width="18.137" height="0.105" transform="translate(112.293 147.739)"/><rect class="c" width="2.659" height="0.105" transform="translate(105.895 147.739)"/><rect class="c" width="39.335" height="0.105" transform="translate(151.026 145.394)"/><g transform="translate(16.043)"><path class="c" d="M121.687,173.722H40.6a2.4,2.4,0,0,1-2.4-2.4V57.349a2.4,2.4,0,0,1,2.4-2.4h81.083a2.4,2.4,0,0,1,2.4,2.4V171.325A2.4,2.4,0,0,1,121.687,173.722ZM40.6,55.058a2.294,2.294,0,0,0-2.292,2.291V171.325a2.294,2.294,0,0,0,2.292,2.292h81.083a2.294,2.294,0,0,0,2.291-2.292V57.349a2.294,2.294,0,0,0-2.291-2.291Z" transform="translate(-38.207 -54.953)"/><path class="c" d="M337.984,173.722H256.9a2.4,2.4,0,0,1-2.4-2.4V57.349a2.4,2.4,0,0,1,2.4-2.4h81.083a2.4,2.4,0,0,1,2.4,2.4V171.325A2.4,2.4,0,0,1,337.984,173.722ZM256.9,55.058a2.294,2.294,0,0,0-2.291,2.291V171.325a2.294,2.294,0,0,0,2.291,2.292h81.083a2.3,2.3,0,0,0,2.292-2.292V57.349a2.294,2.294,0,0,0-2.292-2.291Z" transform="translate(-163.68 -54.953)"/></g><g transform="translate(62.589 101.627)"><rect class="d" width="9.233" height="36.63" transform="translate(40.46)"/><path class="e" d="M260.683,377.32h1.754v-4.988h-3.593Z" transform="translate(-212.743 -340.69)"/><rect class="d" width="9.233" height="36.63"/><rect class="e" width="41.991" height="33.569" transform="translate(7.703)"/><path class="d" d="M209.747,300.683v8.881H170.8v-8.881h38.945m.162-.162h-39.27v9.206h39.27v-9.206Z" transform="translate(-161.576 -299.033)"/><path class="e" d="M169.153,377.32H167.4v-4.988h3.592Z" transform="translate(-159.696 -340.69)"/><path class="c" d="M215.187,310.2a.929.929,0,1,0,.929-.928A.929.929,0,0,0,215.187,310.2Z" transform="translate(-187.418 -304.109)"/><path class="d" d="M209.747,326.15v8.881H170.8V326.15h38.945m.162-.162h-39.27v9.206h39.27v-9.206Z" transform="translate(-161.576 -313.806)"/><path class="c" d="M215.187,335.667a.929.929,0,1,0,.929-.929A.929.929,0,0,0,215.187,335.667Z" transform="translate(-187.418 -318.882)"/><path class="d" d="M209.747,351.617V360.5H170.8v-8.881h38.945m.162-.162h-39.27v9.206h39.27v-9.206Z" transform="translate(-161.576 -328.579)"/><path class="c" d="M215.187,361.134a.929.929,0,1,0,.929-.929A.929.929,0,0,0,215.187,361.134Z" transform="translate(-187.418 -333.655)"/></g><g transform="translate(22.439 80.354)"><rect class="d" width="9.233" height="57.903" transform="translate(34.509)"/><path class="e" d="M150.893,377.32h1.754v-4.988h-3.593Z" transform="translate(-108.905 -319.417)"/><rect class="d" width="9.233" height="57.903"/><rect class="e" width="36.039" height="54.842" transform="translate(7.703)"/><path class="d" d="M108.15,249.75v12.417H75.214V249.75H108.15m.191-.191H75.023v12.8h33.318v-12.8Z" transform="translate(-65.96 -248.197)"/><path class="d" d="M131.978,282.914V315.85H116.289V282.914h15.688m.191-.191H116.1v33.318h16.071V282.723Z" transform="translate(-89.787 -267.435)"/><path class="d" d="M90.9,282.914V315.85H75.214V282.914H90.9m.191-.191H75.023v33.318H91.094V282.723Z" transform="translate(-65.96 -267.435)"/><path class="e" d="M73.536,377.32H71.783v-4.988h3.593Z" transform="translate(-64.08 -319.417)"/><path class="c" d="M112.485,263.516a.929.929,0,1,0,.928-.928A.929.929,0,0,0,112.485,263.516Z" transform="translate(-87.691 -255.755)"/><path class="c" d="M120.4,319.242a.929.929,0,1,0,.929-.928A.929.929,0,0,0,120.4,319.242Z" transform="translate(-92.284 -288.082)"/><path class="c" d="M104.566,319.242a.929.929,0,1,0,.929-.928A.929.929,0,0,0,104.566,319.242Z" transform="translate(-83.097 -288.082)"/></g><path class="d" d="M96.236,207.869h-3.9a41.138,41.138,0,0,1,.676,5.719c0,2.119-2.963,10.425,1.271,10.425s1.271-8.306,1.271-10.425A41.138,41.138,0,0,1,96.236,207.869Z" transform="translate(-53.374 -143.659)"/><path class="f" d="M66.8,228.148v2.531a5.113,5.113,0,0,0,5.1,5.1h2.531a5.113,5.113,0,0,0,5.1-5.1v-2.531Z" transform="translate(-38.752 -155.422)"/><path class="d" d="M195.667,284.265c0,2.936,3.288,5.338,7.307,5.338H206.6c4.019,0,7.308-2.4,7.308-5.338Z" transform="translate(-113.505 -187.976)"/><g transform="translate(152.84 40.413)"><path class="d" d="M389.441,202.775a38.432,38.432,0,0,0-8.02,9.711,25.07,25.07,0,0,0-3.461,10.575c.01-4.828.026-10.016.042-14.913.559-1.26,1.835-4.164,2.751-6.458,3.056-7.655,4.194-9.538,6.942-16.141,3.665-8.807,7.421-19.257,6.346-18.423-2.191,1.7-10.59,17.428-11.5,19.679a63.009,63.009,0,0,0-4.532,18.834c.017-4.6.035-8.821.052-12.079.056-10.627.237-14.057.325-15.115.34-.537.741-1.164.975-1.5,1.973-2.852,2.734-5.282,4.592-9.536,2.634-6.029,4.9-16.732,4.239-16.192-2.761,2.247-4.939,7.08-7.8,13.238s-2.043,9.7-2.611,14.958c-.12,1.032-.211,4.927-.276,10.325-.742-5.751-2.135-9.54-4.676-12.984a37.178,37.178,0,0,0-8.366-8.591c-2.218-1.494,3.83,8.91,6.722,13.452,2.576,4.044,4.949,7.613,6.286,11.128-.071,7.316-.1,16.579-.1,25.2a50.621,50.621,0,0,0-3.192-11.422c-1.737-3.932-4.409-9.962-6.535-12.008-.511-.491,2.224,11.237,3.979,14.355s3.044,6.058,4.148,7.826c.258.412,1.112,2,1.6,2.917.005,10.527.058,19.816.15,22.978h.455c-.031-.816-.036-6.171-.026-13.259,1.1-3.848,3.6-8.24,5.667-12.246C385.872,212.713,391.642,200.978,389.441,202.775Z" transform="translate(-363.987 -151.196)"/><g transform="translate(4.72 82.094)"><path class="g" d="M392.886,366.389H379.724l-.993-12.9h15.148Z" transform="translate(-377.26 -350.639)"/><path class="f" d="M392.828,351.055h-17.11l-.49-4.353h18.09Z" transform="translate(-375.228 -346.702)"/></g></g><g transform="translate(28.641 8.627)"><rect class="d" width="23.537" height="25.845"/><rect class="f" width="24.312" height="25.845" transform="translate(1.774)"/><rect class="h" width="21.771" height="20.238" transform="translate(24.049 2.037) rotate(90)"/><rect class="f" width="11.217" height="10.427" transform="translate(19.144 7.314) rotate(90)"/></g><g transform="translate(150.318 11.64)"><rect class="d" width="21.864" height="24.009"/><rect class="f" width="22.584" height="24.009" transform="translate(1.648)"/><rect class="h" width="20.225" height="18.8" transform="translate(22.341 1.892) rotate(90)"/><circle class="f" cx="5.865" cy="5.865" r="5.865" transform="translate(7.075 6.139)"/></g><g transform="translate(59.169 24.037)"><rect class="d" width="17.46" height="19.172"/><rect class="f" width="18.035" height="19.172" transform="translate(1.316)"/><rect class="h" width="16.15" height="15.013" transform="translate(17.84 1.511) rotate(90)"/><path class="f" d="M159.846,125.3l-4.106,7.112h8.212Z" transform="translate(-149.513 -119.8)"/></g></g><g transform="translate(129.342 76.339)"><g transform="translate(0 0)"><path class="i" d="M319.78,161.1l-4.165-1.689s-5.5,10.024-7.071,10.53c-2.142.689-6.573,2.6-9.206,2.962a4.709,4.709,0,0,0-.884,2.2c3.532,1.178,11.292-.386,12.953-1.62C315.194,170.67,319.78,161.1,319.78,161.1Z" transform="translate(-293.714 -133.439)"/><g transform="translate(18.388 23.06)"><path class="j" d="M339.923,154.8c.775,2.872-3.432,8.64-3.432,8.64l-5.527-3.1s1.03-2.371,2.292-4.786C335.293,151.657,339.038,151.526,339.923,154.8Z" transform="translate(-330.964 -152.479)"/><path class="k" d="M339.923,154.8c.775,2.872-3.432,8.64-3.432,8.64l-5.527-3.1s1.03-2.371,2.292-4.786C335.293,151.657,339.038,151.526,339.923,154.8Z" transform="translate(-330.964 -152.479)"/></g><path class="l" d="M336.212,166.625l2.171,1.217.38-6.662C337.5,162.151,336.609,165.072,336.212,166.625Z" transform="translate(-315.62 -134.466)"/><g transform="translate(21.148 22.238)"><path class="j" d="M340.108,151.5s-4.291,9.547-1.789,27.326h16.91c.269-2.6-.62-15.259,2.6-27.489a43.109,43.109,0,0,0-5.619-.715,62.167,62.167,0,0,0-7.188,0A32.8,32.8,0,0,0,340.108,151.5Z" transform="translate(-337.536 -150.522)"/><path class="k" d="M340.108,151.5s-4.291,9.547-1.789,27.326h16.91c.269-2.6-.62-15.259,2.6-27.489a43.109,43.109,0,0,0-5.619-.715,62.167,62.167,0,0,0-7.188,0A32.8,32.8,0,0,0,340.108,151.5Z" transform="translate(-337.536 -150.522)"/></g><path class="m" d="M334.323,416.014c-.026.451,6.385.816,14.32.816s14.389-.365,14.415-.816-6.385-.817-14.32-.817S334.349,415.563,334.323,416.014Z" transform="translate(-314.524 -281.82)"/><rect class="i" width="3.225" height="7.178" transform="translate(28.483 124.019) rotate(-21.073)"/><path class="i" d="M387.081,399.34H383.92l-1.16-7.321h3.161Z" transform="translate(-342.622 -268.374)"/><path class="n" d="M378.018,408.582h3.552a.257.257,0,0,1,.257.216l.459,2.81a.5.5,0,0,1-.5.562c-1.239-.021-1.837-.094-3.4-.094-.961,0-2.946.1-4.273.1-1.3,0-1.423-1.312-.873-1.431a8.378,8.378,0,0,0,4.249-1.969A.81.81,0,0,1,378.018,408.582Z" transform="translate(-336.923 -277.983)"/><path class="n" d="M350.687,404.578l3.368-.979a.262.262,0,0,1,.312.131l1.248,2.518a.483.483,0,0,1-.316.668c-1.22.333-2.04.541-3.567.986-1.055.307-2.129.806-3.171,1.138a15.137,15.137,0,0,1-3.3.24c-1.3,0-1.587-1.369-1.031-1.431a5.469,5.469,0,0,0,2.374-.475A10.856,10.856,0,0,0,350,405.03,1.583,1.583,0,0,1,350.687,404.578Z" transform="translate(-320.118 -275.085)"/><path class="i" d="M295.048,189.447l-3.479-1.464-1.432,3.854a14.338,14.338,0,0,0,4.3,0Z" transform="translate(-288.892 -150.014)"/><path class="i" d="M287.264,187.758l-.092,2.564,1.245,1.384,1.432-3.854Z" transform="translate(-287.172 -149.884)"/><g transform="translate(28.482 122.861)"><rect class="o" width="3.226" height="3.7" transform="translate(0 1.162) rotate(-21.105)"/><path class="o" d="M385.922,392.023h-3.163l.6,3.774h3.163Z" transform="translate(-371.104 -391.238)"/></g><path class="l" d="M338.123,189.092c.06.76.134,1.536.225,2.334l12.574-4.082a9.009,9.009,0,0,0,4.837-3.508c.047-1.122.112-2.3.207-3.53.043-.6.095-1.213.151-1.834.06-.647.129-1.307.207-1.972Z" transform="translate(-316.728 -143.354)"/><path class="h" d="M347.308,168.488l-.428-.051c.249-2.095,1.814-3.751,3.466-3.712l-.013.432C348.907,165.116,347.533,166.609,347.308,168.488Z" transform="translate(-321.808 -136.522)"/><path class="h" d="M353.13,177.722h-.071l.013-.432c1.444.053,2.8-1.452,3.025-3.332l.428.051C356.279,176.074,354.764,177.722,353.13,177.722Z" transform="translate(-325.393 -141.879)"/><path class="i" d="M361.538,131.5c-.589,2.313-1.29,6.551.238,8.094,0,0-1.067,2.346-5.365,2.346-3.927,0-1.824-2.346-1.824-2.346,2.615-.616,2.661-2.529,2.317-4.326Z" transform="translate(-325.953 -117.247)"/><path class="o" d="M363.63,135.158l-2.742,2.228a7.248,7.248,0,0,1,.147,1.276c.8.8,2.41-1.224,2.575-2.256A3.455,3.455,0,0,0,363.63,135.158Z" transform="translate(-329.934 -119.371)"/><path class="o" d="M349.4,128.5a2.755,2.755,0,0,0,1.781,1.317c1.008.225,1.515-.7,1.237-1.636-.25-.84-1.076-1.969-2.089-1.776A1.4,1.4,0,0,0,349.4,128.5Z" transform="translate(-323.159 -114.283)"/><path class="n" d="M351.668,113.626c-1.57.72-2.124,6.959-.149,7.881S354.643,112.263,351.668,113.626Z" transform="translate(-323.764 -106.807)"/><path class="i" d="M360.446,116.854c-.376,3.132-.438,4.975-2.113,6.582a4.036,4.036,0,0,1-6.867-2.142c-.508-2.814.193-7.463,3.331-8.709A4.045,4.045,0,0,1,360.446,116.854Z" transform="translate(-324.381 -106.084)"/><path class="n" d="M351.988,106c2.323-.594,4.032-1,3.422.94-.813,2.583-1.788,5.086-.48,5.2.8.071,4.323-1.426,3.875-2.939-.39-1.319,1.25-1.674,1.552-2.346,1.089-2.421-2.022-2.107-1.468-3.572.539-1.426-2.506-3.838-4.194-2.66-2.731,1.907-7.426,1.88-4.958-1.248,1.767-2.24-1.386-1.78-1.386-1.78s1.9,1.13-1.3,2.877C343.65,102.329,346.761,107.34,351.988,106Z" transform="translate(-321.082 -97.561)"/><path class="i" d="M371.627,128.5a3.225,3.225,0,0,1-1.936,1.317c-1.034.225-1.432-.7-1.045-1.636.349-.84,1.307-1.969,2.3-1.776A1.289,1.289,0,0,1,371.627,128.5Z" transform="translate(-334.35 -114.283)"/><path class="p" d="M335.168,217.94s-2.839,25.4-3.06,35.044c-.23,10.028,9.619,41.316,9.619,41.316l5.043-2.118S340.9,263.6,341.715,253.75c.889-10.737,4.569-35.81,4.569-35.81Z" transform="translate(-313.237 -167.392)"/><path class="l" d="M354.593,233.145c-2.261,4.695-.738,13.977.487,19.478.466-3.884,1.018-8.1,1.545-12C356.574,234.625,356.108,230,354.593,233.145Z" transform="translate(-325.608 -175.622)"/><path class="q" d="M358.02,390.826c.024-.01.6,1.607.6,1.607l-5.813,2.441-.916-1.7Z" transform="translate(-324.714 -267.682)"/><path class="p" d="M353.686,217.94s2.171,24.161,3.61,33.212c1.576,9.912,7.766,42.93,7.766,42.93h5.79s-3.469-32.217-4.125-42.031c-.711-10.651-2.131-34.111-2.131-34.111Z" transform="translate(-325.756 -167.392)"/><path class="q" d="M385.627,395.345c.025,0,.194,1.618.194,1.618h-6.365L379,395.106Z" transform="translate(-340.442 -270.165)"/><path class="l" d="M381.569,295.386a.054.054,0,0,1-.053-.048c-.031-.293-3.161-29.38-3.749-38.2-.639-9.568-1.923-30.784-1.936-31a.054.054,0,0,1,.051-.057h0a.054.054,0,0,1,.054.051c.013.213,1.3,21.429,1.936,31,.588,8.815,3.717,37.9,3.748,38.193a.053.053,0,0,1-.048.059Z" transform="translate(-338.602 -172.118)"/><path class="n" d="M360.789,124.655c-.015.255-.162.461-.329.461s-.29-.207-.275-.461.162-.462.329-.462S360.8,124.4,360.789,124.655Z" transform="translate(-329.526 -113.01)"/><path class="n" d="M353.924,124.655c-.015.255-.162.461-.329.461s-.29-.207-.275-.461.163-.462.329-.462S353.939,124.4,353.924,124.655Z" transform="translate(-325.544 -113.01)"/><path class="r" d="M355.065,125.595a9.837,9.837,0,0,1-1.346,2.181,1.435,1.435,0,0,0,1.2.228Z" transform="translate(-325.776 -113.823)"/><path class="n" d="M357,132.536a.07.07,0,0,1-.071-.075.081.081,0,0,1,.079-.075,2.16,2.16,0,0,0,1.693-.79.077.077,0,0,1,.1-.021.073.073,0,0,1,.016.1A2.289,2.289,0,0,1,357,132.536Z" transform="translate(-327.639 -117.285)"/><path class="n" d="M360.9,122.753a.149.149,0,0,1-.132-.011,1.182,1.182,0,0,0-1.069-.112.144.144,0,0,1-.2-.07.157.157,0,0,1,.082-.2,1.475,1.475,0,0,1,1.354.126.146.146,0,0,1,.038.206A.164.164,0,0,1,360.9,122.753Z" transform="translate(-329.123 -111.884)"/><path class="n" d="M351.966,120.385a.135.135,0,0,1-.057-.032.149.149,0,0,1,0-.211,1.562,1.562,0,0,1,1.294-.521.139.139,0,0,1,.116.17.16.16,0,0,1-.177.126h0a1.249,1.249,0,0,0-1.021.423A.156.156,0,0,1,351.966,120.385Z" transform="translate(-324.7 -110.353)"/><path class="i" d="M362.51,160.711l-4.368-1.163s-4.284,10.543-5.8,11.231a90.234,90.234,0,0,0-9.487,5.739,4.35,4.35,0,0,0,.252,2.294c3.767-.684,11.014-3.471,12.525-4.886C359.082,170.7,362.51,160.711,362.51,160.711Z" transform="translate(-319.445 -133.519)"/><path class="q" d="M381.455,408.791a.92.92,0,0,1-.6-.161.427.427,0,0,1-.131-.4.256.256,0,0,1,.141-.212c.357-.179,1.343.447,1.454.519a.073.073,0,0,1,.03.076.081.081,0,0,1-.06.06A3.822,3.822,0,0,1,381.455,408.791Zm-.431-.654a.22.22,0,0,0-.1.019.1.1,0,0,0-.052.088.29.29,0,0,0,.085.272,1.5,1.5,0,0,0,1.119.057A2.848,2.848,0,0,0,381.024,408.136Z" transform="translate(-341.438 -277.639)"/><path class="q" d="M383.22,407.655a.075.075,0,0,1-.035-.009c-.317-.178-.909-.87-.821-1.223a.262.262,0,0,1,.25-.2.391.391,0,0,1,.313.1c.35.3.372,1.213.372,1.251a.08.08,0,0,1-.038.068A.077.077,0,0,1,383.22,407.655Zm-.563-1.282-.034,0c-.1.012-.109.057-.114.076-.052.208.32.732.631.979a1.706,1.706,0,0,0-.315-.991A.249.249,0,0,0,382.657,406.373Z" transform="translate(-342.387 -276.614)"/><path class="q" d="M354.538,407.72a1.2,1.2,0,0,1-.792-.005.39.39,0,0,1-.2-.321.25.25,0,0,1,.086-.223c.338-.3,1.708.023,1.863.06a.069.069,0,0,1,.053.065.081.081,0,0,1-.047.076A5.719,5.719,0,0,1,354.538,407.72Zm-.683-.5a.315.315,0,0,0-.133.06.1.1,0,0,0-.032.089.255.255,0,0,0,.133.212,2.078,2.078,0,0,0,1.407-.254A4.066,4.066,0,0,0,353.855,407.221Z" transform="translate(-325.672 -277.091)"/><path class="q" d="M356.348,406.149a.079.079,0,0,1-.031,0c-.407-.075-1.276-.558-1.284-.92,0-.084.038-.2.237-.27a.536.536,0,0,1,.432.025c.456.225.695,1.031.7,1.066a.078.078,0,0,1-.018.073A.08.08,0,0,1,356.348,406.149Zm-.993-1.061-.044.013c-.13.046-.129.1-.129.117.005.217.609.616,1.035.75a1.621,1.621,0,0,0-.588-.847A.391.391,0,0,0,355.355,405.089Z" transform="translate(-326.538 -275.862)"/><path class="i" d="M337.027,199.373l-4.379,2.016-.508,1.235,1.619,1.089s3.02-.329,3.88-2.269Z" transform="translate(-313.258 -156.622)"/><path class="n" d="M343.1,201.6a6.042,6.042,0,0,0-.814-2.376l.69-.518a6.659,6.659,0,0,1,.975,2.75Z" transform="translate(-319.142 -156.234)"/><path class="n" d="M343.821,200.241a.841.841,0,1,1-1.024-.326A.767.767,0,0,1,343.821,200.241Z" transform="translate(-319.12 -156.895)"/><path class="i" d="M326.3,205.8l.582.589,3.929-1.681-1.552-.536Z" transform="translate(-309.872 -159.406)"/><path class="l" d="M358.02,390.826c.024-.01.6,1.607.6,1.607l-5.813,2.441-.916-1.7Z" transform="translate(-324.714 -267.682)"/><path class="l" d="M385.627,395.345c.025,0,.194,1.618.194,1.618h-6.365L379,395.106Z" transform="translate(-340.442 -270.165)"/><g transform="translate(34.626 22.994)"><path class="j" d="M379.211,155.311c1.156,3.723-3.342,8.81-3.342,8.81l-6.235-2.545a63.958,63.958,0,0,1,2.55-6.329C374.084,151.127,378.045,151.553,379.211,155.311Z" transform="translate(-369.634 -152.322)"/><path class="k" d="M379.211,155.311c1.156,3.723-3.342,8.81-3.342,8.81l-6.235-2.545a63.958,63.958,0,0,1,2.55-6.329C374.084,151.127,378.045,151.553,379.211,155.311Z" transform="translate(-369.634 -152.322)"/></g></g></g><g transform="translate(88.364 65.005)"><g transform="translate(0 0)"><rect class="q" width="2.682" height="0.431" transform="translate(20.535)"/><rect class="q" width="7.212" height="0.431" transform="translate(57.629 24.322) rotate(-87.421)"/><path class="j" d="M250.79,75.194H201.242l-4.612,103.179h49.548Z" transform="translate(-193.671 -73.252)"/><path class="s" d="M247.268,78.566H197.719l-4.612,103.179h49.548Z" transform="translate(-191.628 -75.208)"/><path class="t" d="M243.745,81.938H194.2l-4.612,103.179h49.548Z" transform="translate(-189.584 -77.164)"/><path class="h" d="M246.223,189.106H203.931l-.353,7.9H245.87Z" transform="translate(-197.702 -139.332)"/><path class="j" d="M227.817,175.39h-23l-.158,3.533h23Z" transform="translate(-198.327 -131.375)"/><path class="h" d="M243.954,239.849H201.662l-.353,7.9H243.6Z" transform="translate(-196.386 -168.768)"/><path class="u" d="M244.525,284.036h-28.44l-.423,9.464H244.1Z" transform="translate(-204.712 -194.4)"/><path class="h" d="M240.51,296.853H212.07a.052.052,0,0,1-.036-.016.049.049,0,0,1-.013-.037l.423-9.464a.05.05,0,0,1,.05-.048h28.439a.05.05,0,0,1,.036.016.048.048,0,0,1,.014.037l-.423,9.464A.05.05,0,0,1,240.51,296.853Zm-28.387-.1h28.339l.419-9.364h-28.34Z" transform="translate(-202.6 -196.287)"/><path class="j" d="M221.531,226.134H202.545l-.158,3.533h18.986Z" transform="translate(-197.011 -160.811)"/><path class="h" d="M253.374,113.518a11.117,11.117,0,0,1-2.337,6.321,11.294,11.294,0,0,1-8.9,4.436,10.2,10.2,0,0,1-10.272-10.757A11.358,11.358,0,0,1,243.1,102.76,10.2,10.2,0,0,1,253.374,113.518Z" transform="translate(-214.104 -89.243)"/><path class="v" d="M277.615,104.174a2.955,2.955,0,0,1-.621,1.68,3,3,0,0,1-2.365,1.179,2.711,2.711,0,0,1-2.73-2.858,3.018,3.018,0,0,1,2.985-2.858A2.709,2.709,0,0,1,277.615,104.174Z" transform="translate(-237.333 -88.405)"/><path class="n" d="M211.767,196.761a1.336,1.336,0,0,1-1.322,1.265,1.2,1.2,0,0,1-1.209-1.265,1.336,1.336,0,0,1,1.322-1.265A1.2,1.2,0,0,1,211.767,196.761Z" transform="translate(-200.984 -143.039)"/><path class="n" d="M225.255,196.761a1.336,1.336,0,0,1-1.322,1.265,1.2,1.2,0,0,1-1.208-1.265,1.336,1.336,0,0,1,1.322-1.265A1.2,1.2,0,0,1,225.255,196.761Z" transform="translate(-208.808 -143.039)"/><path class="n" d="M238.742,196.761a1.336,1.336,0,0,1-1.322,1.265,1.2,1.2,0,0,1-1.209-1.265,1.336,1.336,0,0,1,1.322-1.265A1.2,1.2,0,0,1,238.742,196.761Z" transform="translate(-216.632 -143.039)"/><path class="n" d="M209.5,247.5a1.336,1.336,0,0,1-1.322,1.266,1.2,1.2,0,0,1-1.209-1.266,1.336,1.336,0,0,1,1.322-1.265A1.2,1.2,0,0,1,209.5,247.5Z" transform="translate(-199.668 -172.474)"/><path class="n" d="M222.986,247.5a1.336,1.336,0,0,1-1.322,1.266,1.2,1.2,0,0,1-1.209-1.266,1.336,1.336,0,0,1,1.322-1.265A1.2,1.2,0,0,1,222.986,247.5Z" transform="translate(-207.492 -172.474)"/><path class="n" d="M236.473,247.5a1.336,1.336,0,0,1-1.322,1.266,1.2,1.2,0,0,1-1.209-1.266,1.336,1.336,0,0,1,1.322-1.265A1.2,1.2,0,0,1,236.473,247.5Z" transform="translate(-215.315 -172.474)"/><path class="n" d="M249.961,247.5a1.336,1.336,0,0,1-1.322,1.266,1.2,1.2,0,0,1-1.208-1.266,1.336,1.336,0,0,1,1.322-1.265A1.2,1.2,0,0,1,249.961,247.5Z" transform="translate(-223.14 -172.474)"/><path class="n" d="M263.448,247.5a1.336,1.336,0,0,1-1.322,1.266,1.2,1.2,0,0,1-1.209-1.266,1.336,1.336,0,0,1,1.322-1.265A1.2,1.2,0,0,1,263.448,247.5Z" transform="translate(-230.963 -172.474)"/><g transform="translate(19.531 14.526)"><ellipse class="q" cx="4.449" cy="4.255" rx="4.449" ry="4.255" transform="matrix(0.715, -0.699, 0.699, 0.715, 2.989, 6.221)"/><path class="q" d="M253.5,138.8a11.294,11.294,0,0,1-8.9,4.436,10.2,10.2,0,0,1-8.5-4.436,12.632,12.632,0,0,1,8.849-3.353A11.583,11.583,0,0,1,253.5,138.8Z" transform="translate(-236.097 -122.732)"/><ellipse class="j" cx="4.449" cy="4.255" rx="4.449" ry="4.255" transform="matrix(0.715, -0.699, 0.699, 0.715, 2.989, 6.221)"/><path class="j" d="M253.5,138.8a11.294,11.294,0,0,1-8.9,4.436,10.2,10.2,0,0,1-8.5-4.436,12.632,12.632,0,0,1,8.849-3.353A11.583,11.583,0,0,1,253.5,138.8Z" transform="translate(-236.097 -122.732)"/></g></g></g><g transform="translate(54.424 101.66)"><g transform="translate(2.227)"><path class="i" d="M120.923,210.387c-.4.872-.816,1.832-1.184,2.768s-.74,1.891-1.062,2.85a36.012,36.012,0,0,0-1.5,5.795l-.1.619a.943.943,0,0,0,.031.313,3.219,3.219,0,0,0,.461.974,12.222,12.222,0,0,0,1.866,2.092,28.476,28.476,0,0,0,2.318,1.938c.806.62,1.656,1.227,2.487,1.795L123.461,231a29.786,29.786,0,0,1-5.661-3.229,13.529,13.529,0,0,1-2.536-2.384,5.963,5.963,0,0,1-1-1.794,4.017,4.017,0,0,1-.2-1.237c0-.1.008-.249.016-.319l.021-.209.042-.417a32.677,32.677,0,0,1,1.371-6.441c.328-1.036.677-2.062,1.076-3.069s.809-1.986,1.319-3.006Z" transform="translate(-114.058 -187.468)"/><path class="i" d="M135.83,255.352l2.967-1.505-.767,3.261s-2.037.569-2.985-.42Z" transform="translate(-126.233 -213.543)"/><path class="i" d="M145.638,254.383l-.789,2.7-2.694.03.766-3.261Z" transform="translate(-130.357 -213.543)"/><path class="r" d="M160.432,175a8.375,8.375,0,0,0,.666,1.66.681.681,0,0,1-.666.213Z" transform="translate(-140.959 -167.805)"/><ellipse class="n" cx="0.315" cy="0.481" rx="0.315" ry="0.481" transform="translate(19.071 6.259)"/><path class="n" d="M160.04,172.549l.638-.184S160.351,172.863,160.04,172.549Z" transform="translate(-140.732 -166.276)"/><path class="i" d="M140.065,182.336c.383,1.955.765,5.536-.6,6.841,0,0,.535,1.983,4.167,1.983,3.994,0,1.909-1.983,1.909-1.983-2.18-.521-2.124-2.138-1.744-3.657Z" transform="translate(-128.795 -172.06)"/><path class="i" d="M138.361,165.12c.2,3.264.215,4.649,1.864,6.324,2.479,2.519,6.443,1.56,7.222-1.7.7-2.932.255-7.776-2.939-9.075A4.459,4.459,0,0,0,138.361,165.12Z" transform="translate(-128.151 -159.293)"/><path class="n" d="M134.37,162.738c-1.636.6-3.819.153-2.963,5.2.907,5.348-.489,7.107-.489,7.107a33.336,33.336,0,0,0,12.552-.079s-1.936-3.386-1.393-5.856c.693-3.151.144-4.315.144-4.315S136.671,161.9,134.37,162.738Z" transform="translate(-123.838 -160.603)"/><path class="i" d="M155.64,174.531a3.292,3.292,0,0,0,.514,1.751c.443.681.967.4,1.1-.3a2.51,2.51,0,0,0-.536-2.19C156.159,173.36,155.648,173.792,155.64,174.531Z" transform="translate(-138.179 -167.003)"/><path class="n" d="M135.669,160.57c-.472-1.321,1.772-3.352,6.515-2.507s4.952,4.791,4.952,4.791l-.96-1.139.043,1.2-4.875.937Z" transform="translate(-126.558 -157.863)"/><g transform="translate(9.503 15.924)"><path class="q" d="M136.7,197.2h0a.739.739,0,0,1,.609-.85,29.025,29.025,0,0,1,6.525-.5c1.255.174,1.587.907,1.641,1.507a.741.741,0,0,1-.774.8l-7.3-.33A.742.742,0,0,1,136.7,197.2Z" transform="translate(-136.689 -195.786)"/><path class="w" d="M136.7,197.2h0a.739.739,0,0,1,.609-.85,29.025,29.025,0,0,1,6.525-.5c1.255.174,1.587.907,1.641,1.507a.741.741,0,0,1-.774.8l-7.3-.33A.742.742,0,0,1,136.7,197.2Z" transform="translate(-136.689 -195.786)"/></g><path class="i" d="M146.76,365.377l2.706,1.879L154,361.115l-2.706-1.879Z" transform="translate(-133.029 -274.679)"/><path class="i" d="M131.715,364.593l2.863,1.63,4.011-6.5-2.863-1.63Z" transform="translate(-124.301 -274.018)"/><g transform="translate(9.355 84.081)"><path class="o" d="M157.026,361.117l-2.335,3.166-2.707-1.88,2.335-3.166Z" transform="translate(-145.413 -358.76)"/><path class="o" d="M138.4,358.1l2.864,1.631-2.069,3.347-2.864-1.631Z" transform="translate(-136.336 -358.101)"/></g><g transform="translate(5.439 37.844)"><path class="q" d="M137.586,247.988s10.573,13.326,8.59,26.069c-1.6,10.293-10.881,24.23-10.881,24.23l-4.363-2.168a142.522,142.522,0,0,0,7.853-19.081,14.1,14.1,0,0,0-1.691-12.218c-5.356-7.823-13.937-3.169-8.165-16.831Z" transform="translate(-127.01 -247.988)"/><path class="x" d="M137.586,247.988s10.573,13.326,8.59,26.069c-1.6,10.293-10.881,24.23-10.881,24.23l-4.363-2.168a142.522,142.522,0,0,0,7.853-19.081,14.1,14.1,0,0,0-1.691-12.218c-5.356-7.823-13.937-3.169-8.165-16.831Z" transform="translate(-127.01 -247.988)"/></g><path class="y" d="M162.427,266.27l-1.536-1.527c0,.12,2.977,18.5,3.814,23.663a31.491,31.491,0,0,0,1.126-4.63C166.8,277.537,164.761,271.155,162.427,266.27Z" transform="translate(-141.226 -219.864)"/><g transform="translate(8.352 37.844)"><path class="q" d="M146.334,247.988s12.731,16.746,13.089,26.788c.3,8.414-13.868,24.667-13.868,24.667l-4.113-2.661s8.284-11.555,10.37-21c-.8-9.349-17.864-27.795-17.864-27.795Z" transform="translate(-133.949 -247.988)"/><path class="x" d="M146.334,247.988s12.731,16.746,13.089,26.788c.3,8.414-13.868,24.667-13.868,24.667l-4.113-2.661s8.284-11.555,10.37-21c-.8-9.349-17.864-27.795-17.864-27.795Z" transform="translate(-133.949 -247.988)"/></g><path class="j" d="M122.249,200.331c-1.364.322-2.666,5.271-2.666,5.271l5.317,3.549s1.772-3.912,1.153-5.625C125.409,201.741,123.971,199.925,122.249,200.331Z" transform="translate(-117.263 -182.465)"/><path class="l" d="M127.9,207.994l-.371,4.312,1.979,1.325a17.717,17.717,0,0,0,1.2-3.836Z" transform="translate(-121.871 -186.944)"/><path class="j" d="M143.258,199.319s1.57.553-1.574,19.883H128.3c.225-5.445.231-8.8-2.372-19.978a39.519,39.519,0,0,1,5.681-.749,42.6,42.6,0,0,1,6.076,0C140.3,198.714,143.258,199.319,143.258,199.319Z" transform="translate(-120.947 -181.359)"/><path class="i" d="M166.005,206.074c.3.838.624,1.743.958,2.614s.653,1.764,1,2.642l1.03,2.638.26.659.131.33.065.165c.011.03.009.027.005.024a.922.922,0,0,0-.294-.262,1.171,1.171,0,0,0-.548-.16,1.085,1.085,0,0,0-.467.084c-.189.091-.192.129-.188.123a.544.544,0,0,0,.094-.1,6.006,6.006,0,0,0,.6-.978c.2-.385.386-.8.573-1.214.372-.837.71-1.71,1.054-2.585s.661-1.767.978-2.66l.956-2.68,1.618.408c-.32,1.917-.734,3.794-1.227,5.678-.241.944-.52,1.88-.839,2.825-.159.473-.337.945-.54,1.426a8.768,8.768,0,0,1-.8,1.519,3.73,3.73,0,0,1-.366.453,2.342,2.342,0,0,1-.765.54,1.9,1.9,0,0,1-.815.152,1.873,1.873,0,0,1-.886-.267,2.221,2.221,0,0,1-.763-.793c-.064-.106-.118-.217-.156-.3l-.08-.163-.159-.326-.318-.652c-.414-.874-.821-1.752-1.206-2.64s-.753-1.785-1.113-2.688c-.345-.916-.686-1.8-.989-2.777Z" transform="translate(-142.335 -185.043)"/><path class="j" d="M161.779,200.463c1.608.383,3.415,5.135,3.415,5.135l-4.779,4.073s-3.1-5.181-2.471-6.892C158.6,201,159.679,199.962,161.779,200.463Z" transform="translate(-139.468 -182.502)"/><path class="i" d="M185.9,199.251l1.677-1.4,1.167,1.818-.86,1.518s-1.369,1.253-2.581.616h0A2.178,2.178,0,0,1,185.9,199.251Z" transform="translate(-155.278 -181.058)"/><path class="i" d="M194.015,197.852l-.126.457-2.657.446-.262-.908Z" transform="translate(-158.674 -181.058)"/><path class="q" d="M155.778,364.706l-4.795-3.1.858-1.493,5.389,3.313Z" transform="translate(-135.478 -275.186)"/><path class="n" d="M141.288,375.856a2.875,2.875,0,0,1-1.187-.411.077.077,0,0,1-.039-.076.078.078,0,0,1,.054-.067c.129-.041,1.267-.389,1.589-.119a.266.266,0,0,1,.089.253.441.441,0,0,1-.237.364A.594.594,0,0,1,141.288,375.856Zm-.944-.458c.522.265.941.363,1.143.263a.293.293,0,0,0,.152-.245.11.11,0,0,0-.036-.113C141.434,375.16,140.8,375.271,140.344,375.4Z" transform="translate(-129.142 -283.87)"/><path class="n" d="M140.139,374.172a.078.078,0,0,1-.075-.1c.011-.039.273-.951.7-1.158a.406.406,0,0,1,.346-.011.272.272,0,0,1,.193.281c-.029.378-.8.9-1.15.985Zm.814-1.145a.271.271,0,0,0-.117.029c-.257.124-.473.616-.576.915.37-.156.874-.568.892-.8,0-.037-.005-.086-.1-.125A.256.256,0,0,0,140.953,373.027Z" transform="translate(-129.142 -282.588)"/><path class="n" d="M155.175,379.708c-.473,0-1.132-.608-1.493-.981a.079.079,0,0,1-.014-.089.085.085,0,0,1,.079-.043c.166.022,1.627.219,1.833.632a.253.253,0,0,1-.01.246.433.433,0,0,1-.333.232A.524.524,0,0,1,155.175,379.708Zm-1.216-.925c.531.516.995.8,1.261.766a.281.281,0,0,0,.216-.155.1.1,0,0,0,.005-.1C155.329,379.072,154.55,378.879,153.959,378.784Z" transform="translate(-137.031 -285.908)"/><path class="n" d="M154.005,377.756a1.584,1.584,0,0,1-.281-.021.078.078,0,0,1-.046-.126c.024-.029.592-.714,1.129-.761a.567.567,0,0,1,.432.136c.165.142.154.267.115.348C155.221,377.611,154.5,377.756,154.005,377.756Zm-.108-.158c.469.026,1.219-.13,1.317-.334.008-.017.033-.069-.076-.162a.409.409,0,0,0-.317-.1A1.8,1.8,0,0,0,153.9,377.6Z" transform="translate(-137.031 -284.893)"/><path class="q" d="M133.449,373.512l-3.561-1.007a.261.261,0,0,0-.314.145l-1.2,2.7a.529.529,0,0,0,.349.708c1.248.33,1.867.426,3.433.868.964.273,2.343.771,3.674,1.147,1.3.368,1.773-.92,1.253-1.2a6.447,6.447,0,0,1-3.156-3.024A.859.859,0,0,0,133.449,373.512Z" transform="translate(-122.338 -282.37)"/><path class="q" d="M146.3,374.759l-3.04-2.111a.261.261,0,0,0-.344.035l-2.016,2.165a.529.529,0,0,0,.1.782c1.072.718,1.626,1.01,2.963,1.938.823.571,2.464,1.838,3.6,2.627,1.111.771,1.976-.293,1.574-.723a8.931,8.931,0,0,1-2.5-4.233A.861.861,0,0,0,146.3,374.759Z" transform="translate(-129.555 -282.43)"/><path class="q" d="M140.5,362.622l-5.482-2.725.568-1.484,5.852,2.869Z" transform="translate(-126.217 -274.201)"/><g transform="translate(6.683 36.958)"><path class="q" d="M130.448,245.979l-.464,1.2c-.047.093.063.188.218.188h13.892c.121,0,.22-.059.228-.135l.121-1.2c.008-.083-.1-.153-.228-.153H130.666A.244.244,0,0,0,130.448,245.979Z" transform="translate(-129.973 -245.879)"/><path class="z" d="M130.448,245.979l-.464,1.2c-.047.093.063.188.218.188h13.892c.121,0,.22-.059.228-.135l.121-1.2c.008-.083-.1-.153-.228-.153H130.666A.244.244,0,0,0,130.448,245.979Z" transform="translate(-129.973 -245.879)"/></g><g transform="translate(8.857 36.852)"><path class="q" d="M135.637,247.348h-.363c-.072,0-.127-.037-.122-.083l.17-1.556c.005-.046.068-.083.141-.083h.363c.072,0,.127.037.122.083l-.17,1.556C135.772,247.311,135.709,247.348,135.637,247.348Z" transform="translate(-135.151 -245.626)"/><path class="q" d="M156.043,247.348h-.363c-.072,0-.127-.037-.123-.083l.17-1.556c.005-.046.068-.083.14-.083h.363c.072,0,.128.037.123.083l-.17,1.556C156.179,247.311,156.115,247.348,156.043,247.348Z" transform="translate(-146.989 -245.626)"/></g></g><g transform="translate(0 48.898)"><g transform="translate(0 4.179)"><ellipse class="aa" cx="11.25" cy="0.816" rx="11.25" ry="0.816" transform="translate(0 54.979)"/><path class="d" d="M132.358,338.911a27.408,27.408,0,0,1-5.536-2.114c-.038-.022-.078-.038-.116-.057v-9h4a1.2,1.2,0,1,0,0-2.4h-4V284.267h-2.4v41.077h-4a1.2,1.2,0,1,0,0,2.4h4v9c-.039.02-.078.036-.116.057a27.408,27.408,0,0,1-5.536,2.114.587.587,0,0,0,.165,1.151h13.373A.587.587,0,0,0,132.358,338.911Z" transform="translate(-114.253 -284.267)"/></g><g transform="translate(1.612)"><rect class="ab" width="19.284" height="8.79" rx="4.395"/><g transform="translate(2.038 8.79)"><path class="ab" d="M117.448,295.247v.764c0,.63.685,1.145,1.523,1.145h12.162c.838,0,1.523-.515,1.523-1.145v-.764Z" transform="translate(-117.448 -295.247)"/><path class="ac" d="M117.448,295.247v.764c0,.63.685,1.145,1.523,1.145h12.162c.838,0,1.523-.515,1.523-1.145v-.764Z" transform="translate(-117.448 -295.247)"/></g></g></g></g><circle class="ad" cx="4.728" cy="4.728" r="4.728" transform="translate(9.367 175.844) rotate(-45)"/><circle class="v" cx="6.2" cy="6.2" r="6.2" transform="translate(54.424 52.247)"/></g></g><circle class="v" cx="4.728" cy="4.728" r="4.728" transform="matrix(0.23, -0.973, 0.973, 0.23, 327.56, 291.592)"/><circle class="ae" cx="4.384" cy="4.384" r="4.384" transform="translate(62.203 332.084)"/><circle class="ad" cx="6.63" cy="6.63" r="6.63" transform="translate(337.599 401.755) rotate(-45)"/></g></svg>