<svg xmlns="http://www.w3.org/2000/svg" width="283.794" height="401.974" viewBox="0 0 283.794 401.974"><defs><style>.a{fill:#e8c9d1;}.b{fill:#fff;}.c{fill:#deccc5;}.d{fill:#7883b9;}.e{fill:#c5d2de;}.f{fill:#af85c9;}.g{fill:#debd7f;}.h{fill:#292929;}.i{fill:#4a4a4a;}.j{fill:#ffb690;}.k{fill:#2f4563;}.l{fill:#1e2d40;}.m{fill:#3c4145;}.n{fill:#eea987;}.o{fill:#ffccb1;}.p{fill:#ff1d1d;}.q{fill:#23344a;}.r{fill:#ffa474;}.s{fill:#504b4b;}.t{fill:#ffb755;}.u{fill:#581a1a;}.v{fill:#330606;}.w{fill:#53e55e;}.x{fill:#69e553;}.y{fill:#eea886;}.z{fill:#46c246;}.aa{fill:#4bc246;}.ab{fill:#46c250;}.ac{fill:#e55353;}.ad{fill:#cfbeb8;}.ae{fill:#635b59;}.af{fill:#53e559;}.ag{fill:#100e0b;}</style></defs><g transform="translate(-73.906 -105.151)"><g transform="translate(105.019 337.774)"><path class="a" d="M27.778,0H160.641a0,0,0,0,1,0,0V55.556a0,0,0,0,1,0,0H27.778A27.778,27.778,0,0,1,0,27.778v0A27.778,27.778,0,0,1,27.778,0Z" transform="translate(0)"/><path class="a" d="M3004.224,1420.554v44.121h2.625v5.718H2897.828a10.422,10.422,0,0,1-10.423-10.422v-34.712a10.422,10.422,0,0,1,10.423-10.422h109.021v5.718Z" transform="translate(-2817.87 -1414.834)"/><path class="b" d="M22.06,0h86.746a0,0,0,0,1,0,0V44.12a0,0,0,0,1,0,0H22.06A22.06,22.06,0,0,1,0,22.06v0A22.06,22.06,0,0,1,22.06,0Z" transform="translate(77.545 5.718)"/><rect class="c" width="42.396" height="1.092" transform="translate(126.496 27.557)"/><rect class="c" width="45.272" height="1.092" transform="translate(106.621 30.876)"/></g><g transform="translate(73.906 295.049)"><path class="d" d="M21.445,0h139.2a0,0,0,0,1,0,0V42.891a0,0,0,0,1,0,0H21.446A21.446,21.446,0,0,1,0,21.445v0A21.445,21.445,0,0,1,21.445,0Z" transform="translate(188.979 42.891) rotate(180)"/><path class="d" d="M2581.03,1288.078v34.062H2578.4v4.415h108.62a10.824,10.824,0,0,0,10.824-10.824v-21.243a10.824,10.824,0,0,0-10.824-10.825H2578.4v4.415Z" transform="translate(-2578.404 -1283.661)"/><path class="b" d="M17.031,0h93.758a0,0,0,0,1,0,0V34.062a0,0,0,0,1,0,0H17.031A17.031,17.031,0,0,1,0,17.031v0A17.031,17.031,0,0,1,17.031,0Z" transform="translate(113.418 38.477) rotate(180)"/><rect class="e" width="42.396" height="0.843" transform="translate(62.483 22.118) rotate(180)"/><rect class="e" width="45.272" height="0.843" transform="translate(82.358 24.68) rotate(180)"/></g><g transform="translate(124.499 265.335)"><path class="f" d="M14.857,0H179.616a0,0,0,0,1,0,0V29.713a0,0,0,0,1,0,0H14.856A14.856,14.856,0,0,1,0,14.857v0A14.857,14.857,0,0,1,14.857,0Z" transform="translate(0 0)"/><path class="f" d="M3122.284,1195.5v23.6h2.625v3.059H3011.983a6.516,6.516,0,0,1-6.516-6.516v-16.681a6.515,6.515,0,0,1,6.516-6.516H3124.91v3.058Z" transform="translate(-2916.957 -1192.438)"/><path class="b" d="M11.8,0h99.769a0,0,0,0,1,0,0V23.6a0,0,0,0,1,0,0H11.8A11.8,11.8,0,0,1,0,11.8v0A11.8,11.8,0,0,1,11.8,0Z" transform="translate(93.759 3.058)"/><rect class="c" width="42.396" height="0.843" transform="translate(145.472 8.096)"/><rect class="c" width="45.272" height="0.584" transform="translate(125.596 16.513)"/></g><g transform="translate(109.701 228.939)"><path class="g" d="M18.2,0H130.663a0,0,0,0,1,0,0V36.4a0,0,0,0,1,0,0H18.2A18.2,18.2,0,0,1,0,18.2v0A18.2,18.2,0,0,1,18.2,0Z" transform="translate(0 0)"/><path class="g" d="M2970.954,1104.961v28.9h1.91v3.746H2892.5c-3.6,0-6.525-3.579-6.525-7.994v-20.408c0-4.415,2.92-7.994,6.525-7.994h80.365v3.746Z" transform="translate(-2821.587 -1101.214)"/><path class="b" d="M15.14,0H81.16a0,0,0,0,1,0,0V30.279a0,0,0,0,1,0,0H15.14A15.14,15.14,0,0,1,0,15.14v0A15.14,15.14,0,0,1,15.14,0Z" transform="translate(68.205 3.058)"/><rect class="e" width="30.841" height="0.843" transform="translate(105.824 9.97)"/><rect class="e" width="32.934" height="0.584" transform="translate(91.366 20.302)"/></g><g transform="translate(339.955 267.104)"><rect class="h" width="21.855" height="0.88" transform="translate(0 21.855) rotate(-89.739)"/></g><path class="h" d="M2959.826,639.164v0l.014,0,.015,0v0c2.071.107,1.783,10.768,1.783,10.768l-1.832-.008h-.027l-1.833-.008S2957.754,639.252,2959.826,639.164Z" transform="translate(-2619.442 -350.895)"/><path class="i" d="M2451.612,264.892l-20.13-11.929,42.239-11.443,46.659,33.8-25.446,5.251Z" transform="translate(-2162.68 -5.899)"/><path d="M2578.542,404.93s20.117-.146,41.737,14.043l4.208-7.4s-14.488-18.747-45.34-14.448Z" transform="translate(-2290.271 -140.346)"/><g transform="translate(81.199 274.274)"><path class="j" d="M2802.821,1442.39s-5.9.355-7.555,1.276-12.812-2.6-13.019-3.409a1.832,1.832,0,0,1,0-1.212h21.906Z" transform="translate(-2753.461 -1360.53)"/><g transform="translate(42.007 54.749)"><path class="j" d="M2853.166,1373.788s1.881,14.794,0,16.734c-7.193,7.407-33.849,6.82-33.849,6.82l.011,3.012s40.519,5.054,44.283-2.805c4.523-9.443,2.768-24.844,2.768-24.844Z" transform="translate(-2819.317 -1372.705)"/></g><g transform="translate(86.822 204.455)"><path class="k" d="M2946.819,1797.877l-2.408-2.744,4.345-4.545,3.67,2.57Z" transform="translate(-2944.411 -1790.589)"/></g><g transform="translate(75.435 207.025)"><path class="l" d="M2932.027,1797.763s-4.958,3.736-6.337,3.886-2.031.766-1.866,2.867-2.016,10.953-3.535,11.095-6.688.171-7.626,3.579,16.4,2.692,17.476-.1,8.541-16.344,7.656-17.434S2934.573,1798.112,2932.027,1797.763Z" transform="translate(-2912.626 -1797.763)"/></g><g transform="translate(40.626 98.187)"><path class="m" d="M2837.852,1496.9s-32.4,56.44-19.248,68.117c5.158,4.579,10.122,8.72,17.259,14.849a175.826,175.826,0,0,1,13.8,12.683l.225.236c3.873,4.036,7.069,7.448,8.053,8.5.035.035.066.068.094.1l.109.117,3.606,3.441,5.291-4.651a157.059,157.059,0,0,1-9.379-14.673c-4.747-8.946-12.722-19.461-16.412-22.395-6.32-5.025-8.058-6.012-8.058-10.817,0-5.153,29.7-33.942,29.7-33.942s4.308-18.018-5.983-22.732C2846.882,1491.141,2837.852,1496.9,2837.852,1496.9Z" transform="translate(-2815.463 -1493.957)"/></g><path class="n" d="M2946.474,1825.945a16.03,16.03,0,0,0-.234-4.26c-.438-1.662,6.708-.708,6.708-.708s.92,6.942.654,8.53S2946.474,1825.945,2946.474,1825.945Z" transform="translate(-2858.751 -1605.461)"/><g transform="translate(62.9 99.025)"><path class="m" d="M2901.125,1613.5l9.637,1.736s.7-12.3.569-21.717c-.133-10.126.376-18.088-2.718-26.147-2.892-7.54-2.234-10.412-2.486-15.558s2.47-31.65,2.47-31.65,3.292-11.867-4.328-20.237c-7.424-8.158-26.631-.034-26.631-.034s4,36.207,13.606,58.6c2.721,6.338,1.25,10.189,4.717,19.982C2895.961,1578.48,2901.228,1599.839,2901.125,1613.5Z" transform="translate(-2877.638 -1496.296)"/></g><g transform="translate(77.856 23.773)"><path class="o" d="M2919.528,1293.5a11.08,11.08,0,0,1,1.144,3.1,26.707,26.707,0,0,1,.529,3.306,38.588,38.588,0,0,1,.194,4.21s12.854-2.8,10.745-5.8-.868-12.084-.868-12.084S2917.865,1290.7,2919.528,1293.5Z" transform="translate(-2919.385 -1286.24)"/></g><g transform="translate(67.044 3.999)"><path class="o" d="M2892.928,1233.321s-3.292,2.858-1.82,11.091c0,0-.727,6.558-1.732,7.7s2.7,1.566,3.085,2.391,1.124,4.678,3.7,7,15.347-4.68,15.969-8.637,9.469-20.916-4.535-21.693S2892.928,1233.321,2892.928,1233.321Z" transform="translate(-2889.205 -1231.044)"/></g><g transform="translate(59.434 36.407)"><path class="p" d="M2870.485,1352.121c.26.826-.721,13.495-.632,14.587.491,5.991-1.056,15.1-1.665,18.356-.146.771-.226,1.165-.226,1.165,13.88,6.788,33.187,6.194,33.187,6.194-.07-.525-2.766-7.047-2.833-7.547-1.144-8.149-2.832-11.869-2.374-17.381h0a34.48,34.48,0,0,1,2.677-10.344c4.713-11.581,4.458-19.292,3.688-25.655a31.349,31.349,0,0,0-2.675-9.991l-11.727,1.259c-2.488,2.756-4.7,4.227-11.779,10.507C2868.6,1339.954,2867.284,1341.983,2870.485,1352.121Z" transform="translate(-2867.963 -1321.506)"/></g><g transform="translate(68.574 219.749)"><path class="q" d="M2920.183,1835.777s-6.783-1.929-6.984-2.119-.248-.6-1.182-.225-1.323,1.792-2.241,2.24-6.515,2.086-9.581,3.595c-1.109.546-5.8,2.333-6.474,3.828s-.467,3.737,7.592,3.205,16.87.6,18.634-.277S2920.645,1838.108,2920.183,1835.777Z" transform="translate(-2893.476 -1833.281)"/></g><g transform="translate(68.557 0)"><path d="M2893.468,1234.288s-1.575-17.1,15-14.043,8.031,21.737,5.8,27.827c0,0,.27-9.458-7.711-9.767S2896.929,1236.15,2893.468,1234.288Z" transform="translate(-2893.428 -1219.88)"/></g><g transform="translate(82.076 15.14)"><path class="j" d="M2932.071,1263.026c1-1.736,4.419-.81,4.028,1.833s-3.133,5.284-4.042,4S2930.606,1265.576,2932.071,1263.026Z" transform="translate(-2931.163 -1262.141)"/></g><g transform="translate(45.164 48.173)"><path class="o" d="M2865.571,1355.787s1.365,14.646-.517,16.584c-7.194,7.408-35.572,7.549-35.572,7.549l-1.354,4.259s42.183,2.872,45.947-4.987c4.525-9.443,2.768-24.843,2.768-24.843Z" transform="translate(-2828.128 -1354.349)"/></g><path d="M2948.681,1228.172s6.385-6.125,10.923.812-5.391,16.612-9.418,10.869A12.8,12.8,0,0,1,2948.681,1228.172Z" transform="translate(-2859.829 -1223.599)"/><path class="r" d="M2922.975,1306.952a26.713,26.713,0,0,1,.528,3.306c4.271-1.946,7.464-7.893,7.464-7.893a32.87,32.87,0,0,1-7.991,4.585Z" transform="translate(-2843.833 -1272.816)"/><rect class="s" width="40.232" height="2.246" transform="translate(58.355 80.249) rotate(180)"/><rect class="s" width="40.232" height="2.246" transform="translate(18.124 80.249) rotate(-116.774)"/><path class="o" d="M2811.426,1422.473s-5.9-.453-7.556-1.624-12.812,3.306-13.019,4.34a2.941,2.941,0,0,0,0,1.542h21.906Z" transform="translate(-2758.983 -1348.728)"/><path class="t" d="M2934.708,1317.487l-.824-2.242-11.264,2.243v1.993Z" transform="translate(-2843.605 -1281.08)"/></g><g transform="translate(174.606 105.151)"><g transform="translate(71.515 176.175)"><path class="u" d="M3126.367,1251.981s4.951,8.4,7.042,9.767c2.839,1.861,1.061,3.743-.287,3.745s-8.233.494-9.751-1.227-2.269-6.881-3.681-8.231-2.868-6.713.688-8.017C3123.521,1246.867,3126.367,1251.981,3126.367,1251.981Z" transform="translate(-3118.161 -1247.85)"/></g><g transform="translate(73.493 176.345)"><path class="o" d="M3127.609,1248.578s5.672,9.833,6.65,11.286-1.84,1.451-3.588.761-6.138-7.743-6.769-9.027a4.734,4.734,0,0,1-.136-3.288Z" transform="translate(-3123.527 -1248.31)"/></g><g transform="translate(71.828 181.904)"><path class="v" d="M3119.01,1263.393l1.311,10.08.694.031-.217-7.252Z" transform="translate(-3119.01 -1263.393)"/></g><g transform="translate(22.38 176.206)"><path class="u" d="M2993.073,1252.035s4.953,8.4,7.044,9.767c2.839,1.861,1.059,3.743-.288,3.745s-8.232.494-9.75-1.227-2.268-6.881-3.68-8.231-2.916-6.852.687-8.017C2990.245,1247.051,2993.073,1252.035,2993.073,1252.035Z" transform="translate(-2984.85 -1247.935)"/></g><g transform="translate(24.377 176.345)"><path class="o" d="M2994.647,1248.6s5.375,9.812,6.354,11.265-1.842,1.451-3.589.761-6.139-7.743-6.77-9.027a4.724,4.724,0,0,1-.134-3.288Z" transform="translate(-2990.268 -1248.31)"/></g><g transform="translate(22.712 181.904)"><path class="v" d="M2985.749,1263.393l1.309,10.08.694.031-.216-7.252Z" transform="translate(-2985.749 -1263.393)"/></g><g transform="translate(8.628 96.902)"><path class="o" d="M3012.641,1112.208s-12.968-27.506-14.719-44.846a8.632,8.632,0,0,0-5.562-7.18l-44.822-20.423s9.776-7.452,28.779-6.97c0,0,25.307,10.326,31.456,15.313.831.671,1.311,1.248,1.335,1.689.033.646.183,2.669.423,5.624,1.14,13.949,4.332,48.645,6.955,57.063C3016.485,1112.477,3016.8,1114.244,3012.641,1112.208Z" transform="translate(-2947.538 -1032.766)"/></g><g transform="translate(0 93.822)"><path class="o" d="M2924.308,1043.251c1.387,12.116,18.682,10.729,18.682,10.729h20.959s-5.507,12.251-7.632,22.584c-2.256,10.965-7.574,30.369-7.574,30.369s.349.659,4.141.289c0,0,16.452-32.791,22.75-41.034,1.355-1.774,5.238-11.4,5.907-17.148.225-1.933.086-3.426-.636-4.031a51.831,51.831,0,0,0-4.626-3.162c-6.566-4.14-17.967-10.514-24.32-11.941-8.507-1.911-21.963-5.5-21.963-5.5S2922.922,1031.137,2924.308,1043.251Z" transform="translate(-2924.128 -1024.41)"/></g><g transform="translate(0.001 93.822)"><path class="u" d="M2961.762,1053.981H2942.99s-17.292,1.386-18.679-10.729S2930,1024.41,2930,1024.41s9.138,2.433,17.113,4.361a61.747,61.747,0,0,1,14.427-1.259s30.774,3.124,32.795,17.08C2994.331,1044.592,2980.187,1037,2961.762,1053.981Z" transform="translate(-2924.131 -1024.41)"/></g><g transform="translate(5.557 0)"><path d="M2957.566,769.956s-8.186-1.271-11.625,5.147.2,10.351-1.139,12.561-6.2,5.225-5.536,8.717,6.078,7.392,4.724,10.48-2.271,5.119-2.159,5.37,33.136,5.931,33.136,5.931-2.417-4.63-4.479-6.514-4.252-2.481-1.7-9.143,4.732-9.818,3.665-14.816-.677-9.6-5.649-14.042A14.7,14.7,0,0,0,2957.566,769.956Z" transform="translate(-2939.204 -769.854)"/></g><g transform="translate(0.432 34.705)"><path class="w" d="M2930.736,923.131c2.857,4.024,12.763,4.756,20.766,4.486h0c1.644-.056,3.21-.155,4.617-.275,4.908,4.89,4.562,4.157,5.323,5.05.545.637,5.14-2.878,5.879-3.432.343-.259.709,1.051-4.146-4.729l-.208-.245c.2-2.627.179-6.868.395-9.821a11.493,11.493,0,0,1,.457-2.893,51.131,51.131,0,0,0,1.8-7.977,30.2,30.2,0,0,0,3.966-7.767,26.492,26.492,0,0,1,2.607,4.257c.428.85.866,1.74,1.3,2.64h0c2.128,4.414,4.18,9.1,4.831,10.743,3.659,9.258,8.96,20.712,8.96,20.712s5.471-.543,5.124-.613-6.883-18.921-9.54-25.092c-.525-1.218-9.372-28.772-14.333-34.288-5.349-5.947-16.644-9.412-16.644-9.412l-12.232-.46s-9.383,1.3-13.127,7.349c-3.392,5.477.257,16.792,10.473,33.384-1.215,5.131-3.311,9.678-3.51,10.945C2932.519,921.959,2930.736,923.131,2930.736,923.131Zm6.714-32.052c-.567-.777-.937-1.281-1.024-1.4a.043.043,0,0,0-.01-.014l0-.008a3.931,3.931,0,0,1,.732.863A4.776,4.776,0,0,1,2937.45,891.08Z" transform="translate(-2925.301 -864.015)"/></g><g transform="translate(14.536 21.637)"><path class="o" d="M2963.823,830.264c2.4,6.647,0,11.363,0,11.363.462,4.069,11.883,15.976,12.926,14.658.841-1.062-.124-9.634-.531-12.921-.1-.792-.163-1.277-.163-1.277a6.33,6.33,0,0,1,.1-1.6h0v0a8.576,8.576,0,0,1,.6-1.929s-9.636-9.391-12.43-9.971C2963.587,828.436,2963.324,828.887,2963.823,830.264Z" transform="translate(-2963.567 -828.56)"/></g><g transform="translate(1.485 53.537)"><path class="x" d="M2928.157,915.111s9.49,18.913,7.183,32.653c-1.166,6.946,9.755-24.182,9.755-24.182Z" transform="translate(-2928.157 -915.111)"/></g><g transform="translate(14.702 2.805)"><path class="o" d="M2979.119,779.851s8.351,7.017,3.67,20.967-14.552,4.4-15.5,3.327c-1.46-1.646-3.569-9.834-3.238-13.757C2964.365,786.694,2964.233,771.716,2979.119,779.851Z" transform="translate(-2964.017 -777.465)"/></g><g transform="translate(14.561 15.748)"><path class="y" d="M2970.794,808.426c-.088-1.728-3.65-3.613-3.9-1.063s1.454,5.736,2.643,5.692S2970.875,810.02,2970.794,808.426Z" transform="translate(-2966.865 -806.118)"/></g><g transform="translate(11.543 60.351)"><path class="z" d="M2955.446,933.6l.005.008.011.014c.085.125.487.7,1.11,1.59,2.863,4.091,10.39,14.781,13.164,18.128l.006.009.007,0,11.035,13.123.49.58.486.578.245.292c.2-2.628.178-6.868.395-9.821-3.03-1.625-12.489-7.507-26.221-23.641q-.364-.427-.731-.863Z" transform="translate(-2955.446 -933.597)"/></g><g transform="translate(15.935 81.395)"><path class="aa" d="M2967.364,990.694l10.7,16.911h0c1.645-.056,3.21-.155,4.618-.275,0,0-12.564-12.521-13.412-13.782Z" transform="translate(-2967.364 -990.694)"/></g><g transform="translate(16.819 27.225)"><path class="r" d="M2969.76,843.721s.427,7.2,10.369,9.217c-.1-.793-.163-1.277-.163-1.277a6.346,6.346,0,0,1,.1-1.6.082.082,0,0,1-.019,0,9.574,9.574,0,0,1-4.536-.743.025.025,0,0,1-.007,0,10.19,10.19,0,0,1-2.6-1.574A12.6,12.6,0,0,1,2969.76,843.721Z" transform="translate(-2969.76 -843.721)"/></g><g transform="translate(44.461 55.935)"><path class="ab" d="M3045.02,931.9a26.689,26.689,0,0,1,2.606,4.257c.428.85.867,1.74,1.3,2.64a30.3,30.3,0,0,0-4.167-17.181C3045.807,923.748,3045.02,931.9,3045.02,931.9Z" transform="translate(-3044.76 -921.615)"/></g><g transform="translate(59.578 97.269)"><path class="ac" d="M3088.613,1041.064s4.124.69,5.126-.613l-2.6-6.69-5.367,1.024Z" transform="translate(-3085.773 -1033.762)"/></g><path class="ad" d="M2990.344,1055.151l36.1-3.907-16.309,12.269Z" transform="translate(-2965.939 -947.532)"/><path class="ae" d="M3010.135,1070.205l-19.791-6.237v-2.125l20.458,6.068Z" transform="translate(-2965.939 -954.225)"/><g transform="translate(47.28 101.84)"><path class="y" d="M3053.441,1046.164s1.615,1.374,2.012,1.859,2.026,2.335,2.424,2.776-.883.745-3.966-1.721S3053.441,1046.164,3053.441,1046.164Z" transform="translate(-3052.407 -1046.164)"/></g><path class="o" d="M3023.254,1035.588s2.8.734,4.757,1.124c1.515.3,5.069,2.11,5.842,3.23s2.656,7.54,3.147,8.08-.5.952-1.4.193a2.177,2.177,0,0,1-3.4.215c-2.039-1.734-3.04-4.317-4.131-5.106s-7.629-5.011-7.629-5.011S3021.628,1034.342,3023.254,1035.588Z" transform="translate(-2984.943 -937.493)"/><path class="ae" d="M3044.043,1015.839l10.527-36.19,40.028-3.907-10.97,33.311Z" transform="translate(-2999.846 -899.858)"/><path class="af" d="M3015.531,1029.113a41.7,41.7,0,0,0-5.37,4.621s-7.723-7.567-8.513-8.362l8.531-1.859Z" transform="translate(-2973.077 -930.022)"/><path class="r" d="M3077.715,1096.49v0a8.425,8.425,0,0,0-2.408-2.855s2.2-6.242,1.689-9.893A71,71,0,0,1,3077.715,1096.49Z" transform="translate(-3019.587 -968.054)"/><g transform="translate(13.863 1.405)"><path class="ag" d="M2976.711,780.247c-.911-.394-4.85,5.388-6.751,6.7s-6.277,5.448-7.093,9.6-1.982-10.309-.16-15.11,4.332-11.857,14.683-4.764,6.249,17.035,6.249,17.035S2981.318,782.237,2976.711,780.247Z" transform="translate(-2961.741 -773.666)"/></g></g></g></svg>