<?xml version="1.0" standalone="no"?>
<!DOCTYPE svg PUBLIC "-//W3C//DTD SVG 20010904//EN"
 "http://www.w3.org/TR/2001/REC-SVG-20010904/DTD/svg10.dtd">
<svg version="1.0" xmlns="http://www.w3.org/2000/svg"
 width="1277.000000pt" height="1272.000000pt" viewBox="0 0 1277.000000 1272.000000"
 preserveAspectRatio="xMidYMid meet">
<metadata>
Created by potrace 1.16, written by Peter Selinger 2001-2019
</metadata>
<g transform="translate(0.000000,1272.000000) scale(0.100000,-0.100000)"
fill="#000000" stroke="none">
<path d="M1505 6201 c-134 -34 -223 -156 -213 -292 l4 -58 -545 -3 -546 -3
-48 -24 c-60 -29 -95 -80 -113 -163 -11 -52 -13 -498 -14 -2504 0 -2758 -6
-2549 75 -2630 33 -32 55 -45 96 -54 39 -8 287 -10 894 -8 l839 3 12 70 c6 39
14 87 17 108 l6 37 -895 0 -894 0 0 2550 0 2550 578 0 578 0 35 -36 c18 -20
57 -47 84 -60 l50 -24 445 0 c502 0 485 -2 573 79 l44 41 637 0 636 0 -2 -612
-3 -611 -110 -55 c-123 -62 -193 -123 -228 -200 -44 -96 -24 -370 42 -563 l18
-54 208 -3 c152 -2 211 -6 217 -15 4 -6 8 101 8 239 0 234 -1 252 -19 268 -11
10 -29 40 -41 69 -34 77 -25 206 24 352 l37 110 -3 480 -3 480 -26 56 c-15 32
-40 66 -58 79 -70 49 -83 50 -710 50 l-586 0 0 78 c0 60 -5 86 -22 118 -35 66
-70 101 -131 131 l-57 28 -430 2 c-236 1 -443 -2 -460 -6z"/>
<path d="M5078 5746 c-54 -15 -120 -57 -143 -93 -23 -34 -65 -226 -65 -296 0
-93 45 -164 77 -121 18 25 16 42 -12 112 -28 70 -32 114 -10 132 22 19 49 8
66 -28 l17 -33 27 48 c54 94 66 99 118 53 l34 -30 27 30 c31 35 40 36 85 9 33
-20 33 -21 26 -74 -6 -53 -6 -54 27 -71 18 -9 40 -22 48 -30 18 -15 163 -5
181 13 6 6 14 33 17 59 3 26 11 59 18 72 15 30 3 62 -23 62 -13 0 -14 3 -5 12
7 7 12 24 12 38 0 31 -17 50 -45 50 -15 0 -25 10 -34 35 -22 61 -100 82 -178
50 -45 -19 -85 -19 -147 0 -57 17 -57 17 -118 1z"/>
<path d="M5670 4642 c0 -6 20 -37 46 -69 119 -153 140 -185 190 -288 58 -121
114 -281 114 -323 -1 -39 -32 -104 -74 -150 -20 -22 -43 -62 -51 -88 -8 -27
-15 -49 -15 -49 0 0 105 1 234 3 l233 3 21 77 c55 200 66 405 28 527 -41 134
-216 244 -509 319 -159 41 -217 51 -217 38z"/>
<path d="M7534 3570 c-12 -5 -28 -17 -35 -27 -8 -10 -29 -19 -49 -20 -46 -3
-80 -30 -107 -83 -25 -49 -29 -84 -12 -127 l11 -28 9 23 c5 13 14 20 19 17 6
-4 23 1 37 10 23 16 25 16 20 1 -10 -24 19 -20 37 6 9 12 16 33 16 45 0 18 5
22 30 20 16 -1 32 -8 34 -14 3 -7 12 -10 21 -7 12 5 15 0 13 -23 -2 -35 11
-61 22 -43 10 16 30 4 30 -18 0 -9 -15 -43 -34 -74 -33 -54 -42 -96 -29 -140
3 -15 16 -18 70 -18 58 0 67 -3 85 -25 11 -14 23 -25 27 -25 5 0 6 11 3 25 -4
24 -2 25 47 25 50 0 51 1 51 30 0 27 -3 30 -30 30 -17 0 -38 4 -48 9 -9 5 -25
12 -34 15 -25 8 -22 44 7 82 37 49 35 105 -6 137 -27 21 -30 27 -20 45 13 24
15 62 3 62 -4 0 -13 -5 -19 -11 -19 -19 -41 -3 -64 46 -13 28 -32 50 -46 56
-28 11 -31 11 -59 -1z"/>
<path d="M4306 3392 c-3 -5 -7 -53 -11 -107 -3 -55 -14 -188 -25 -295 -36
-362 -41 -434 -50 -695 -5 -143 -14 -336 -19 -430 -5 -93 -13 -294 -16 -445
-4 -151 -10 -331 -15 -400 -5 -69 -10 -135 -10 -147 0 -22 -4 -23 -85 -23 -76
0 -85 2 -85 18 0 10 -34 52 -75 93 l-74 75 -3 -95 -3 -96 -35 -6 c-66 -10
-101 -48 -115 -121 l-7 -38 -179 0 c-99 0 -179 3 -179 8 0 4 -11 72 -25 152
-14 80 -25 157 -25 173 0 22 -4 27 -25 27 -14 0 -25 -4 -25 -10 0 -5 16 -92
34 -192 55 -290 68 -400 64 -521 l-3 -110 -47 -42 c-66 -60 -144 -80 -275 -72
-54 3 -108 9 -121 13 -22 6 -23 5 -20 -47 l3 -54 173 -3 174 -2 30 32 c17 18
42 58 56 88 13 30 33 75 45 99 16 35 21 66 21 143 l1 98 163 0 162 0 0 -47 c0
-30 7 -60 20 -80 35 -58 53 -62 309 -64 128 0 235 2 239 6 4 3 7 12 7 18 1 43
46 127 68 127 5 0 18 11 29 25 29 38 58 32 106 -22 34 -37 42 -54 42 -84 0
-73 -14 -69 246 -69 234 0 234 0 234 22 0 12 10 33 23 47 l22 26 -22 -19 c-23
-19 -23 -19 -23 0 0 23 5 30 50 83 38 47 81 55 102 21 7 -11 20 -20 28 -20 14
0 56 -56 53 -70 0 -3 4 -16 9 -30 6 -14 13 -33 17 -43 7 -17 30 -18 436 -17
390 1 432 2 460 18 49 29 65 73 65 182 0 92 -1 96 -35 144 -40 57 -56 100 -64
176 l-6 55 -392 3 -391 2 -6 28 c-12 63 -26 598 -30 1162 -4 505 -8 645 -25
850 -21 241 -44 400 -63 430 -8 12 -8 11 -4 -3 13 -41 18 -156 8 -185 -7 -21
-6 -68 4 -168 11 -97 18 -350 23 -839 5 -432 17 -885 31 -1183 19 -433 20
-506 6 -491 -5 5 -23 306 -37 619 -6 129 -15 577 -20 995 -5 418 -11 780 -14
805 -3 25 -10 83 -15 130 -14 122 -52 357 -60 370 -4 7 -123 12 -341 15 -184
3 -362 7 -396 10 -34 2 -64 1 -67 -3z m464 -907 c6 -104 17 -239 25 -300 7
-60 18 -225 24 -365 14 -327 31 -827 31 -907 l0 -63 -112 0 -113 0 11 282 c7
156 15 436 19 623 5 258 11 369 25 460 18 110 38 295 56 520 l8 90 7 -75 c4
-41 12 -160 19 -265z"/>
<path d="M6338 3160 c-12 -19 -24 -20 -235 -20 -188 0 -224 -2 -237 -16 -20
-19 -20 -38 -3 -53 9 -7 97 -13 238 -18 202 -6 225 -8 237 -25 18 -25 33 -23
64 11 l27 29 300 4 c203 2 304 7 312 15 8 8 8 13 0 17 -6 4 -11 3 -11 -2 0 -5
-11 -9 -25 -9 -14 0 -25 3 -25 8 0 5 -7 6 -15 3 -8 -4 -17 1 -21 10 -5 14 -37
16 -265 16 l-259 0 -22 25 c-26 30 -44 32 -60 5z"/>
<path d="M8563 3161 c-3 -11 -15 -22 -26 -25 -12 -3 -135 -6 -272 -6 -229 0
-251 -1 -261 -18 -13 -20 -84 -30 -84 -12 0 6 -5 8 -11 4 -8 -4 -8 -9 0 -17 8
-8 108 -13 304 -15 288 -4 347 -10 347 -38 0 -15 26 -25 45 -18 8 4 15 12 15
20 0 12 38 14 218 14 229 0 242 2 242 45 0 43 -13 45 -241 45 -208 0 -217 1
-222 20 -7 26 -47 27 -54 1z"/>
<path d="M7100 3100 l0 -30 150 0 150 0 10 26 c6 14 10 27 10 30 0 2 -72 4
-160 4 l-160 0 0 -30z"/>
<path d="M7307 2997 c-3 -34 -18 -78 -41 -121 -42 -78 -44 -109 -16 -198 11
-34 25 -113 32 -173 10 -106 10 -112 -11 -154 -18 -33 -20 -46 -10 -51 9 -6 8
-19 -8 -57 -40 -94 -48 -151 -47 -328 1 -98 9 -216 18 -279 9 -60 16 -137 16
-172 0 -47 4 -63 16 -68 29 -11 131 -6 142 7 13 15 28 80 37 152 3 28 10 79
16 115 13 80 16 108 19 185 l2 60 13 -54 c8 -29 16 -81 19 -115 7 -66 62 -288
80 -321 17 -31 27 -35 86 -35 80 0 85 6 82 92 -17 429 -41 665 -77 769 -18 51
-18 52 0 45 22 -8 19 6 -11 50 -26 37 -26 43 -22 149 4 93 9 118 32 162 35 70
35 138 0 198 -17 31 -27 64 -31 113 -5 57 -9 71 -24 75 -16 4 -19 -1 -19 -31
0 -49 -16 -105 -38 -132 -25 -31 -93 -44 -136 -26 -43 18 -67 62 -73 138 -5
46 -9 58 -23 58 -13 0 -18 -12 -23 -53z"/>
<path d="M8402 2185 c-26 -22 -32 -23 -60 -13 -40 16 -56 2 -54 -47 2 -57 17
-75 61 -75 22 0 44 -6 51 -15 7 -8 23 -15 36 -15 34 0 64 -34 64 -72 l0 -32
30 29 c25 24 34 27 48 18 17 -11 18 -16 6 -67 -6 -23 -2 -32 22 -52 40 -32 52
-30 60 14 3 20 15 51 25 68 48 80 -2 252 -66 228 -9 -4 -25 2 -39 15 -49 46
-139 54 -184 16z"/>
<path d="M2107 1771 c-98 -33 -184 -64 -191 -71 -16 -12 -14 -50 10 -208 5
-33 6 -33 25 -16 10 9 19 25 19 34 0 34 48 59 210 110 91 29 171 54 178 56 10
3 9 11 -4 36 -10 18 -23 51 -29 73 -7 22 -18 41 -26 42 -8 2 -94 -24 -192 -56z"/>
<path d="M6204 1527 c-2 -7 9 -44 26 -82 17 -38 28 -75 25 -82 -2 -8 -1 -12 4
-9 16 10 34 -50 22 -72 -16 -31 -13 -60 8 -81 16 -16 35 -19 147 -19 137 0
166 8 179 48 4 13 0 31 -9 45 -16 24 -20 25 -134 25 l-117 1 -58 119 c-54 114
-79 142 -93 107z"/>
<path d="M2217 1400 c-59 -26 -108 -50 -107 -54 0 -3 0 -19 0 -35 0 -29 0 -29
42 -19 23 5 57 18 74 29 41 25 129 131 107 128 -4 -1 -57 -23 -116 -49z"/>
<path d="M7011 1140 c-278 -3 -388 -8 -370 -15 37 -15 821 -7 816 8 -4 14 32
14 -446 7z"/>
<path d="M6383 1111 c-91 -23 -169 -102 -194 -196 -17 -60 -6 -182 19 -231 27
-53 104 -121 151 -134 135 -37 275 26 329 149 25 56 22 204 -4 261 -52 112
-187 180 -301 151z"/>
<path d="M1951 1035 c-51 -58 -60 -77 -76 -158 l-16 -76 28 -36 c15 -20 40
-43 56 -51 l27 -15 0 124 c0 68 5 149 11 181 6 32 8 60 6 62 -2 3 -18 -11 -36
-31z"/>
<path d="M8420 1030 c-75 -7 -157 -17 -218 -26 -28 -4 -31 -7 -22 -24 14 -25
13 -30 -6 -30 -10 0 -14 -6 -11 -14 3 -8 9 -31 13 -50 5 -29 11 -36 29 -36 13
0 54 -10 91 -21 60 -19 83 -21 182 -15 74 4 120 2 133 -5 16 -8 25 -7 38 5 22
20 40 20 63 -1 17 -15 18 -15 18 5 0 26 40 31 60 7 19 -23 37 -2 32 39 -4 31
-8 35 -43 41 -55 9 -153 61 -182 94 -28 33 -69 40 -177 31z"/>
<path d="M2168 958 c-27 -9 -28 -13 -28 -73 0 -34 3 -77 6 -95 7 -30 9 -32 40
-27 19 3 34 2 34 -2 0 -4 14 -8 31 -9 23 0 40 8 62 29 16 16 27 33 23 36 -3 4
1 14 10 24 14 16 14 19 -3 36 -11 11 -17 25 -15 31 2 7 -3 12 -12 12 -10 0
-16 9 -16 21 0 19 -4 21 -35 16 -19 -3 -37 -1 -40 4 -7 11 -22 11 -57 -3z"/>
<path d="M8837 856 c4 -28 1 -36 -17 -46 -17 -9 -25 -9 -39 4 -25 23 -41 20
-41 -9 0 -31 -14 -32 -34 -4 -14 21 -54 20 -41 0 9 -16 -31 -31 -64 -25 -17 4
-31 10 -31 14 0 5 10 6 23 3 12 -3 19 -3 15 2 -4 4 -71 8 -150 9 -79 1 -154 6
-168 10 -23 7 -24 7 -5 -6 12 -8 66 -15 135 -19 l115 -5 -107 -2 c-87 -2 -117
2 -158 18 -80 31 -80 31 -80 -60 0 -55 4 -82 13 -85 6 -3 48 -11 92 -18 44 -7
74 -17 67 -21 -20 -12 -15 -90 8 -111 11 -10 20 -24 20 -31 0 -17 49 -54 72
-54 10 0 30 11 44 25 24 24 30 25 149 25 75 0 125 -4 125 -10 0 -17 59 -41 86
-34 23 6 56 46 92 111 20 36 -1 90 -43 110 l-33 16 29 25 c40 33 69 92 69 140
l0 38 -61 10 -61 10 6 -42 c5 -41 4 -43 -34 -63 l-39 -20 -16 22 -15 21 0 -27
c0 -35 -19 -35 -58 3 -18 17 -28 30 -24 30 5 0 19 -11 32 -25 31 -33 40 -32
40 5 0 35 12 39 31 10 13 -19 17 -19 41 -8 24 11 28 19 28 56 0 23 -4 42 -9
42 -6 0 -7 -15 -4 -34z"/>
<path d="M2190 576 c0 -96 -2 -105 -20 -111 -18 -6 -20 -15 -20 -80 0 -64 2
-74 20 -80 37 -12 70 -63 70 -111 0 -62 -36 -99 -115 -119 -75 -19 -118 -19
-155 0 -28 15 -30 14 -30 -4 0 -14 15 -25 58 -42 46 -19 81 -24 186 -27 121
-3 136 -2 238 28 97 29 113 31 158 21 28 -6 71 -11 94 -11 32 0 46 -5 50 -17
6 -15 8 -15 23 0 15 14 17 41 15 198 -1 100 -4 185 -7 187 -3 3 -26 6 -52 8
-109 6 -230 21 -248 32 -15 9 39 11 236 12 l256 0 7 63 c4 34 9 83 13 110 l6
47 -392 0 -391 0 0 -104z"/>
<path d="M7268 653 c-10 -2 -18 -9 -18 -14 0 -6 -7 -6 -19 1 -32 17 -49 12
-86 -26 -20 -20 -37 -34 -39 -33 -1 2 -13 19 -25 37 -23 33 -48 41 -69 20 -18
-18 -14 -49 9 -74 20 -21 23 -22 45 -7 20 13 29 13 53 3 l30 -12 -32 -33 -32
-33 -28 34 c-30 35 -54 43 -75 22 -25 -25 -10 -55 72 -143 l84 -90 -6 -89 c-4
-68 -10 -94 -24 -108 -22 -22 -24 -71 -2 -92 21 -22 77 -20 97 2 23 25 21 69
-3 89 -16 14 -20 30 -20 82 0 61 1 63 18 48 36 -33 142 -12 142 28 0 10 -9 12
-35 8 -33 -5 -39 -2 -105 67 -42 44 -70 81 -70 95 0 11 16 36 35 55 30 29 32
35 18 45 -19 14 -5 47 32 71 20 13 30 14 61 4 31 -11 38 -10 53 4 15 16 15 18
-3 32 -20 14 -28 15 -58 7z"/>
<path d="M6281 328 c-27 -127 -39 -169 -58 -189 -27 -30 -31 -83 -7 -117 12
-18 25 -22 64 -22 41 0 52 4 69 26 25 32 26 52 4 99 -16 34 -16 40 15 183 18
81 32 151 32 154 0 6 -64 28 -80 28 -3 0 -21 -73 -39 -162z"/>
<path d="M9407 223 c3 -27 7 -50 9 -52 2 -2 -6 -15 -16 -29 -26 -32 -25 -82 1
-116 17 -22 28 -26 69 -26 59 0 80 23 80 88 0 32 -6 49 -24 67 -24 24 -28 33
-40 88 -6 24 -11 27 -46 27 l-40 0 7 -47z"/>
<path d="M4310 185 c-7 -8 -30 -18 -51 -21 -28 -5 -39 -11 -39 -24 0 -15 15
-18 121 -22 66 -3 134 -2 151 1 36 7 50 31 19 31 -11 0 -41 11 -67 25 -53 28
-115 33 -134 10z"/>
<path d="M5070 193 c-8 -3 -26 -14 -39 -24 -13 -11 -34 -19 -47 -19 -14 0 -24
-6 -24 -14 0 -21 58 -26 190 -18 98 6 115 10 118 25 3 13 -3 17 -25 17 -15 0
-41 9 -58 20 -29 19 -83 25 -115 13z"/>
</g>
</svg>
