<svg xmlns="http://www.w3.org/2000/svg" width="743.488" height="351.835" viewBox="0 0 743.488 351.835"><defs><style>.a{opacity:0.22;}.b{fill:#8184c4;}.c{fill:#575a8f;}.d{opacity:0.2;}.e{fill:#4d5068;}.f{fill:#fcd991;}.g{fill:#191c3c;}.h{fill:#6371c5;}.i{fill:#fff;}.j{opacity:0.3;}.k{fill:#fec55e;}.l{fill:#616393;}.m{fill:#30334f;}.n{opacity:0.25;}.o{opacity:0.1;}.p{opacity:0.18;}.q{fill:#717386;}.r{fill:#dfe2ec;}</style></defs><g transform="translate(-64.82 -108.699)"><g transform="translate(64.82 267.553)"><g class="a" transform="translate(414.817 23.298)"><g transform="translate(58.227)"><path class="b" d="M340.941,248.631c1.372-18,2.74-36.162.407-54.068-.769-5.892-3.01-12.9-8.822-14.14-5.334-1.136-10.1,3.466-13.13,8-14.258,21.307-15.079,48.854-11.989,74.305a288,288,0,0,0,22.93,82.664l2.981,3.314C335.89,314.939,338.37,282.4,340.941,248.631Z" transform="translate(-305.937 -180.248)"/></g><g transform="translate(69.804 13.763)"><path class="c" d="M325.108,332.31c-14.562-45.424-13.955-97.2-2.137-143.07.422-1.639-2.211-1.986-2.618-.349a267.747,267.747,0,0,0-7.945,72.187c.678,24.614,5.781,47.749,12.567,71.288.026.087.162.033.133-.056Z" transform="translate(-312.309 -187.823)"/></g><g transform="translate(63.652 28.014)"><path class="c" d="M308.937,196.5a38.482,38.482,0,0,0,8.437,18.239c.678.794,1.948-.16,1.3-.99a40.564,40.564,0,0,1-8.228-17.456c-.187-.952-1.681-.761-1.5.207Z" transform="translate(-308.923 -195.667)"/></g><g transform="translate(61.788 53.159)"><path class="c" d="M307.9,209.692c.8,6.964,2.68,16.177,7.124,21.774a.4.4,0,0,0,.676-.391c-1-3.387-2.938-6.522-4.16-9.86a98.5,98.5,0,0,1-3.3-11.569.169.169,0,0,0-.334.045Z" transform="translate(-307.897 -209.507)"/></g><g transform="translate(62.859 85.287)"><path class="c" d="M308.491,227.473a36.674,36.674,0,0,0,6.537,14.013c.421.587,1.328-.1.892-.683a53.277,53.277,0,0,1-6.946-13.462.254.254,0,0,0-.483.133Z" transform="translate(-308.486 -227.191)"/></g><g transform="translate(71.122 34.596)"><path class="c" d="M326.129,199.66c-3.906,7.027-7.222,13.3-12.8,19.207-1,1.061.779,2.4,1.775,1.381,5.3-5.409,10.532-12.765,12.312-20.236.191-.8-.95-.963-1.288-.352Z" transform="translate(-313.035 -199.29)"/></g><g transform="translate(72.644 56.946)"><path class="c" d="M324.571,211.848a55.2,55.2,0,0,1-10.5,22.263.9.9,0,0,0,1.421,1.1,46.026,46.026,0,0,0,9.691-23.284.309.309,0,0,0-.612-.082Z" transform="translate(-313.872 -211.592)"/></g><g transform="translate(74.033 83.923)"><path class="c" d="M324.984,226.981c-2.269,9.931-4.453,18.4-10.114,27.041-.927,1.415,1.154,3.045,2.086,1.621,5.365-8.19,9.689-18.708,9.309-28.664-.031-.779-1.132-.656-1.281,0Z" transform="translate(-314.637 -226.44)"/></g><g transform="translate(0 42.234)"><path class="b" d="M350.416,313.338Q334.59,277.6,318.761,241.865c-3.724-8.408-7.511-16.922-13.252-24.1s-13.759-13.007-22.884-14.144a8.78,8.78,0,0,0-3.843.184c-3.824,1.264-4.84,6.15-4.889,10.176-.4,31.9,19.621,60.252,40.914,84.011,12.7,14.169,27.136,28.209,45.564,32.955C360.372,330.943,353.811,321.006,350.416,313.338Z" transform="translate(-273.888 -203.494)"/></g><g transform="translate(8.144 51.077)"><path class="c" d="M278.417,209.283c6.439,18.591,16.5,35.46,27.094,51.942,11.744,18.266,23.644,36.436,35.2,54.822.9,1.441,3.221.083,2.28-1.334-11.538-17.37-22.786-34.935-34.112-52.446-11.041-17.067-22.027-34.179-29-53.389-.329-.908-1.786-.527-1.463.4Z" transform="translate(-278.37 -208.362)"/></g><g transform="translate(4.713 66.215)"><path class="c" d="M276.595,217.3a201.578,201.578,0,0,0,14.545,14.249c1.226,1.032,2.983-.649,1.788-1.788a202.447,202.447,0,0,0-15.817-12.977c-.36-.28-.854.169-.516.516Z" transform="translate(-276.482 -216.694)"/></g><g transform="translate(16.994 93.273)"><path class="c" d="M283.591,233.079q5.377,3.815,10.755,7.632c3.534,2.507,7.029,5.443,11.028,7.164.77.332,1.631-.552.954-1.235-2.941-2.96-6.746-5.045-10.227-7.307l-11.717-7.612c-.859-.558-1.608.783-.794,1.359Z" transform="translate(-283.241 -231.587)"/></g><g transform="translate(36.293 124.333)"><path class="c" d="M294.195,249.621a70.287,70.287,0,0,1,10.448,4.631c2.716,1.622,4.924,4.266,7.812,5.45.792.323,1.248-.681.985-1.281-1.355-3.074-5.69-5.41-8.59-6.848a24.939,24.939,0,0,0-10.528-2.891c-.574-.013-.6.75-.127.937Z" transform="translate(-293.864 -248.683)"/></g><g transform="translate(20.726 60.249)"><path class="c" d="M289.342,214.03a87.288,87.288,0,0,1-1.837,12.5c-.727,3.145-2.126,6.259-2.209,9.482a.425.425,0,0,0,.785.213c2.038-3.09,2.458-7.293,3.108-10.888a110.531,110.531,0,0,0,1.446-11.3c.064-.83-1.226-.823-1.294,0Z" transform="translate(-285.296 -213.41)"/></g><g transform="translate(35.557 83.739)"><path class="c" d="M293.459,226.475c.272,5.937-.2,12.485,1.012,18.3.082.392.634.271.661-.089.441-5.9-.887-12.3-1.392-18.208-.015-.178-.289-.184-.282,0Z" transform="translate(-293.459 -226.339)"/></g><g transform="translate(48.085 104.322)"><path class="c" d="M300.758,238.32c-.018,3.43.1,6.9-.056,10.329-.14,3-.818,6.115.216,9a.54.54,0,0,0,1.03,0c1.032-2.878.329-6,.214-9-.129-3.434-.036-6.891-.055-10.329a.675.675,0,0,0-1.35,0Z" transform="translate(-300.355 -237.669)"/></g><g transform="translate(83.958 47.568)"><path class="b" d="M377.882,215.449c-.807-4.584-4.507-8.993-9.162-9.019-4.242-.025-7.651,3.368-10.327,6.662-24.143,29.71-32.1,74.324-38.293,112.1l2.467,3.176c20.419-31.627,41.036-63.655,53.223-99.274C377.3,224.693,378.688,220.032,377.882,215.449Z" transform="translate(-320.1 -206.43)"/></g><g transform="translate(89.521 61.877)"><path class="c" d="M323.72,308.4c11.489-31.8,25.908-62.247,40.382-92.768.481-1.016-1.054-1.895-1.5-.879-13.677,30.824-29.005,61.368-39.421,93.5-.113.347.422.485.543.149Z" transform="translate(-323.161 -214.306)"/></g><g transform="translate(117.757 67.532)"><path class="c" d="M338.882,218.26l-.085,8.263c-.026,2.409-.343,4.925.36,7.247a.623.623,0,0,0,1.192,0c.7-2.311.385-4.851.36-7.247l-.084-8.263a.872.872,0,0,0-1.742,0Z" transform="translate(-338.703 -217.419)"/></g><g transform="translate(108.459 85.231)"><path class="c" d="M334.94,227.568c-.527,5.5-1.831,11.746-1.172,17.238a.4.4,0,0,0,.772.105c2.1-5.136,1.708-11.938,1.243-17.343a.422.422,0,0,0-.843,0Z" transform="translate(-333.586 -227.161)"/></g><g transform="translate(98.194 107.121)"><path class="c" d="M330.667,239.621c-1.157,2.816-1.265,6.233-1.719,9.251a46.621,46.621,0,0,0-1.007,8.167.4.4,0,0,0,.772.105c1.086-2.872,1.37-6.166,1.931-9.193.5-2.683,1.341-5.443,1.181-8.172a.593.593,0,0,0-1.159-.158Z" transform="translate(-327.935 -239.209)"/></g><g transform="translate(112.19 87.533)"><path class="c" d="M350.973,228.456a35.267,35.267,0,0,0-9.206,5.278c-2.133,1.684-5.385,4.09-6.106,6.815a.6.6,0,0,0,.867.667c2.427-1.223,4.3-4.2,6.379-6a60.857,60.857,0,0,1,8.392-5.984c.391-.236.136-.948-.325-.77Z" transform="translate(-335.639 -228.427)"/></g><g transform="translate(103.195 112.28)"><path class="c" d="M344.258,242.129c-2.553,2.393-4.938,4.884-7.311,7.453-2.1,2.276-4.66,4.473-6.181,7.186-.307.547.349,1.341.923.923,2.665-1.938,4.662-4.9,6.795-7.391,2.18-2.549,4.264-5.1,6.259-7.8.216-.293-.24-.6-.485-.374Z" transform="translate(-330.688 -242.049)"/></g></g><g class="d" transform="translate(0 94.509)"><g transform="translate(20.901)"><path class="b" d="M97.91,253.853c-7.843-10.608-15.761-21.3-25.606-30.081-3.239-2.889-7.829-5.694-11.631-3.6-3.492,1.92-3.926,6.74-3.437,10.694,2.3,18.59,15,34.209,28.871,46.8a210.512,210.512,0,0,0,52.17,34.739l3.23.407C126.8,292.918,112.621,273.745,97.91,253.853Z" transform="translate(-57.07 -219.444)"/></g><g transform="translate(27.539 10.632)"><path class="c" d="M131.985,303.824c-29.75-18.152-54.152-47.061-69.533-78.061-.549-1.106-2.171-.042-1.613,1.059a195.657,195.657,0,0,0,30.1,43.7c12.133,13.281,26.008,23.631,41.005,33.4.055.036.1-.06.045-.095Z" transform="translate(-60.724 -225.296)"/></g><g transform="translate(26.31 25.721)"><path class="c" d="M60.247,234.558a28.123,28.123,0,0,0,13.379,6.052.6.6,0,0,0,.242-1.166,29.642,29.642,0,0,1-12.888-5.717c-.558-.438-1.292.382-.732.832Z" transform="translate(-60.047 -233.601)"/></g><g transform="translate(37.135 40.905)"><path class="c" d="M66.048,242.17c3.764,3.47,9.209,7.662,14.338,8.633a.289.289,0,0,0,.187-.54c-2.171-1.392-4.738-2.2-7.009-3.461a71.873,71.873,0,0,1-7.354-4.818c-.125-.091-.282.076-.162.185Z" transform="translate(-66.005 -241.959)"/></g><g transform="translate(53.101 58.092)"><path class="c" d="M74.858,251.743a26.784,26.784,0,0,0,10.307,4.622.41.41,0,0,0,.167-.8,38.92,38.92,0,0,1-10.27-4.122c-.182-.1-.371.173-.2.3Z" transform="translate(-74.793 -251.418)"/></g><g transform="translate(40.783 19.585)"><path class="c" d="M68.024,230.884c1.2,5.75,2.36,10.8,2.1,16.731-.047,1.065,1.575.954,1.641-.085.343-5.519-.278-12.087-2.863-17.067-.274-.532-.985-.076-.879.422Z" transform="translate(-68.013 -230.224)"/></g><g transform="translate(50.904 32.603)"><path class="c" d="M73.613,237.74a40.316,40.316,0,0,1,4.833,17.321.658.658,0,0,0,1.314-.069,33.644,33.644,0,0,0-5.768-17.5.226.226,0,0,0-.378.249Z" transform="translate(-73.584 -237.389)"/></g><g transform="translate(64.475 46.771)"><path class="c" d="M81.109,245.943c3.492,6.573,6.328,12.3,7.329,19.778.164,1.226,2.093,1.132,1.928-.1-.948-7.089-3.583-14.97-8.55-20.292-.387-.416-.937.178-.707.614Z" transform="translate(-81.054 -245.187)"/></g><g transform="translate(0 56.702)"><path class="b" d="M138.06,282.6,86.415,258.218c-6.075-2.867-12.234-5.765-18.84-6.991s-13.819-.616-19.407,3.114a6.409,6.409,0,0,0-2.035,1.939c-1.51,2.525.262,5.71,2.158,7.961,15.023,17.821,39.632,23.929,62.752,26.889,13.79,1.764,28.477,2.629,40.929-3.552A110.079,110.079,0,0,1,138.06,282.6Z" transform="translate(-45.566 -250.654)"/></g><g transform="translate(6.649 64.982)"><path class="c" d="M49.483,256.21c12.443,7.2,26.06,11.72,39.792,15.766,15.219,4.486,30.477,8.844,45.649,13.486,1.188.363,1.82-1.493.623-1.826-14.676-4.09-29.285-8.424-43.91-12.692-14.256-4.159-28.5-8.37-41.536-15.657-.618-.343-1.239.563-.618.923Z" transform="translate(-49.225 -255.211)"/></g><g transform="translate(11.889 74.784)"><path class="c" d="M52.348,261.6a147.061,147.061,0,0,0,14.847.927c1.172-.016,1.339-1.784.134-1.844a148.128,148.128,0,0,0-14.943.385.267.267,0,0,0-.038.532Z" transform="translate(-52.109 -260.606)"/></g><g transform="translate(31.731 81.833)"><path class="c" d="M63.7,267.9l9.591-.919c3.152-.3,6.488-.351,9.518-1.31a.577.577,0,0,0-.064-1.137c-3.04-.231-6.139.432-9.142.847l-10.112,1.39c-.743.1-.516,1.2.209,1.13Z" transform="translate(-63.031 -264.486)"/></g><g transform="translate(57.124 88.05)"><path class="c" d="M77.513,272.755a51.243,51.243,0,0,1,7.987-2.431c2.278-.4,4.76.005,6.922-.721.594-.2.365-.972-.067-1.177-2.218-1.052-5.73-.273-8.018.32a18.229,18.229,0,0,0-7.2,3.43c-.323.269.027.7.378.58Z" transform="translate(-77.008 -267.908)"/></g><g transform="translate(20.214 62.165)"><path class="c" d="M56.789,254.457a63.666,63.666,0,0,1,4.954,7.787c1.1,2.084,1.817,4.473,3.31,6.3a.31.31,0,0,0,.534-.258c-.349-2.682-2.126-5.205-3.483-7.5a81.211,81.211,0,0,0-4.6-6.938c-.362-.491-1.07.131-.714.618Z" transform="translate(-56.691 -253.66)"/></g><g transform="translate(37.235 70.36)"><path class="c" d="M66.089,258.336c2.987,3.152,5.852,7,9.3,9.631.233.178.48-.154.323-.365-2.576-3.474-6.368-6.377-9.469-9.4-.093-.091-.247.038-.154.134Z" transform="translate(-66.06 -258.171)"/></g><g transform="translate(54.37 75.196)"><path class="c" d="M75.612,261.647c1.63,1.9,3.356,3.764,4.905,5.736,1.355,1.724,2.469,3.77,4.417,4.869a.394.394,0,0,0,.569-.492c-.8-2.082-2.685-3.474-4.179-5.074-1.713-1.837-3.314-3.792-4.965-5.683a.494.494,0,0,0-.747.645Z" transform="translate(-75.491 -260.833)"/></g><g transform="translate(71.004 2.74)"><path class="b" d="M96.561,222.925c-2.634-2.149-6.788-2.818-9.373-.609-2.356,2.015-2.618,5.518-2.525,8.617.85,27.957,17.768,56.415,32.39,80.259l2.881.576c-3.823-27.237-7.729-54.789-18.008-80.3C100.654,228.314,99.2,225.073,96.561,222.925Z" transform="translate(-84.647 -220.952)"/></g><g transform="translate(78.567 13.276)"><path class="c" d="M112.089,297.806c-8.842-23.07-15.417-46.784-22-70.57-.218-.79-1.488-.543-1.252.233,7.167,23.573,13.286,47.778,22.879,70.514.1.245.465.067.371-.176Z" transform="translate(-88.81 -226.751)"/></g><g transform="translate(75.237 21.552)"><path class="c" d="M87.133,232.356q1.949,2.3,3.9,4.607a17.7,17.7,0,0,0,3.661,3.835.456.456,0,0,0,.66-.57,17.779,17.779,0,0,0-3.263-4.179l-4-4.526a.637.637,0,0,0-.963.832Z" transform="translate(-86.977 -231.306)"/></g><g transform="translate(79.083 35.522)"><path class="c" d="M89.161,239.5c2.338,3.294,4.6,7.369,7.589,10.091a.289.289,0,0,0,.476-.313c-1.294-3.841-4.758-7.414-7.6-10.18a.308.308,0,0,0-.467.4Z" transform="translate(-89.094 -238.996)"/></g><g transform="translate(84.671 51.76)"><path class="c" d="M92.2,248.547c.7,2.109,2.28,4.05,3.47,5.936a34.007,34.007,0,0,0,3.345,4.994.29.29,0,0,0,.478-.312,39.509,39.509,0,0,0-3.325-6,25.278,25.278,0,0,0-3.252-5.082.434.434,0,0,0-.716.467Z" transform="translate(-92.17 -247.933)"/></g><g transform="translate(86.714 28.484)"><path class="c" d="M96.439,235.264a25.764,25.764,0,0,0-2.565,7.316c-.376,1.948-1.025,4.833-.12,6.684a.437.437,0,0,0,.8-.047c.758-1.833.371-4.369.656-6.366a44.521,44.521,0,0,1,1.78-7.316c.1-.318-.378-.589-.549-.271Z" transform="translate(-93.294 -235.122)"/></g><g transform="translate(95.07 47.27)"><path class="c" d="M98.583,245.665c-.267,2.543-.4,5.06-.48,7.612-.076,2.264-.44,4.7.016,6.926.091.449.832.574.95.069.547-2.346.236-4.934.225-7.333-.013-2.451-.078-4.854-.265-7.3-.02-.265-.422-.22-.447.024Z" transform="translate(-97.894 -245.462)"/></g></g><g class="a" transform="translate(633.263 62.433)"><g transform="translate(1.203)"><path class="b" d="M437.789,250.405c7.736-14.465,15.55-29.047,26.076-41.627,3.465-4.141,8.6-8.419,13.662-6.531,4.642,1.733,6.046,7.585,6.157,12.538.527,23.286-12.289,44.8-27.078,62.789a261.738,261.738,0,0,1-57.918,52.151l-3.9,1.085C409.3,303.68,423.28,277.536,437.789,250.405Z" transform="translate(-394.787 -201.788)"/></g><g transform="translate(8.463 13.37)"><path class="c" d="M398.807,318.444c33.329-27.7,58.136-67.671,71.468-108.585.476-1.463,2.662-.443,2.177,1.01a243.37,243.37,0,0,1-29.145,59.191c-12.532,18.53-27.735,33.765-44.424,48.491-.062.056-.138-.053-.075-.107Z" transform="translate(-398.783 -209.147)"/></g><g transform="translate(69.804 31.637)"><path class="c" d="M448.9,220.316a34.975,34.975,0,0,1-15.368,9.86.741.741,0,0,1-.509-1.392,36.861,36.861,0,0,0,14.827-9.36c.607-.638,1.657.238,1.05.892Z" transform="translate(-432.546 -219.202)"/></g><g transform="translate(59.089 52.193)"><path class="c" d="M443.2,230.763c-4.008,4.949-9.949,11.086-16.086,13.208a.359.359,0,0,1-.325-.63c2.42-2.1,5.432-3.565,8-5.523a89.022,89.022,0,0,0,8.179-7.253c.14-.136.362.042.234.2Z" transform="translate(-426.648 -230.516)"/></g><g transform="translate(46.568 76.229)"><path class="c" d="M432.277,244.126a33.3,33.3,0,0,1-11.849,7.547.511.511,0,0,1-.351-.959,48.326,48.326,0,0,0,11.893-6.926c.207-.153.489.147.307.338Z" transform="translate(-419.756 -243.746)"/></g><g transform="translate(64.655 26.691)"><path class="c" d="M432.481,217.2c-.438,7.293-.957,13.713.432,20.966.249,1.3-1.768,1.457-2.035.191-1.417-6.729-1.84-14.921.441-21.515.245-.7,1.2-.272,1.161.358Z" transform="translate(-429.712 -216.479)"/></g><g transform="translate(52.602 44.48)"><path class="c" d="M427.716,226.667a50.167,50.167,0,0,0-2.822,22.185.817.817,0,0,1-1.626.153,41.823,41.823,0,0,1,3.937-22.574.281.281,0,0,1,.51.236Z" transform="translate(-423.078 -226.271)"/></g><g transform="translate(35.298 64.402)"><path class="c" d="M421.4,238.1c-3.109,8.715-5.567,16.269-5.449,25.655.018,1.537-2.371,1.771-2.389.225-.113-8.9,1.706-19.065,6.857-26.509.4-.581,1.186.051.981.629Z" transform="translate(-413.553 -237.236)"/></g><g transform="translate(1.816 41.824)"><path class="b" d="M408.668,301.02q23.709-26.432,47.419-52.865c5.579-6.219,11.241-12.51,18.219-17.105s15.539-7.374,23.744-5.8a7.977,7.977,0,0,1,3.268,1.239c2.949,2.167,2.455,6.671,1.366,10.165-8.615,27.675-33.871,46.55-58.941,61.1-14.952,8.677-31.365,16.755-48.62,15.681A137.01,137.01,0,0,0,408.668,301.02Z" transform="translate(-395.124 -224.809)"/></g><g transform="translate(16.68 49.719)"><path class="c" d="M489.132,230.191c-10.785,14.253-24.211,26.006-37.995,37.27-15.277,12.485-30.66,24.843-45.807,37.484-1.187.99-2.807-.834-1.6-1.793,14.847-11.769,29.5-23.786,44.2-35.735,14.331-11.646,28.627-23.348,40.046-37.986.541-.692,1.691.045,1.152.759Z" transform="translate(-403.306 -229.154)"/></g><g transform="translate(83.01 63.889)"><path class="c" d="M458.056,237.57a183.114,183.114,0,0,1-16.567,8.226c-1.35.547-2.4-1.4-1.043-2.048a184.837,184.837,0,0,1,17.309-6.771c.391-.142.692.385.3.592Z" transform="translate(-439.815 -236.954)"/></g><g transform="translate(58.745 83.709)"><path class="c" d="M450.3,249.289l-11.435,3.574c-3.759,1.174-7.6,2.731-11.54,3.094-.759.069-1.255-.936-.476-1.335,3.372-1.731,7.244-2.465,10.886-3.441q6.129-1.646,12.262-3.288c.9-.242,1.17,1.126.3,1.4Z" transform="translate(-426.459 -247.863)"/></g><g transform="translate(38.043 104.443)"><path class="c" d="M434.386,260.912a63.927,63.927,0,0,0-10.327,1.066c-2.8.641-5.452,2.3-8.281,2.516-.776.058-.887-.939-.49-1.383,2.035-2.276,6.435-3.078,9.344-3.5a22.655,22.655,0,0,1,9.909.458c.5.151.307.818-.154.847Z" transform="translate(-415.064 -259.275)"/></g><g transform="translate(81.874 52.998)"><path class="c" d="M443,231.724a79.309,79.309,0,0,0-1.922,11.315c-.256,2.92.078,6-.754,8.811a.386.386,0,0,1-.738-.036c-.894-3.243-.076-6.991.371-10.281a101.236,101.236,0,0,1,1.926-10.172c.178-.736,1.29-.367,1.117.363Z" transform="translate(-439.189 -230.959)"/></g><g transform="translate(63.343 70.45)"><path class="c" d="M435.556,240.727c-1.9,5.053-3.328,10.844-6.01,15.526-.182.316-.625.055-.547-.263,1.275-5.225,4.219-10.381,6.315-15.343.062-.149.3-.076.242.08Z" transform="translate(-428.99 -240.565)"/></g><g transform="translate(46.355 84.424)"><path class="c" d="M426.1,249.042c-.947,2.971-2.027,5.934-2.851,8.941-.721,2.631-1.012,5.514-2.712,7.712a.49.49,0,0,1-.89-.289c-.084-2.776,1.4-5.28,2.34-7.834,1.077-2.931,1.968-5.945,2.949-8.908a.612.612,0,0,1,1.164.378Z" transform="translate(-419.639 -248.257)"/></g><g transform="translate(0 12.402)"><path class="b" d="M406.917,212.114c2.854-3.118,7.843-4.689,11.422-2.438,3.263,2.053,4.219,6.315,4.662,10.145,4,34.55-11.684,72.618-25.372,104.59l-3.441,1.23c-.211-34.2-.376-68.806,7.669-102.048C402.853,219.483,404.063,215.234,406.917,212.114Z" transform="translate(-394.125 -208.615)"/></g><g transform="translate(3.863 25.756)"><path class="c" d="M396.258,307.483c6.718-29.977,10.528-60.342,14.333-90.793.127-1.014,1.731-.937,1.582.06-4.566,30.3-7.727,61.181-15.427,90.884-.084.322-.56.167-.489-.151Z" transform="translate(-396.251 -215.965)"/></g><g transform="translate(16.564 35.347)"><path class="c" d="M411.957,222.451l-3.968,6.373c-1.156,1.857-2.14,3.941-3.814,5.378a.566.566,0,0,1-.912-.581c.592-2.113,2.073-3.906,3.261-5.73l4.1-6.29a.791.791,0,0,1,1.334.85Z" transform="translate(-403.242 -221.244)"/></g><g transform="translate(14.911 53.167)"><path class="c" d="M410.5,231.631c-2.282,4.475-4.329,9.9-7.516,13.784a.36.36,0,0,1-.643-.3c.9-4.96,4.518-9.982,7.513-13.9a.383.383,0,0,1,.647.411Z" transform="translate(-402.332 -231.053)"/></g><g transform="translate(12.137 74.174)"><path class="c" d="M407.869,243.3c-.487,2.723-2.073,5.394-3.2,7.927a42.347,42.347,0,0,1-3.214,6.749.359.359,0,0,1-.643-.3c.569-2.733,1.96-5.394,3.007-7.987.927-2.3,1.628-4.825,3.083-6.839a.539.539,0,0,1,.965.445Z" transform="translate(-400.805 -242.615)"/></g><g transform="translate(7.906 46.439)"><path class="c" d="M399.139,227.487a31.968,31.968,0,0,1,4.477,8.537c.814,2.331,2.131,5.761,1.353,8.2a.542.542,0,0,1-.988.089c-1.263-2.12-1.246-5.31-1.959-7.716a55.3,55.3,0,0,0-3.508-8.679c-.185-.374.358-.794.625-.432Z" transform="translate(-398.476 -227.349)"/></g><g transform="translate(4.153 70.62)"><path class="c" d="M396.967,240.868c.787,3.079,1.4,6.154,1.964,9.28.5,2.771,1.388,5.7,1.23,8.523-.033.569-.923.856-1.159.256-1.1-2.785-1.181-6.028-1.6-8.98-.427-3.016-.779-5.986-.992-9.028-.022-.329.48-.347.556-.051Z" transform="translate(-396.411 -240.659)"/></g></g><g class="d" transform="translate(259.113 21.084)"><g transform="translate(0)"><path class="b" d="M188.186,350.926c2.674-22.826,6.213-39.777,22.914-56.154,7.83-7.678,18.177-13.056,24.356-22.027,7.522-10.923,8.119-26.142,18.453-34.663,11.093-9.144,28.882-6.637,40.3-15.4,8.145-6.248,11.133-16.727,16.983-25.028,9.482-13.459,27.461-20.819,44.087-18.048-16.646,3.91-28.389,21.6-25.1,37.819,2.1,10.372,9.422,19.845,8.521,30.379-1.788,20.917-33.437,29.87-35.876,50.727-.665,5.679,1.063,11.351,1.3,17.063.734,17.743-15.281,34.545-33.674,35.33Z" transform="translate(-188.186 -179.029)"/></g><g transform="translate(47.151 52.594)"><path class="c" d="M291.415,208.043a293.8,293.8,0,0,0-43.7,51.435c-12.044,18.034-20.53,37.175-30.3,56.314-.881,1.726-3.772.518-3.2-1.3,12.819-41.076,44.573-78.352,77.145-106.5.04-.035.1.02.058.055Z" transform="translate(-214.139 -207.978)"/></g><g transform="translate(96.607 72.625)"><path class="c" d="M267.763,220.226a32.915,32.915,0,0,0-13.566,1.1c-4.6,1.413-7.741,4.315-11.958,6.253-.471.216-1.13-.258-.781-.754,5.176-7.365,18.141-8.692,26.413-7.373a.393.393,0,0,1-.107.772Z" transform="translate(-241.36 -219.003)"/></g><g transform="translate(77.087 94.375)"><path class="c" d="M266.323,233.4a40.83,40.83,0,0,0-19.08-.234c-5.763,1.377-10.236,4.491-15.35,7.145a.84.84,0,0,1-1.037-1.3c8.539-8.9,24.405-9.618,35.577-5.994a.2.2,0,0,1-.109.38Z" transform="translate(-230.616 -230.975)"/></g><g transform="translate(57.411 123.926)"><path class="c" d="M263.874,250.545c-17.536-2.058-29.145,1.337-42.386,12.7-.788.676-2.18-.2-1.537-1.143,8.612-12.57,29.868-18.633,44.148-12.358a.432.432,0,0,1-.225.8Z" transform="translate(-219.786 -247.24)"/></g><g transform="translate(87.375 63.389)"><path class="c" d="M239.188,214.069c7.06,7.465,4.469,22.259-2.347,29.042-.254.253-.714-.076-.512-.38,3.041-4.577,5.234-8.975,5.4-14.536.153-5.114-1.908-8.937-3.425-13.628a.532.532,0,0,1,.885-.5Z" transform="translate(-236.279 -213.92)"/></g><g transform="translate(73.568 79.971)"><path class="c" d="M232.22,223.378c3.608,9.64,3.216,22.45-2.623,31.253-.289.434-1.061.165-.894-.365,3.4-10.741,4.909-19.413,2.574-30.637a.489.489,0,0,1,.943-.251Z" transform="translate(-228.679 -223.047)"/></g><g transform="translate(54.06 98.398)"><path class="c" d="M220.624,233.527c6.29,13.533,5.416,28.531-.474,42.037-.54,1.234-2.658.71-2.122-.563,5.692-13.559,5.381-27.043,1.33-40.958-.205-.707.938-1.223,1.266-.516Z" transform="translate(-217.942 -233.189)"/></g></g><g class="d" transform="translate(520.913 74.469)"><path class="b" d="M332.285,326.925c1.844-15.737,4.284-27.423,15.8-38.714,5.4-5.294,12.53-9,16.791-15.187,5.185-7.531,5.6-18.023,12.723-23.9,7.647-6.3,19.912-4.577,27.784-10.617,5.616-4.308,7.676-11.531,11.709-17.256,6.537-9.278,18.933-14.353,30.4-12.441-11.477,2.7-19.572,14.894-17.307,26.073,1.45,7.151,6.5,13.682,5.875,20.944C434.822,270.252,413,276.423,411.32,290.8c-.458,3.915.732,7.827.9,11.764.507,12.233-10.536,23.817-23.217,24.358Z" transform="translate(-332.285 -208.413)"/><g transform="translate(32.508 36.26)"><path class="c" d="M403.456,228.418a202.489,202.489,0,0,0-30.13,35.46c-8.3,12.432-14.155,25.63-20.89,38.825a1.212,1.212,0,0,1-2.207-.9c8.837-28.319,30.729-54.017,53.187-73.426.026-.022.065.015.04.04Z" transform="translate(-350.178 -228.371)"/></g><g transform="translate(66.604 50.071)"><path class="c" d="M387.147,236.816a22.7,22.7,0,0,0-9.353.758c-3.172.974-5.336,2.976-8.243,4.311-.323.149-.779-.176-.539-.52,3.57-5.076,12.509-5.992,18.212-5.082a.271.271,0,0,1-.076.532Z" transform="translate(-368.945 -235.973)"/></g><g transform="translate(53.147 65.065)"><path class="c" d="M386.156,245.9A28.14,28.14,0,0,0,373,245.737c-3.973.948-7.057,3.1-10.583,4.925a.579.579,0,0,1-.716-.894c5.888-6.134,16.826-6.631,24.527-4.131a.136.136,0,0,1-.074.262Z" transform="translate(-361.538 -244.226)"/></g><g transform="translate(39.582 85.439)"><path class="c" d="M384.468,257.718c-12.091-1.419-20.094.921-29.223,8.753-.543.467-1.5-.14-1.059-.788,5.937-8.666,20.594-12.847,30.439-8.519a.3.3,0,0,1-.156.554Z" transform="translate(-354.071 -255.44)"/></g><g transform="translate(60.24 43.703)"><path class="c" d="M367.448,232.572c4.867,5.147,3.081,15.347-1.619,20.021-.174.174-.492-.053-.352-.262,2.1-3.154,3.608-6.188,3.723-10.021.105-3.526-1.315-6.161-2.362-9.4a.366.366,0,0,1,.61-.342Z" transform="translate(-365.442 -232.468)"/></g><g transform="translate(50.72 55.135)"><path class="c" d="M362.644,238.989c2.487,6.646,2.218,15.477-1.808,21.545-.2.3-.732.115-.618-.251,2.342-7.405,3.385-13.383,1.775-21.122a.337.337,0,0,1,.65-.173Z" transform="translate(-360.202 -238.76)"/></g><g transform="translate(37.271 67.84)"><path class="c" d="M354.65,245.985c4.337,9.329,3.734,19.671-.329,28.982-.371.852-1.831.49-1.462-.389,3.926-9.347,3.712-18.644.917-28.237-.142-.487.647-.843.874-.356Z" transform="translate(-352.799 -245.753)"/></g></g><g class="d" transform="translate(66.354)"><path class="b" d="M263.005,360.4c-2.894-25.626-6.726-44.655-24.81-63.041-8.477-8.619-19.68-14.658-26.369-24.728-8.145-12.262-8.793-29.349-19.981-38.914-12.009-10.265-31.271-7.451-43.636-17.287-8.817-7.015-12.054-18.779-18.388-28.1-10.267-15.109-29.734-23.371-47.733-20.261,18.021,4.391,30.737,24.253,27.178,42.457-2.276,11.646-10.2,22.279-9.226,34.105,1.937,23.484,36.2,33.535,38.845,56.95.719,6.375-1.15,12.745-1.406,19.156-.8,19.918,16.546,38.781,36.46,39.663Z" transform="translate(-82.088 -167.424)"/><g transform="translate(46.183 59.046)"><path class="c" d="M107.521,200a326.99,326.99,0,0,1,47.317,57.743c13.039,20.245,22.229,41.734,32.806,63.221.954,1.935,4.082.579,3.468-1.463-13.88-46.114-48.262-87.962-83.527-119.564-.044-.038-.1.022-.064.062Z" transform="translate(-107.508 -199.924)"/></g><g transform="translate(47.301 81.534)"><path class="c" d="M108.553,213.674a34.414,34.414,0,0,1,14.689,1.235c4.983,1.586,8.381,4.845,12.947,7.02.509.242,1.223-.289.847-.845-5.607-8.268-19.643-9.758-28.6-8.277-.485.08-.378.927.116.867Z" transform="translate(-108.123 -212.302)"/></g><g transform="translate(58.52 105.951)"><path class="c" d="M114.57,228.464a42.692,42.692,0,0,1,20.659-.262c6.239,1.544,11.081,5.042,16.62,8.019a.931.931,0,0,0,1.123-1.455c-9.246-9.989-26.424-10.8-38.52-6.728a.221.221,0,0,0,.118.425Z" transform="translate(-114.298 -225.741)"/></g><g transform="translate(70.542 139.126)"><path class="c" d="M121.394,247.712c18.987-2.311,31.558,1.5,45.894,14.253.852.759,2.36-.227,1.662-1.283-9.322-14.113-32.339-20.92-47.8-13.875a.488.488,0,0,0,.243.9Z" transform="translate(-120.916 -244.001)"/></g><g transform="translate(78.626 71.165)"><path class="c" d="M129.9,206.762c-7.643,8.381-4.84,24.99,2.542,32.6.274.283.774-.087.554-.429-3.294-5.136-5.667-10.074-5.846-16.319-.165-5.741,2.067-10.032,3.708-15.3a.577.577,0,0,0-.957-.558Z" transform="translate(-125.365 -206.595)"/></g><g transform="translate(94.915 89.78)"><path class="c" d="M136.845,217.212c-3.906,10.823-3.483,25.2,2.84,35.086a.532.532,0,0,0,.968-.409c-3.677-12.058-5.316-21.794-2.787-34.4a.53.53,0,0,0-1.021-.282Z" transform="translate(-134.331 -216.841)"/></g><g transform="translate(114.777 110.467)"><path class="c" d="M149.966,228.606c-6.809,15.192-5.863,32.03.514,47.193.583,1.386,2.878.8,2.3-.634-6.164-15.221-5.828-30.359-1.441-45.981.222-.792-1.016-1.372-1.372-.578Z" transform="translate(-145.263 -228.227)"/></g></g></g><g transform="translate(101.012 258.843)"><g class="d" transform="translate(161.653)"><g transform="translate(0 49.019)"><path class="b" d="M182.31,251.995c-.118.058-.238.116-.358.173-3.726,1.782-5.7,1.484-9.337-.191a38.07,38.07,0,0,1-9.357-5.823c-3.506-3.1-6.228-7.287-6.795-11.931a4.239,4.239,0,0,1,.5-3.032,3.407,3.407,0,0,1,3.937-.818,11.938,11.938,0,0,1,3.474,2.533,3.907,3.907,0,0,0,1.532.981,1.438,1.438,0,0,0,1.619-.54c.483-.85-.345-1.831-1.1-2.458-1.741-1.45-3.374-2.289-5.2-3.575a17.2,17.2,0,0,1-5.676-6.1,9,9,0,0,1-.231-8.094,4.95,4.95,0,0,1,1.668-1.9,5.946,5.946,0,0,1,4.4-.449,42.817,42.817,0,0,0,4.413,1.037c3.557.369,4.954-2.133,4.884-5.407-.047-2.195-.756-4.328-.883-6.521-.224-3.859,1.681-7.968,5.176-9.62s8.377-.069,9.627,3.588c1.359,3.973-1.744,8.437.309,12.236a11.619,11.619,0,0,0,3.365,3.674c1.951,1.206,4.76-.212,7.033-.109a2.05,2.05,0,0,1,1.406.454,1.933,1.933,0,0,1,.438,1.014,8.4,8.4,0,0,1-2.544,7.665c-2.351,2.14-6.428,3.232-7.429,6.582-.621,2.082-.351,7.271,2.96,6.744,1.243-.2,2.075-1.426,3.267-1.83a3.312,3.312,0,0,1,3.823,1.889,5.8,5.8,0,0,1-.109,4.538,19.03,19.03,0,0,1-4.36,5.885C189.248,246.237,186.943,249.711,182.31,251.995Z" transform="translate(-154.462 -189.611)"/><g transform="translate(22.13 14.011)"><rect class="e" width="1.584" height="73.242"/></g><g transform="translate(12.984 27.46)"><path class="e" d="M171.547,215.784l-9.938-9.939,1.12-1.12,8.818,8.819,8.817-8.819,1.12,1.12Z" transform="translate(-161.609 -204.725)"/></g><g transform="translate(12.984 46.295)"><path class="e" d="M171.547,226.15l-9.938-9.937,1.12-1.12,8.818,8.817,8.817-8.817,1.12,1.12Z" transform="translate(-161.609 -215.092)"/></g></g><g transform="translate(27.555)"><path class="b" d="M208.57,249.867c-.165.084-.332.163-.5.243-5.211,2.493-7.979,2.075-13.055-.269a53.171,53.171,0,0,1-13.085-8.143c-4.905-4.331-8.71-10.189-9.5-16.684a5.926,5.926,0,0,1,.7-4.24c1.188-1.63,3.625-1.869,5.5-1.143a16.6,16.6,0,0,1,4.858,3.543,5.511,5.511,0,0,0,2.142,1.372,2.01,2.01,0,0,0,2.264-.756c.676-1.19-.483-2.56-1.535-3.436-2.435-2.029-4.718-3.2-7.273-5a24.036,24.036,0,0,1-7.936-8.523c-1.76-3.5-2.157-7.852-.323-11.321a6.9,6.9,0,0,1,2.331-2.658,8.309,8.309,0,0,1,6.154-.629,59.346,59.346,0,0,0,6.17,1.45c4.974.518,6.929-2.983,6.831-7.562-.067-3.069-1.057-6.052-1.235-9.115-.312-5.4,2.351-11.146,7.238-13.453s11.715-.1,13.463,5.016c1.9,5.558-2.438,11.8.432,17.111a16.243,16.243,0,0,0,4.705,5.138c2.729,1.686,6.657-.3,9.834-.151a2.86,2.86,0,0,1,1.966.634,2.7,2.7,0,0,1,.614,1.417,11.755,11.755,0,0,1-3.557,10.719c-3.288,2.994-8.99,4.52-10.388,9.206-.868,2.911-.492,10.167,4.141,9.429,1.737-.276,2.9-1.993,4.566-2.558,2.062-.7,4.424.67,5.347,2.642a8.113,8.113,0,0,1-.154,6.346c-1.266,3.2-3.71,5.756-6.1,8.23C218.274,241.817,215.049,246.673,208.57,249.867Z" transform="translate(-169.629 -162.63)"/><g transform="translate(31.263 19.592)"><rect class="e" width="1.584" height="182.098"/></g><g transform="translate(18.381 38.625)"><path class="e" d="M193.42,198.684,179.746,185.01l1.12-1.12,12.554,12.553,12.553-12.553,1.12,1.12Z" transform="translate(-179.746 -183.89)"/></g><g transform="translate(18.381 64.963)"><path class="e" d="M193.42,213.181l-13.674-13.674,1.12-1.12L193.42,210.94l12.553-12.553,1.12,1.12Z" transform="translate(-179.746 -198.387)"/></g></g></g><g transform="translate(591.4 87.73)"><g transform="translate(0)"><path class="f" d="M424.528,286.023c-.143.071-.287.14-.431.209-4.486,2.144-6.869,1.786-11.241-.233a45.765,45.765,0,0,1-11.264-7.009c-4.222-3.73-7.5-8.772-8.181-14.364a5.114,5.114,0,0,1,.6-3.652c1.023-1.4,3.121-1.608,4.74-.983a14.335,14.335,0,0,1,4.182,3.05,4.742,4.742,0,0,0,1.844,1.181,1.729,1.729,0,0,0,1.948-.65c.583-1.025-.414-2.2-1.321-2.96-2.095-1.746-4.062-2.756-6.262-4.306a20.687,20.687,0,0,1-6.831-7.336,10.832,10.832,0,0,1-.278-9.745,5.948,5.948,0,0,1,2.008-2.289,7.145,7.145,0,0,1,5.3-.54,51.049,51.049,0,0,0,5.312,1.246c4.284.447,5.966-2.567,5.881-6.508-.058-2.642-.91-5.211-1.063-7.849-.269-4.646,2.024-9.594,6.232-11.582s10.083-.084,11.589,4.319c1.635,4.785-2.1,10.158.372,14.731a13.963,13.963,0,0,0,4.052,4.424c2.349,1.452,5.73-.256,8.464-.131a2.47,2.47,0,0,1,1.693.547,2.312,2.312,0,0,1,.529,1.219,10.118,10.118,0,0,1-3.063,9.229c-2.829,2.576-7.74,3.892-8.942,7.925-.748,2.505-.423,8.752,3.563,8.117,1.5-.238,2.5-1.717,3.932-2.2a3.99,3.99,0,0,1,4.6,2.275,6.991,6.991,0,0,1-.133,5.463c-1.092,2.751-3.194,4.954-5.249,7.085C432.882,279.092,430.106,283.272,424.528,286.023Z" transform="translate(-391.003 -210.918)"/></g><g transform="translate(26.686 16.867)"><rect class="g" width="1.817" height="97.093"/></g><g transform="translate(15.663 33.092)"><path class="g" d="M411.556,242.349l-11.932-11.932,1.285-1.284,10.647,10.647L422.2,229.133l1.285,1.284Z" transform="translate(-399.624 -229.133)"/></g><g transform="translate(15.663 55.767)"><path class="g" d="M411.556,254.829,399.624,242.9l1.285-1.284,10.647,10.647L422.2,241.613l1.285,1.284Z" transform="translate(-399.624 -241.613)"/></g></g><g transform="translate(0 87.73)"><path class="f" d="M99.012,286.023c-.144.071-.287.14-.431.209-4.486,2.144-6.869,1.786-11.241-.233a45.8,45.8,0,0,1-11.264-7.009c-4.222-3.73-7.5-8.772-8.179-14.364a5.1,5.1,0,0,1,.6-3.652c1.023-1.4,3.121-1.608,4.74-.983a14.335,14.335,0,0,1,4.182,3.05,4.742,4.742,0,0,0,1.844,1.181,1.727,1.727,0,0,0,1.948-.65c.583-1.025-.414-2.2-1.321-2.96-2.095-1.746-4.062-2.756-6.261-4.306a20.675,20.675,0,0,1-6.833-7.336,10.832,10.832,0,0,1-.278-9.745,5.949,5.949,0,0,1,2.008-2.289,7.146,7.146,0,0,1,5.3-.54,51.149,51.149,0,0,0,5.312,1.246c4.284.447,5.966-2.567,5.881-6.508-.058-2.642-.91-5.211-1.063-7.849-.269-4.646,2.024-9.594,6.232-11.582s10.085-.084,11.589,4.319c1.635,4.785-2.1,10.158.372,14.731a13.984,13.984,0,0,0,4.051,4.424c2.349,1.452,5.73-.256,8.464-.131a2.47,2.47,0,0,1,1.693.547,2.311,2.311,0,0,1,.529,1.219,10.118,10.118,0,0,1-3.063,9.229c-2.829,2.576-7.738,3.892-8.942,7.925-.749,2.505-.423,8.752,3.563,8.117,1.5-.238,2.5-1.717,3.932-2.2a3.99,3.99,0,0,1,4.6,2.275,6.991,6.991,0,0,1-.133,5.463c-1.092,2.751-3.194,4.954-5.249,7.085C107.365,279.092,104.589,283.272,99.012,286.023Z" transform="translate(-65.486 -210.918)"/><g transform="translate(26.687 16.867)"><rect class="g" width="1.817" height="97.093"/></g><g transform="translate(15.664 33.092)"><path class="g" d="M86.039,242.349,74.107,230.417l1.285-1.284L86.039,239.78l10.647-10.647,1.285,1.284Z" transform="translate(-74.107 -229.133)"/></g><g transform="translate(15.664 55.767)"><path class="g" d="M86.039,254.829,74.107,242.9l1.285-1.284L86.039,252.26l10.647-10.647,1.285,1.284Z" transform="translate(-74.107 -241.613)"/></g></g><g transform="translate(455.424 87.73)"><path class="c" d="M349.685,286.023c-.144.071-.287.14-.431.209-4.486,2.144-6.869,1.786-11.241-.233a45.8,45.8,0,0,1-11.264-7.009c-4.222-3.73-7.5-8.772-8.179-14.364a5.1,5.1,0,0,1,.6-3.652c1.023-1.4,3.121-1.608,4.74-.983a14.337,14.337,0,0,1,4.182,3.05,4.741,4.741,0,0,0,1.844,1.181,1.727,1.727,0,0,0,1.948-.65c.583-1.025-.414-2.2-1.321-2.96-2.095-1.746-4.062-2.756-6.261-4.306a20.675,20.675,0,0,1-6.833-7.336,10.832,10.832,0,0,1-.278-9.745,5.948,5.948,0,0,1,2.008-2.289,7.147,7.147,0,0,1,5.3-.54,51.138,51.138,0,0,0,5.312,1.246c4.284.447,5.966-2.567,5.881-6.508-.056-2.642-.91-5.211-1.063-7.849-.269-4.646,2.024-9.594,6.232-11.582s10.085-.084,11.589,4.319c1.635,4.785-2.1,10.158.372,14.731a13.984,13.984,0,0,0,4.051,4.424c2.349,1.452,5.73-.256,8.466-.131a2.476,2.476,0,0,1,1.693.547,2.323,2.323,0,0,1,.527,1.219,10.118,10.118,0,0,1-3.063,9.229c-2.829,2.576-7.738,3.892-8.942,7.925-.749,2.505-.423,8.752,3.563,8.117,1.5-.238,2.5-1.717,3.932-2.2a3.989,3.989,0,0,1,4.6,2.275,6.99,6.99,0,0,1-.133,5.463c-1.092,2.751-3.194,4.954-5.249,7.085C358.038,279.092,355.262,283.272,349.685,286.023Z" transform="translate(-316.159 -210.918)"/><g transform="translate(26.687 16.867)"><rect class="g" width="1.817" height="97.093"/></g><g transform="translate(15.663 33.092)"><path class="g" d="M336.712,242.349,324.78,230.417l1.285-1.284,10.647,10.647,10.647-10.647,1.284,1.284Z" transform="translate(-324.78 -229.133)"/></g><g transform="translate(15.663 55.767)"><path class="g" d="M336.712,254.829,324.78,242.9l1.285-1.284,10.647,10.647,10.647-10.647,1.284,1.284Z" transform="translate(-324.78 -241.613)"/></g></g><g transform="translate(121.737 87.73)"><path class="f" d="M166.018,286.023c-.144.071-.287.14-.431.209-4.486,2.144-6.869,1.786-11.241-.233a45.8,45.8,0,0,1-11.264-7.009c-4.222-3.73-7.5-8.772-8.179-14.364a5.105,5.105,0,0,1,.6-3.652c1.023-1.4,3.121-1.608,4.74-.983a14.333,14.333,0,0,1,4.182,3.05,4.742,4.742,0,0,0,1.844,1.181,1.727,1.727,0,0,0,1.948-.65c.583-1.025-.414-2.2-1.321-2.96-2.095-1.746-4.062-2.756-6.261-4.306a20.675,20.675,0,0,1-6.833-7.336,10.832,10.832,0,0,1-.278-9.745,5.949,5.949,0,0,1,2.008-2.289,7.147,7.147,0,0,1,5.3-.54,51.147,51.147,0,0,0,5.312,1.246c4.284.447,5.966-2.567,5.881-6.508-.056-2.642-.91-5.211-1.063-7.849-.269-4.646,2.024-9.594,6.232-11.582s10.085-.084,11.589,4.319c1.635,4.785-2.1,10.158.372,14.731a13.984,13.984,0,0,0,4.051,4.424c2.349,1.452,5.73-.256,8.466-.131a2.476,2.476,0,0,1,1.693.547,2.323,2.323,0,0,1,.527,1.219,10.118,10.118,0,0,1-3.063,9.229c-2.829,2.576-7.738,3.892-8.942,7.925-.749,2.505-.423,8.752,3.563,8.117,1.5-.238,2.5-1.717,3.932-2.2a3.99,3.99,0,0,1,4.6,2.275,6.991,6.991,0,0,1-.133,5.463c-1.092,2.751-3.194,4.954-5.249,7.085C174.371,279.092,171.6,283.272,166.018,286.023Z" transform="translate(-132.492 -210.918)"/><g transform="translate(26.688 16.867)"><rect class="g" width="1.817" height="97.093"/></g><g transform="translate(15.664 33.092)"><path class="g" d="M153.045,242.349l-11.932-11.932,1.284-1.284,10.647,10.647,10.647-10.647,1.284,1.284Z" transform="translate(-141.114 -229.133)"/></g><g transform="translate(15.664 55.767)"><path class="g" d="M153.045,254.829,141.114,242.9l1.284-1.284,10.647,10.647,10.647-10.647,1.284,1.284Z" transform="translate(-141.114 -241.613)"/></g></g><g transform="translate(607.402 1.216)"><g transform="translate(0)"><path class="c" d="M437.214,247.088c-.16.08-.32.156-.481.234-5.005,2.393-7.663,1.993-12.54-.258a51.114,51.114,0,0,1-12.567-7.821c-4.711-4.16-8.365-9.787-9.126-16.024a5.7,5.7,0,0,1,.669-4.073c1.143-1.564,3.483-1.8,5.289-1.1a16,16,0,0,1,4.666,3.4,5.275,5.275,0,0,0,2.057,1.317,1.933,1.933,0,0,0,2.175-.725c.649-1.143-.463-2.46-1.473-3.3-2.338-1.949-4.533-3.076-6.986-4.8a23.124,23.124,0,0,1-7.623-8.185c-1.69-3.367-2.069-7.543-.311-10.874a6.63,6.63,0,0,1,2.24-2.553,7.97,7.97,0,0,1,5.91-.6,57.07,57.07,0,0,0,5.926,1.392c4.778.5,6.655-2.865,6.561-7.262-.064-2.947-1.016-5.814-1.186-8.757-.3-5.181,2.258-10.7,6.953-12.921s11.25-.093,12.928,4.818c1.826,5.34-2.34,11.333.416,16.435a15.582,15.582,0,0,0,4.52,4.934c2.62,1.621,6.393-.285,9.444-.145a2.748,2.748,0,0,1,1.889.61,2.6,2.6,0,0,1,.589,1.361,11.289,11.289,0,0,1-3.416,10.3c-3.158,2.874-8.635,4.34-9.978,8.842-.834,2.794-.472,9.763,3.975,9.055,1.67-.265,2.787-1.915,4.388-2.456,1.978-.67,4.248.643,5.134,2.538a7.8,7.8,0,0,1-.147,6.1c-1.217,3.069-3.564,5.527-5.855,7.9C446.532,239.355,443.436,244.019,437.214,247.088Z" transform="translate(-399.811 -163.299)"/></g><g transform="translate(29.878 18.818)"><rect class="g" width="1.817" height="181.656"/></g><g transform="translate(17.55 36.993)"><path class="g" d="M422.706,198.183l-13.236-13.237,1.284-1.285,11.951,11.953,11.953-11.953,1.284,1.285Z" transform="translate(-409.471 -183.661)"/></g><g transform="translate(17.55 62.29)"><path class="g" d="M422.706,212.107l-13.236-13.237,1.284-1.284,11.951,11.953,11.953-11.953,1.284,1.284Z" transform="translate(-409.471 -197.585)"/></g></g><g transform="translate(38.32 1.216)"><path class="c" d="M123.981,247.088c-.16.08-.32.156-.481.234-5,2.393-7.663,1.993-12.54-.258a51.113,51.113,0,0,1-12.567-7.821c-4.711-4.16-8.365-9.787-9.126-16.024a5.7,5.7,0,0,1,.67-4.073c1.141-1.564,3.481-1.8,5.287-1.1a15.947,15.947,0,0,1,4.666,3.4,5.282,5.282,0,0,0,2.058,1.317,1.931,1.931,0,0,0,2.173-.725c.65-1.143-.463-2.46-1.473-3.3-2.338-1.949-4.533-3.076-6.986-4.8a23.124,23.124,0,0,1-7.623-8.185c-1.69-3.367-2.069-7.543-.309-10.874a6.61,6.61,0,0,1,2.238-2.553,7.971,7.971,0,0,1,5.91-.6,57.073,57.073,0,0,0,5.926,1.392c4.778.5,6.655-2.865,6.56-7.262-.064-2.947-1.016-5.814-1.186-8.757-.3-5.181,2.258-10.7,6.953-12.921s11.25-.093,12.93,4.818c1.824,5.34-2.342,11.333.414,16.435a15.6,15.6,0,0,0,4.52,4.934c2.62,1.621,6.393-.285,9.446-.145a2.743,2.743,0,0,1,1.888.61,2.6,2.6,0,0,1,.59,1.361,11.294,11.294,0,0,1-3.417,10.3c-3.158,2.874-8.633,4.34-9.978,8.842-.834,2.794-.472,9.763,3.977,9.055,1.668-.265,2.785-1.915,4.386-2.456a4.448,4.448,0,0,1,5.134,2.538,7.8,7.8,0,0,1-.147,6.1c-1.217,3.069-3.565,5.527-5.856,7.9C133.3,239.355,130.2,244.019,123.981,247.088Z" transform="translate(-86.578 -163.299)"/><g transform="translate(29.878 18.818)"><rect class="g" width="1.817" height="181.656"/></g><g transform="translate(17.549 36.993)"><path class="g" d="M109.475,198.183,96.237,184.946l1.285-1.285,11.953,11.953,11.953-11.953,1.285,1.285Z" transform="translate(-96.237 -183.661)"/></g><g transform="translate(17.549 62.29)"><path class="g" d="M109.475,212.107,96.237,198.869l1.285-1.284,11.953,11.953,11.953-11.953,1.285,1.284Z" transform="translate(-96.237 -197.585)"/></g></g></g><g transform="translate(372.875 164.874)"><g transform="translate(113.154 138.503)"><path class="g" d="M293.972,187.142l21.268,65.59,3.247,59.42-12.258,2.923-6-28.306a12.706,12.706,0,0,1-.272-2.433l-.307-20.635-22.247-38.749Z" transform="translate(-277.406 -187.142)"/></g><g transform="translate(141.977 263.514)"><path class="h" d="M293.27,258.872l3.328,14.774h13.8l-4.87-17.7Z" transform="translate(-293.27 -255.95)"/></g><g transform="translate(144.005 276.42)"><path class="i" d="M295.508,267.055l-1.121,2.495v12.745l35.231-1.542,10.716-9.824-.725-1.068a6.023,6.023,0,0,0-7.774-1.968l-2.867,1.493-9.335-1.541-9.5-4.791h-1.968S305.4,267.725,295.508,267.055Z" transform="translate(-294.387 -263.054)"/></g><g transform="translate(144.005 282.05)"><path class="g" d="M338.532,266.153l-8.913,8.17-35.231,1.543v3.9l35.231-1.542,10.716-9.823-.725-1.068A5.9,5.9,0,0,0,338.532,266.153Z" transform="translate(-294.387 -266.153)"/></g><g transform="translate(85.884 60.492)"><path class="b" d="M275.181,144.2,262.4,154.675l6.393,10.35,13.333-9.5Z" transform="translate(-262.396 -144.204)"/></g><g transform="translate(62.405 70.963)"><path class="h" d="M272.952,149.967l-21.6,18.448a5.346,5.346,0,0,0,.251,8.334l33.407,25.212,8.768,1.949,4.747-7.551v-4.026l-9.42.332a2.769,2.769,0,0,1-2.018-.772l-21.315-20.5,13.577-11.081Z" transform="translate(-249.473 -149.967)"/></g><g transform="translate(104.515 32.189)"><path class="h" d="M286.033,151.165H272.651l4.625-22.54h13.383Z" transform="translate(-272.651 -128.625)"/></g><g class="j" transform="translate(114.946 36.557)"><path class="g" d="M279.366,131.1l-.974,4.526a2.861,2.861,0,0,0,2.862,2.861h2.387l1.6-7.456Z" transform="translate(-278.392 -131.029)"/></g><g transform="translate(92.492 4.632)"><path class="k" d="M296.875,120.635l.145-.4-1.215-1.263a21.652,21.652,0,0,0-3.675-3.272c-3-1.942-6.753-2.269-10.329-2.242a22.831,22.831,0,0,0-5.345.54c-3.085.769-6.37,2.051-8.157,4.764a13.559,13.559,0,0,0-1.775,11.057c1.019,3.508,3.419,6.41,5.505,9.407a61.317,61.317,0,0,1,5.105,8.83c.451.957,1.84,5.826,2.862,5.225.5-.3.781-1.877.976-2.384a10.767,10.767,0,0,1,1.361-2.771c1.79-2.307,5.281-3.9,7.854-5.143,1.1-.532,1.75-.67,2.4-1.7a26.68,26.68,0,0,0,1.513-3.034,43.264,43.264,0,0,0,3.3-8.579A14.531,14.531,0,0,0,296.875,120.635Z" transform="translate(-266.033 -113.457)"/></g><g transform="translate(83.462)"><path class="k" d="M272.055,118.163c-.027-1.212.176-2.424.089-3.632a4.058,4.058,0,0,0-1.539-3.154,3.561,3.561,0,0,0-3.952.3,7.888,7.888,0,0,0-2.413,3.4,5.507,5.507,0,0,1-1.424,2.318c-.347.271-.767.445-1.09.747-.945.881-.712,2.418-.329,3.652a4.162,4.162,0,0,0,1.043,1.937c1.584,1.41,4.295.042,6.124,1.116l1.252-.3a2.912,2.912,0,0,0,2.342-2.605A20.7,20.7,0,0,0,272.055,118.163Z" transform="translate(-261.063 -110.908)"/></g><g transform="translate(110.775 10.894)"><path class="h" d="M288.71,116.9l5.519,8.441v2.6s1.89,4.017,3.655,5.4a.662.662,0,0,1-.053,1.074l-1.98,1.321v7.752a5.559,5.559,0,0,1-5.559,5.559h-5.216a2.861,2.861,0,0,1-2.862-2.861v-3.552s-3.368.365-4.707-1.7a21.631,21.631,0,0,1-1.384-4.438,1.806,1.806,0,0,1,2.647-1.882,3.489,3.489,0,0,0,1.432.438,1.73,1.73,0,0,0,1.726-1.741l.056-4.455a2.341,2.341,0,0,1,2.191-2.307h0a1.373,1.373,0,0,0,1.277-1.581C285.082,122.72,284.96,118.532,288.71,116.9Z" transform="translate(-276.096 -116.904)"/></g><g class="j" transform="translate(94.636 60.491)"><path class="l" d="M271.246,144.2l-2.209,1.811-1.719,11.891a10.344,10.344,0,0,0,.518,5l10.35-7.374Z" transform="translate(-267.213 -144.203)"/></g><g transform="translate(96.581 53.646)"><path class="b" d="M276.451,140.435l-6.079,6.846-1.98,13.7a10.358,10.358,0,0,0,1.041,6.239c3.058,5.917,9.071,19.214,9.1,23.895.018,3.41.819,6.84.025,13.637l26.518,5.479,5.843-34.189a51.349,51.349,0,0,0,.732-8.639v-.251a11.094,11.094,0,0,0-3.466-8.056L289.6,141.518Z" transform="translate(-268.284 -140.435)"/></g><g class="j" transform="translate(113.154 138.503)"><path d="M293.971,187.142l-16.565,37.812,5.747,10.01,12.594-42.345Z" transform="translate(-277.406 -187.142)"/></g><g transform="translate(34.499 117.964)"><path class="m" d="M306.467,175.837,298.155,189.3a29.286,29.286,0,0,0-4.368,15.388v4.024l1.573,6.088-6.7,51.872H269.523a33.113,33.113,0,0,0-8.8,1.192L234.113,275.2v11.933l54.086-3.387a22.854,22.854,0,0,0,20.479-16.295L329.333,198l3.652-16.682Z" transform="translate(-234.113 -175.837)"/></g><path class="h" d="M224.328,232.069v12.176l17.778-1.786V230.527Z" transform="translate(-207.606 -13.202)"/><g transform="translate(0 217.325)"><path class="i" d="M236.4,231.673l-3.256-1.146h-4a2.807,2.807,0,0,0-2.473,1.479L215.124,253.5v16.237h3.655a4.117,4.117,0,0,0,3.919-2.858l2-6.235,14.5-11.747a4.132,4.132,0,0,0,1.532-3.21v-2.333S232.836,242.643,236.4,231.673Z" transform="translate(-215.124 -230.527)"/></g><g transform="translate(0 217.325)"><path class="g" d="M219.019,253.5l11.546-21.493a2.807,2.807,0,0,1,2.473-1.479h-3.9a2.807,2.807,0,0,0-2.473,1.479L215.124,253.5v16.237h3.655c.084,0,.158-.034.24-.04Z" transform="translate(-215.124 -230.527)"/></g><g transform="translate(144.006 286.04)"><rect class="g" width="17.209" height="0.852"/></g><g transform="translate(14.518 217.466)"><g transform="translate(0 0.609)"><path class="g" d="M229.549,231.223l-.8-.283L223.115,246.1l.8.3Z" transform="translate(-223.115 -230.939)"/></g><g transform="translate(0.78 0)"><rect class="g" width="9.021" height="0.706" transform="translate(0 8.456) rotate(-69.619)"/></g></g><g transform="translate(144.006 287.988)"><rect class="g" width="7.631" height="0.852"/></g><g transform="translate(93 137.714)"><g class="j" transform="translate(1.737)"><path d="M268.147,187.284a1.143,1.143,0,0,0,.025-.576,29.533,29.533,0,0,0-.9,3.439C267.578,189.044,267.925,188.02,268.147,187.284Z" transform="translate(-267.269 -186.708)"/></g><g class="j" transform="translate(0 8.172)"><path d="M274.214,198.19c-2.035.421-3.49-.654-5.521-.972l.047-.042c.616-.518,3.12-.447-.243-1.9l-.027-.888a1.224,1.224,0,0,0-.189-1.464,3.228,3.228,0,0,1-.763-1.721c-.009.311-.031.62-.031.93v4.024l1.573,6.088-2.747,21.268A17.127,17.127,0,0,0,268,218.731c.623-3.238-.721-8.259,1.806-10.783a1.218,1.218,0,0,0-.243-1.9l1.4-3.45a1.083,1.083,0,0,0,.561-1.239,44.588,44.588,0,0,0,4.809-2.616C277.256,198.166,275.481,198.039,274.214,198.19Z" transform="translate(-266.313 -191.206)"/></g></g><g class="j" transform="translate(97.526 79.947)"><path class="l" d="M277.717,174.864c.276-.036.587-.1,1.121-.218,1.016-.214,1.4-1.746-.367-1.746.967,0-5.392-4.987-2.961-6.337a1.063,1.063,0,0,0,.565-.943c.349-.044,3.2.174,3.614.114,1.026-.145-1.319-2.038-2.2-2.475l-4.209-2.086.087-.027c.883-.122,4.982,1.159.532-2.02-1.691-1.21-3.176-2.687-4.766-4.031a1.223,1.223,0,0,0-.331-.183c.073.16.122.329.2.485,1.077,2.084,2.52,5.087,3.939,8.3l.02.009-.009.013c2.382,5.4,4.689,11.4,5.083,14.7A21.451,21.451,0,0,0,277.717,174.864Z" transform="translate(-268.804 -154.912)"/></g><g class="j" transform="translate(131.069 87.184)"><path class="l" d="M294.18,163.719a1.232,1.232,0,0,0,.32-.445l.509.051.4-2.358c.118-.687.174-1.381.265-2.071-1.444.674-1.455,2.613-2.616,1.361-.776-.836-4.791-.169-5.369,0-1.793.523,2.629,1.007,3.138,1.828-.105.254.254,1.077.323,1.332.36,1.314.536,1.07,1.381,2.129.623.785,1.17,1.566,1.691,2.365l.581-3.4C294.6,164.245,294.38,163.984,294.18,163.719Z" transform="translate(-287.267 -158.895)"/></g><g transform="translate(110.818 54.728)"><path class="b" d="M283.2,141.031l8.394,3.574a5.635,5.635,0,0,1,3.428,5.185v14.053H281.609v-13.03l-5.489-9.782Z" transform="translate(-276.12 -141.031)"/></g><g transform="translate(116.306 64.388)"><path class="h" d="M279.141,159.5l7.8,31.136a3.536,3.536,0,0,0,5.867,1.7L320.315,166.2l8.065-6.435a3.524,3.524,0,0,0,.73-3.372l-.392-1.274-7.645-4.929a2.163,2.163,0,0,0-2.834.432L316.42,152.8l-.73-.487.164-2.685a3.092,3.092,0,0,0-3.087-3.281h0l-.73,10.472.974,4.384-17.9,15.341L292.554,159.5Z" transform="translate(-279.141 -146.348)"/></g><g transform="translate(91.274 7.533)"><path class="c" d="M.812,0H6.73a.812.812,0,0,1,.812.812V2.2a.813.813,0,0,1-.813.813H.813A.813.813,0,0,1,0,2.2V.812A.812.812,0,0,1,.812,0Z" transform="matrix(0.56, -0.829, 0.829, 0.56, 0, 6.249)"/></g></g><g transform="translate(295.544 166.639)"><g transform="translate(107.991 191.078)"><path class="h" d="M232,221.162,246.516,239s-5.327,25.664,0,34.381c0,0,8.363,23,7.692,33.411h17.325l-2.017-8.475s-7.749-11.379-5.327-52.295c0,0,5.81-11.622.242-17.915l-4.38-11.057Z" transform="translate(-232 -217.052)"/></g><g transform="translate(130.199 272.345)"><path class="k" d="M244.224,267.689v11.257a4.386,4.386,0,0,0,4.386,4.386h39.975V279.7L266.4,269.266l-6.871-7.483S260.39,269.239,244.224,267.689Z" transform="translate(-244.224 -261.783)"/></g><g transform="translate(130.199 285.633)"><path class="g" d="M248.61,273.485a4.387,4.387,0,0,1-4.386-4.388v3.875a4.386,4.386,0,0,0,4.386,4.386h39.975v-3.632l-.514-.242Z" transform="translate(-244.224 -269.097)"/></g><g transform="translate(93.696 152.017)"><path class="e" d="M246.89,195.552l21.79,38.738-32.572,4.773-11.977-15.184,2.026-24.937Z" transform="translate(-224.132 -195.552)"/></g><g transform="translate(149.11 278.697)"><g transform="translate(2.451 1.95)"><path class="g" d="M255.981,269.511l1.695.928,2.677-3.234-1.814-.853Z" transform="translate(-255.981 -266.352)"/></g><g transform="translate(9.351 5.459)"><path class="g" d="M262.9,268.284l-3.119,3.322,1.754.94,3.21-3.394Z" transform="translate(-259.779 -268.284)"/></g><g transform="translate(5.679 3.641)"><path class="g" d="M262.53,268.152l-1.846-.868-2.926,3.041,1.847.92Z" transform="translate(-257.758 -267.283)"/></g><path class="g" d="M256.863,265.279l-2.23,2.648,1.481,1.248,2.175-2.583-.386-.182Z" transform="translate(-254.633 -265.279)"/></g><g transform="translate(9.442 197.277)"><path class="h" d="M229.558,220.464l-2.969,8s-20.99,4.6-24.863,13.8l-23.969,20.579,1.7,13.559,8.474-3.632s2.178-11.379,46.726-26.391l5.258-1.546a6.41,6.41,0,0,0,4.135-3.75l4.978-12.336Z" transform="translate(-177.757 -220.464)"/></g><g transform="translate(0 235.949)"><path class="k" d="M186.326,241.75h-8.5a3.777,3.777,0,0,0-3.772,3.572l-1.5,30.4,6.106,7.947a2.582,2.582,0,0,0,2.051,1.01h3.374a2.584,2.584,0,0,0,2.558-2.209l2.616-20.71,2.905-6.375S179.755,254.017,186.326,241.75Z" transform="translate(-172.56 -241.75)"/></g><g transform="translate(0 235.949)"><path class="g" d="M181.571,283.673l-6.106-7.947,1.5-30.4a3.778,3.778,0,0,1,3.772-3.572h-2.905a3.777,3.777,0,0,0-3.772,3.572l-1.5,30.4,6.106,7.947a2.582,2.582,0,0,0,2.051,1.01h2.905A2.584,2.584,0,0,1,181.571,283.673Z" transform="translate(-172.56 -241.75)"/></g><g transform="translate(61.243 74.401)"><path class="h" d="M218.979,152.831l-11.241,12.227a5.569,5.569,0,0,0-.583,6.784l9.051,14.057,24.541-24.937Z" transform="translate(-206.269 -152.831)"/></g><g class="j" transform="translate(63.867 76.135)"><path class="g" d="M216.205,153.785l-1.254,1.364-7.238,18.613,7.312,11.358,12.989-13.2-1.206-.36,5.757-9.414Z" transform="translate(-207.714 -153.785)"/></g><g transform="translate(98.885)"><path class="g" d="M271.311,118.014a5.592,5.592,0,0,0-.476-2.06,1.911,1.911,0,0,0-1.681-1.112c-1.13.058-1.77,1.372-2.825,1.779a1.971,1.971,0,0,1-2.467-1.128,5.387,5.387,0,0,1-5.24.59c-1.6-.569-2.9-1.27-4.551-1.746-1.528-.441-2.74-1.526-4.251-2.053a5.8,5.8,0,0,0-4.736.2,7.279,7.279,0,0,1-1.931,1.057c-1.079.229-2.113-.46-3.172-.772-2.371-.7-4.84.512-7.015,1.688-1.833.992-3.815,2.151-4.511,4.115a11.272,11.272,0,0,0-.385,3.09c-.145,2.384-1.034,4.555-1.079,6.878-.047,2.442.9,3.9,1.392,6.192.432,2.011.114,4.142.894,6.084a28.762,28.762,0,0,1,1.71,4.171c.38,1.67.485,3.517.765,5.223a1.468,1.468,0,0,0,.529,1.094c.52.307,1.152-.113,1.615-.5a16.454,16.454,0,0,1,2.257-1.637c2.763-1.606,6.021-2.017,8.79-3.63,2.874-1.677,3.179-4.466,4.329-7.383,1.473-3.737,5.034-6.444,8.143-8.808a5.012,5.012,0,0,1,4.1-1.1c1.88.245,4.291,1.926,6.126.825a4.372,4.372,0,0,0,1.448-1.837q.567-1.068,1.132-2.138a12.627,12.627,0,0,0,.914-2.006A12.518,12.518,0,0,0,271.311,118.014Z" transform="translate(-226.988 -111.879)"/></g><g transform="translate(95.722 28.212)"><rect class="h" width="18.641" height="29.431" transform="matrix(0.842, 0.539, -0.539, 0.842, 15.869, 0)"/></g><g class="j" transform="translate(93.696 152.854)"><path class="g" d="M243.1,213.42l4.449-16.778-5.779-.629-15.614,2.553L224.132,223.5l6.161,7.81L240.3,218.947A14.819,14.819,0,0,0,243.1,213.42Z" transform="translate(-224.132 -196.013)"/></g><g transform="translate(58.274 148.143)"><path class="e" d="M207.6,194.775l-.6,5.578a23.688,23.688,0,0,0,3.178,14.616h0l-5.547,26.32,24.044,10.238,24.638-30.462a14.8,14.8,0,0,0,2.805-5.527l4.449-16.778-49.083-5.34Z" transform="translate(-204.635 -193.42)"/></g><g class="j" transform="translate(111.147 28.212)"><path class="g" d="M234.182,127.408l-.445.692c.789-.122,4.582,2.865,4.582,2.865l-.968,7.829c0,4.326,1.864,7.954,5.761,9.235l6.769-10.57Z" transform="translate(-233.737 -127.408)"/></g><g transform="translate(111.147 11.348)"><path class="h" d="M261.076,120.632l2.378,7.963a2.98,2.98,0,0,1-2,3.7l-.38.114,2.173,8.655a.314.314,0,0,1-.307.383h-3l-.536,6.506a7.857,7.857,0,0,1-7.832,7.213h-3.494a9.764,9.764,0,0,1-9.765-9.764v-5.892s-3.714-.645-4.2-3.067c0,0-1.13-5.972.483-6.617,0,0,3.873-.808,4.52,1.613l.483,2.42,1.292-6.779S247.034,112.4,261.076,120.632Z" transform="translate(-233.737 -118.126)"/></g><g transform="translate(107.453 8.193)"><path class="g" d="M263.611,124.975c.074-2.307-.164-5-1.959-6.451a7.575,7.575,0,0,0-4.124-1.23c-3.859-.371-7.958-1.619-11.617-.345-1.344.467-3.259.972-4.6,1.448-2.049.729-3.5,2.044-5.509,2.883s-3.9,2.5-4.086,4.664a1.8,1.8,0,0,0,.225,1.175,2.325,2.325,0,0,0,1.546.759c2.573.52,8.472-.676,7.689,6.937-.229,2.226,1.143,3.1,3.886,5.009-.63-.438.83-6.375,1.057-7.056.556-1.668,1.419-3.363,2.1-4.991,1.214-2.892,4.2-3.118,6.915-2.869,2.747.253,5.972.632,8.717.883Z" transform="translate(-231.704 -116.389)"/></g><g transform="translate(59.8 44.545)"><path class="k" d="M246.809,136.4c-.213.329-8.891,3.848-8.891,3.848l-14.075,17.759a8.938,8.938,0,0,0-1.9,4.758L217.6,210.736a31.449,31.449,0,0,1-2.865,10.559l-9.257,19.669,34.165,9.144a21.264,21.264,0,0,0,17.125-2.736l7.3-3.5,11.633-62.7a7.723,7.723,0,0,0-.294-4.28l-9.306-25.5Z" transform="translate(-205.475 -136.398)"/></g><g transform="translate(8.483 252.308)"><g transform="translate(0 7.774)"><path class="g" d="M178.91,255.033l-1.681.961a7.789,7.789,0,0,0,6.895,4.108c.1,0,.18-.013.274-.016l.289-1.962A5.816,5.816,0,0,1,178.91,255.033Z" transform="translate(-177.229 -255.033)"/></g><g transform="translate(0.741 12.025)"><path class="g" d="M179.318,257.373l-1.681.961a6.414,6.414,0,0,0,5.681,3.377c.082,0,.151-.011.229-.013l.289-1.966A4.431,4.431,0,0,1,179.318,257.373Z" transform="translate(-177.637 -257.373)"/></g><g transform="translate(0 3.888)"><path class="g" d="M185.221,255.9a5.819,5.819,0,0,1-6.312-3.009l-1.681.961a7.788,7.788,0,0,0,6.893,4.106,7.313,7.313,0,0,0,.852-.049l.278-1.89Z" transform="translate(-177.229 -252.894)"/></g><g transform="translate(0.963)"><path class="g" d="M179.441,250.754l-1.682.959a7.793,7.793,0,0,0,6.9,4.108c.162,0,.3-.016.454-.025l.289-1.973A5.831,5.831,0,0,1,179.441,250.754Z" transform="translate(-177.759 -250.754)"/></g></g><g class="n" transform="translate(59.885 162.53)"><path class="g" d="M213.345,206.966c-2.037.312-3.065-.908-5-1.561l.8-.374c.774-.363,1.381-.756.585-1.112a14.466,14.466,0,0,1-3.067-2.58,23.688,23.688,0,0,0,2.792,7.162l-3.935,18.669c1.192-2.656,4.021-12.449,5.7-12.857,1.072-.26,2.289-1.052.287-2.195-.144-.082-.271-.187-.407-.28a9.46,9.46,0,0,0,1.041-1.3,1.11,1.11,0,0,0-.02-1.19c.834-.349,4.428-1.788,5.261-2.137C218.714,207,215.122,207.289,213.345,206.966Z" transform="translate(-205.522 -201.339)"/></g><g class="o" transform="translate(85.473 80.631)"><path class="g" d="M235.669,156.434q-3.24,1.9-6.517,3.739a1.148,1.148,0,0,0-.558,1.026c-.211.116-.42.243-.63.365a1.2,1.2,0,0,0-1.844-.205c-1.522,1.606-.885,3.625-1.835,5.378-.456.149-.9.323-1.363.465a1.281,1.281,0,0,0-.527,2.042c-.64.142-1.277.287-1.915.463-.917.254-1.266,1.755-.287,2.2l1.323.594-.262.38c-1.134,1.057.569,2.752,1.7,1.7a5.325,5.325,0,0,0,1.466-2.284,1.188,1.188,0,0,0-.16-.965c1.931-.345,10.7,2.086,9.743.754a6.07,6.07,0,0,0-3.754-1.937c-.812-.145-1.419-2-2.231-2.149.087-.033.178-.058.265-.091,1.157-.434,6.682-2.509,5.234-2.322-.111.015-5.763,0-5.87.015l0-.009-.055.018c-.227.036-.454.074-.667.122.027-.174.056-.343.084-.514a1.629,1.629,0,0,0,.378.007,4.416,4.416,0,0,0,2.117-.7,1.085,1.085,0,0,0,.511-1.352c.719-.391,1.443-.772,2.191-1.126a1.073,1.073,0,0,0,.552-1.168c1.377-.785,2.758-1.562,4.126-2.365A1.2,1.2,0,0,0,235.669,156.434Z" transform="translate(-219.606 -156.26)"/></g><g transform="translate(71.18 44.545)"><path class="k" d="M241.692,136.4l-29.954,32.9,21.79,11.137,18.177-13.316.274-12.219Z" transform="translate(-211.739 -136.398)"/></g><g class="p" transform="translate(72.201 82.42)"><path class="g" d="M260.67,185.2,225,174.547l5.757-9.414-15.433-7.888L212.3,190.637l44.254,6.184,6.882,2.421.17.028,3.193-17.21Z" transform="translate(-212.3 -157.245)"/></g><g transform="translate(63.82 78.732)"><path class="h" d="M217.559,155.215l-9.376,24.114a7.214,7.214,0,0,0,5.725,9.758l46.414,6.486L267.2,198l16.873,2.732a1.787,1.787,0,0,0,2.022-1.582h0a1.787,1.787,0,0,0-.977-1.786l-1.637-.818H285.2a1.9,1.9,0,0,0,1.889-1.751h0a1.894,1.894,0,0,0-1.2-1.909l-1.359-.536,1.624-.087a1.684,1.684,0,0,0,1.572-1.421h0a1.682,1.682,0,0,0-.936-1.777l-2.583-1.234h2.255a2.023,2.023,0,0,0,2.022-2.024h0a2.025,2.025,0,0,0-1.568-1.971l-4.727-1.09h0a3.752,3.752,0,0,0-3.648-2.4l-7.892.423-6.213,3.183L228.767,173.3l5.757-9.415Z" transform="translate(-207.688 -155.215)"/></g><g transform="translate(111.243 105.815)"><path class="g" d="M237.636,183.206l-3.846-.541,3.649-12.544,3.691,1.074Z" transform="translate(-233.79 -170.122)"/></g><g transform="translate(110.351 107.943)"><circle class="g" cx="4.681" cy="4.681" r="4.681"/><g transform="translate(1.13 1.13)"><circle class="q" cx="3.551" cy="3.551" r="3.551"/></g><g transform="translate(1.431 1.431)"><path class="e" d="M240.586,175.331a3.249,3.249,0,1,1-3.25-3.25A3.25,3.25,0,0,1,240.586,175.331Z" transform="translate(-234.087 -172.081)"/></g></g><g transform="translate(71.681 79.687)"><path class="g" d="M228.33,168.039l-16.316-8.082,1.64-4.216,16.888,8.446Z" transform="translate(-212.015 -155.74)"/></g><g transform="translate(70.233 73.319)"><g transform="translate(0 0)"><rect class="g" width="13.811" height="20.989" rx="2.105" transform="translate(9.995 0) rotate(28.437)"/></g><g transform="translate(2 1.984)"><path class="r" d="M1.294,0H9.752a1.294,1.294,0,0,1,1.294,1.294V16.542a1.293,1.293,0,0,1-1.293,1.293H1.294A1.294,1.294,0,0,1,0,16.542V1.294A1.294,1.294,0,0,1,1.294,0Z" transform="translate(8.493 0) rotate(28.436)"/></g><g transform="translate(3.065 3.167)"><rect class="b" width="9.581" height="16.003" rx="0.759" transform="translate(7.62 0) rotate(28.436)"/></g></g></g><g transform="translate(140.67 58.472)"><g transform="translate(610.716 160.845)"><path class="k" d="M427.331,141.143l-1.15,1.15-1.15-1.15a.919.919,0,0,0-1.3,1.3l1.15,1.15-1.15,1.15a.918.918,0,0,0,1.3,1.3l1.15-1.15,1.15,1.15a.918.918,0,0,0,1.3-1.3l-1.15-1.15,1.15-1.15a.919.919,0,0,0-1.3-1.3Z" transform="translate(-423.463 -140.874)"/></g><g transform="translate(0 172.834)"><path class="k" d="M91.182,147.742l-1.15,1.15-1.15-1.15a.918.918,0,0,0-1.3,1.3l1.15,1.15-1.15,1.148a.918.918,0,0,0,1.3,1.3l1.15-1.15,1.15,1.15a.919.919,0,1,0,1.3-1.3l-1.15-1.148,1.15-1.15a.919.919,0,0,0-1.3-1.3Z" transform="translate(-87.314 -147.473)"/></g><g transform="translate(43.321 50.227)"><path class="e" d="M113.5,81.156a1.168,1.168,0,1,1-1.168-1.168A1.169,1.169,0,0,1,113.5,81.156Z" transform="translate(-111.159 -79.988)"/></g></g></g></svg>