<svg xmlns="http://www.w3.org/2000/svg" width="428" height="385.957" viewBox="0 0 428 385.957"><defs><style>.a{fill:#a8d29f;}.b{fill:#82b378;}.c{fill:#ed7d2b;}.d{fill:#ffb93e;}.e{fill:#ffa412;}.f{fill:#d1f2c9;}.g{fill:#95c38b;}.h{fill:#2b478b;}.i{fill:#699dee;}.j{fill:#92beff;}.k{fill:#fcecdb;}.l{fill:#efcbab;}.m{fill:#ffb583;}.n{fill:#ea6c2d;}.o{fill:#233862;}.p{fill:#ffb07b;}.q{fill:#2a4e96;}.r{fill:#1e3d70;}.s{fill:#ea8e50;}.t{fill:#2c3a64;}.u{fill:#ffb27d;}.v{fill:#f99746;}.w{fill:#ed985f;}.x{fill:#f46c0f;}.y{fill:#ff9045;}.z{fill:#ffda9f;}</style></defs><g transform="translate(-251.528 -155.672)"><g transform="translate(360.066 155.672)"><g transform="translate(21.913 0)"><g transform="translate(64.895)"><g transform="translate(18.977)"><path class="a" d="M1534.431,427.491c-.022.419-.036.64-.036.64s-.068-.213-.2-.622c-1.095-3.376-6.444-20.037-11.313-38.59-6.733-25.669-12.545-54.952-4.9-57.659,14.486-5.132,17.157,35.879,17.2,66.141C1535.2,412.311,1534.586,424.607,1534.431,427.491Z" transform="translate(-1514.356 -289.117)"/><path class="a" d="M1611.545,260.718c-5.233,11.613-9.776,21.382-12.383,27.234-1.135,2.552-1.9,4.355-2.2,5.244.253-1.446.936-5.324,1.912-10.843v-.007c1.464-8.269,3.589-20.215,5.92-33.186,5.66-31.527,12.549-69.091,14.157-74.461,2.837-9.473,15.913-29.641,24.714-12.093C1649.386,174.008,1627.321,225.718,1611.545,260.718Z" transform="translate(-1577.295 -155.672)"/><path class="a" d="M1615.676,482.548c-5.411,5.711-9.958,10.34-12.5,12.9-1.388,1.4-2.176,2.183-2.176,2.183s1.385-2.953,3.745-7.67c2.23-4.456,5.328-10.485,8.949-17.081,11.866-21.62,29.334-49.331,40.166-47.73C1666.222,426.975,1635.287,461.849,1615.676,482.548Z" transform="translate(-1580.371 -360.934)"/><path class="b" d="M1561.7,613.386c-.076,0-.155.011-.239.018-1.095-3.376-6.444-20.038-11.313-38.59,2.27,3.4,6.376,7.962,12.3,8.483C1562.477,598.206,1561.859,610.5,1561.7,613.386Z" transform="translate(-1541.629 -475.013)"/><path class="b" d="M1617.662,559.855c-5.234,11.613-9.777,21.382-12.383,27.234a47.365,47.365,0,0,1-.285-5.6v-.007c1.464-8.269,3.589-20.215,5.92-33.186C1611.825,552.826,1613.723,557.842,1617.662,559.855Z" transform="translate(-1583.412 -454.809)"/><path class="b" d="M1622.639,635.484c-5.411,5.711-9.957,10.34-12.5,12.9a34.476,34.476,0,0,1,1.568-5.487c2.23-4.456,5.328-10.485,8.949-17.081C1620.741,628.581,1621.135,632.7,1622.639,635.484Z" transform="translate(-1587.334 -513.87)"/></g><path class="a" d="M1596.525,733.269c-.072.4-.108.618-.108.618C1596.362,733.858,1596.4,733.648,1596.525,733.269Z" transform="translate(-1557.881 -595.737)"/><path class="c" d="M1480.564,738.25c-9.075,25.712-20.377,53.748-20.377,53.748l-25.531-7.652s2.989-19.043,7.377-40.234c5.118-24.707,8.039-49.637,18.538-56.122a19.818,19.818,0,0,1,9.061-2.837,22.109,22.109,0,0,1,4.568.134c.358.047.708.1,1.062.163a24,24,0,0,1,2.606.618q.5.141.986.314a24.846,24.846,0,0,1,3.264,1.373c4.421,2.248,7.98,5.63,9.375,9.285C1495.688,708.028,1487.425,718.823,1480.564,738.25Z" transform="translate(-1434.656 -559.031)"/></g><g transform="translate(91.183 121.815)"><path class="d" d="M1552.2,756.165c-6.708,20.346-8.7,42.675-5.946,66.5a13.315,13.315,0,0,0,10.689,11.511c3.942-.021,11.715-7.184,16.161-16.325a34.384,34.384,0,0,0,2.764-7.884c4.457-21.144,12.71-46.6,22.948-59.618,10.469-13.307,24.574-29.214,43.965-40.154a.011.011,0,0,1,.007,0c1.871-1.072,45.87-33.112,45.87-33.112,4.378-4.628-.807-9.813-.807-9.813s-4.179,3.664-16.927,11.005-35.132-1.263-35.14-1.264a21.346,21.346,0,0,0-19.878,1.193,157.8,157.8,0,0,0-34.183,27.983A137.382,137.382,0,0,0,1552.2,756.165Z" transform="translate(-1545.058 -667.263)"/><path class="e" d="M1665.083,885.064c4.457-21.144,12.71-46.6,22.949-59.618,10.469-13.307,24.574-29.214,43.965-40.154a.011.011,0,0,1,.007,0c.338-.246,13.455-9.919-1.084-18.68-14.23-8.573-72.31,55.292-68.6,126.339A34.372,34.372,0,0,0,1665.083,885.064Z" transform="translate(-1634.269 -742.363)"/></g><g transform="translate(0 124.169)"><path class="a" d="M1230.856,789.69a47.419,47.419,0,0,1-6.754,8.3c-10.085,9.933-25.915,17.3-46.292,17.109,0,0-8.554-8.155-12.7-18.532l0,0c-2.876-7.2-4.976-17.8,0-25.663a19.786,19.786,0,0,1,11.5-8.732c7.1-2.159,14.355-1.046,17.527-4.207a31.5,31.5,0,0,1,12.466-7.357c.8-.255,1.608-.48,2.429-.665h0c.34-.081.676-.155,1.02-.222a.047.047,0,0,1,.022,0c7.534-1.471,15.582-.03,21.179,6.687a24.038,24.038,0,0,1,3.479,5.7C1238.323,770.163,1236.782,780.385,1230.856,789.69Z" transform="translate(-1162.115 -732.037)"/><path class="f" d="M1185.722,834.511s-6.724,5.279-4.664,11.12,7.375,3.143,9.037-.9S1190.142,832.549,1185.722,834.511Z" transform="translate(-1176.249 -796.812)"/><path class="g" d="M1240.835,779.473a24.109,24.109,0,0,1,3.48,5.7c3.586,8.059,8.508,29.435,2.583,38.742l-7.948,7.271c-10.084,9.934-31.187,7.176-51.563,6.983,0,0-8.553-8.155-12.7-18.531l0,0s25.207,9.973,48.948-10.847A52.092,52.092,0,0,0,1240.835,779.473Z" transform="translate(-1171.692 -755.108)"/><g transform="translate(3.145 5.95)"><path class="a" d="M1202.876,709.918c-4.161-2.478-8.371,1-13.258,2.914s-14.295,1.875-14.295,1.875a68.238,68.238,0,0,1,10.209-11.1C1191.874,698.073,1202.876,709.918,1202.876,709.918Z" transform="translate(-1175.324 -702.133)"/><path class="b" d="M1202.876,709.918c-3.91-3.21-11.142-5.051-14.671-3.606s-12.881,8.395-12.881,8.395a68.238,68.238,0,0,1,10.209-11.1C1191.874,698.073,1202.876,709.918,1202.876,709.918Z" transform="translate(-1175.324 -702.133)"/></g><path class="g" d="M1240.525,762.492a31.5,31.5,0,0,1,12.466-7.357c-8.311,3.116-12.895,13.649-16.048,12.429-3.382-1.312-13.556-.883-13.944-.865C1230.1,764.54,1237.354,765.653,1240.525,762.492Z" transform="translate(-1208.502 -736.565)"/><path class="g" d="M1360.2,751.409c-.263.074-.6.148-1.02.222C1359.515,751.549,1359.851,751.476,1360.2,751.409Z" transform="translate(-1312.253 -733.726)"/><g transform="translate(27.554)"><path class="b" d="M1279.309,707.933h0c-2.665-5.889-1.225-13.193.453-18.284a115.894,115.894,0,0,1,5.154-12.121.678.678,0,0,1,1.255.085l.507,1.535a5.538,5.538,0,0,1-.516,4.6c-2.576,4.259-7.75,14.212-5.419,22.406C1281,707.081,1279.781,708.988,1279.309,707.933Z" transform="translate(-1277.833 -677.146)"/></g></g></g><g transform="translate(89.099 168.059)"><g transform="translate(15.872)"><path class="h" d="M1511.77,874.914l-.83-.332a30.76,30.76,0,0,1,13.85-10.94,36.424,36.424,0,0,1,8.191-2.16.814.814,0,0,1,.724.278l.7.81a.685.685,0,0,1-.418,1.116C1529.969,864.259,1517.313,866.665,1511.77,874.914Z" transform="translate(-1510.94 -861.474)"/></g><path class="i" d="M1445.368,899.808c4.21-10.515,10.134-8.143,17.442-5.218s13.232,5.3,9.023,15.812a14.26,14.26,0,1,1-26.465-10.594Z" transform="translate(-1444.281 -884.808)"/><path class="j" d="M1467.357,903.732c.264-1.885,3.3-3.869,5.182-3.6s2.761,2.369,2.5,4.254-2.86,3.5-4.744,3.241A3.446,3.446,0,0,1,1467.357,903.732Z" transform="translate(-1461.837 -890.906)"/></g><path class="k" d="M1641.016,935.591l22.571,160.784a33.143,33.143,0,0,1-32.822,37.751h-34.006a28.844,28.844,0,0,1-28.674-31.981l19.1-149.565Z" transform="translate(-1449.374 -749.884)"/><path class="k" d="M1315.11,935.591s54.71,18.654,118.537,0l-18.807,199.044H1295.734Z" transform="translate(-1242.005 -749.884)"/><path class="l" d="M1143.192,935.591l22.571,161.2a33.2,33.2,0,0,1-32.821,37.848h-34.007a28.891,28.891,0,0,1-28.674-32.064l16.168-166.98s7.965,1.555,27.341,1.555C1132.961,937.146,1143.192,935.591,1143.192,935.591Z" transform="translate(-1070.087 -749.884)"/><path class="c" d="M1556.769,997.313a4.238,4.238,0,1,0-6.362,3.662c1.8,14.264-1.038,25.922-8.111,33.064-6.429,6.493-16.183,8.9-28.2,6.96-10.57-1.706-17.526-13.4-21.5-22.913a110.374,110.374,0,0,1-5.531-17.576,4.236,4.236,0,1,0-4.868.483c2.278,10.455,10.715,41.493,31.127,44.787a53.769,53.769,0,0,0,8.553.717c9.79,0,17.939-3.067,23.864-9.05,8.109-8.19,11.428-21.188,9.5-36.875A4.227,4.227,0,0,0,1556.769,997.313Z" transform="translate(-1382.434 -793.681)"/></g><g transform="translate(543.146 314.007)"><g transform="translate(22.92 22.811)"><path class="c" d="M2044.485,1028.86a41.826,41.826,0,0,0,9.248,1.916c12.437,1.175,27.374-2.609,41.208-14.1,0,0,1.307-10.348-1.639-19.759h0c-2.044-6.527-6.516-14.949-14.3-17.56a17.461,17.461,0,0,0-12.739.439c-6.059,2.479-10.4,7.286-14.335,6.891a27.8,27.8,0,0,0-12.629,1.915c-.689.271-1.368.568-2.033.9l0,0c-.278.134-.55.271-.822.417a.04.04,0,0,0-.017.01c-5.975,3.193-10.677,8.666-10.762,16.381a21.215,21.215,0,0,0,.8,5.839C2028.492,1019.663,2035.245,1025.8,2044.485,1028.86Z" transform="translate(-2025.654 -963.618)"/><path class="m" d="M2222.292,994.36s7.543-.136,9.389,5.008-3.294,6.261-6.687,4.42S2218.175,995.482,2222.292,994.36Z" transform="translate(-2174.035 -975.805)"/><path class="n" d="M2025.654,1065.68a21.3,21.3,0,0,0,.8,5.842c2.039,7.512,10.587,24.881,19.828,27.946,0,0,18.329,8.421,28.808,4.5,11.7-4.374,18.9-13.62,19.852-27.923,0,0,1.306-10.347-1.639-19.759h0s-11.687,20.873-39.535,19.862A45.971,45.971,0,0,1,2025.654,1065.68Z" transform="translate(-2025.653 -1022.988)"/><g transform="translate(20.378)"><path class="a" d="M2111.236,930.424c1.465-4.014,6.287-3.98,10.695-5.4s10.825-6.685,10.825-6.685a60.231,60.231,0,0,0-13.173-1.9C2112.161,916.188,2111.236,930.424,2111.236,930.424Z" transform="translate(-2111.236 -916.435)"/><path class="b" d="M2111.236,930.424c.886-4.375,4.809-9.666,8.027-10.645s13.493-1.437,13.493-1.437a60.231,60.231,0,0,0-13.173-1.9C2112.161,916.188,2111.236,930.424,2111.236,930.424Z" transform="translate(-2111.236 -916.435)"/></g><path class="n" d="M2095.558,991.274a27.8,27.8,0,0,0-12.629,1.915c7.423-2.5,16.43,2.15,17.907-.442,1.583-2.783,8.782-8.161,9.058-8.364C2103.834,986.862,2099.49,991.669,2095.558,991.274Z" transform="translate(-2069.291 -968.204)"/><path class="g" d="M2070.931,1025.567c.22-.1.492-.232.821-.417C2071.474,1025.284,2071.2,1025.421,2070.931,1025.567Z" transform="translate(-2060.15 -999.264)"/><g transform="translate(9.389 6.992)"><path class="b" d="M2086.721,963.534h0c-1.459-5.515-6.516-9.709-10.5-12.257a102.377,102.377,0,0,0-10.282-5.42.6.6,0,0,0-.811.758l.509,1.332a4.885,4.885,0,0,0,2.92,2.863c4.135,1.478,13.224,5.4,16.2,12.309C2085.086,963.9,2086.986,964.519,2086.721,963.534Z" transform="translate(-2065.085 -945.8)"/></g></g><path class="o" d="M1951.786,1710.833s-5.544,4.154-14.04,1.959c0,0-6.849-1.561-8.352,1.855,0,0,10.505,5.337,13.163,6.8a31.85,31.85,0,0,1,5.572,4.178,2.755,2.755,0,0,0,3.989-.307c.462-.568.991-1.245,1.571-2.03,1.619-2.195,5.394-9.285,5.394-9.285Z" transform="translate(-1929.395 -1498.868)"/><path class="h" d="M2009.764,1385.006s3.376,7.785,11.169,6.353c0,0,15.9-13.132,26.81-26.775a60.578,60.578,0,0,0,8.331-13.019c7.234-16.747,26.756-41.724,39.169-54.384l-31.056-11.234s-9.947,20.01-23.182,44.589C2031.466,1348.245,2020.223,1368.327,2009.764,1385.006Z" transform="translate(-1990.627 -1175.152)"/><path class="o" d="M2140.966,1330.536l6.738,34.049a60.584,60.584,0,0,0,8.331-13.019c7.234-16.747,26.756-41.724,39.169-54.384l-31.056-11.234S2154.2,1305.957,2140.966,1330.536Z" transform="translate(-2090.589 -1175.152)"/><path class="o" d="M2210.756,1718.912s.339,6.212-7.192,7.04c0,0-4.3.023-4.315,3.976l21.885.069a17.03,17.03,0,0,0,.789-5.01c.119-2.623-2.542-9.479-2.542-9.479Z" transform="translate(-2134.995 -1502.429)"/><path class="h" d="M2205.5,1281.537s-13.835,15.2-22.617,42.59c-4.779,14.9,8.758,52.367,11.4,65.383,0,0,9.08.771,15.289-1.63,0,0,.472-26.886-3.159-47.608-2.032-11.6,18.216-24.8,27.063-45.758,6.019-14.256-1.3-14.014-10.3-14.356Z" transform="translate(-2121.75 -1170.742)"/><path class="p" d="M2348.178,941.077c7.7,4.347,23.455.338,23.455.338s-6.4-7.316-3.491-19.1l-6.043,3.069-6.492,3.3a53.879,53.879,0,0,0-.712,5.819c-.074.962-.141,2.038-.187,3.213A20.19,20.19,0,0,0,2348.178,941.077Z" transform="translate(-2248.462 -898.105)"/><path class="q" d="M2229.64,1056.341c0,1.353,1.558,2,1.889,2.066,3.1.568,11.773,3.94,19.583,4.713a62.591,62.591,0,0,0,19.386-1.312c.888-.179,2.974-.74,3.122-1.591.185-.93,25.87-52.361,5.9-74.454-.469-.518-4.41.415-8.015,1.27a14.8,14.8,0,0,1-9.109-.744l-3.38,1.778c-4.151,2.313-12.006,10.531-12.925,16.98-.467,3.279-2.342,5.708-2.884,8.593q-.3,1.6-.617,3.125-.614,2.989-1.265,5.691c-1.174,4.877-2.414,9.076-3.631,12.7-1.3,3.851-2.566,7.054-3.7,9.734-1.472,3.475-2.716,6.072-3.493,8.06A9.928,9.928,0,0,0,2229.64,1056.341Z" transform="translate(-2158.148 -946.331)"/><path class="r" d="M2233.267,1108.8c36.257-17.082,48.814-49.884,48.814-49.884s-29.458,10.867-36.724,13.7q-.615,2.988-1.264,5.691c-1.174,4.877-2.414,9.076-3.631,12.7-1.3,3.851-2.566,7.054-3.7,9.734C2235.288,1104.219,2234.044,1106.816,2233.267,1108.8Z" transform="translate(-2160.912 -1002.183)"/><g transform="translate(37.368 46.935)"><path class="p" d="M2096.729,1223.982s-5.041-2.066-6.2-1.9-4.362-.637-4.18.413c.126.725,4.262,1.488,4.262,1.488s-4.619-1.039-4.262.041c.245.742,1.227,3.7,2.754,4.669,1.828,1.157,5.137.6,9.015.038C2105.24,1227.7,2096.729,1223.982,2096.729,1223.982Z" transform="translate(-2086.331 -1173.322)"/><path class="q" d="M2127.949,1071.969c-1.158-3.022-1.687-4.391-1.687-4.391s23.675-19.3,26.087-20.952c1.644-1.128,18.008-13.361,25.987-22.894a16.7,16.7,0,0,1,16.233-5.625l4.969,1.042a7.391,7.391,0,0,1,3.3,12.845c-13.111,11.239-35.224,24.276-39.346,26.987-10.236,6.731-32.874,16.163-32.874,16.163A5.829,5.829,0,0,1,2127.949,1071.969Z" transform="translate(-2116.754 -1017.751)"/></g><path class="s" d="M2376.388,944.322c7.569.425,12.491-5.825,12.491-5.825a60.046,60.046,0,0,1-5.289-3.291l-6.491,3.3A53.83,53.83,0,0,0,2376.388,944.322Z" transform="translate(-2269.954 -907.926)"/><path class="p" d="M2360.716,879.065s11.469,8.231,16.485,1.009,9.874-11.022,2.763-16.583-10.462-3.8-12.723-1.8S2357.861,876.738,2360.716,879.065Z" transform="translate(-2257.507 -850.441)"/><path class="o" d="M2385.04,825.365a18.472,18.472,0,0,1,1.336-4.729s.72,2.981,6.169,2.57,14.084.536,16.963,6.745c.183.395.346.8.491,1.218a14.363,14.363,0,0,0,.647-3.439,10.6,10.6,0,0,1,0,6.016h0c.016.1.029.2.043.293,1.2,1.017,2.212,4.177,2.212,4.177a3.783,3.783,0,0,0-2.037-1.811c.024,4.832-1.935,9.555-5.374,10.961-5.029,2.056-4.988.488-10.046,3.842,0,0-1.356-1.683-.431-2.814s4.421-2.776,2.468-4.42-2.673.205-3.393-.925,2.879-4.421-1.748-7.5S2384.63,828.141,2385.04,825.365Z" transform="translate(-2276.518 -820.636)"/></g><g transform="translate(312.039 176.18)"><path class="t" d="M921.005,248.517c-.02-.544-.441-6.408-9.373-6.715,0,0,4.392.524,5.151,2.455,0,0-2.991-2.386-5.427-1.618s-3.866,5.034-3.88,6.438,1.339,5.928,2.884,6.313a4.723,4.723,0,0,0,1.872,0,21.038,21.038,0,0,0-1.2,2.142c-3.564,7.316.112,14.467,3.129,13.677,1.935-.507,2.483,2.8,2.483,2.8l18.8-15.22S928.54,244.5,921.005,248.517Z" transform="translate(-876.639 -241.802)"/><path class="h" d="M886.722,778.165l-3.993,1.487s-17.346-24.057-19.481-45.223a32.141,32.141,0,0,1,.571-10.821s-.17-.968-.466-2.68c-.137-.8-.306-1.761-.5-2.862-.564-3.231-1.34-7.652-2.227-12.686-2.041-11.584-4.685-26.393-6.739-37.279l1.076-.346L866.606,664l2.406-7.642,8.669-2.282s1.937,3.789,3.668,21.685c.319,2.347.61,4.936.828,7.743a153.256,153.256,0,0,1-.825,31.348q-.6,4.666-1.522,9.621a42.916,42.916,0,0,0-.333,9.5C880.371,751.275,886.722,778.165,886.722,778.165Z" transform="translate(-835.81 -555.908)"/><path class="o" d="M882.177,683.5l-18.825,37.425c-.137-.8-.306-1.761-.5-2.862-.564-3.231-1.34-7.652-2.227-12.686-2.041-11.584-4.685-26.393-6.739-37.279l1.076-.346L866.606,664l2.406-7.642,8.669-2.282s1.937,3.789,3.668,21.685C881.668,678.106,881.959,680.695,882.177,683.5Z" transform="translate(-835.81 -555.908)"/><path class="h" d="M818.223,644.948l-.436-3.737c-7.3,1.939-26.809-5.419-26.809-5.419s-7.073,6.217-6.144,21.121c.453,7.274,1.281,38.185,2.146,47.332.312,3.315.586,5.674.7,6.617a.018.018,0,0,1,0,.009,1.306,1.306,0,0,1-.212.81,42.936,42.936,0,0,0-3.192,6.713c-8.488,22.618,1.307,50.471,1.307,50.471l2.542-1.025s5.574-31,10.1-44.692a27.117,27.117,0,0,1,2.181-5.239c1.969-3.178,3.8-8.371,5.455-14.547,3.135-11.677,5.658-26.868,7.337-38.593C813.434,664.779,818.223,644.948,818.223,644.948Z" transform="translate(-780.137 -541.979)"/><path class="u" d="M1159.082,629.661c-1.572,1.39-5.742-3.384-6.316-4.019a.375.375,0,0,0-.061-.091l1.269-3.536s5.47-.211,6.377.7S1160.8,628.18,1159.082,629.661Z" transform="translate(-1063.475 -531.466)"/><path class="u" d="M1020.654,489.751l-.544,3.657s-.242,0-.665-.03c-1.33-.091-4.563-.272-8.22-.665-5.5-.544-12.028-1.511-14.627-3.113-3.959-2.417-10.457-9.822-14.688-17.226a4.887,4.887,0,0,1-.3-.544c-2.206-3.929-3.747-7.828-3.868-10.94a15.627,15.627,0,0,1,.514-4.956,12.642,12.642,0,0,1,2.236-4.473,2.262,2.262,0,0,1,.423-.514,10.44,10.44,0,0,1,2.871-2.448c.725-.3,1.511.061,2.327.937v.03a13.868,13.868,0,0,1,2.085,3.083c.03.03.061.061.061.091.151.272.3.574.484.907a.759.759,0,0,1,.121.212q.5,1.043,1,2.176c3.717,8.1,7.676,20.369,10.97,24.026,1.42,1.571,7.918,4.654,13.086,6.951C1017.633,488.543,1020.654,489.751,1020.654,489.751Z" transform="translate(-930.156 -399.203)"/><path class="u" d="M918.65,396.923a22.728,22.728,0,0,1-8.408,1.969c-12.552.688-15.4-10.316-15.92-17.619a10.524,10.524,0,0,1,4.307-.545c.89.049,1.819.14,2.585.235,1.536-.8,4.294-4.7,5.888-11.215l.541.251,9.057,4.258s-.962,2.947-1.672,5.767c-.554,2.207-.952,4.34-.62,4.936.714.29,1.141.473,1.141.473a.027.027,0,0,0,0,.01A62.141,62.141,0,0,1,918.65,396.923Z" transform="translate(-866.616 -339.283)"/><path class="v" d="M856.111,439.526c-.094.251-.2.5-.313.747-3.179,6.847-9.064,35.208-9.064,35.208.838,5.1-38.322-1-38.423-5.644-1.379-4.923,4.894-12.833,8.431-16.8a11.28,11.28,0,0,0,1.187-1.6,11.131,11.131,0,0,0,1.6-4.682,161.84,161.84,0,0,0,.489-16.5h0c.691-.512,1.36-.985,1.982-1.435a17.685,17.685,0,0,0,2.413-2,3.651,3.651,0,0,0,1.157-2.279,12.1,12.1,0,0,0-.049-1.911c-.029-.3-.068-.606-.114-.91a25.9,25.9,0,0,0-1.819-6.074c3.368-1.363,9.357-.551,9.357-.551s-.006.333-.01.877c-.019,2.188,0,7.806.7,8.868.877,1.324,16.921,7.124,17.769,5.327.835-1.767-1.451-10.045-1.535-10.358a.026.026,0,0,1,0-.01c5.373,2.109,7.293,3.88,7.293,3.88C853.926,425.781,858.615,432.885,856.111,439.526Z" transform="translate(-800.937 -373.65)"/><path class="w" d="M959.325,375.068s-.963,2.944-1.672,5.767c-5.294-1.477-6.9-7.042-7.385-10.025Z" transform="translate(-909.24 -340.092)"/><path class="u" d="M958.04,328.077s-12.666-2.931-10.719-10.791,1.624-13.531,9.793-11.992,8.991,4.926,8.98,7.708S961.385,328.637,958.04,328.077Z" transform="translate(-906.841 -289.983)"/><path class="t" d="M956.619,303.955c-1.362-2.849-2.964-2.7-3.967-2.192a9.086,9.086,0,0,0-11.789-1.008,15.467,15.467,0,0,1-7.116,7.646s1.946,1.992,7.585,1.948a9.282,9.282,0,0,0,5.031-1.894,30.324,30.324,0,0,1-6.6,4.926c7.06-1.351,11.794-9.524,12.279-10.392a10.185,10.185,0,0,1,1.838,4.351c.131,2.157-.611,6.347.624,6.506C954.5,313.846,958.661,308.228,956.619,303.955Z" transform="translate(-896.654 -285.399)"/><path class="v" d="M1007.493,451.911s3.05,5.32,3.506,6.689c0,0-3.955-.152-5.552,2.89C1005.447,461.49,1005.064,452.628,1007.493,451.911Z" transform="translate(-951.265 -401.882)"/><path class="c" d="M867.588,504.233c-7.724-.081-14.264-8.1-18.261-14.512a11.133,11.133,0,0,0,1.6-4.682,161.943,161.943,0,0,0,.489-16.5h0c.691-.512,1.36-.985,1.982-1.435a17.7,17.7,0,0,0,2.413-2C862.14,475.793,878.06,504.344,867.588,504.233Z" transform="translate(-832.335 -411.932)"/><path class="o" d="M798.19,1167.1H778.076a11.044,11.044,0,0,1,.568-5.391c1.007-2.231,2.583-3.246,2.206-5.946a7.245,7.245,0,0,0,6.269,2.4c.356.578,2.3,3.669,3.49,4.524C791.924,1163.634,797.785,1163.3,798.19,1167.1Z" transform="translate(-777.966 -938.142)"/><path class="o" d="M979.232,1169.991H959.119s-.752-3.208.568-5.391c1.169-1.931.721-3.031-.145-4.63a7.817,7.817,0,0,0,3.388.638,7.085,7.085,0,0,0,2.991-1.052,72.4,72.4,0,0,0,5.731,6.02C972.966,1166.521,978.827,1166.184,979.232,1169.991Z" transform="translate(-915.822 -941.029)"/><g transform="translate(65.696 66.855)"><g transform="translate(16.834)"><path class="h" d="M1125.555,541.053l-.986-.243a34.934,34.934,0,0,1,13.854-14.481,41.341,41.341,0,0,1,8.871-3.718.923.923,0,0,1,.857.2l.91.8a.778.778,0,0,1-.295,1.321C1144.346,526.207,1130.491,530.9,1125.555,541.053Z" transform="translate(-1124.569 -522.577)"/></g><path class="x" d="M1054.377,585.469c3.08-12.487,10.115-10.752,18.793-8.611s15.714,3.876,12.634,16.363a16.192,16.192,0,1,1-31.428-7.752Z" transform="translate(-1053.873 -562.782)"/><path class="y" d="M1075.494,589.081c0-2.161,3.1-4.869,5.261-4.869s3.478,2.23,3.478,4.391-2.665,4.391-4.826,4.391A3.913,3.913,0,0,1,1075.494,589.081Z" transform="translate(-1070.346 -569.536)"/></g><path class="u" d="M900.734,472.294l-1.058,3.868s-1.33-.242-3.445-.635c-.635-.121-1-.211-1-.211-1.693-.332-3.717-.786-5.923-1.269h-.03c-3.778-.907-8.008-1.994-11.575-3.2a31.8,31.8,0,0,1-6.165-2.75,3.665,3.665,0,0,1-.423-.3c-3.536-2.569-7.737-10.124-11-18.223-.453-1.118-.876-2.236-1.3-3.324a82.636,82.636,0,0,1-3.445-11.484,32.465,32.465,0,0,1-.816-5.47,13.347,13.347,0,0,1-.03-1.542c.06-8.764,4.412-9.973,4.412-9.973.091-.03.181-.06.3-.09.755-.121,1.541.393,2.358,1.39a27.462,27.462,0,0,1,3.234,5.712c1.722,3.9,3.536,8.946,5.228,13.963.937,2.75,1.843,5.5,2.75,8.039.514,1.541,1.028,2.992,1.511,4.322A41.647,41.647,0,0,0,876.859,457a14.643,14.643,0,0,0,3.717,3.355,135.384,135.384,0,0,0,11.968,7.434c1.693.967,3.294,1.844,4.624,2.569C899.313,471.539,900.734,472.294,900.734,472.294Z" transform="translate(-836.286 -375.792)"/><path class="v" d="M864.825,424.849c-5.818-1.6-10.306,2.939-10.306,2.939.073-8.75,4.429-9.948,4.429-9.948C860.7,417.114,862.731,420.149,864.825,424.849Z" transform="translate(-836.291 -375.842)"/><path class="u" d="M1045.245,640.587a6.7,6.7,0,0,0,2.971-.614,12.678,12.678,0,0,1,5.486-1.4.545.545,0,0,1,.328.685c-.179.477-2.415.865-2.415,1.759a17.156,17.156,0,0,0,3.637-.447c.835-.358,4.054.464,4.68.835s-4.084,3.207-6.171,4.353-9.575-1.3-9.575-1.3Z" transform="translate(-980.797 -544.084)"/></g><g transform="translate(272.992 405.142)"><g transform="translate(9.003 6.835)"><g transform="translate(72.35)"><path class="k" d="M976.362,1360.739a1.472,1.472,0,0,1-1.389-1.321l-6.806-44.749-9.789-64.357-2.738-18,6.973-.231,1.21,10.447,8.494,73.416,5.036,43.517A1.088,1.088,0,0,1,976.362,1360.739Z" transform="translate(-955.641 -1232.085)"/></g><path class="k" d="M673.512,1232.316l-3.1,20.4v0l-8.57,56.339-7.662,50.365a1.469,1.469,0,0,1-1.387,1.321,1.088,1.088,0,0,1-.991-1.274l6.607-57.1,7.066-61.072,1.067-9.214Z" transform="translate(-651.791 -1232.085)"/><path class="l" d="M714.187,1252.712c.408-8.765-4.936-11.413-4.936-11.413l1.067-9.214,6.973.231Z" transform="translate(-695.569 -1232.085)"/><path class="l" d="M963.823,1242.532c-4.517,2.313-5.445,7.781-5.445,7.781l-2.738-18,6.973-.231Z" transform="translate(-883.291 -1232.085)"/></g><path class="k" d="M3.533,0H108.543a3.533,3.533,0,0,1,3.533,3.533v0a3.533,3.533,0,0,1-3.533,3.533H3.533A3.533,3.533,0,0,1,0,3.533v0A3.533,3.533,0,0,1,3.533,0Z"/></g><path class="b" d="M2439.554,1680.3h-25.769c-1.381-1.171.956-3.832,3.4-4.01a15.049,15.049,0,0,1,3.933.465c.354-4.71,2.38-25.883,10.012-25.032,8.581.952,0,9.324-2.426,14.281a117.788,117.788,0,0,0-4.559,11.421c.7.151,1.418.3,2.154.435,1.138-3.492,5.37-15.239,10.752-14.555,6.319.8,3.78,5.511-.7,8.307-3.286,2.056-7.321,4.978-9.238,6.39a27.374,27.374,0,0,0,5.04.4C2436.564,1678.295,2438.719,1679.6,2439.554,1680.3Z" transform="translate(-1765.752 -1139.804)"/><path class="b" d="M434.7,1680.3H460.47c1.381-1.171-.955-3.832-3.4-4.01a15.047,15.047,0,0,0-3.933.465c-.354-4.71-2.379-25.883-10.012-25.032-8.582.952,0,9.324,2.426,14.281a117.822,117.822,0,0,1,4.559,11.421c-.7.151-1.418.3-2.155.435-1.137-3.492-5.37-15.239-10.751-14.555-6.319.8-3.779,5.511.7,8.307,3.286,2.056,7.321,4.978,9.238,6.39a27.367,27.367,0,0,1-5.04.4C437.691,1678.295,435.537,1679.6,434.7,1680.3Z" transform="translate(-181.891 -1139.804)"/><g transform="translate(446.873 450.293)"><path class="d" d="M1435.233,1447.225a91.1,91.1,0,0,0,4.033,14.489c12.2,32.15,37.637,25.218,62.465,25.218,28.03,0,27.975-18.773,27.975-44.153s-15.527-45.546-43.557-45.546S1430.277,1422.335,1435.233,1447.225Z" transform="translate(-1434.656 -1396.226)"/><g transform="translate(22.038 0)"><path class="e" d="M1617.281,1447.806c.174-25.711-18.521-46.368-43.484-53.225-25.472-7-46.627,10.118-46.587,35.055.04,25.05,21.633,49.862,47.469,53.2C1599.67,1486.057,1617.112,1472.815,1617.281,1447.806Z" transform="translate(-1527.211 -1393.004)"/><path class="z" d="M1622.217,1453.936c.166-24.43-17.6-44.058-41.317-50.573-24.2-6.648-44.3,9.614-44.266,33.309.038,23.8,20.555,47.377,45.1,50.545C1605.483,1490.281,1622.056,1477.7,1622.217,1453.936Z" transform="translate(-1534.39 -1399.755)"/><g transform="translate(7.587 7.736)"><path class="d" d="M1654.825,1457.629l6.942-26.126a4.072,4.072,0,0,0-3.106-4.694,54.868,54.868,0,0,0-20.407-.676c-1.959.3-2.742,2.5-1.587,4.448l16.016,27C1653.257,1458.551,1654.572,1458.578,1654.825,1457.629Z" transform="translate(-1617.781 -1425.492)"/><path class="d" d="M1737.6,1564.632l26.027,16.267c1.937,1.21,4.149.462,4.531-1.537a52.309,52.309,0,0,0,.938-9.663,65.639,65.639,0,0,0-.954-11.01,3.871,3.871,0,0,0-4.445-3.185l-26.124,6.95C1736.634,1562.7,1736.65,1564.041,1737.6,1564.632Z" transform="translate(-1694.54 -1524.475)"/><path class="d" d="M1727.749,1480.21l25.742-6.847c1.916-.509,2.52-2.825,1.233-4.745a73.786,73.786,0,0,0-6.691-8.584,82.935,82.935,0,0,0-8.685-8.22c-1.762-1.438-4.083-1.023-4.7.839l-8.533,25.807A1.439,1.439,0,0,0,1727.749,1480.21Z" transform="translate(-1686.299 -1444.89)"/><path class="d" d="M1722.59,1600.052l7.961,28.744c.592,2.139,2.91,3.543,4.752,2.872a43.125,43.125,0,0,0,8.183-3.964,46.71,46.71,0,0,0,7.731-6.134c1.341-1.323.824-3.845-1.047-5.108l-25.923-17.495C1723.318,1598.341,1722.3,1599.007,1722.59,1600.052Z" transform="translate(-1683.617 -1557.476)"/><path class="d" d="M1591.729,1475.472l-17.391-25.755c-1.294-1.917-3.8-2.439-5.135-1.066a41.985,41.985,0,0,0-5.572,7.088,50.008,50.008,0,0,0-4.387,9.089,3.877,3.877,0,0,0,2.774,4.716l28.686,7.645C1591.731,1477.462,1592.36,1476.407,1591.729,1475.472Z" transform="translate(-1559.074 -1442.548)"/><path class="d" d="M1590.917,1564.938l-28.332-4.927a2.682,2.682,0,0,0-3.122,3.471,65.874,65.874,0,0,0,3.224,9.976,79.42,79.42,0,0,0,5.352,10.5c1.178,1.938,3.651,2.552,5.007,1.244l18.8-18.116C1592.514,1566.436,1591.946,1565.117,1590.917,1564.938Z" transform="translate(-1559.294 -1527.943)"/><path class="d" d="M1652.014,1598.107l-15.278,20.9c-1.137,1.555-.332,4.085,1.652,5.184a66.71,66.71,0,0,0,9.563,4.38,68.434,68.434,0,0,0,10.836,2.919,2.6,2.6,0,0,0,3.01-3.425l-7.635-29.213C1653.889,1597.8,1652.57,1597.348,1652.014,1598.107Z" transform="translate(-1617.847 -1556.718)"/></g></g></g><g transform="translate(349.139 362.029)"><path class="t" d="M1396.122,1049.546c.116-.466-10.132,4.632-10.651,5.208-4.806,5.331-3.436,12.289-.686,12.355,1.764.043,1.422,2.975,1.422,2.975l19.649-8.312S1403.49,1047.976,1396.122,1049.546Z" transform="translate(-1297.024 -1042.968)"/><path class="t" d="M1362.844,1029.972s.7-7.655-7.85-7.655a10.048,10.048,0,0,1,3.932,2.109s-5.455-3.2-11.391,1.718-2.247,17.262-4.053,19.6-8.835,2.812-7.976,10.388,22.31,17.065,20.932,23.334c0,0,8.406-12.357,2.4-18,0,0,2.93,2.76,3.229,6.041,0,0,.795-6.405-3.281-8.453-3.607-1.813-6.561-8.443-6.248-9.628S1362.844,1029.972,1362.844,1029.972Z" transform="translate(-1261.325 -1022.317)"/><path class="w" d="M1370.411,1186.179a7.594,7.594,0,0,0-13.449-3.134,6.879,6.879,0,0,0-1.354,3.336c-.89,7.208,10.636,36.57,12.287,39.229,3.005,4.84,20.7,21.432,20.7,21.432l3.261-1.977s-12.551-21.248-14.495-23.236C1375.114,1219.53,1372.915,1198.237,1370.411,1186.179Z" transform="translate(-1276.659 -1142.514)"/><path class="w" d="M1489.09,1443.66s4.759-3.125,6.562-2.923,7.016,1.7,7.08,2.469-5.811,1.245-6.205,1.664-4.383,3.082-5.829,2.247S1489.09,1443.66,1489.09,1443.66Z" transform="translate(-1378.394 -1341.099)"/><path class="v" d="M1194.7,1406.2l-4.252-.625a50.268,50.268,0,0,1-16.426-32.561,37.879,37.879,0,0,1-.1-6.555,1.146,1.146,0,0,0-.149-.723s0,0,0-.006c-.458-.7-1.6-2.458-3.138-4.958-1.52-2.462-4.121-7.117-6.983-12.341-5.155-9.407-11.157-20.658-13.216-24.241-6.56-11.421-3.4-19.1-3.4-19.1s18.3-1.809,23.314-6.2l1.806,2.784s3.965,17.552,3.777,17.634q.293.895.6,1.823a305.208,305.208,0,0,1,8.69,31.558c1.1,5.531,1.687,10.351,1.373,13.634a23.923,23.923,0,0,0,.323,4.994C1188.683,1383.921,1194.7,1406.2,1194.7,1406.2Z" transform="translate(-1117.205 -1233.04)"/><path class="o" d="M1330.044,1740.564H1312.3a9.736,9.736,0,0,1,.5-4.754c.888-1.969,2.153-2.031.161-5.116,1.127,1.161,4.751,1.641,7.315,1.3.315.509,2.026,3.927,3.076,4.681C1324.517,1737.5,1329.687,1737.207,1330.044,1740.564Z" transform="translate(-1243.629 -1562.022)"/><path class="c" d="M1176.525,1321.137c-1.55,8.546-5.21,22.77-12.878,27.3-5.155-9.407-11.157-20.658-13.216-24.241-6.56-11.421-3.4-19.1-3.4-19.1s18.3-1.809,23.314-6.2l1.806,2.784s3.965,17.552,3.777,17.634Q1176.223,1320.209,1176.525,1321.137Z" transform="translate(-1117.205 -1233.04)"/><path class="q" d="M1378.931,1189.154a18.99,18.99,0,0,1,3.654,5.732s-4,11.49-13.352,12.931C1369.233,1207.817,1376.632,1189.15,1378.931,1189.154Z" transform="translate(-1287.077 -1149.428)"/><path class="v" d="M1078.6,1294.567l.06-3.318c-6.611.834-22.793-7.9-22.793-7.9s-6.916,4.6-7.862,17.735c-.462,6.412-3.385,33.527-3.709,41.624-.118,2.934-.157,5.029-.171,5.866a.015.015,0,0,1,0,.008,1.155,1.155,0,0,1-.281.683,37.858,37.858,0,0,0-3.582,5.491c-10.087,18.767-4.812,44.269-4.812,44.269l2.342-.6s8.529-26.436,14.1-37.871a23.913,23.913,0,0,1,2.525-4.322c2.1-2.545,4.306-6.869,6.485-12.071,4.117-9.837,8.115-22.816,10.967-32.867C1072.076,1311.336,1078.6,1294.567,1078.6,1294.567Z" transform="translate(-1031.723 -1221.195)"/><path class="u" d="M1364.265,1155.973c-10.807-2.48-3.9-17.665-3.276-17.4,1.5-.3,4.786-2.934,7.728-8.069l.4.345,6.637,5.819s-1.534,2.263-2.825,4.48c-1.008,1.735-1.866,3.446-1.729,4.033C1371.73,1145.6,1367.147,1156.635,1364.265,1155.973Z" transform="translate(-1278.702 -1104.745)"/><path class="w" d="M1410.144,1137.78s-1.535,2.261-2.825,4.48c-4.126-2.544-4.131-7.653-3.813-10.3Z" transform="translate(-1313.095 -1105.854)"/><path class="u" d="M1409.448,1102.733s-10.02-5.576-6.451-11.762,4.678-11.072,11.226-7.774,6.418,6.37,5.73,8.724S1412.146,1104.024,1409.448,1102.733Z" transform="translate(-1312.215 -1067.892)"/><path class="t" d="M1418.274,1085.631c-.459-2.746-1.854-3.009-2.827-2.825a8.014,8.014,0,0,0-9.746-3.731,13.644,13.644,0,0,1-7.9,4.744s1.163,2.164,5.953,3.5a8.187,8.187,0,0,0,4.726-.377,26.757,26.757,0,0,1-6.8,2.563c6.313.578,12.32-5.194,12.943-5.811a8.983,8.983,0,0,1,.5,4.136c-.415,1.86-2.067,5.23-1.058,5.666C1414.064,1093.5,1418.962,1089.751,1418.274,1085.631Z" transform="translate(-1308.845 -1065.21)"/><path class="o" d="M1042.035,1740.154H1024.3a9.743,9.743,0,0,1,.5-4.755c.888-1.968,2.279-2.863,1.946-5.244a6.388,6.388,0,0,0,5.529,2.115,19.445,19.445,0,0,0,3.078,3.99C1036.509,1737.094,1041.678,1736.8,1042.035,1740.154Z" transform="translate(-1024.198 -1561.611)"/><path class="q" d="M1188.292,1184.451a43.166,43.166,0,0,1-8.763,1.588c-4.665.509-9.481.858-12,1.864a2.709,2.709,0,0,0-1.728,1.4c-1.093,3.288-5.913,8.362-5.913,8.362-30.889-1.406-34.281-14.326-34.281-14.326,20.782-24.167,55.971-31.162,55.971-31.162s2.514-1.065,8.843,3.965c4.224,3.358,3.668,4.647,3.668,4.647S1195.01,1182.107,1188.292,1184.451Z" transform="translate(-1101.458 -1121.184)"/><path class="r" d="M1313.346,1214.282c-4.664.509-9.48.858-12,1.864a49.192,49.192,0,0,1,6.239-26.994S1312.324,1208.452,1313.346,1214.282Z" transform="translate(-1235.275 -1149.427)"/><path class="u" d="M1331.665,1176.635s-11.69,1.155-12.628,8.751,11.208,38.537,12.948,41.338c3.167,5.1,21.813,22.584,21.813,22.584l3.437-2.083s-13.226-22.391-15.274-24.486C1338.746,1219.45,1335.624,1179.266,1331.665,1176.635Z" transform="translate(-1248.794 -1139.89)"/><path class="q" d="M1312.774,1184.131c.031.173,10.789,3.514,17.713,0,0,0,1.482-15.975-6.784-15.108s-13.161,3.47-13.369,7.428S1312.774,1184.131,1312.774,1184.131Z" transform="translate(-1242.193 -1134.065)"/><path class="u" d="M1460.726,1459.874s4.194-3.851,6-3.943,7.2.549,7.386,1.3-5.534,2.165-5.855,2.642-3.829,3.748-5.391,3.156S1460.726,1459.874,1460.726,1459.874Z" transform="translate(-1356.784 -1352.676)"/></g></g></svg>