<svg xmlns="http://www.w3.org/2000/svg" width="417.258" height="258.707" viewBox="0 0 417.258 258.707"><defs><style>.a,.b{fill:#e0d1fc;}.a,.aa,.ab,.ac,.ad,.ae,.af,.ah,.ai,.aj,.al,.am,.an,.ao,.ap,.ar,.au,.av,.aw,.ax,.c,.e,.j,.k,.p,.s,.u,.w,.x,.y,.z{mix-blend-mode:multiply;}.a,.aa,.ab,.ac,.ad,.ae,.af,.ag,.ah,.ai,.aj,.ak,.al,.am,.an,.ao,.ap,.ar,.at,.au,.av,.aw,.ax,.c,.e,.g,.j,.k,.m,.p,.s,.u,.w,.x,.y,.z{isolation:isolate;}.af,.ah,.c,.h{fill:#1d4d95;}.c,.g{opacity:0.36;}.aj,.ak,.al,.at,.d,.e,.p{fill:#f95d6c;}.f{fill:#fff;}.g{fill:#b09cdb;}.ag,.ak,.at,.g,.m{mix-blend-mode:screen;}.ag,.i,.j,.k{fill:#2469ce;}.am,.j{opacity:0.45;}.k,.s{opacity:0.43;}.l,.m{fill:#9d79dd;}.m{opacity:0.44;}.n{fill:#f0ebff;}.av,.o{fill:#69dfd4;}.p{opacity:0.71;}.ac,.ad,.am,.an,.ao,.ar,.q,.s,.y,.z{fill:#ffb592;}.aa,.ae,.ap,.r{fill:#0c1e42;}.ab,.t,.u{fill:#7b4fc9;}.u{opacity:0.6;}.ai,.v,.w,.x{fill:#feb500;}.x{opacity:0.7;}.au,.y{opacity:0.38;}.z{opacity:0.48;}.aa{opacity:0.33;}.ab{opacity:0.65;}.ad{opacity:0.5;}.af{opacity:0.49;}.ag{opacity:0.64;}.ai{opacity:0.56;}.aj{opacity:0.46;}.ak{opacity:0.66;}.al{opacity:0.62;}.an{opacity:0.63;}.ao{opacity:0.29;}.ap{opacity:0.27;}.aq{fill:none;}.ar{opacity:0.58;}.as,.au,.aw,.ax{fill:#704636;}.ax{opacity:0.22;}</style></defs><g transform="translate(-1950.623 -500.076)"><g transform="translate(1939.844 498.324)"><g transform="translate(10.779 99.422)"><path class="a" d="M2492.741,1469.1l-4.079,20.151-.416,2.041-9.076-1.836,4.119-20.356Z" transform="translate(-2413.71 -1436.965)"/><path class="b" d="M2169.958,1263.433l-2.121,10.487h-9.453l2.494-12.326a8.8,8.8,0,0,0-8.624-10.542h-33.411a8.8,8.8,0,0,0-8.651,10.411l2.323,12.458h-9.422l-2.007-10.756a18.063,18.063,0,0,1,17.758-21.375h33.411a17.993,17.993,0,0,1,13.982,6.628c.021.028.049.058.07.089A17.985,17.985,0,0,1,2169.958,1263.433Z" transform="translate(-2088.806 -1241.788)"/><path class="b" d="M2108.883,1584.912a46.581,46.581,0,1,0,.306,5.367A46.554,46.554,0,0,0,2108.883,1584.912Z" transform="translate(-2016.095 -1501.049)"/><path class="a" d="M2129.4,1484.158q-1.625.773-3.178,1.67a46.281,46.281,0,0,0-5.271,3.539l-3.784-20.276h9.423Z" transform="translate(-2102.877 -1436.96)"/><path class="a" d="M2124.913,1840.433a46.555,46.555,0,0,1-90.506,15.342,111.333,111.333,0,0,1,17.718,10.6c10.2,7.581,16.91,7.581,24.2,3.79s9.039-2.624,18.66-3.207,8.455-9.33,14.87-13.412c5.7-3.63,12.33-9.1,14.753-18.473A47.257,47.257,0,0,1,2124.913,1840.433Z" transform="translate(-2031.818 -1751.203)"/><path class="a" d="M2195.741,1291.3a8.8,8.8,0,0,0-8.794-8.507h-33.413a8.8,8.8,0,0,0-8.652,10.412l2.324,12.456,2.811,15.067q-1.625.774-3.178,1.67l-2.911-16.737-2.75-15.8s.583-9.332,8.165-10.5,39.07-.29,39.07-.29A10.667,10.667,0,0,1,2195.741,1291.3Z" transform="translate(-2123.497 -1273.525)"/><path class="c" d="M2528.836,1304.167l-6.2,30.637c-1.35.994-2.63,1.469-3.219,1.327-1.344-.33-.694-4.919,1.93-9s0-5.54.583-10.5,2.916-8.164,4.665-13.412-1.458-13.995-1.458-13.995c.017,0,.032.009.05.012A17.989,17.989,0,0,1,2528.836,1304.167Z" transform="translate(-2447.683 -1282.521)"/><circle class="a" cx="20.197" cy="20.197" r="20.197" transform="translate(17.984 80.177) rotate(-45)"/></g><g transform="translate(333.039 81.627)"><path class="d" d="M4372.182,1130.722c9.545-11.359,26.221-13.229,38.531-12.8a114.946,114.946,0,0,1,24.92,3.76l.55-1.891a117.059,117.059,0,0,0-25.361-3.836,71.382,71.382,0,0,0-21.574,2.192c-7.864,2.195-15.821,9.094-20.282,14.4Z" transform="translate(-4358.63 -1115.896)"/><path class="d" d="M4335.888,1169.441c0,11.621,18.015,21.042,40.239,21.042s40.238-9.421,40.238-21.042c0-9.793-12.792-18.022-30.116-20.37a75.517,75.517,0,0,0-10.122-.672c-20.3,0-37.086,7.861-39.843,18.077A11.382,11.382,0,0,0,4335.888,1169.441Z" transform="translate(-4330.228 -1143.804)"/><path class="e" d="M4338.69,1166.476c5.51,1.735,22.492,2.843,22.492,2.843s.246-1.969,5.906-5.66,7.629-1.723,9.352-6.645c1.484-4.24,9.911-7.2,12.214-7.942a75.517,75.517,0,0,0-10.122-.672C4358.233,1148.4,4341.446,1156.26,4338.69,1166.476Z" transform="translate(-4332.633 -1143.804)"/><path class="a" d="M4344.593,1440.892l.079,1.208,6.813,105.849,61.529.487c.317.005.49.005.49.005l9.6-107.549Z" transform="translate(-4337.702 -1394.951)"/><path class="d" d="M4388.38,1298.61h-90.568l-1.969-24.857h95Z" transform="translate(-4295.844 -1251.439)"/><rect class="d" width="18.212" height="19.689" transform="translate(68.664 4.102)"/><path class="f" d="M4697.362,1451.672l-5.341,98.4h14.274l5.771-98.4Z" transform="translate(-4636.018 -1404.207)"/><path class="e" d="M4388.381,1298.61s-8.122-8.368-23.38-7.137-29.041,1.723-34.7-2.461-5.907,2.461-16.489-2.953a87.64,87.64,0,0,1-17.966-12.306l1.969,24.857Z" transform="translate(-4295.844 -1251.439)"/><path class="e" d="M4781.591,1150.349v18.921h10.285a23.177,23.177,0,0,0-.687-3.692c-.985-3.692-2.215-2.215-.623-7.194s1.255-6.788,1.255-6.788Z" transform="translate(-4712.927 -1145.479)"/><rect class="d" width="22.15" height="3.199" transform="translate(89.091 6.071) rotate(180)"/><path class="a" d="M4345.149,1449.067l6.813,105.849,61.529.487c-2.815-.054-17.021-.571-23.875-5.656-7.629-5.66-1.969-16.981-9.844-21.9s-13.536-5.168-13.536-22.4,3.2-29.041-2.953-36.178-4.268-20.265-4.268-20.265Z" transform="translate(-4338.179 -1401.917)"/></g><g transform="translate(16.545 43.868)"><path class="g" d="M2239.2,982.827c-10.764-.868-48.28-5.643-52.907-30.209a46.318,46.318,0,0,0-2.474-8.532l9.135-8.12-12.189,1.806a60.61,60.61,0,0,0-14.864-16.9c2.114-.529,11.548-2.557,14.009,2.607,2.776,5.828,8.881,0,14.431,6.106s-1.11,13.876,3.33,21.092,8.049,0,9.714,7.771-4.718,7.494-.277,11.38,25.534,6.1,28.864,9.435C2237.114,980.4,2238.224,981.645,2239.2,982.827Z" transform="translate(-2150.49 -909.96)"/></g><g transform="translate(78.201 23.146)"><path class="h" d="M3291.079,2014.97l-78.954.622,6.217-31.4h66.209Z" transform="translate(-3110.48 -1802.975)"/><path class="i" d="M2780.9,712.878V869.307a10.686,10.686,0,0,1-10.687,10.687l-136.031,9.636-130.436-9.636a10.686,10.686,0,0,1-10.5-8.7,10.485,10.485,0,0,1-.187-1.989V712.878a10.686,10.686,0,0,1,10.687-10.687h266.467a10.687,10.687,0,0,1,10.687,10.687Z" transform="translate(-2493.059 -702.191)"/><path class="f" d="M53.9,0H215.916a53.9,53.9,0,0,1,53.9,53.9v58.874a53.9,53.9,0,0,1-53.9,53.9H53.9A53.9,53.9,0,0,1,0,112.771V53.9A53.9,53.9,0,0,1,53.9,0Z" transform="translate(9.014 5.567)"/><rect class="i" width="88.59" height="14.92" transform="translate(96.361 203.913)"/><path class="j" d="M3174.743,2159.643a24.157,24.157,0,0,1,23.935-8.082c15.231,3.419,27.043,4.041,32.328,0s4.663-2.8,13.366-1.865,18.961-4.973,18.961-4.973v14.92Z" transform="translate(-3078.382 -1940.81)"/><path class="k" d="M2782.032,732.892V889.321a10.686,10.686,0,0,1-10.687,10.687l-136.031,9.636-130.436-9.636a10.686,10.686,0,0,1-10.5-8.7,41.967,41.967,0,0,1,8.828-8.063v3.575a7.617,7.617,0,0,0,7.619,7.619H2765.4a7.617,7.617,0,0,0,7.619-7.619v-150.9c2.406-3.9,4.433-7.46,6.046-10.426A10.654,10.654,0,0,1,2782.032,732.892Z" transform="translate(-2494.191 -722.205)"/><path class="b" d="M2864.053,777.221H2614.135a2.331,2.331,0,0,1-2.331-2.331h0a2.331,2.331,0,0,1,2.331-2.331h249.918a2.331,2.331,0,0,1,2.331,2.331h0A2.331,2.331,0,0,1,2864.053,777.221Z" transform="translate(-2595.019 -762.611)"/><rect class="l" width="224.74" height="146.096" transform="translate(14.92 20.827)"/><path class="m" d="M2823.35,849.523v146.1H2598.61v-1.728c5.9-8.228,12.695-17.028,16.733-21.069,8.57-8.57,61.429-13.811,79.523-41.9s76.191-36.667,100.474-54.761a158.055,158.055,0,0,0,27.6-26.633Z" transform="translate(-2583.69 -828.696)"/><rect class="n" width="200.805" height="4.663" transform="translate(19.894 24.557)"/><path class="n" d="M2826.641,1753.3v16.033a7.617,7.617,0,0,1-7.619,7.619H2564.448a7.617,7.617,0,0,1-7.619-7.619V1753.3Z" transform="translate(-2547.815 -1604.721)"/><rect class="n" width="29.841" height="28.908" transform="translate(244.012 21.448)"/><rect class="n" width="29.841" height="28.908" transform="translate(244.012 52.843)"/><rect class="n" width="29.841" height="28.908" transform="translate(244.012 84.239)"/><rect class="n" width="29.841" height="28.908" transform="translate(244.012 115.634)"/><path class="d" d="M2655.783,1795.084v13.366l10.879-6.528Z" transform="translate(-2632.781 -1640.595)"/><g transform="translate(43.829 156.043)"><path class="d" d="M2849.12,1822.382a4.969,4.969,0,0,0,.858,2.8h-43.909a2.953,2.953,0,0,1-2.953-2.953h0a2.953,2.953,0,0,1,2.953-2.953h44.143A4.948,4.948,0,0,0,2849.12,1822.382Z" transform="translate(-2803.115 -1817.409)"/><path class="f" d="M3310.718,1822.227h0a2.953,2.953,0,0,1-2.953,2.953H3129.422a4.981,4.981,0,0,1,.233-5.906h178.11A2.953,2.953,0,0,1,3310.718,1822.227Z" transform="translate(-3082.559 -1817.409)"/><path class="d" d="M3138.511,1811.053a4.974,4.974,0,1,1-1.091-3.108A4.968,4.968,0,0,1,3138.511,1811.053Z" transform="translate(-3082.559 -1806.08)"/></g><rect class="n" width="84.172" height="2.176" transform="translate(19.894 33.571)"/><rect class="b" width="25.8" height="2.176" transform="translate(245.566 23.624)"/><rect class="b" width="25.8" height="2.176" transform="translate(245.566 54.708)"/><rect class="b" width="25.8" height="2.176" transform="translate(245.566 85.793)"/><rect class="b" width="25.8" height="2.176" transform="translate(245.566 116.877)"/><path class="b" d="M4296.223,915.493v14.3l11.5-7.46Z" transform="translate(-4041.332 -885.341)"/><path class="b" d="M4296.223,1139.788v14.3l11.5-7.46Z" transform="translate(-4041.332 -1077.931)"/><path class="b" d="M4296.223,1364.085v14.3l11.5-7.46Z" transform="translate(-4041.332 -1270.521)"/><path class="b" d="M4296.223,1588.38v14.3l11.5-7.46Z" transform="translate(-4041.332 -1463.111)"/><path class="o" d="M2764.72,1536.2l-6.06-5.693,1.663-1.77,4.173,3.92,5.067-6.134,1.873,1.547Z" transform="translate(-2721.115 -1409.997)"/><g transform="translate(32.565 84.131)"><rect class="b" width="55.301" height="59.555" transform="translate(0 0)"/><path class="f" d="M2792.279,1319h-43.6a1.418,1.418,0,0,1-1.418-1.418h0a1.418,1.418,0,0,1,1.418-1.418h43.6a1.418,1.418,0,0,1,1.418,1.418h0A1.418,1.418,0,0,1,2792.279,1319Z" transform="translate(-2743.89 -1313.504)"/><rect class="f" width="10.989" height="12.053" transform="translate(3.368 10.103)"/><rect class="f" width="10.989" height="12.053" transform="translate(3.368 26.764)"/><rect class="f" width="10.989" height="12.053" transform="translate(3.368 43.425)"/><path class="o" d="M2747.781,1606.939l-7.25-6.811,1.99-2.118,4.993,4.69,6.063-7.339,2.241,1.851Z" transform="translate(-2738.114 -1553.236)"/><path class="o" d="M2747.781,1489.074l-7.25-6.811,1.99-2.118,4.993,4.69,6.063-7.339,2.241,1.851Z" transform="translate(-2738.114 -1452.032)"/><path class="a" d="M2723.434,1356.91s2.836-13.294,13.116-16.484,15.952-6.2,16.484-17.016,8.863-12.584,14.889-16.307a48.729,48.729,0,0,0,10.812-9.749v59.555Z" transform="translate(-2723.434 -1297.355)"/><path class="o" d="M2747.781,1371.209l-7.25-6.811,1.99-2.118,4.993,4.69,6.063-7.339,2.241,1.851Z" transform="translate(-2738.114 -1350.828)"/><rect class="f" width="27.916" height="2.659" transform="translate(22.067 11.964)"/><rect class="f" width="27.916" height="2.659" transform="translate(22.067 18.611)"/><rect class="f" width="27.916" height="2.659" transform="translate(22.067 30.841)"/><rect class="f" width="27.916" height="2.659" transform="translate(22.067 44.134)"/><rect class="f" width="14.276" height="2.659" transform="translate(22.067 51.047)"/></g><rect class="n" width="54.814" height="3.852" transform="translate(177.004 129.76)"/><rect class="n" width="54.814" height="3.852" transform="translate(177.004 138.204)"/></g><g transform="translate(111.284 214.77)"><path class="d" d="M2835.1,2088.18v9.567l-18.63,1.007-17.246-1.007v-9.567l17.5-1.007Z" transform="translate(-2789.028 -2083.019)"/><path class="p" d="M2835.1,2136.357v2.894l-18.63,1.007-17.246-1.007v-3.741a64.686,64.686,0,0,1,9.441,1.475c3.4,1.007,8.308,1.259,10.952.5a24.2,24.2,0,0,1,6.923-1.007C2828.975,2136.38,2833.453,2136.361,2835.1,2136.357Z" transform="translate(-2789.028 -2124.523)"/><path class="d" d="M5.854,0h0a5.853,5.853,0,0,1,5.853,5.853v7.931a5.853,5.853,0,0,1-5.853,5.853h0A5.854,5.854,0,0,1,0,13.784V5.854A5.854,5.854,0,0,1,5.854,0Z" transform="translate(43.681)"/><rect class="d" width="11.707" height="19.637" rx="5.853"/><path class="p" d="M2738.8,2140.221v5.659a2.325,2.325,0,0,1-2.325,2.325h-7.057a2.325,2.325,0,0,1-2.325-2.325v-4.255a10.838,10.838,0,0,1,1.636,2.048c1.385,2.14,3.147,2.392,4.28,2.014s2.77.252,3.9-.252C2737.843,2145.022,2738.571,2141.471,2738.8,2140.221Z" transform="translate(-2727.093 -2128.568)"/><path class="p" d="M3047.808,2144.655v5.033a2.325,2.325,0,0,1-2.325,2.325h-7.057a2.325,2.325,0,0,1-2.325-2.325v-3.73c.243,1.183.765,2.612,1.888,3.034,2.014.755,2.9,0,4.406.5s3.147-.629,3.777-1.51A15.244,15.244,0,0,0,3047.808,2144.655Z" transform="translate(-2992.42 -2132.375)"/></g><g transform="translate(51.137 156.586)"><g transform="translate(54.003 48.868)"><path class="q" d="M2695.128,1997.772c-.189,2.4-1.17,5.132-1.519,7.484-.48,3.238-1.019,17.448-1.019,17.448l-.232.006-4.5.114s-.12-1.619-.3-4.017a97.08,97.08,0,0,0-1.979-11.812,9.07,9.07,0,0,1,.152-4.956c.018-.053.028-.081.028-.081h-2.1a5.515,5.515,0,0,1,.063-1.462c.388-2.942,1.916-8.611,1.916-8.611s8.454.54,9.294,3.358A6.961,6.961,0,0,1,2695.128,1997.772Z" transform="translate(-2683.629 -1991.885)"/><g transform="translate(3.36 29.896)"><path class="d" d="M2711.4,2203.684c.048-.017.1-.033.144-.048a5.059,5.059,0,0,1,1.472-.237s2.464,2.369,3.379,2.617a48.947,48.947,0,0,0,5.2,1.114,3.591,3.591,0,0,1,3.166,2.693c.016.078.028.159.039.242a1.152,1.152,0,0,1-.2.705.412.412,0,0,1-.185.055c-1.374.235-9.8.362-10.1.35a2.286,2.286,0,0,0-.948.018,2.692,2.692,0,0,1-1.323.215c-.476-.086-4.074.173-4.46-.2-.273-.263-.188-1.131-.02-1.919.069-.327.153-.64.231-.891.268-.858.079-4.8.265-4.993S2710.548,2203.985,2711.4,2203.684Z" transform="translate(-2707.4 -2203.375)"/><path class="h" d="M2707.557,2245.223c.994.01,3,.038,3.551.126.742.119,3.137.414,4.617.462,1.3.042,7.216-.02,9.03-.055.016.078.028.159.039.242a1.152,1.152,0,0,1-.2.706c-.222.27-9.967.418-10.29.406a2.286,2.286,0,0,0-.948.018,2.692,2.692,0,0,1-1.323.215c-.476-.086-4.074.173-4.46-.2C2707.3,2246.879,2707.389,2246.012,2707.557,2245.223Z" transform="translate(-2707.4 -2239.307)"/><path class="e" d="M2749.743,2210.916a.415.415,0,0,1-.184.056c-1.608-3.326-6.62-2.675-8.55-2.619-1.952.056-2.552-.558-2.561-2.018-.007-1.026-1.109-2.041-1.763-2.553a5.123,5.123,0,0,1,.92-.2,4.141,4.141,0,0,1,.552-.037l.024.023c.256.244,2.492,2.36,3.355,2.594a49.033,49.033,0,0,0,5.2,1.114,3.59,3.59,0,0,1,3.166,2.693c.015.078.029.159.039.242A1.152,1.152,0,0,1,2749.743,2210.916Z" transform="translate(-2732.545 -2203.521)"/><rect class="h" width="1.319" height="2.998" transform="matrix(-0.008, -1, 1, -0.008, 2.015, 4.271)"/><path class="r" d="M2772.415,2226.961a.331.331,0,1,1-.229.431A.346.346,0,0,1,2772.415,2226.961Z" transform="translate(-2763.013 -2223.607)"/><path class="r" d="M2762.409,2222.859a.331.331,0,1,1-.229.431A.346.346,0,0,1,2762.409,2222.859Z" transform="translate(-2754.421 -2220.085)"/><path class="r" d="M2753.15,2215.792a.331.331,0,1,1-.229.431A.346.346,0,0,1,2753.15,2215.792Z" transform="translate(-2746.472 -2214.018)"/><path class="f" d="M2774.3,2222.73l-.319.67a.18.18,0,0,1-.24.085h0a.18.18,0,0,1-.085-.24l.319-.67a.18.18,0,0,1,.24-.085h0A.18.18,0,0,1,2774.3,2222.73Z" transform="translate(-2764.274 -2219.773)"/><path class="f" d="M2764.392,2219.393l-.333.572a.18.18,0,0,1-.246.065h0a.18.18,0,0,1-.065-.246l.333-.571a.18.18,0,0,1,.246-.065h0A.18.18,0,0,1,2764.392,2219.393Z" transform="translate(-2755.762 -2216.896)"/><path class="f" d="M2755.47,2213.5l-.339.524a.18.18,0,0,1-.249.053h0a.18.18,0,0,1-.053-.249l.339-.523a.18.18,0,0,1,.249-.053h0A.18.18,0,0,1,2755.47,2213.5Z" transform="translate(-2748.1 -2211.832)"/><path class="r" d="M2744.692,2208.441a.331.331,0,1,1-.229.431A.346.346,0,0,1,2744.692,2208.441Z" transform="translate(-2739.209 -2207.706)"/><path class="f" d="M2747,2205.959l-.39.5a.181.181,0,0,1-.253.032h0a.18.18,0,0,1-.032-.252l.391-.5a.179.179,0,0,1,.252-.032h0A.179.179,0,0,1,2747,2205.959Z" transform="translate(-2740.791 -2205.345)"/></g><path class="s" d="M2688.093,2027.672c-.044.8-1.387,2.007-2.367,3.139.018-.053.028-.081.028-.081h-2.1a5.515,5.515,0,0,1,.063-1.462l1.916-3.875s.54,1.739,1.2,1.679S2688.153,2026.593,2688.093,2027.672Z" transform="translate(-2683.629 -2020.657)"/><path class="s" d="M2744.053,2033.53c-.189,2.4-1.17,5.132-1.519,7.484-.408,2.752-.859,13.428-.985,16.572l-.024-.023a4.141,4.141,0,0,0-.552.037,16.639,16.639,0,0,1-.358-3.635c-.06-4.2.24-13.911,1.439-16.309C2742.927,2035.911,2743.7,2034.286,2744.053,2033.53Z" transform="translate(-2732.553 -2027.643)"/></g><g transform="translate(0 71.611)"><path class="q" d="M2400.526,2174.914c-.54,1.439-.959,1.979-3.9,2.1s-6.475-1.379-9.953-2.758c-2.916-1.157-9.753-1.638-11.885-1.763l-.2-.012c-.285-.016-.444-.023-.444-.023a34.415,34.415,0,0,1,.3-3.957c6.3-2.518,16.369-.48,16.369-.48v-1.379l8.872,1.122,1.082.137s.016.284.033.741C2400.858,2170.206,2400.944,2173.8,2400.526,2174.914Z" transform="translate(-2363.884 -2164.679)"/><path class="d" d="M2312.7,2158.927c0,.052,0,.1,0,.152a5.059,5.059,0,0,1-.269,1.466s-3.056,1.53-3.6,2.31a48.937,48.937,0,0,0-2.788,4.527,3.591,3.591,0,0,1-3.6,2.083c-.079-.011-.16-.027-.241-.044a1.151,1.151,0,0,1-.6-.42.414.414,0,0,1,.01-.193c.238-1.373,2.937-9.362,3.048-9.641a2.282,2.282,0,0,0,.3-.9,2.692,2.692,0,0,1,.24-1.319c.24-.42,1.2-3.9,1.679-4.137.339-.17,1.128.2,1.816.623.285.175.552.358.763.516.719.54,4.5,1.679,4.617,1.919S2312.7,2158.027,2312.7,2158.927Z" transform="translate(-2301.601 -2152.769)"/><path class="h" d="M2308.7,2153.434c-.341.934-1.039,2.814-1.306,3.3-.36.659-1.439,2.818-1.979,4.2-.476,1.215-2.394,6.807-2.967,8.529-.079-.011-.16-.027-.241-.044a1.151,1.151,0,0,1-.6-.42c-.18-.3,2.938-9.533,3.058-9.833a2.282,2.282,0,0,0,.3-.9,2.692,2.692,0,0,1,.24-1.319c.24-.42,1.2-3.9,1.679-4.137C2307.224,2152.641,2308.013,2153.012,2308.7,2153.434Z" transform="translate(-2301.601 -2152.769)"/><path class="e" d="M2312.7,2197.4a5.059,5.059,0,0,1-.269,1.466s-3.056,1.53-3.6,2.31a48.937,48.937,0,0,0-2.788,4.527,3.591,3.591,0,0,1-3.6,2.083c-.079-.011-.16-.027-.241-.044a1.151,1.151,0,0,1-.6-.42.414.414,0,0,1,.01-.193c3.672-.4,4.734-5.345,5.327-7.182.6-1.859,1.379-2.219,2.758-1.739C2310.672,2198.549,2312,2197.849,2312.7,2197.4Z" transform="translate(-2301.601 -2191.094)"/><rect class="h" width="1.319" height="2.998" transform="matrix(0.945, 0.327, -0.327, 0.945, 8.028, 2.967)"/><path class="r" d="M2343.033,2222.989a.331.331,0,1,1-.33-.36A.346.346,0,0,1,2343.033,2222.989Z" transform="translate(-2336.61 -2212.754)"/><path class="r" d="M2350.242,2214.93a.331.331,0,1,1-.33-.36A.346.346,0,0,1,2350.242,2214.93Z" transform="translate(-2342.8 -2205.834)"/><path class="r" d="M2360,2208.567a.331.331,0,1,1-.33-.36A.346.346,0,0,1,2360,2208.567Z" transform="translate(-2351.177 -2200.37)"/><path class="f" d="M2344.7,2225.209l-.525-.525a.18.18,0,0,1,0-.255h0a.18.18,0,0,1,.254,0l.525.525a.18.18,0,0,1,0,.254h0A.18.18,0,0,1,2344.7,2225.209Z" transform="translate(-2338.11 -2214.255)"/><path class="f" d="M2351.724,2217.19l-.427-.5a.18.18,0,0,1,.021-.254h0a.18.18,0,0,1,.254.021l.427.5a.18.18,0,0,1-.021.254h0A.18.18,0,0,1,2351.724,2217.19Z" transform="translate(-2344.235 -2207.396)"/><path class="f" d="M2360.533,2210.848l-.38-.494a.18.18,0,0,1,.033-.252h0a.179.179,0,0,1,.252.033l.38.494a.179.179,0,0,1-.033.252h0A.18.18,0,0,1,2360.533,2210.848Z" transform="translate(-2351.844 -2201.965)"/><path class="r" d="M2369.755,2203.053a.331.331,0,1,1-.33-.36A.346.346,0,0,1,2369.755,2203.053Z" transform="translate(-2359.554 -2195.636)"/><path class="f" d="M2370.581,2205.426l-.345-.537a.18.18,0,0,1,.054-.249h0a.18.18,0,0,1,.249.054l.345.537a.179.179,0,0,1-.054.248h0A.18.18,0,0,1,2370.581,2205.426Z" transform="translate(-2360.509 -2197.283)"/><path class="s" d="M2403.265,2184.748c-.54,1.439-.959,1.979-3.9,2.1s-6.476-1.379-9.953-2.758c-2.916-1.156-9.753-1.638-11.885-1.763l-.2-.012.4-1.462a64.126,64.126,0,0,1,9.114.6c2.878.6,6.656,2.4,7.915,1.859s0-1.979,1.5-1.739,2.7,1.379,3.238-.54a7.342,7.342,0,0,0,.36-2.938,29.428,29.428,0,0,1,3.69.381C2403.6,2180.04,2403.683,2183.634,2403.265,2184.748Z" transform="translate(-2366.623 -2174.512)"/></g><path class="t" d="M2492.706,2012.433a41.586,41.586,0,0,0-.6,6.116,52.248,52.248,0,0,1-1.439,8.574s-1.905-.2-4.195-.537c-3.16-.463-7.051-1.182-7.677-1.982a23.776,23.776,0,0,0,.36-8.814c-.719-4.857-1.919-10.013.479-14.15,0,0,12.292,4.257,12.891,6.056a6,6,0,0,1,.248,1.18A15.92,15.92,0,0,1,2492.706,2012.433Z" transform="translate(-2453.246 -1951.393)"/><path class="u" d="M2528.969,2053.16a41.581,41.581,0,0,0-.6,6.116,52.248,52.248,0,0,1-1.439,8.574s-1.9-.2-4.195-.537c.011-1.852-1.065-2.761-1.861-4.14-.9-1.559.9-.959,1.739-2.039s-.84-.839-1.919-2.219,1.619-.9,2.578-2.578-1.319-5.936-1.319-5.936c-.131-1.531,4.3-1.658,7.083-.8A15.931,15.931,0,0,1,2528.969,2053.16Z" transform="translate(-2489.509 -1992.12)"/><path class="t" d="M2514.652,1985.549c-.059.431-.129.88-.212,1.342a38,38,0,0,1-2.339,7.2c-.06.36-2.219-1.019-4.737-1.2s-6.236.659-8.994.659c-2.361,0-7.139.527-10.308-1.729a6.68,6.68,0,0,1-1.444-1.389c-2.938-3.837-1.919-8.814-1.919-8.814,1.739-1.739,14.15-2.758,16.069-2.578s14.15,1.379,14.15,1.379A28.676,28.676,0,0,1,2514.652,1985.549Z" transform="translate(-2458.671 -1931.967)"/><path class="q" d="M2551.549,2044.677a8.315,8.315,0,0,1,1.12.871,6.927,6.927,0,0,1,.564,1.027c.036.112-.264.412-.444.472s-.48-.24-.48-.24a1.677,1.677,0,0,1-.719-.36C2551.23,2046.148,2551.089,2044.645,2551.549,2044.677Z" transform="translate(-2515.967 -1988.346)"/><path class="q" d="M2530.284,1673.716a.86.86,0,0,1-.508.54,11.99,11.99,0,0,0-1.89.3,4.574,4.574,0,0,0-2.158,2.278s-.476-.108-1.19-.285c-2.2-.549-6.679-1.764-6.389-2.534,0,0,.863-.359,1.1-2.037s-1.139-6.9.42-9.233a6.3,6.3,0,0,1,6.535-2.758,5.623,5.623,0,0,1,4.857,3.777C2531.843,1665.921,2530.7,1672.756,2530.284,1673.716Z" transform="translate(-2487.526 -1657.944)"/><path class="u" d="M2527.3,2025.229c-.059.431-.129.88-.212,1.342a37.968,37.968,0,0,1-2.338,7.2c-.06.36-2.219-1.019-4.737-1.2s-6.236.659-8.994.659c-2.361,0-7.139.527-10.308-1.729-.269-.61-1.561-.631-1.444-1.389,0,0,5.636,2.338,9.353,1.2s4.5-4.077,5.336-2.878.24,2.159,1.739,2.039,4.557-4.437,5.456-3.657-.719,2.278,1.379,1.919C2524.007,2028.477,2525.959,2026.056,2527.3,2025.229Z" transform="translate(-2471.318 -1971.647)"/><path class="r" d="M2501.091,2047.026h-1.1a.98.98,0,0,0-.98.98v.18a.459.459,0,0,1-.459.459h-7.176a.459.459,0,0,1-.459-.459v-.18a.98.98,0,0,0-.98-.98h-1.1a.98.98,0,0,0-.98.98v3.257a.98.98,0,0,0,.98.98h1.1a.98.98,0,0,0,.98-.98h0a.459.459,0,0,1,.459-.459h7.176a.459.459,0,0,1,.459.459h0a.98.98,0,0,0,.98.98h1.1a.98.98,0,0,0,.98-.98v-3.257A.98.98,0,0,0,2501.091,2047.026Z" transform="translate(-2461.531 -1990.363)"/><path class="v" d="M2495.11,1783.42c-.42,3.6-.959,6.9-.959,6.9a6.051,6.051,0,0,1-3.538,2.039,8.258,8.258,0,0,0-3.29,1.293,36.043,36.043,0,0,1-3.905,2c-3.3,1.379-7.435,2.578-6.974,1s-.281-1-.341-3.936.24-13.91.06-16.728-.54-6.356.839-10.193a21.8,21.8,0,0,1,4.977-7.2c.864.907,4.461,2,6.408,2.54l.016,0c.6.167,1.044.281,1.194.318l.056.014s3.6,5.156,4.257,7.135A60.861,60.861,0,0,1,2495.11,1783.42Z" transform="translate(-2451.333 -1742.706)"/><path class="w" d="M2519.424,1798.881c-.42,3.6-.959,6.9-.959,6.9a6.051,6.051,0,0,1-3.538,2.039,8.255,8.255,0,0,0-3.29,1.293,3.552,3.552,0,0,0-.531-.825c-1.123-1.33-5.952.791-6.732-.169s4.8-3.238,6-4.677-.3-1.859-1.259-3.358,3.3-2.1,3.957-3.717-.78-3.537-1.35-5.47,1.53-4.963,1.649-9.22c.091-3.236-.407-4.6-.651-5.069.75.208,1.25.333,1.25.333s3.6,5.156,4.257,7.135A60.861,60.861,0,0,1,2519.424,1798.881Z" transform="translate(-2475.646 -1758.166)"/><path class="r" d="M2527.409,1653.8c-.6,0-.42.36-.959.84s-1.679-.24-2.219.54.24,1.859.12,2.578-.9.54-1.379.54-.42-.659-.719-1.379c-.251-.6-.124-2.086-1.2-2.2a1.926,1.926,0,0,0-.778.1c-1.919.6-.54,2.7-.72,3.717s-.6.959-1.139,1.259-.479,1.139-1.259,1.379-.78-.72-1.079-.6-.779-.105-.779-.24a6.708,6.708,0,0,0-.78-2.218c-.12-.42.36-.54.42-.9s-.54-.48-.479-1.139.479-.6.42-1.079-.719-.779-.719-1.8a1.89,1.89,0,0,1,.659-1.5,1.565,1.565,0,0,1-.24-1.139c.12-.659,1.079-.959,1.079-.959s-.06-.719.959-1.919,3.357-.18,3.357-.18.12-.12.48-.54,1.079.24,1.079.24.06-1.079,1.859-1.019,1.8,2.1,1.8,2.1.24-.54,1.139-.42c.67.089.375.478.181.671a1.336,1.336,0,0,1,1.438-.191c.88.411-.133,1.279-.178,1.318a2.319,2.319,0,0,1,.49-.135,1.622,1.622,0,0,1,1.967,1.4C2530.767,1653.016,2528.009,1653.8,2527.409,1653.8Z" transform="translate(-2484.112 -1646.178)"/><g transform="translate(28.833 31.256)"><path class="q" d="M2512.662,1876.988c.12,1.319-.24,7.015-.24,7.015l-.6,7.914h-.038l-3.979.119s-1.979-10.913-2.158-13.251a19.253,19.253,0,0,1,.18-4.917c.18-1.079.06-6.535.06-6.535.4-.263,4.455.695,6.6,1.226.785.195,1.314.333,1.314.333S2512.542,1875.668,2512.662,1876.988Z" transform="translate(-2505.572 -1867.289)"/><path class="q" d="M2520.578,2032.72s-3.631-1.2-4.094-.028a26.535,26.535,0,0,0-.7,4.645,5.021,5.021,0,0,0,.126.734c.024.412.124,1.645.493,1.844a.944.944,0,0,0,1.174-.285.562.562,0,0,0,.3.345.939.939,0,0,0,1.183-.3l0-.007a.583.583,0,0,0,.293.307.939.939,0,0,0,1.182-.3.718.718,0,0,0,.045-.125.839.839,0,0,0,.1.066.939.939,0,0,0,1.182-.3,4.332,4.332,0,0,0,.148-1.226c.017-.084.037-.174.06-.273C2522.377,2036.557,2520.578,2032.72,2520.578,2032.72Z" transform="translate(-2514.328 -2008.872)"/></g><g transform="translate(28.098 18.856)"><path class="v" d="M2510.026,1793.425q-.37.2-.728.357a8.966,8.966,0,0,1-3.685.841,7.533,7.533,0,0,1-2.619-.465,7.23,7.23,0,0,1-2.621-1.633,49.1,49.1,0,0,1,.839-7.375,13.976,13.976,0,0,1,.968-2.966,4.4,4.4,0,0,1,7.654-.751,3.348,3.348,0,0,1,.552,1.2A66.3,66.3,0,0,1,2510.026,1793.425Z" transform="translate(-2500.373 -1779.572)"/><path class="x" d="M2525.949,1801.788a8.353,8.353,0,0,1-7.032.734c.713-.306,2.047-.548,2.685-.884,1.139-.6.3-2.159,1.259-2.758s.779-1.5.42-2.938,1.319-1.5,2.1-3.238a5.421,5.421,0,0,0-.013-3.393,4.468,4.468,0,0,1,.391.486,3.348,3.348,0,0,1,.552,1.2A66.267,66.267,0,0,1,2525.949,1801.788Z" transform="translate(-2516.296 -1787.934)"/></g><path class="y" d="M2537.825,1887.989c.12,1.319-.24,7.015-.24,7.015l-.6,7.914h-.038a2.508,2.508,0,0,1-.861-1.68c0-1.2.18-10.733-.378-13.212s-.7-1.717-.822-2.377,1.019-1.019,1.019-1.979a10.889,10.889,0,0,0-.666-2.729,8.968,8.968,0,0,0,3.685-.841A66.483,66.483,0,0,0,2537.825,1887.989Z" transform="translate(-2501.903 -1847.035)"/><path class="z" d="M2568.929,1754.153a11.99,11.99,0,0,0-1.89.3,4.365,4.365,0,0,0-2.095,2.144c-.15-.038-.592-.152-1.194-.318l-.016,0c0-.007,0-.015.007-.022a2.424,2.424,0,0,0,.659-1.8c-.18-.9-1.2-1.8-.06-1.439C2565.251,1753.3,2565.12,1754.273,2568.929,1754.153Z" transform="translate(-2526.679 -1737.842)"/><path class="aa" d="M2569.285,1673.925c-.6,0-.42.36-.959.84s-1.679-.24-2.219.54.24,1.859.12,2.578-.9.54-1.379.54-.42-.659-.719-1.379c-.251-.6-.124-2.086-1.2-2.2,0-.05,0-.076,0-.076s1.439.719,2.219-.06.54-1.679,1.619-1.679,2.818.3,3.178-1.2c.3-1.233-.462-1.735.192-2.175a1.622,1.622,0,0,1,1.967,1.4C2572.643,1673.146,2569.885,1673.925,2569.285,1673.925Z" transform="translate(-2525.987 -1666.308)"/></g><g transform="translate(275.117 123.396)"><g transform="translate(34.74)"><g transform="translate(51.146 87.932)"><path class="q" d="M4494.237,2036.47a7.093,7.093,0,0,1,1.166,1.749c.194.648,2.785-3.951,2.785-3.951a3.741,3.741,0,0,1-1.554-.777C4496.31,2033.038,4494.237,2035.693,4494.237,2036.47Z" transform="translate(-4494.155 -2033.44)"/><g transform="translate(0 0.534)"><path class="r" d="M4500.566,2038.121c.575.193,1.021.352,1.1.4.229.138-4.591,10.715-6.792,12.138a4.016,4.016,0,0,1-.515-.458,2.234,2.234,0,0,1-.694-1.338c-.042-.962.814-7.475,1.114-7.789s.467-.195.944-.861,1.449-2.942,1.735-2.989A24.225,24.225,0,0,1,4500.566,2038.121Z" transform="translate(-4493.66 -2037.219)"/><path class="i" d="M4504.788,2043.6c.576.193,1.021.352,1.1.4.229.138-4.592,10.715-6.792,12.138a4.047,4.047,0,0,1-.515-.458A36.737,36.737,0,0,0,4504.788,2043.6Z" transform="translate(-4497.882 -2042.695)"/><path class="i" d="M4502.6,2071.312a.356.356,0,1,1-.445.236A.356.356,0,0,1,4502.6,2071.312Z" transform="translate(-4500.943 -2066.479)"/><path class="i" d="M4501.384,2081.484a.356.356,0,1,1-.445.236A.356.356,0,0,1,4501.384,2081.484Z" transform="translate(-4499.896 -2075.214)"/><path class="i" d="M4500.165,2091.656a.356.356,0,1,1-.446.235A.357.357,0,0,1,4500.165,2091.656Z" transform="translate(-4498.849 -2083.947)"/><path class="f" d="M4499.689,2072.421a1.417,1.417,0,0,1-.727-.116.129.129,0,0,1-.055-.189l.064-.1-.071.108.007-.011a.129.129,0,0,1,.16-.049,1.171,1.171,0,0,0,.6.095.128.128,0,0,1,.138.1h0A.131.131,0,0,1,4499.689,2072.421Z" transform="translate(-4498.148 -2067.1)"/><path class="f" d="M4498.033,2082.458a1.422,1.422,0,0,1-.727-.116.129.129,0,0,1-.055-.189l.064-.1-.071.108.007-.01a.128.128,0,0,1,.16-.049,1.171,1.171,0,0,0,.6.1.128.128,0,0,1,.138.1h0A.131.131,0,0,1,4498.033,2082.458Z" transform="translate(-4496.726 -2075.718)"/><path class="f" d="M4496.376,2092.495a1.418,1.418,0,0,1-.727-.116.129.129,0,0,1-.055-.189l.064-.1-.071.109.007-.011a.129.129,0,0,1,.16-.049,1.169,1.169,0,0,0,.6.1.129.129,0,0,1,.138.1h0A.131.131,0,0,1,4496.376,2092.495Z" transform="translate(-4495.303 -2084.335)"/></g></g><path class="q" d="M4318.787,1507.242a18.171,18.171,0,0,0,.591,3.471c.381.933-3.829-1.334-5.772,2.293l-.453.065s.453-2.85-.194-4.145S4318.01,1506.853,4318.787,1507.242Z" transform="translate(-4287.313 -1493.605)"/><path class="q" d="M4206.465,1635.073l-10.686-1.231-.712,2.526,4.987,1.813s6.477,3.173,7.189,2.655S4206.465,1635.073,4206.465,1635.073Z" transform="translate(-4186.13 -1602.396)"/><path class="q" d="M4234.443,2105.277a8.275,8.275,0,0,1-.519,1.554c-.259.453,3.174,1.425,4.339,1.036l.453-1.619Z" transform="translate(-4219.482 -2007.19)"/><path class="t" d="M4353.784,1829.708s-.574.781-1.27,1.657c-1.068,1.344-2.421,2.913-2.421,2.229,0-.453-13.082-9.65-14.96-10.751a14.126,14.126,0,0,1-3.951-3.886c-1.1-1.36-3.3-7.189-4.274-7.836s5.958-14.507,7.642-14.636c0,0,.092.278.249.754.483,1.473,1.575,4.842,2.407,7.73,1.1,3.821.777,7.772,1.295,8.743s1.037.583,1.425,1.49,8.031,6.735,9.715,8.743S4353.784,1829.708,4353.784,1829.708Z" transform="translate(-4299.254 -1742.048)"/><path class="t" d="M4253.887,1766.842a6.717,6.717,0,0,1-1.59,4.807,7.68,7.68,0,0,1-.808,1,5.492,5.492,0,0,1-.417.39,3.612,3.612,0,0,0-.831,1.37c-.777,1.878-3.756,7.642-3.756,7.642s-2.979,4.728-3.3,6.476.194,2.137-.259,5.311-3.691,16.191-4.987,16.774a3.4,3.4,0,0,1-1.884,0,15.5,15.5,0,0,1-2.159-.646l-.1-.039c-.127-.048-.256-.09-.386-.128-.215-.063-.435-.114-.657-.16-.252-.052-.533-.249-.379-.9.259-1.1,1.425-10.427,1.878-14.054a52.074,52.074,0,0,0,0-8.549,159.8,159.8,0,0,1,3.108-16.061,40.707,40.707,0,0,1,2.4-6.088l-.129-3.692,14.183,2.979c.025.429.046.83.061,1.207C4253.9,1765.405,4253.907,1766.182,4253.887,1766.842Z" transform="translate(-4218.12 -1710.97)"/><path class="d" d="M4278.817,1564.951q-.126,0-.23-.01c-1.062-.094-.63-.876-2.878-1.545-.359-.107-.687-.2-.994-.276-.157-.041-.308-.078-.455-.114-1.143-.276-2.016-.414-3.182-.714-.164-.042-.334-.088-.511-.138-.2-.055-.4-.115-.622-.182-2.332-.712-4.728.389-5.438-.369s-.974-2.869-.909-5.265-.064-10.621-.647-12.5-2.2-2.461-1.813-5.181c.332-2.324,2.79-4.552,4.429-5.8a5.625,5.625,0,0,0,1.312-1.408c.9-1.382,2.6-4.008,3-4.645,1.008-1.6,4.339-.907,5.44.065.942.831,1.885,3.751,2.015,6.605a13.458,13.458,0,0,1-.007,1.425,34.023,34.023,0,0,1-1.619,7.642c-.583,2.2.194,4.6.777,6.865s2.914,6.412,3.3,8.354S4280.177,1564.951,4278.817,1564.951Z" transform="translate(-4242.809 -1509.672)"/><path class="q" d="M4284.695,1421.858s-2.137.842-2.4,4.08.648,6.994,1.36,8.031,1.037,1.23,1.684,1.1,1.3-.194,1.3-.194,2.979-1.23,3.5-1.1a7.545,7.545,0,0,0,2.332-.583,28.355,28.355,0,0,1,.842-4.339,5.562,5.562,0,0,0,.129-3.95C4292.984,1423.477,4290.458,1418.944,4284.695,1421.858Z" transform="translate(-4260.992 -1419.555)"/><path class="r" d="M4298.762,1428c-.481.175-2.29.35-3.614.7a2.767,2.767,0,0,0-1.373.656,7.145,7.145,0,0,1-.971,1.1,2.253,2.253,0,0,0-1.684-2.267c-1.878-.713-3.562.389-4.469-.713s-1.684-3.368-3.173-3.432-2.72-.13-3.432-1.231.324-2.2,0-2.979-1.1-.259-1.1-.259a2.159,2.159,0,0,1-1.813-.713c-.647-.842-1.036-1.3-1.036-1.3l-1.36.13a4.055,4.055,0,0,1-.081-1.881,2.223,2.223,0,0,1,1.182-1.552,3.082,3.082,0,0,1,2.072-2.137c1.878-.777,4.469-1.619,7.448,1.23s2.331,4.6,4.015,5.634,3.821.388,5.246,1.425.454,2.526,1.943,3.238,3.886.453,4.4,1.036S4299.475,1427.74,4298.762,1428Z" transform="translate(-4254.4 -1411.383)"/><g transform="translate(5.44 99.101)"><path class="r" d="M4183.984,2117.133c-.015.607-.036,1.08-.057,1.164-.064.259-11.592-1.23-13.6-2.914a4.034,4.034,0,0,1,.286-.627,2.235,2.235,0,0,1,1.074-1.057c.907-.324,7.383-1.425,7.771-1.23s.324.389,1.1.648,3.238.518,3.368.777A24.329,24.329,0,0,1,4183.984,2117.133Z" transform="translate(-4170.327 -2112.446)"/><path class="i" d="M4183.984,2131.166c-.015.607-.036,1.079-.057,1.164-.064.259-11.592-1.23-13.6-2.914a4.045,4.045,0,0,1,.286-.627A36.751,36.751,0,0,0,4183.984,2131.166Z" transform="translate(-4170.327 -2126.479)"/><circle class="i" cx="0.356" cy="0.356" r="0.356" transform="translate(7.642 0.476)"/><path class="i" d="M4215.021,2118a.356.356,0,1,1-.356-.356A.357.357,0,0,1,4215.021,2118Z" transform="translate(-4208.092 -2116.912)"/><circle class="i" cx="0.356" cy="0.356" r="0.356" transform="translate(4.792 0.994)"/><path class="f" d="M4225.188,2113.438a1.414,1.414,0,0,1-.1-.728.129.129,0,0,1,.164-.108l.112.032-.125-.036.012,0a.129.129,0,0,1,.094.138,1.165,1.165,0,0,0,.085.6.128.128,0,0,1-.056.162h0A.13.13,0,0,1,4225.188,2113.438Z" transform="translate(-4217.336 -2112.575)"/><path class="f" d="M4215.109,2114.812a1.415,1.415,0,0,1-.1-.728.129.129,0,0,1,.164-.108l.112.032-.125-.035.012,0a.129.129,0,0,1,.094.138,1.169,1.169,0,0,0,.085.6.128.128,0,0,1-.055.162h0A.13.13,0,0,1,4215.109,2114.812Z" transform="translate(-4208.681 -2113.755)"/><path class="f" d="M4205.03,2116.187a1.414,1.414,0,0,1-.1-.728.129.129,0,0,1,.164-.108l.112.032-.125-.035.012,0a.128.128,0,0,1,.094.138,1.168,1.168,0,0,0,.085.6.128.128,0,0,1-.055.162h0A.13.13,0,0,1,4205.03,2116.187Z" transform="translate(-4200.027 -2114.935)"/></g><path class="ab" d="M4276.553,1790.618c-.022,3.511-.7,4.091-1.6,5.41a6.938,6.938,0,0,1-1.224,1.39,3.615,3.615,0,0,0-.831,1.37c-.777,1.878-3.756,7.642-3.756,7.642s-2.979,4.728-3.3,6.476.194,2.137-.259,5.311-3.691,16.191-4.987,16.774a3.4,3.4,0,0,1-1.884,0c1.208-3.724,4.333-17.506,3.957-20.4-.389-2.979-1.3-1.684-.389-2.4s0-.777-.907-1.425.518-.648,2.4-1.49,5.052-7.512,5.764-8.872,0-2.4-.518-3.432,1.619-.647,2.986-1.064c1.211-.369.424-5.954.228-7.227.434.1.907.229,1.449.39C4275.923,1789.742,4275.491,1790.524,4276.553,1790.618Z" transform="translate(-4240.774 -1735.349)"/><path class="n" d="M4252.946,1782.791c-1.3,2.609-8.56,17.248-8.906,20.368-.143,1.281-.275,3.186-.428,5.391-.254,3.667-.571,8.23-1.064,11.394a82.6,82.6,0,0,1-2.1,9.22l-.1-.039c-.127-.048-.256-.09-.386-.128a81.9,81.9,0,0,0,2.076-9.134c.49-3.141.805-7.692,1.059-11.35.153-2.211.286-4.121.429-5.412.357-3.212,7.456-17.54,8.911-20.449C4252.613,1782.7,4252.783,1782.749,4252.946,1782.791Z" transform="translate(-4224.678 -1730.171)"/><path class="ab" d="M4389.069,1838.425s-.575.781-1.27,1.657a24.97,24.97,0,0,0-4.883-6.255,60.38,60.38,0,0,0-8.354-6.347c-2.137-1.3-1.36-1.943-1.878-2.979s-1.684,1.036-2.85,1.036,1.1-1.619,1.49-2.72-.972-.194-2.267-.453.064-1.1.777-3.368c.613-1.95-1.362-5.577-1.926-6.553a7.68,7.68,0,0,0,.808-1,6.717,6.717,0,0,0,1.59-4.807c.545,1.678,1.462,4.545,2.184,7.049,1.1,3.821.777,7.772,1.3,8.743s1.036.583,1.425,1.49,8.031,6.735,9.714,8.743S4389.069,1838.425,4389.069,1838.425Z" transform="translate(-4334.539 -1750.765)"/><path class="n" d="M4373.9,1905.527c-6.367-7.187-16.54-13.224-17.8-13.744-1.1-.452-.817-1.507-.522-2.625.05-.188.1-.382.148-.579.074-.311.047-.4.039-.424a1.2,1.2,0,0,0-.364.056,1.484,1.484,0,0,1-1.212-.073c-.238-.159-.609-.673-1.087-3.3-.257-1.414-.421-2.783-.422-2.8l.386-.046c0,.014.165,1.372.419,2.775.467,2.567.822,2.979.92,3.045a1.154,1.154,0,0,0,.906.018c.284-.068.552-.132.729.045.144.143.163.38.065.791-.048.2-.1.4-.15.589-.312,1.178-.452,1.859.294,2.166a58.353,58.353,0,0,1,6.935,4.319,65.695,65.695,0,0,1,11.011,9.526Z" transform="translate(-4321.463 -1815.471)"/><path class="n" d="M4319.366,1607.872a1.828,1.828,0,0,1,.26,0,40,40,0,0,0-.213-8c-.258-1.687-.6-3.234-.922-4.732a27.277,27.277,0,0,1-.955-7.158c.191-3.437,2.238-8.844,2.258-8.9l-.242-.092c-.021.055-2.082,5.5-2.274,8.976a27.435,27.435,0,0,0,.96,7.228c.326,1.493.663,3.037.919,4.716A39.688,39.688,0,0,1,4319.366,1607.872Z" transform="translate(-4291.048 -1555.304)"/><path class="n" d="M4329.693,1607.7a37.995,37.995,0,0,1,.251,7.214l.255.093a38.456,38.456,0,0,0-.25-7.345c-.258-1.687-.6-3.234-.922-4.732a27.278,27.278,0,0,1-.955-7.158c.191-3.437,2.238-8.844,2.258-8.9l-.242-.092c-.021.055-2.082,5.5-2.275,8.976a27.435,27.435,0,0,0,.96,7.228C4329.1,1604.482,4329.438,1606.026,4329.693,1607.7Z" transform="translate(-4300.096 -1561.991)"/><path class="q" d="M4314.263,1539.995a6.831,6.831,0,0,1-3.173,4.145,2.974,2.974,0,0,1-1,.345c-1.15.164-2.238-.507-3.6-1.77-1.749-1.619-1.166-4.857-.129-9s2.461-5.246,2.461-5.246c5.7-2.072,5.5,3.562,5.894,4.987a7.943,7.943,0,0,1,.212,1.81A14.443,14.443,0,0,1,4314.263,1539.995Z" transform="translate(-4280.845 -1511.528)"/><path class="e" d="M4345.5,1610.843c-.084,0-.161,0-.23-.01-1.062-.094-.63-.876-2.878-1.545-.359-.107-.687-.2-.994-.276,0-.01.007-.019.011-.029.7-1.666-.96-6.041-1.09-6.948s1.49-3.951.518-7.383-1.749-3.109-2.072-5.634a3.126,3.126,0,0,1-.025-.5,2.974,2.974,0,0,0,1-.345,6.831,6.831,0,0,0,3.173-4.145,14.443,14.443,0,0,0,.666-4.731l.443.067a13.588,13.588,0,0,1-.007,1.425,34.053,34.053,0,0,1-1.619,7.642c-.583,2.2.194,4.6.777,6.865s2.914,6.412,3.3,8.354S4346.862,1610.843,4345.5,1610.843Z" transform="translate(-4309.494 -1555.564)"/><path class="ac" d="M4342.92,1580.116a6.833,6.833,0,0,1-3.173,4.145,2.978,2.978,0,0,1-1,.345c.062-2.238,2.473-3.679,2.292-5.008a29.86,29.86,0,0,0-1.684-4.857l4.227.645A14.456,14.456,0,0,1,4342.92,1580.116Z" transform="translate(-4309.503 -1551.649)"/><path class="q" d="M4348.433,1546.655c-.992,1.984-6.031,7.8-7.02,8.939l-.169.193-2.525-1.49a47.582,47.582,0,0,0,2.4-5.764,38.774,38.774,0,0,1,1.49-4.469,10.011,10.011,0,0,1-.907-.907c-.454-.518-4.339-1.749-6.735-2.979s-2.72-2.461-2.72-2.461c-.552-4.309.922-4.8,2.093-5.133.2-.058.395-.11.566-.176,1.17-.452,7.314,4.079,7.314,4.079s6.087,3.368,7.188,5.7S4349.534,1544.453,4348.433,1546.655Z" transform="translate(-4303.812 -1515.273)"/><path class="ad" d="M4361.875,1546.655c-.992,1.984-6.031,7.8-7.02,8.939a.812.812,0,0,1-.169-.39c0-.583,5.181-7.577,5.311-9.2s-.259-1.619-.388-2.461,1.619-.971,1.295-2.2c-.29-1.1-10.9-7.437-13.126-8.76.2-.058.395-.11.566-.176,1.17-.452,7.314,4.079,7.314,4.079s6.087,3.368,7.188,5.7S4362.975,1544.453,4361.875,1546.655Z" transform="translate(-4317.253 -1515.273)"/><g transform="translate(32.149 39.003)"><path class="q" d="M4363.239,1687.32s-1.489,1.749-1.943,2.461a2.426,2.426,0,0,0-.583,1.749c.13.453,1.749,1.1,2.526,1.1s.972.065,1.166-.259a23.752,23.752,0,0,0,1.466-3.686C4365.83,1688.356,4363.692,1687.125,4363.239,1687.32Z" transform="translate(-4360.481 -1687.299)"/><path class="q" d="M4359.791,1709.093s-.938,1.318-.293,1.842,1.037-.686,1.108-.823S4359.791,1709.093,4359.791,1709.093Z" transform="translate(-4359.271 -1706.012)"/><path class="q" d="M4365.289,1713.217s-.938,1.318-.293,1.842,1.037-.686,1.108-.823S4365.289,1713.217,4365.289,1713.217Z" transform="translate(-4363.992 -1709.553)"/><path class="q" d="M4373.077,1712.759s-.938,1.318-.293,1.842,1.037-.686,1.108-.823S4373.077,1712.759,4373.077,1712.759Z" transform="translate(-4370.68 -1709.16)"/><path class="q" d="M4379.033,1713.217s-.938,1.318-.293,1.842,1.037-.686,1.108-.823S4379.033,1713.217,4379.033,1713.217Z" transform="translate(-4375.793 -1709.553)"/><path class="q" d="M4363.134,1691.881a5.993,5.993,0,0,0-1.845,1.187,2.107,2.107,0,0,0-.161,1.547c.1.2.874.072.874.072Z" transform="translate(-4360.797 -1691.233)"/></g><g transform="translate(0 28.203)"><path class="q" d="M4167.035,1622.747s-1.878-1.166-2.332-1.36-1.619-.648-1.943-.389a6.562,6.562,0,0,0-1.166,2.785c-.064.842.583.971.777,1.1a6.236,6.236,0,0,0,2.2.712,11.012,11.012,0,0,0,1.877-.267Z" transform="translate(-4157.385 -1619.504)"/><path class="q" d="M4172.388,1614.077a2.823,2.823,0,0,0-.907-1.554c-.278-.167-1.684-1.1-1.684-1.1l-1.295-.453s-.454-.194-.518.065.259.453.259.453a5.888,5.888,0,0,0,.907.453c.129,0,.583.453.583.453a4.439,4.439,0,0,0,.777,1.036,1.3,1.3,0,0,0,.907.259Z" transform="translate(-4162.868 -1610.898)"/><path class="q" d="M4142.583,1617.069l-1.839-.328-1.534-.2s-1.61-.273-1.764.068.46.546.46.546,1.764.273,2.3.41,1.84.751,1.917.751A4.259,4.259,0,0,0,4142.583,1617.069Z" transform="translate(-4136.634 -1615.65)"/><path class="q" d="M4137,1623.025l-1.839-.328-1.534-.2s-1.611-.273-1.764.068.46.546.46.546,1.764.273,2.3.41,1.84.751,1.917.751A4.273,4.273,0,0,0,4137,1623.025Z" transform="translate(-4131.843 -1620.764)"/><path class="q" d="M4140.554,1631.271l-1.839-.328-1.534-.2s-1.61-.273-1.764.068.46.546.46.546,1.764.273,2.3.41,1.84.751,1.917.751A4.258,4.258,0,0,0,4140.554,1631.271Z" transform="translate(-4134.891 -1627.845)"/><path class="q" d="M4143.091,1638.144l-1.839-.328-1.534-.2s-1.611-.273-1.764.068.46.546.46.546,1.764.273,2.3.409,1.841.751,1.917.751A4.258,4.258,0,0,0,4143.091,1638.144Z" transform="translate(-4137.069 -1633.746)"/></g><path class="ae" d="M4295.148,1454.951a2.767,2.767,0,0,0-1.373.656,7.145,7.145,0,0,1-.971,1.1,2.253,2.253,0,0,0-1.684-2.267c-1.878-.712-3.562.389-4.469-.712s-1.684-3.368-3.173-3.432-2.72-.13-3.432-1.231.324-2.2,0-2.979-1.1-.259-1.1-.259a2.159,2.159,0,0,1-1.813-.713c-.647-.842-1.036-1.3-1.036-1.3l-1.36.13a4.056,4.056,0,0,1-.081-1.881c.613-.159,1.665-.238,2.024.326.453.712.907,2.137,2.72,1.943a2.816,2.816,0,0,1,3.367,2.59c.194,1.813,0,1.1,3.044,2.526s1.943,2.2,3.3,2.785,4.145-1.813,5.375,1.1C4294.753,1453.97,4294.971,1454.5,4295.148,1454.951Z" transform="translate(-4254.4 -1437.631)"/></g><g transform="translate(0 46.943)"><path class="r" d="M3904.746,2138.676h0a2.515,2.515,0,0,1,2.635-2.512l94.4,4.507a2.515,2.515,0,0,1,2.395,2.512v.768Z" transform="translate(-3902.108 -2080.651)"/><path class="h" d="M3919.7,1743.466l-22.419,56.97,17.935,1.055,14.77-55.388Z" transform="translate(-3895.7 -1743.466)"/><path class="h" d="M3997.751,2151.234v9.759H3895.416l.264-14.506Z" transform="translate(-3894.097 -2089.516)"/><rect class="h" width="27.43" height="3.165" transform="translate(20.573)"/><rect class="r" width="16.353" height="1.583" transform="translate(3.956 71.476)"/><rect class="r" width="16.353" height="1.583" transform="translate(82.818 71.476)"/><path class="af" d="M4106.484,2197.94v7.021H4022.05l.3-4.484a29,29,0,0,1,16.089-1.583c9.5,1.583,29.013,2.637,36.661,0s11.077-.264,19.254.791C4098.2,2200.182,4102.747,2199.162,4106.484,2197.94Z" transform="translate(-4002.831 -2133.485)"/><path class="i" d="M3906.4,2102.723v16.616h-20.309v-21.364Z" transform="translate(-3886.087 -2047.863)"/><path class="ag" d="M3886.087,2148.176s2.638-5.011,5.8-5.275,6.066-1.319,6.857-3.429,4.748-7.649,7.649-7.913v16.616Z" transform="translate(-3886.087 -2076.7)"/><path class="r" d="M3897,2109.961a.791.791,0,1,1-.791-.791A.791.791,0,0,1,3897,2109.961Z" transform="translate(-3894.097 -2057.475)"/><path class="r" d="M4012.68,2136.083a.791.791,0,1,1-.791-.791A.791.791,0,0,1,4012.68,2136.083Z" transform="translate(-3993.427 -2079.904)"/><path class="r" d="M4014.546,2234.972a.791.791,0,1,1-.791-.791A.791.791,0,0,1,4014.546,2234.972Z" transform="translate(-3995.029 -2164.814)"/><path class="r" d="M3897,2234.972a.791.791,0,1,1-.791-.791A.791.791,0,0,1,3897,2234.972Z" transform="translate(-3894.097 -2164.814)"/><path class="ah" d="M3947.464,1775.713,3929,1820.287l12.924,3.429,12.66-48.53-13.715,45.892-8.968-2.374Z" transform="translate(-3922.935 -1770.702)"/><path class="ah" d="M4059.052,1752.8v1.588h-27.43v-1.35c2.767-.061,9.1-.171,11.341.032,2.9.264,4.747-.791,7.912-.527C4053.226,1752.732,4057.174,1752.782,4059.052,1752.8Z" transform="translate(-4011.05 -1751.218)"/></g></g><g transform="translate(50.986 59.01)"><path class="v" d="M2363.935,955.9v49.762H2353.3v13.245l-6.7-13.245h-46.066V955.9Z" transform="translate(-2300.531 -955.898)"/><path class="ai" d="M2363.935,955.9v49.762H2353.3v13.245l-6.7-13.245H2300.53s.6-7.424,10.232-9.431,15.047-3.369,17.656-8.828,4.215-11.236,12.04-13.444,10.434-2.808,13.444-8.026S2363.935,955.9,2363.935,955.9Z" transform="translate(-2300.53 -955.899)"/><g transform="translate(10.928 3.122)"><path class="f" d="M2412.7,1055.515a18.332,18.332,0,1,1,18.332-18.332A18.353,18.353,0,0,1,2412.7,1055.515Zm0-34.428a16.1,16.1,0,1,0,16.1,16.1A16.114,16.114,0,0,0,2412.7,1021.087Z" transform="translate(-2392.029 -1013.075)"/><g transform="translate(14.261)"><rect class="f" width="8.563" height="3.952" transform="translate(1.753 3.293)"/><path class="f" d="M2488.47,982.73h-7.377a2.371,2.371,0,0,1-2.371-2.371h0a2.371,2.371,0,0,1,2.371-2.371h7.377a2.371,2.371,0,0,1,2.371,2.371h0A2.371,2.371,0,0,1,2488.47,982.73Z" transform="translate(-2478.721 -977.987)"/></g><g transform="translate(32.725 7.667)"><rect class="f" width="6.072" height="2.803" transform="matrix(0.643, 0.766, -0.766, 0.643, 2.147, 1.766)"/><path class="f" d="M2621.928,1038.994l-3.363-4.007a1.682,1.682,0,0,1,.207-2.369h0a1.681,1.681,0,0,1,2.369.207l3.363,4.007a1.681,1.681,0,0,1-.207,2.369h0A1.681,1.681,0,0,1,2621.928,1038.994Z" transform="translate(-2616.924 -1032.224)"/></g><g transform="translate(0 7.629)"><rect class="f" width="6.072" height="2.802" transform="translate(1.93 6.565) rotate(-52.247)"/><path class="f" d="M2384.053,1034.671l-3.2,4.136a1.681,1.681,0,0,1-2.359.3h0a1.681,1.681,0,0,1-.3-2.359l3.2-4.136a1.681,1.681,0,0,1,2.359-.3h0A1.681,1.681,0,0,1,2384.053,1034.671Z" transform="translate(-2377.839 -1031.96)"/></g><path class="f" d="M2513.92,1134.668a1.976,1.976,0,1,0-1.976,1.976A1.976,1.976,0,0,0,2513.92,1134.668Z" transform="translate(-2491.291 -1110.823)"/><path class="f" d="M2516.284,1068.928l1.186-11.725,1.054,11.857Z" transform="translate(-2496.714 -1046.005)"/></g></g><g transform="translate(257.962 99.277)"><path class="d" d="M3809.288,1250.8v25.43a10.037,10.037,0,0,1-10.033,10.037h-24.488a10.038,10.038,0,0,1-10.037-10.037V1250.8a10.035,10.035,0,0,1,10.037-10.037h24.488A10.035,10.035,0,0,1,3809.288,1250.8Z" transform="translate(-3764.73 -1240.762)"/><path class="aj" d="M3809.288,1469.229v3.172a10.037,10.037,0,0,1-10.033,10.037h-24.488a10.038,10.038,0,0,1-10.037-10.037v-2.147a10.934,10.934,0,0,0,3.772,3.883c3.929,2.2,4.086-.942,9.276.471s9.271,3.144,13.2.157,6.445,3.615,11.944.157A27.045,27.045,0,0,0,3809.288,1469.229Z" transform="translate(-3764.73 -1436.933)"/><path class="ak" d="M3809.288,1250.8v2.687a24.245,24.245,0,0,1-6.838-2.867c-3.772-2.516-5.812-2.2-10.212-.789s-7.544-2.669-11.949-.785-4.086,1.1-9.742,1.26a7.739,7.739,0,0,0-5.817,2.729V1250.8a10.035,10.035,0,0,1,10.037-10.037h24.488A10.035,10.035,0,0,1,3809.288,1250.8Z" transform="translate(-3764.73 -1240.762)"/><path class="f" d="M3880.69,1324.617v21.454l16.5-11.788Z" transform="translate(-3864.299 -1312.764)"/></g><g transform="translate(229.713 175.295)"><path class="q" d="M3783.217,2216.362a6.712,6.712,0,0,1-.832,2.59c-.343.681-.661,1.183-.661,1.183s-2.829-1.258-9.667-.393-10.3,1.572-12.182,1.415c-1.859-.155-3.564-.615-4.215-3.41-.01-.042-.02-.084-.029-.127-.629-2.908.825-13.793.825-13.793.432-.9,11.475,1.021,11.4,1.493-.012.076-.068.317-.15.668-.418,1.772-1.552,6.337-1.616,6.591l0,.011S3783.217,2214.947,3783.217,2216.362Z" transform="translate(-3728.532 -2143.502)"/><path class="q" d="M3750.629,1903.354c-.3,2.7-.8,5.794-1.52,9.367l0,0-.007,0c-.047.021-.27.12-.64.263h0a24.1,24.1,0,0,1-4.421,1.189c-.591.1-1.221.188-1.884.249a22.251,22.251,0,0,1-4.754-.055s-.376-8.428-.981-11c-.013-.057-.027-.11-.04-.161l-.314-1.336a3.069,3.069,0,0,1-1.729-3.065c.079-2.358.943-2.987.943-2.987l3.075-2.921.069-.065s2.436-2.279,2.908-3.773.629-2.043.629-2.043l3.534-1.6,1.492-.676,0,0a5.162,5.162,0,0,1,.469.584c.1.139.213.3.337.5a2.769,2.769,0,0,0,.765.656c.1.072.2.149.3.238v0c.568.5,1.093,1.329.96,3.408-.01.148.1.282.151.427a17.7,17.7,0,0,1,.816,3.692v0a28.115,28.115,0,0,1,.183,2.839A49.276,49.276,0,0,1,3750.629,1903.354Z" transform="translate(-3710.378 -1869.728)"/><path class="d" d="M3769.472,2095.958c-.314.707-.864,5.659-.943,5.895a.7.7,0,0,1-.365.389c-.818.438-2.8.307-4.9-.035l-.034-.006c-3.218-.527-6.695-1.546-6.651-1.763.078-.393.864-5.266.864-6.523s-.393-1.493-.786-3.38a61.185,61.185,0,0,1-.629-6.209,46.572,46.572,0,0,0,4.758-.238,30.345,30.345,0,0,0,6.942-1.408l.007,0,0,0s3.144,3.3,3.537,6.68S3769.786,2095.251,3769.472,2095.958Z" transform="translate(-3729.013 -2039.682)"/><path class="q" d="M3632.375,2110.174a7.142,7.142,0,0,1-2.636.553c-2.783.315-6.756.508-6.756.508.629,5.659-1.572,19.884-2.515,20.592a2.551,2.551,0,0,1-1.287.345,14.049,14.049,0,0,1-2.8-.188s.079-1.886,0-4.4-1.493-13.676-2.043-17.212-1.022-5.659,3.222-7.309a71.657,71.657,0,0,1,10.323-2.352c.9-.153,1.466-.242,1.466-.242s1.922,4.988,2.724,7.825A4.075,4.075,0,0,1,3632.375,2110.174Z" transform="translate(-3607.045 -2054.959)"/><path class="d" d="M3719.085,2105.984c-1.179-.393-6.366-.393-6.366-.393-.027-.038-.055-.076-.082-.115a10.77,10.77,0,0,1-1.1-1.975,14.6,14.6,0,0,1-.759-8.043c.031-.157.051-.242.051-.242l6.13-.865s1.209,4.4,1.9,7.794C3719.318,2104.359,3719.55,2106.139,3719.085,2105.984Z" transform="translate(-3689.943 -2049.708)"/><path class="al" d="M3725.218,2153.328c-1.179-.393-6.366-.393-6.366-.393-.027-.038-.055-.076-.082-.115a10.77,10.77,0,0,1-1.1-1.975,19.014,19.014,0,0,0,3.431-.46c1.384-.278,2.837-.628,3.894-.9C3725.451,2151.7,3725.684,2153.482,3725.218,2153.328Z" transform="translate(-3696.077 -2097.052)"/><path class="d" d="M3750.629,1906.9a32.767,32.767,0,0,0-10.975-.462c-1.409.155-2.544.348-3.237.48-.013-.057-.027-.11-.04-.161l-.314-1.336a3.069,3.069,0,0,1-1.729-3.065c.079-2.358.943-2.987.943-2.987l3.075-2.921a2.3,2.3,0,0,0,1.169.013c1.258-.314,3.851-5.266,5.109-6.287a8,8,0,0,1,2.827-1.3c.1.139.213.3.337.5a5.405,5.405,0,0,0-3.74,6.279,6.768,6.768,0,0,0,.655,1.989c1.125,2.19,4.611,2.82,6.265,3A49.276,49.276,0,0,1,3750.629,1906.9Z" transform="translate(-3710.378 -1873.275)"/><path class="am" d="M3782.965,2012.075c-.3,2.7-.8,5.794-1.52,9.367l0,0-.007,0a30.345,30.345,0,0,1-6.942,1.408,41.039,41.039,0,0,0-.592-7.936c-.6-2.161-1.545-2.414-1.91-3.306A32.767,32.767,0,0,1,3782.965,2012.075Z" transform="translate(-3742.715 -1978.449)"/><path class="al" d="M3798.306,2095.958c-.314.707-.864,5.659-.943,5.895-.293.879-2.711.772-5.295.349a14.411,14.411,0,0,1,.265-2.864c.393-2.122,2.908-6.366,1.776-10.109s-4.527-4.274-4.5-4.655c0-.031,0-.1.007-.193,0-.079,0-.177,0-.293a30.345,30.345,0,0,0,6.942-1.408l.007,0,0,0s3.144,3.3,3.537,6.68S3798.621,2095.251,3798.306,2095.958Z" transform="translate(-3757.847 -2039.682)"/><path class="al" d="M3782.486,1936.085a32.764,32.764,0,0,0-10.975-.462,1.585,1.585,0,0,1-.055-.152c-.314-1.022,2.594-2.279,3.3-5.973a42.532,42.532,0,0,1,1.153-4.661c.249-.8.419-1.233.419-1.233l5.351-.742q.075.21.151.427a21.026,21.026,0,0,1,1,6.534A49.279,49.279,0,0,1,3782.486,1936.085Z" transform="translate(-3742.236 -1902.458)"/><path class="q" d="M3807.827,1913.405c-.572,2.146-3.033,13.733-3.47,15.8l-.067.315-.831-.081-2.392-.234s.008-.161.022-.448c.112-2.288.624-12.59.764-13.149a5.31,5.31,0,0,0,.079-2.122c-.079-1.415-.943-9.981-.393-13.361a5.1,5.1,0,0,1,2.469-3.961,1.59,1.59,0,0,1,.548-.169h.009c3.2-.369,3.419,4.838,3.419,4.838S3808.456,1911.048,3807.827,1913.405Z" transform="translate(-3767.683 -1879.371)"/><g transform="translate(26.578 49.281)"><rect class="h" width="9.274" height="1.336" transform="translate(3.271 4.165)"/><g transform="translate(11.396)"><rect class="r" width="2.14" height="9.274"/><rect class="r" width="1.923" height="8.331" transform="translate(2.074 0.472)"/></g><g transform="translate(0 0.55)"><rect class="r" width="2.14" height="9.274" transform="translate(3.996 9.274) rotate(180)"/><rect class="r" width="1.923" height="8.331" transform="translate(1.923 8.803) rotate(180)"/></g></g><path class="q" d="M3796.026,2130.378c0,.865-.236,3.458-.786,3.694a2.591,2.591,0,0,1-.715.114,7.242,7.242,0,0,1-3.136-.35c-.393-.393-.236-1.179-.314-1.729a5.576,5.576,0,0,1-.079-2.279c.2-.478,1.121-2.14,1.358-2.57l.056-.1,2.479.186.665.049s.027.12.067.314A18.145,18.145,0,0,1,3796.026,2130.378Z" transform="translate(-3758.946 -2077.875)"/><path class="q" d="M3756.943,1796.864a5.482,5.482,0,0,0-.226,2,4.2,4.2,0,0,0,.069.518,20.818,20.818,0,0,0,.629,2.122l0,0c-.043.027-.583.354-1.295.76-1.49.85-3.732,2.043-3.732,1.518,0-.786-.786-2.829-1.729-2.751s-1.883.416-2.358-.472a12.869,12.869,0,0,1-1.808-7.545c.079-2.829,3.222-4.323,3.222-4.323,5.266-3.144,8.488,2.908,8.331,4.4A17.134,17.134,0,0,1,3756.943,1796.864Z" transform="translate(-3720.806 -1786.487)"/><path class="r" d="M3756.987,1817.576a6.581,6.581,0,0,1-.786,2.95c-.236.2-.629.194-1.1-.435a1.759,1.759,0,0,0-.652-.485c-.448-.222-.893-.365-.842-.772.079-.629.236-1.808-.865-1.965s-1.493,1.415-2.043,1.179,0-.393-.236-1.179-1.566-1.353-2.987-1.886c-1.886-.707-1.572-1.965-1.572-1.965h0a89.328,89.328,0,0,1,10.1,3.754C3756.617,1817.1,3756.987,1817.375,3756.987,1817.576Z" transform="translate(-3720.3 -1808.142)"/><path class="t" d="M3757.814,1805.35l-.707,2.2c-4.211-.312-10.975-4.493-11.08-4.558h0l.368-1.544.025-.107a27.006,27.006,0,0,0,10.014,3.912A8.223,8.223,0,0,0,3757.814,1805.35Z" transform="translate(-3720.42 -1798.117)"/><path class="r" d="M3759.77,1784.026a5.541,5.541,0,0,1-.744,1.735c-.13.148-.651.165-1.414.069-2.48-.31-7.518-1.817-9.982-3.92,0,0-.01-.018-.025-.051-.136-.28-.681-1.657,1.361-2.15,1.59-.384,3.537-1.808,5.344-.864.786.41,2.187.011,3.144.629,1.246.8,2,2.594,2.358,2.594S3760.045,1783.056,3759.77,1784.026Z" transform="translate(-3721.632 -1778.528)"/><path class="r" d="M3835.121,1788.428a2.818,2.818,0,0,1,2.122-2.515c1.965-.393,2.358,1.022,2.279,1.1s.629.157.629.55a1.372,1.372,0,0,1-.393.786s.865,0,.786.786a1.109,1.109,0,0,1-.865.943s.393,0,.157.472-.865.314-1.1.472-.55.629-.786.472-.157-.472-.55-.314-1.179.157-1.258-.079-.078-.55-.314-.55A1.608,1.608,0,0,1,3835.121,1788.428Z" transform="translate(-3796.783 -1784.81)"/><path class="t" d="M3830.991,1799.273l1.017-.107a11.368,11.368,0,0,0,.428,2.568l-.963.294A6.052,6.052,0,0,1,3830.991,1799.273Z" transform="translate(-3793.368 -1796.249)"/><path class="am" d="M3821.146,1913.405c-.572,2.146-3.033,13.733-3.47,15.8a18.11,18.11,0,0,1,.4,2.673c0,.865-.236,3.458-.786,3.694a2.586,2.586,0,0,1-.715.114c.361-1.739.09-5.427.2-6.247a.323.323,0,0,1,.045-.155,1.8,1.8,0,0,0,.121-.443c.48-2.281,1.969-12.592,1.687-13.862a4.539,4.539,0,0,1,.314-2.987c.314-.943,2.043-6.287,1.415-10.374-.576-3.743-2.206-5.377-2.477-5.624,3.2-.369,3.42,4.838,3.42,4.838S3821.775,1911.048,3821.146,1913.405Z" transform="translate(-3781.001 -1879.371)"/><path class="an" d="M3804.993,2220.881c-.431,1.822-1.535,6.265-1.6,6.516-1.551.137-4.131,1.217-4.4.875-.314-.393.55-1.179,1.022-2.672a15.857,15.857,0,0,0,.083-4.754C3802.194,2221.188,3804.175,2221.318,3804.993,2220.881Z" transform="translate(-3765.842 -2158.321)"/><path class="ao" d="M3783.519,2304.284c-.343.681-.661,1.183-.661,1.183s-2.829-1.258-9.667-.393-10.3,1.572-12.182,1.415c-1.859-.155-3.564-.615-4.215-3.41a7.862,7.862,0,0,0,3.508,2.231c2.515.707,5.03-1.965,10.139-2.279C3774.971,2302.752,3781.543,2303.462,3783.519,2304.284Z" transform="translate(-3729.667 -2228.835)"/><path class="an" d="M3652.318,2161.084c.562,5.061-1.139,16.974-2.179,19.941a.158.158,0,0,0-.022.022,3.057,3.057,0,0,1-1.568.6c.185-2.234.248-6.142.625-9.483.55-4.873,1.808-7.467,1.493-9.274a4.5,4.5,0,0,0-2.358-3.144c-.786-.472,1.493-.236,3.144-.157s4.323-1.336,6.13-1.022a2.55,2.55,0,0,0,.394.032,10.756,10.756,0,0,0,1.1,1.975C3656.291,2160.892,3652.318,2161.084,3652.318,2161.084Z" transform="translate(-3636.38 -2104.809)"/><g transform="translate(52.153 71.902)"><path class="r" d="M3939.588,2300.163a4.5,4.5,0,0,1-.585.049,2.251,2.251,0,0,1-1.458-.363c-.629-.55-4.008-7.859-3.689-8.214a5.269,5.269,0,0,0,1.174-2.553,3.251,3.251,0,0,0-.236-1.886,14.281,14.281,0,0,1,2.472.1c.712.113,1.3.262,1.3.449,0,.472.55,5.58.629,6.759S3939.588,2300.163,3939.588,2300.163Z" transform="translate(-3933.834 -2287.18)"/><path class="i" d="M3960.431,2300.866a4.5,4.5,0,0,1-.586.049c-.229-1.937-1.506-11.242-1.737-12.916.712.113,1.3.262,1.3.449,0,.472.55,5.58.629,6.759S3960.431,2300.866,3960.431,2300.866Z" transform="translate(-3954.677 -2287.883)"/><path class="i" d="M3940.616,2320.361a.275.275,0,1,1-.275-.275A.275.275,0,0,1,3940.616,2320.361Z" transform="translate(-3939.185 -2315.435)"/><path class="i" d="M3944.509,2329.813a.275.275,0,1,1-.275-.275A.275.275,0,0,1,3944.509,2329.813Z" transform="translate(-3942.528 -2323.551)"/><path class="i" d="M3948.4,2339.264a.275.275,0,1,1-.275-.275A.275.275,0,0,1,3948.4,2339.264Z" transform="translate(-3945.869 -2331.666)"/><path class="f" d="M3935.372,2322.557l-.207-.113c.488-.894.946-.96,1-.965l.021.235-.011-.117.013.117S3935.8,2321.774,3935.372,2322.557Z" transform="translate(-3934.977 -2316.631)"/><path class="f" d="M3939.263,2331.453l-.207-.113c.488-.894.946-.96,1-.965l.021.235-.011-.118.013.117S3939.69,2330.67,3939.263,2331.453Z" transform="translate(-3938.317 -2324.269)"/><path class="f" d="M3943.156,2340.349l-.207-.113c.488-.894.946-.96,1-.965l.021.235-.011-.117.013.117S3943.583,2339.566,3943.156,2340.349Z" transform="translate(-3941.66 -2331.907)"/></g><g transform="translate(0 75.833)"><path class="r" d="M3579.491,2318.854v1.022l-14.461.078a1.586,1.586,0,0,1-.132-.8,1.3,1.3,0,0,1,.446-.847c.786-.707,8.881-3.222,8.881-3.222a1.423,1.423,0,0,0,.943,1.022,4.932,4.932,0,0,0,1.89-.027,3.059,3.059,0,0,0,1.568-.6.155.155,0,0,1,.022-.022c.428-.389.786,2.462.836,3.254C3579.488,2318.77,3579.491,2318.819,3579.491,2318.854Z" transform="translate(-3564.889 -2315.068)"/><path class="i" d="M3579.491,2340.868v1.022l-14.461.078a1.586,1.586,0,0,1-.132-.8c1.773-.078,8.627-.375,9.72-.375.884,0,3.4-.078,4.867-.069C3579.488,2340.784,3579.491,2340.833,3579.491,2340.868Z" transform="translate(-3564.889 -2337.082)"/><path class="i" d="M3604.875,2325.921a.317.317,0,1,1-.314-.275A.3.3,0,0,1,3604.875,2325.921Z" transform="translate(-3598.683 -2324.139)"/><path class="i" d="M3614.882,2322.585a.317.317,0,1,1-.314-.275A.3.3,0,0,1,3614.882,2322.585Z" transform="translate(-3607.275 -2321.275)"/><path class="i" d="M3624.891,2319.249a.317.317,0,1,1-.314-.275A.3.3,0,0,1,3624.891,2319.249Z" transform="translate(-3615.869 -2318.411)"/><path class="f" d="M3605.263,2322.6a1.7,1.7,0,0,1,.167-.94l.211.105a1.489,1.489,0,0,0-.147.789Z" transform="translate(-3599.54 -2320.716)"/><path class="f" d="M3615.339,2319.364a2.032,2.032,0,0,1,.154-.994l.217.092a1.835,1.835,0,0,0-.14.856Z" transform="translate(-3608.191 -2317.892)"/><path class="f" d="M3625.438,2316.049a2.076,2.076,0,0,1,.226-1.061l.211.1a1.885,1.885,0,0,0-.206.909Z" transform="translate(-3616.866 -2314.988)"/></g><path class="am" d="M3794.766,1864.918l-.22-.028c-.528-.064-.935-.089-.935-.089l-.063-.025h0a7.4,7.4,0,0,1-1.14-.577,4.235,4.235,0,0,0-.51-.26l-.2-.084a6.944,6.944,0,0,0-2.591-.6c-.865.079-1.493-.393-.314-.786.8-.266,1.381-1.686,1.942-2.843a1.759,1.759,0,0,1,.652.485c.472.629.865.634,1.1.435l.01-.009a4.156,4.156,0,0,0,.068.518,20.818,20.818,0,0,0,.629,2.122,5.162,5.162,0,0,1,.469.584c.1.139.213.3.337.5A2.767,2.767,0,0,0,3794.766,1864.918Z" transform="translate(-3756.586 -1848.163)"/><path class="ap" d="M3810.185,1810.489a2.207,2.207,0,0,0-1.652,1.694c-.081.307-.145.619-.2.926-.01.055-.021.11-.031.165-.086.461-.163.912-.27,1.328a3.192,3.192,0,0,1-.753,1.511,5.229,5.229,0,0,0-.809,1.323,1.759,1.759,0,0,1,.652.485c.472.629.865.634,1.1.435a6.581,6.581,0,0,0,.786-2.95l.707-2.2a5.534,5.534,0,0,0,.743-1.735Z" transform="translate(-3772.317 -1805.971)"/></g><rect class="aq" width="177.907" height="115.652" transform="translate(118.567 52.543)"/><g transform="translate(113.75 1.752)"><path class="r" d="M3383.77,556.452s-3.427-4.87,6.854-5.591,16.231,20.019,15.871,29.4-1.984,19.658,1.262,28.676c1.334,3.7,2.885,4.509,2.885,4.509a21.165,21.165,0,0,1-8.476-6.853c-5.2-6.69-6.132-15.51-5.591-22.9s-3.968-23.806-5.951-24.888-1.443.18-1.443.18l-5.952-.361Z" transform="translate(-3292.939 -550.843)"/><path class="q" d="M3317.14,931.518s-37.847,2.96-31.083,0c5.316-2.326,6.979-10.525,7.445-13.932.127-.93.167-1.5.167-1.5l14,.174,3.129.038c0,.261.009.518.019.77.217,6.55,2.166,10.292,3.843,12.319A8.024,8.024,0,0,0,3317.14,931.518Z" transform="translate(-3208.815 -864.454)"/><path class="q" d="M3324.378,647.418a69.08,69.08,0,0,1-4.285,15.4,13.289,13.289,0,0,1-2.023,3.555,1.04,1.04,0,0,1-.071.082,12.355,12.355,0,0,1-8.669,4.436h-.276s-.063,0-.181-.009a12.48,12.48,0,0,1-8.116-3.989,13.053,13.053,0,0,1-2.465-4.076c-3.075-7.944-7.431-21.4-2.051-30.113,4.827-7.815,11.5-8.516,12.833-8.58v0l.12,0,.118,0v0c1.328.064,8.005.765,12.832,8.58C3324.731,636.9,3325.068,642.179,3324.378,647.418Z" transform="translate(-3216.069 -613.765)"/><path class="q" d="M2989.36,843.392c0,.158-.01.311-.014.464s-.012.3-.019.452-.016.3-.024.44c0,.026,0,.052,0,.078-.017.264-.038.518-.059.767-.012.137-.026.271-.04.4s-.028.261-.045.391-.035.285-.056.424q-.021.162-.049.318c-.019.12-.04.235-.061.351q-.085.466-.2.883a8.358,8.358,0,0,1-.3.935c-.035.085-.068.17-.106.25s-.082.184-.129.271c-.033.066-.066.13-.1.191a3.483,3.483,0,0,1-.259.4c-.045.061-.092.12-.141.177a1.616,1.616,0,0,1-.148.16,2.317,2.317,0,0,1-.179.167c-.045.035-.087.071-.134.1a1.591,1.591,0,0,1-.169.111.654.654,0,0,1-.057.033c-.028.017-.056.033-.087.047s-.045.021-.068.033c-.042.021-.087.038-.132.057-.026.009-.052.019-.078.026a1.035,1.035,0,0,1-.144.045c-.061.016-.125.031-.188.042l-.023,0c-.052.009-.1.016-.158.021a.063.063,0,0,0-.021,0c-.024,0-.05,0-.073,0q-.085.007-.169.007c-22.3.12-35.771-5.83-42.262-6.371-4.719-.393-7.912,2.2-9.675,5.858a15.254,15.254,0,0,0-.942,2.505,17.665,17.665,0,0,0-.445,1.975s-.436,5.738-1.116,12.795c-.193,1.992-.407,4.09-.634,6.193-.549,5.093-1.189,10.216-1.858,13.958-1.269,7.106,4.81,9.378,7.935,28.615L2925.4,920.2q-2.737.766-5.512,1.319a75.266,75.266,0,0,1-36.689-1.808l-9.75-2.971c3.125-19.237,8.175-21.4,7.935-28.615-.085-2.593-.532-7.648-1.059-13.075-.94-9.675-2.143-20.525-2.037-20.7-.1-.252-.2-.495-.318-.725a6.966,6.966,0,0,0-.49-.841c-2.378-3.52-7.306-4.019-12.208-3.612-6.491.542-29.1,8.9-39.613,3.727a5.334,5.334,0,0,1-2.734-3.475,24.444,24.444,0,0,1-.692-7.706c.179-6.852,3.607-46.35,3.607-46.35l10.1-.542s.069.834.181,2.211c.52,6.36,1.983,24.313,1.983,25.2,0,1.036,1.82,9.682,2.924,11.361a1.166,1.166,0,0,0,.141.181c1.083,1.083,12.562-5.771,20.92-5.05,4.867.421,4.386-2.4,13.044-4.568,3.061-.765,5.693-.042,8.653.377.768.111,1.559.2,2.383.236l2.849-.445,16.414-2.571,13.07,2.175c.685-.087,1.519-.186,2.465-.28,1.523-.148,3.339-.287,5.281-.353a44.35,44.35,0,0,1,11.7.921c8.658,2.166,6.661,2.957,11.545,3.066,9.571.214,17.81,4.9,20.278,5.171a.784.784,0,0,0,.643-.12,8.781,8.781,0,0,0,1.144-2.788,62.517,62.517,0,0,0,1.921-8.754c0-1.083,2.164-27.414,2.164-27.414l7.671.412,2.427.129s3.428,39.5,3.607,46.35C2989.378,841.376,2989.385,842.422,2989.36,843.392Z" transform="translate(-2811.231 -759.09)"/><path class="d" d="M3272.673,1032.671a15.256,15.256,0,0,0-.942,2.505,17.617,17.617,0,0,0-.445,1.975s-.436,5.738-1.116,12.795c0,.014,0,.026,0,.04-.056.565-.111,1.14-.169,1.719-.144,1.45-.3,2.941-.459,4.433a107.1,107.1,0,0,1-21.007,2.07c-.224,0-.45.007-.674.009a260.571,260.571,0,0,1-28.848-1.436c-.94-9.675-2.143-20.525-2.037-20.7-.1-.252-.2-.494-.318-.725,2.632-3.047,3.565-11.238,3.895-13.711.36-2.706,2.164-2.524,2.526-4.688.245-1.467-.259-7.17-.605-10.685.768.111,1.559.2,2.383.236l2.849-.445c1.236,5.919,5.284,19.18,16.833,19.912,10.772.681,14.123-13.59,15.116-20.588,1.523-.148,3.339-.287,5.281-.353a60.6,60.6,0,0,0-.2,10.3c.054.483.118.9.191,1.257a7.447,7.447,0,0,0,.287,1.048c.747,2.013,1.994,1.542,3.129,5.091A90.108,90.108,0,0,0,3272.673,1032.671Z" transform="translate(-3149.917 -940.828)"/><path class="d" d="M3227.477,1654.467c-.68-4.643-1.314-8.666-1.769-11.466-.424-2.614-.69-4.163-.69-4.163a98.066,98.066,0,0,1-17.5,4.526c-26.049,4.215-44.539-3.8-44.539-3.8a73.746,73.746,0,0,0-4.131,14.908Z" transform="translate(-3100.282 -1485.042)"/><path class="r" d="M3316.2,633.428c-1.608,2.894-3.07,5.072-3.88,3.977a1.969,1.969,0,0,1-.266-.551c-.723-2.164-2.166-7.212-8.116-8.114a8.92,8.92,0,0,1-7.393-5.59l0,0v0s0,0,0,0a.186.186,0,0,0-.009.035c0,.014-.012.033-.019.054a28.82,28.82,0,0,1-2.326,5.787c-3.551,6.543-8.173,7.53-9.185,7.82-.956.276-1.91-.485-2.552-3.216a25.533,25.533,0,0,1-.513-3.275c-.542-5.411,1.443-14.247,4.328-17.134s9.92-7.393,9.92-7.393a46.378,46.378,0,0,1,5.952.36c1.982.36,5.59,3.247,10.28,8.3.141.151.278.308.41.468C3317.158,620.172,3317.954,630.278,3316.2,633.428Z" transform="translate(-3205.897 -598.062)"/><path class="d" d="M3379.729,589.3l6.974.561.4-1.6-6.412-1.844Z" transform="translate(-3289.94 -581.384)"/><path class="ae" d="M3405.491,688.863c-1.608,2.894-3.07,5.072-3.88,3.977a1.969,1.969,0,0,1-.266-.551c-.723-2.164-2.166-7.212-8.116-8.114a8.92,8.92,0,0,1-7.393-5.59,12.855,12.855,0,0,0,6.27,2.063c3.607.16,4.811.4,6.574,1.121s4.248-4.088,3.365-10.259a2.277,2.277,0,0,1,.071-1.114C3406.445,675.607,3407.24,685.713,3405.491,688.863Z" transform="translate(-3295.183 -653.496)"/><path class="ac" d="M3410.4,935.349a7.925,7.925,0,0,1-2.99.014c-1.2-.48-1.681-4.09-4.568-7.094-.386-.4-5.693-.259-6.091-.48.151-.066.358-.151.61-.25.118.009.181.009.181.009h.276a12.355,12.355,0,0,0,8.669-4.436,1.04,1.04,0,0,0,.071-.082C3406.77,929.58,3408.719,933.322,3410.4,935.349Z" transform="translate(-3304.552 -870.419)"/><path class="ar" d="M3444.854,780.328a69.08,69.08,0,0,1-4.285,15.4,13.289,13.289,0,0,1-2.023,3.555,11.959,11.959,0,0,1-4.54,3.473c2.267-2.081.424-2.606,1.392-4.281a11.3,11.3,0,0,0,1.6-5.135c.12-3.847,1.323-2.284,3.247-6.612s-.061-7.214-.061-7.214l4.269-.6S3444.631,779.426,3444.854,780.328Z" transform="translate(-3336.546 -746.675)"/><path class="ae" d="M3300.2,728.379a.186.186,0,0,0-.009.035c0,.014-.012.033-.019.054-.172.5-1.02,2.924-2.326,5.787-3.551,6.543-8.173,7.53-9.185,7.82-.956.276-1.91-.485-2.553-3.216C3288.237,738.376,3293.975,736.38,3300.2,728.379Z" transform="translate(-3209.556 -703.283)"/><g transform="translate(149.49 12.307)"><path class="q" d="M3881.073,673.616a31.046,31.046,0,0,1-2.344-6.132c-.361-2.164-3.427-9.378-1.263-12.084s8.837-3.066,11.542-1.984a37.351,37.351,0,0,0,4.409,1.5s-.441,18.155-1.884,19.778S3881.074,674.518,3881.073,673.616Z" transform="translate(-3866.15 -650.737)"/><rect class="r" width="30.659" height="5.744" transform="translate(5.475 3.666) rotate(8.036)"/><path class="r" d="M3805.149,650.567h0a3.547,3.547,0,0,1-3.045-3.986l.749-5.6a3.547,3.547,0,0,1,3.986-3.045h0a3.547,3.547,0,0,1,3.045,3.986l-.749,5.6A3.547,3.547,0,0,1,3805.149,650.567Z" transform="translate(-3802.072 -637.903)"/><path class="r" d="M4033.949,681.188h0a3.547,3.547,0,0,1-3.045-3.986l.749-5.6a3.547,3.547,0,0,1,3.986-3.045h0a3.547,3.547,0,0,1,3.045,3.986l-.75,5.6A3.547,3.547,0,0,1,4033.949,681.188Z" transform="translate(-3998.529 -664.195)"/><path class="q" d="M3875.294,646.5a6.377,6.377,0,0,0-1.2,2.4,19.609,19.609,0,0,0,.4,4.409c.24.8,1.443,1.443,1.763-.16a13.038,13.038,0,0,1,1.844-3.767s2.324-.641,1.683-2.324S3877.218,645.46,3875.294,646.5Z" transform="translate(-3863.897 -644.643)"/><path class="q" d="M3904.89,641.966a6.378,6.378,0,0,0-1.2,2.4,40.962,40.962,0,0,0-.08,6.252c.24.8,1.924,1.523,2.244-2a9.438,9.438,0,0,1,1.844-3.767s2.325-.641,1.683-2.325S3906.814,640.924,3904.89,641.966Z" transform="translate(-3889.165 -640.748)"/><path class="q" d="M3933.479,647.216a5.938,5.938,0,0,0-1.119,2.238,38.128,38.128,0,0,0-.075,5.819c.224.746,1.791,1.418,2.089-1.865a8.788,8.788,0,0,1,1.716-3.506s2.164-.6,1.567-2.164S3935.27,646.247,3933.479,647.216Z" transform="translate(-3913.795 -645.301)"/><path class="q" d="M3957.295,652.886a5.937,5.937,0,0,0-1.119,2.238,38.127,38.127,0,0,0-.074,5.819c.224.746,1.79,1.417,2.089-1.865a8.785,8.785,0,0,1,1.716-3.506s2.164-.6,1.567-2.163S3959.085,651.917,3957.295,652.886Z" transform="translate(-3934.245 -650.17)"/><path class="q" d="M3863.82,705.68l-3.126-4.168s-2.244-4.649-1.363-5.37,3.046,1.6,3.046,1.6,1.6,3.046,3.687,3.928,3.928,2.164,3.928,4.168-3.366,4.248-4.649,2.886A6.2,6.2,0,0,1,3863.82,705.68Z" transform="translate(-3851.061 -687.79)"/></g><g transform="translate(0 14.631)"><path class="q" d="M2848.281,690.06a31.046,31.046,0,0,0,2.344-6.132c.361-2.164,3.427-9.378,1.262-12.084s-8.837-3.066-11.542-1.984a37.336,37.336,0,0,1-4.409,1.5s.441,18.155,1.884,19.778S2848.281,690.962,2848.281,690.06Z" transform="translate(-2823.018 -667.181)"/><rect class="r" width="30.659" height="5.744" transform="translate(35.515 9.354) rotate(171.964)"/><path class="r" d="M2978.11,667.012h0a3.547,3.547,0,0,0,3.045-3.986l-.749-5.6a3.547,3.547,0,0,0-3.986-3.045h0a3.546,3.546,0,0,0-3.045,3.986l.749,5.6A3.547,3.547,0,0,0,2978.11,667.012Z" transform="translate(-2941.001 -654.348)"/><path class="r" d="M2749.309,697.632h0a3.547,3.547,0,0,0,3.045-3.986l-.749-5.6A3.547,3.547,0,0,0,2747.62,685h0a3.547,3.547,0,0,0-3.045,3.986l.75,5.6A3.547,3.547,0,0,0,2749.309,697.632Z" transform="translate(-2744.542 -680.639)"/><path class="q" d="M2920.266,662.947a6.38,6.38,0,0,1,1.2,2.4,19.623,19.623,0,0,1-.4,4.409c-.24.8-1.443,1.443-1.763-.16a13.037,13.037,0,0,0-1.844-3.767s-2.324-.641-1.683-2.325S2918.342,661.9,2920.266,662.947Z" transform="translate(-2891.476 -661.088)"/><path class="q" d="M2889.646,658.41a6.376,6.376,0,0,1,1.2,2.4,40.963,40.963,0,0,1,.08,6.252c-.24.8-1.924,1.523-2.244-2a9.438,9.438,0,0,0-1.844-3.767s-2.324-.641-1.683-2.324S2887.723,657.368,2889.646,658.41Z" transform="translate(-2865.185 -657.192)"/><path class="q" d="M2863.577,663.661a5.933,5.933,0,0,1,1.119,2.238,38.1,38.1,0,0,1,.075,5.819c-.224.746-1.791,1.417-2.089-1.865a8.785,8.785,0,0,0-1.716-3.506s-2.163-.6-1.567-2.163S2861.786,662.691,2863.577,663.661Z" transform="translate(-2843.074 -661.745)"/><path class="q" d="M2839.761,669.331a5.934,5.934,0,0,1,1.119,2.238,38.127,38.127,0,0,1,.075,5.819c-.224.746-1.791,1.417-2.089-1.865a8.783,8.783,0,0,0-1.716-3.506s-2.164-.6-1.567-2.164S2837.971,668.361,2839.761,669.331Z" transform="translate(-2822.625 -666.614)"/><path class="q" d="M2901.082,722.124l3.126-4.168s2.244-4.649,1.363-5.37-3.046,1.6-3.046,1.6-1.6,3.046-3.687,3.928-3.928,2.164-3.928,4.168,3.366,4.248,4.649,2.886A6.209,6.209,0,0,0,2901.082,722.124Z" transform="translate(-2873.654 -704.234)"/></g><path class="p" d="M3445.418,1102.867a16.657,16.657,0,0,0-1.387,4.481s-.716,9.437-1.75,18.987a107.114,107.114,0,0,1-21.007,2.07c-.473-.32-.965-.659-1.469-1.036-2.886-2.166-2.705-4.33,1.262-4.149s5.771-2.345,11-3.607,6.313-9.559,6.134-17.854-.542-14.968-.542-14.968l.01-.007c.671,3.282,2.117,2.077,3.416,6.138A90.1,90.1,0,0,0,3445.418,1102.867Z" transform="translate(-3322.662 -1011.024)"/><path class="ar" d="M3871.613,1059a85.226,85.226,0,0,0-5.512-6.854.784.784,0,0,0,.643-.12,8.781,8.781,0,0,0,1.144-2.788C3869.734,1053.09,3872.084,1059.947,3871.613,1059Z" transform="translate(-3707.56 -978.786)"/><path class="ar" d="M3622.99,842.768c-.179-6.852-3.607-46.35-3.607-46.35l-2.427-.129c-.1,5.6,2.816,25.021,2.609,30.429-.129,3.342-1.158,9.074-.721,12.625.311,2.523-1.831,4.93-2.94,7.217-.272.562-.6,1.224-1.029,1.98-2.164,3.789-7.033,1.264-12.444,1.083s-27.233-6.131-31.921-9.738c-4.3-3.306-9.5-1.766-10.344-1.483.747,2.013,1.994,1.542,3.129,5.091a90.069,90.069,0,0,0,4.332,9.946c1.763-3.661,4.956-6.252,9.675-5.858,6.491.542,19.959,6.492,42.262,6.371q.085,0,.169-.007c.023,0,.049,0,.073,0a.063.063,0,0,1,.021,0c.054,0,.106-.012.158-.021l.023,0c.063-.012.127-.026.188-.042a1.035,1.035,0,0,0,.144-.045c.026-.007.052-.016.078-.026.045-.019.09-.035.132-.057.023-.012.047-.021.068-.033s.059-.031.087-.047a.654.654,0,0,0,.057-.033,1.591,1.591,0,0,0,.169-.111c.047-.033.09-.068.134-.1a2.317,2.317,0,0,0,.179-.167,1.616,1.616,0,0,0,.148-.16c.049-.056.1-.115.141-.177a3.483,3.483,0,0,0,.259-.4c.035-.061.068-.125.1-.191.047-.087.089-.177.129-.271s.071-.165.106-.25a8.358,8.358,0,0,0,.3-.935q.109-.417.2-.883c.021-.116.042-.231.061-.351q.028-.155.049-.318.031-.208.056-.424c.017-.129.033-.259.045-.391s.028-.266.04-.4c.024-.25.042-.5.059-.767,0-.026,0-.052,0-.078.007-.144.017-.29.024-.44s.014-.3.019-.452.009-.306.014-.464C3623.025,844.925,3623.018,843.879,3622.99,842.768Z" transform="translate(-3444.87 -761.593)"/><path class="ar" d="M2910.057,855.789c-1.476,3.57-2.581,7.928-3.348,8.477-1.262.9-1.983,1.8-1.983-1.262s-.9-8.476-1.083-13.164-1.444-20.92-.9-24.89a11.634,11.634,0,0,1,2.409-5.724c.52,6.36,1.983,24.313,1.983,25.2C2907.133,845.464,2908.953,854.11,2910.057,855.789Z" transform="translate(-2880.264 -781.287)"/><path class="ar" d="M2881.805,1167.979c-2.378-3.52-7.306-4.019-12.208-3.612-6.492.542-29.1,8.9-39.613,3.727a5.335,5.335,0,0,1-2.734-3.475,16.01,16.01,0,0,0,11.568,3.355c8.175-.96,14.429-6.491,22.124-6.974s16.833-2.4,20.68,6.014A1.944,1.944,0,0,1,2881.805,1167.979Z" transform="translate(-2815.559 -1074.294)"/><path class="ar" d="M3465.146,1409.156l-.271.075c-.424-2.614-.69-4.163-.69-4.163a98.066,98.066,0,0,1-17.5,4.526c-1.815-6.077-8.738-12.5-8.95-16.308-.24-4.33,1.443-6.494,2.164-13.948a16.238,16.238,0,0,0-2.51-10.676c.224,0,.45,0,.674-.009a107.1,107.1,0,0,0,21.007-2.07c-.549,5.093-1.189,10.217-1.858,13.958C3455.942,1387.647,3462.021,1389.919,3465.146,1409.156Z" transform="translate(-3339.449 -1251.272)"/><path class="p" d="M3523.11,1654.467c-.679-4.643-1.314-8.666-1.769-11.466-.424-2.614-.69-4.163-.69-4.163a98.066,98.066,0,0,1-17.5,4.526s1.392,4.537,2.682,11.1Z" transform="translate(-3395.915 -1485.042)"/></g><g transform="translate(147.291 139.744)"><g transform="translate(0 1.859)"><path class="as" d="M3145.334,1656.193a4.806,4.806,0,0,0,1.513-2.081c.473-1.324-.378-3.026-.378-4.256s.757-5.486,3.027-7a5.707,5.707,0,0,1,6.053-.473c1.7.851,2.795,2.361,2.932,5.107.189,3.783-3.594,7.472-4.067,8.039s-.662,3.027-.662,3.027Z" transform="translate(-3122.22 -1627.377)"/><path class="as" d="M3190.795,1887.7a4.186,4.186,0,0,1-1.9,1.036h0c-4.439,1.58-14.839,3.22-14.839,3.22s-.129.066-.327.164l-.81.4c-.567.282-2.239,1.018-2.239,1.018a10.27,10.27,0,0,1-.124-1.493,3.141,3.141,0,0,0-.757-1.7c-.282-.472.757-2.648,1.229-2.838s2.553.852,2.553.852,5.486-1.986,6.433-2.366c.393-.156.971-.446,1.506-.728.564-.3,1.087-.593,1.311-.717l.113-.066-1.324-2.553c.662-1.7,6.528-3.405,6.528-3.405l.132.322,1,2.421a.033.033,0,0,1,.005.008c.005.01.016.029.031.06.106.19.419.77.752,1.519.053.116.1.235.156.359.076.185.156.375.227.57.026.066.05.132.074.2.05.14.1.279.145.422s.082.259.119.388q.031.1.055.206c.037.135.068.269.1.406.016.066.029.132.04.2s.024.132.034.2.016.116.024.174c0,.008,0,.013,0,.021A2.636,2.636,0,0,1,3190.795,1887.7Z" transform="translate(-3143.184 -1830.701)"/><path class="as" d="M3121.322,2186.777a22.753,22.753,0,0,1-2.614.686c-.878.158-1.64.179-1.64-.221a53.62,53.62,0,0,0-2.176-7.749,33.9,33.9,0,0,1-1.891-8.134c-.095-2.363.19-3.687-.095-5.3a7.363,7.363,0,0,0-1.7-3.12c.253-.82,3.969-1.306,6.377-1.311,1.2,0,2.073.114,2.042.364-.095.757,2.081,9.271,2.271,12.486S3121.322,2186.777,3121.322,2186.777Z" transform="translate(-3092.913 -2073.784)"/><path class="as" d="M3012.284,2168.237s-.055.285-.143.725c-.142.725-.38,1.87-.615,2.867-.377,1.609,0,5.486,0,7.567a70.18,70.18,0,0,1-.852,9.648,38.973,38.973,0,0,0-.567,5.3s-.644.082-1.443.137c-1.3.09-3,.105-3-.422a40.068,40.068,0,0,0-.947-6.243,34.188,34.188,0,0,1-1.229-7.754c0-2.648.662-4.634.947-7a11.818,11.818,0,0,0-.567-4.729Z" transform="translate(-3000.425 -2079.457)"/><path class="v" d="M3003.469,2009.522c-.285,1.511.282,2.93.377,4.539s-.095,6.243-.095,6.81-.944.567-.944.567c-.638.153-1.277.272-1.907.361q-.827.115-1.627.166a27.584,27.584,0,0,1-7.815-.622c-.38-.095.187-3.405-.19-5.486s-.095-4.729-.567-8.321.567-10.877.567-10.877c.852-1.134,13.24-.567,13.24-.567s0,.757-.095,2.268c-.079,1.269-.491,7.185-.789,9.959C3003.566,2008.858,3003.513,2009.277,3003.469,2009.522Z" transform="translate(-2989.338 -1931.524)"/><path class="v" d="M3079.226,2018.815a8.3,8.3,0,0,1-1.337.485,17.143,17.143,0,0,1-3.65.53c-.81.042-1.609.048-2.353.029a38.054,38.054,0,0,1-3.914-.287s-.852-5.866-1.137-7.19c-.171-.807-.414-1.612-.644-2.482-.145-.559-.285-1.145-.4-1.772-.285-1.609-1.514-2.366-2.648-5.109-.021-.05-.042-.1-.061-.156a16.563,16.563,0,0,1-.319-7.789c1.891-1.553,8.5-.5,12.133.224,1.458.293,2.435.533,2.435.533s-.095,4.162-.095,6.525,1.039,2.176,1.229,4.729.377,3.215.662,5.2A53.173,53.173,0,0,1,3079.226,2018.815Z" transform="translate(-3051.051 -1930.082)"/><path class="o" d="M3027.886,1747.759s-1.137,6.148-2.176,8.134a22.8,22.8,0,0,1-1.548,2.772,7.959,7.959,0,0,1-1.572,1.577c-1.7,1.324-4.542,6.81-4.729,7.472s-1.229,1.229-1.229,1.8-.285.754-.475,1.8.095.377.38,1.891-.852,4.257-.852,4.257-.156.084-.433.206a9.946,9.946,0,0,1-4.486.833,5.63,5.63,0,0,1-.657-.084c-.116-.021-.232-.047-.343-.074-2.026-.5-3.387-1.873-6.66-1.543a99.468,99.468,0,0,1-12.2-.095c-1.514-.1-.285-.38-.19-2.081a16.1,16.1,0,0,1,3.595-8.039c2.268-2.648,3.5-5.863,4.634-10.025s.567-9.268.944-10.877,3.028-4.162,4.637-4.729,7.849-1.134,7.849-1.134c1.514-.38,8.229,2.458,8.229,2.458Z" transform="translate(-2988.977 -1711.565)"/><path class="as" d="M3094.363,1567.577s-10.307,10.31-10.687,10.595c-.282.211-1.366,4.687-1.891,6.9-.172.739-.282,1.226-.282,1.226l-7.095-.754s1.986-7.472,2.176-8.134a10.343,10.343,0,0,1,2.458-3.972c1.137-.852,12.581-8.039,12.581-8.039l2.659,2.107Z" transform="translate(-3061.32 -1561.839)"/><path class="o" d="M3070.649,1701.81l-11.634,5.011s.285-2.271.757-5.2a48.687,48.687,0,0,0,.57-5.014s1.43-2.608,5.6-1.983l.074.01a12.564,12.564,0,0,1,2.688.765c.2.082.411.169.625.264l1.168,5.425Z" transform="translate(-3048.103 -1672.708)"/><path class="o" d="M3238.005,1808.3a31.79,31.79,0,0,0-5.692,2.334,6.029,6.029,0,0,0-1.308.976s-.662.19-1.039-1.134a16.13,16.13,0,0,0-2.458-3.785s-2.036-10.55,3.687-10.5c.063,0,.127,0,.19.005a14.35,14.35,0,0,1,2.268,3.5,27.86,27.86,0,0,0,2.556,4.349c.849,1.324,1.511,3.028,1.8,3.5A.608.608,0,0,1,3238.005,1808.3Z" transform="translate(-3192.476 -1760)"/><path class="as" d="M3196.128,1543.748s1.513-1.608,1.513-1.7a4.87,4.87,0,0,1,1.419-1.419c.568-.284.946-.662,1.608-.284a18.615,18.615,0,0,1,2.459,1.513c.378.378.589.592.473.851-.851,1.892-4.822,3.282-4.822,3.282S3195.939,1544.126,3196.128,1543.748Z" transform="translate(-3165.826 -1540.184)"/><path class="r" d="M3151.372,1647.232a2.065,2.065,0,0,1-1.135-1.608c-.094-1.135.378-.851.095-1.892s-.662-2.364-.095-2.837.662-.567.662-.567-.757-1.513-.094-2.175.851-.851.946-.851,0-.851.756-1.324a4.152,4.152,0,0,1,1.513-.568,2.876,2.876,0,0,1,1.419-.757,2.134,2.134,0,0,1,1.135.095,2.012,2.012,0,0,1,2.081-.284c1.041.567,1.23.946,1.23.946s1.608.378,1.986,1.513a5.2,5.2,0,0,1,.378,1.324c0,.095,1.324,1.324,1.135,2.27a2.6,2.6,0,0,1-.757,1.419,1.981,1.981,0,0,1,.094,1.513c-.284.851-.851,1.135-.946,1.8s-.189.851-.567,1.135a4.248,4.248,0,0,0-1.04,1.419,2.107,2.107,0,0,1-1.8,1.04c-.757,0-1.513-.567-2.365-.189s-2.175-.473-2.365-.567S3151.277,1648.367,3151.372,1647.232Z" transform="translate(-3126.177 -1620.969)"/><g transform="translate(23.482 112.625)"><path class="r" d="M3160.054,2362.747s-.448.448-3.138.9-8.854.56-8.854.56-.9-.56,2.13-1.345A29.011,29.011,0,0,1,3160.054,2362.747Z" transform="translate(-3147.938 -2358.78)"/><path class="d" d="M3160.81,2340.887l-10.088.9a3.308,3.308,0,0,0-1.9.559s.029-.485.074-1.124c.077-1.092.192-2.627.261-2.912.114-.448-.335-.448.224-.673a12.653,12.653,0,0,1,1.728-.419,13.669,13.669,0,0,1,2.545-.3,2.179,2.179,0,0,1,.435.042c1.01.224,1.458.562,2.353.672s3.587,1.121,3.925,1.683a2.159,2.159,0,0,1,.335,1.007l.024.114Z" transform="translate(-3148.693 -2336.919)"/><path class="at" d="M3160.808,2362.268l-10.087.9a3.308,3.308,0,0,0-1.906.56s.031-.486.074-1.123a14.637,14.637,0,0,1,4.185-.67c2.434-.09,6.245-.108,7.644-.111Z" transform="translate(-3148.692 -2358.301)"/></g><g transform="translate(0 113.623)"><path class="d" d="M2992.357,2347.822c-.01.783-.029,1.39-.029,1.39H2988.4c-.367,0-6.868,0-6.5-.49a3.43,3.43,0,0,1-.077-.736,2.226,2.226,0,0,1,.567-1.6c.86-.857,3.191-1.472,3.8-1.841s.369-.736.981-.491a8.366,8.366,0,0,0,2.577.245,2.807,2.807,0,0,0,.364-.024c.585-.061,1.139-.222,1.443.042a.652.652,0,0,1,.177.282A11.708,11.708,0,0,1,2992.357,2347.822Z" transform="translate(-2981.824 -2343.979)"/><path class="at" d="M2992.35,2371.171c-.009.781-.027,1.388-.027,1.388H2988.4c-.368,0-6.869,0-6.5-.49a3.331,3.331,0,0,1-.079-.735C2983.012,2371.347,2990.262,2371.414,2992.35,2371.171Z" transform="translate(-2981.818 -2367.327)"/></g></g><path class="au" d="M3031.652,2180.913c-.377,1.609,0,5.486,0,7.567a70.18,70.18,0,0,1-.852,9.648,29.448,29.448,0,0,0-.514,4.378c-.3-.264-.857-.1-1.443-.042-.008-2.018-.28-6.161-.49-7.852-.264-2.11,1.582-6.594,1.582-9.231s-.264-3.165-1.846-4.484c-1.279-1.065-1.2-1.709-1.126-1.917a25.467,25.467,0,0,0,5.148-.164C3031.979,2179.459,3031.815,2180.222,3031.652,2180.913Z" transform="translate(-3020.55 -2086.682)"/><path class="au" d="M3136.7,2194.742a13.683,13.683,0,0,0-2.545.3,17.14,17.14,0,0,0-.156-4.476c-.528-3.165-1.846-10.023-1.846-12.66s.791-2.9-.264-3.956a14.531,14.531,0,0,0-2.812-2,.4.4,0,0,1,.019-.047,21.849,21.849,0,0,0,6-.559c.464,2.513,1.986,8.814,2.142,11.478C3137.4,2185.643,3136.838,2193.014,3136.7,2194.742Z" transform="translate(-3108.26 -2080.257)"/><path class="aj" d="M3137.524,2030.41a8.293,8.293,0,0,1-1.337.485,17.143,17.143,0,0,1-3.65.53c.076-.844.177-2.442.177-5.04,0-4.22,1.055-5.275.264-8.176s-2.374-3.165-1.583-5.011-1.05-4.589-1.05-4.589l.137-.084a5.63,5.63,0,0,0,.657.084,9.947,9.947,0,0,0,4.486-.833c-.021,1.05-.087,4.225-.087,6.177,0,2.366,1.039,2.176,1.229,4.729s.377,3.215.662,5.2A53.175,53.175,0,0,1,3137.524,2030.41Z" transform="translate(-3109.35 -1939.819)"/><path class="aj" d="M3051.286,2071.621c0,.567-.944.567-.944.567-.638.153-1.276.272-1.907.361q-.827.115-1.627.166a6.921,6.921,0,0,0-.549-2.569c-.791-1.582,0-2.637,1.055-3.692s.527-3.429.264-7.121a7.3,7.3,0,0,1,1.332-4.278c.019.053.04.106.061.156a26.2,26.2,0,0,0,2.189,3.859c-.058.538-.111.957-.156,1.2-.285,1.511.282,2.93.377,4.539S3051.286,2071.054,3051.286,2071.621Z" transform="translate(-3036.874 -1980.415)"/><path class="av" d="M3105.139,1871.12a7.962,7.962,0,0,1-1.572,1.577c-1.7,1.324-4.542,6.81-4.729,7.472s-1.229,1.229-1.229,1.8-.285.754-.475,1.8.095.377.38,1.891-.852,4.257-.852,4.257-.156.084-.433.206a9.947,9.947,0,0,1-4.486.833,5.656,5.656,0,0,1-.657-.084c-.116-.021-.232-.047-.343-.074-.216-.543-.525-1.263-.96-2.179-1.163-2.44-4.115-2.833-5.169-4.151s3.692-1.319,6.33-2.11-.527-1.055-.791-1.583,3.165-.264,2.9-.791-3.693-1.846-3.165-2.638,5.539-.527,5.8-3.429,2.374-2.9,4.484-2.637a13.858,13.858,0,0,0,4.748-.528Z" transform="translate(-3069.954 -1822.162)"/><path class="av" d="M3255.779,1808.3a31.79,31.79,0,0,0-5.692,2.334,2.626,2.626,0,0,1-.121-2.06c.264-1.055-.791-.527-1.319-1.055s1.846-1.583,1.846-3.693-2.637-3.429-2.637-5.011a3.929,3.929,0,0,1,1.113-2.627c.063,0,.127,0,.19.005a14.35,14.35,0,0,1,2.268,3.5,27.86,27.86,0,0,0,2.556,4.349c.849,1.324,1.511,3.028,1.8,3.5A.608.608,0,0,1,3255.779,1808.3Z" transform="translate(-3210.25 -1758.142)"/><path class="aw" d="M3253,1921.845c.564-.3,1.087-.593,1.311-.717a.626.626,0,0,1,.071,0,14.216,14.216,0,0,1,2.637.791C3257.243,1922.135,3254.524,1921.806,3253,1921.845Z" transform="translate(-3214.67 -1865.417)"/><path class="ax" d="M3214.956,1889.657a4.186,4.186,0,0,1-1.9,1.036h0c-4.439,1.58-14.839,3.22-14.839,3.22s-.129.066-.327.164c.066-.156.137-.311.206-.451.264-.528,2.11-1.319,4.22-1.846,1.836-.459,7.912-2.11,8.44-3.165.635-1.271.264-1.319-.791-3.165a4.333,4.333,0,0,0-2.9-2.11c.96-1.2,4.719-2.342,5.378-2.535l1,2.421a.033.033,0,0,1,.005.008c.005.01.016.029.031.06.106.19.419.77.752,1.519.052.116.1.235.156.359.076.185.156.375.227.57.026.066.05.132.074.2.05.14.1.279.145.422s.082.259.119.388q.031.1.055.206c.037.135.068.269.1.406.016.066.029.132.04.2s.024.132.034.2.016.116.024.174c0,.008,0,.013,0,.021A2.633,2.633,0,0,1,3214.956,1889.657Z" transform="translate(-3167.346 -1830.797)"/><path class="ax" d="M3123.649,1579.974s-10.307,10.31-10.687,10.595a47.351,47.351,0,0,0-1.759,6.356,12.568,12.568,0,0,0-2.688-.765c.715-1.656,2.29-5.325,2.29-5.528,0-.264-1.319-2.11-.528-2.11s.264.528,1.319.264,10.69-8.923,11.544-8.944a1.123,1.123,0,0,1,.427.066Z" transform="translate(-3090.605 -1572.377)"/><path class="av" d="M3109.825,1701.674a11.886,11.886,0,0,1-2.983.942s-.527.527-.527,0a8.64,8.64,0,0,0,0-2.637c-.264-1.055-.791-.791-1.319-1.583s.264-.791.791-1.583-.528-1.583-.528-1.583a.052.052,0,0,1,.011-.021l.074.01a12.564,12.564,0,0,1,2.688.765c.2.082.411.169.625.264Z" transform="translate(-3087.434 -1671.437)"/><path class="as" d="M3239.777,1538.556l1.583-1.055,1.582-1.055s.745-.583,1.055-.264c.26.268-.792,1.055-.792,1.055s-2.138,2.026-2.783,2.727S3239.513,1538.819,3239.777,1538.556Z" transform="translate(-3203.226 -1534.807)"/><path class="as" d="M3234.179,1531.3l1.583-1.055,1.583-1.055s.619-.5,1.055-.264c.275.146-.791,1.055-.791,1.055s-2.138,2.026-2.783,2.727S3233.916,1531.561,3234.179,1531.3Z" transform="translate(-3198.419 -1528.603)"/><path class="as" d="M3224.851,1529.579l1.583-1.055,1.583-1.055s.775-.429,1.055-.264c.26.153-.791,1.055-.791,1.055s-2.138,2.026-2.783,2.727S3224.587,1529.843,3224.851,1529.579Z" transform="translate(-3190.409 -1527.149)"/><path class="as" d="M3215.521,1529.466l1.583-1.055,1.583-1.055s.676-.481,1.055-.264c.269.154-.791,1.055-.791,1.055s-2.138,2.026-2.783,2.727S3215.258,1529.73,3215.521,1529.466Z" transform="translate(-3182.399 -1527.036)"/></g></g></g></svg>