<svg xmlns="http://www.w3.org/2000/svg" width="28" height="18" viewBox="0 0 28 18"><defs><style>.a{fill:#3e3e3e;}</style></defs><path class="a" d="M20.591,15.214a3.857,3.857,0,1,0-3.818-3.857A3.822,3.822,0,0,0,20.591,15.214Zm-10.182,0a3.857,3.857,0,1,0-3.818-3.857A3.822,3.822,0,0,0,10.409,15.214Zm0,2.571c-2.965,0-8.909,1.5-8.909,4.5V25.5H19.318V22.286C19.318,19.29,13.375,17.786,10.409,17.786Zm10.182,0c-.369,0-.789.026-1.235.064a5.437,5.437,0,0,1,2.507,4.436V25.5H29.5V22.286C29.5,19.29,23.556,17.786,20.591,17.786Z" transform="translate(-1.5 -7.5)"/></svg>