<svg xmlns="http://www.w3.org/2000/svg" width="25.999" height="25.999" viewBox="0 0 25.999 25.999"><defs><style>.a{fill:#838383;}</style></defs><path class="a" d="M3770-8652.563a12.915,12.915,0,0,1-9.192-3.806,12.918,12.918,0,0,1-3.806-9.192,12.917,12.917,0,0,1,3.806-9.194,12.911,12.911,0,0,1,9.192-3.807,12.914,12.914,0,0,1,9.194,3.807,12.915,12.915,0,0,1,3.807,9.194,12.912,12.912,0,0,1-3.807,9.192A12.919,12.919,0,0,1,3770-8652.563Zm-2.516-9.645a5.852,5.852,0,0,0-5.164,3.135,10.057,10.057,0,0,0,7.68,3.576,10.051,10.051,0,0,0,7.68-3.576,5.846,5.846,0,0,0-5.162-3.135,1.407,1.407,0,0,0-.373.057,6.886,6.886,0,0,1-2.145.364,6.833,6.833,0,0,1-2.143-.364A1.4,1.4,0,0,0,3767.484-8662.208Zm2.516-11.323a4.619,4.619,0,0,0-4.613,4.615A4.617,4.617,0,0,0,3770-8664.3a4.617,4.617,0,0,0,4.613-4.611A4.619,4.619,0,0,0,3770-8673.531Z" transform="translate(-3757.001 8678.563)"/></svg>