<svg xmlns="http://www.w3.org/2000/svg" width="50" height="50" viewBox="0 0 50 50"><defs><style>.a{fill:#fff;opacity:0;}.b{fill:#838383;}</style></defs><rect class="a" width="50" height="50"/><g transform="translate(16 16)"><path class="b" d="M12.785,3.375a9.41,9.41,0,1,0,9.41,9.41A9.408,9.408,0,0,0,12.785,3.375ZM17.6,10.183l-6.048,6.075h0a.817.817,0,0,1-.525.249.792.792,0,0,1-.529-.258L7.962,13.716a.18.18,0,0,1,0-.258l.805-.805a.175.175,0,0,1,.253,0l2.009,2.009L16.548,9.1a.179.179,0,0,1,.127-.054h0A.164.164,0,0,1,16.8,9.1l.792.819A.178.178,0,0,1,17.6,10.183Z" transform="translate(-3.375 -3.375)"/></g></svg>