<svg xmlns="http://www.w3.org/2000/svg" width="310" height="50" viewBox="0 0 310 50"><defs><style>.a,.c{fill:#3c66c4;}.b,.d{fill:#fff;}.c{fill-rule:evenodd;}.d{font-size:18px;font-family:Poppins-Medium, Poppins;font-weight:500;}</style></defs><g transform="translate(-84 -827)"><g transform="translate(-4328 -139)"><rect class="a" width="310" height="50" rx="25" transform="translate(4412 966)"/></g><g transform="translate(-15 -1)"><circle class="b" cx="18.5" cy="18.5" r="18.5" transform="translate(109 834)"/><path class="c" d="M81.387,114.389v12.854a.335.335,0,0,0,.335.335H86.5a.335.335,0,0,0,.335-.335V114.179h3.46a.334.334,0,0,0,.334-.306l.333-3.936a.335.335,0,0,0-.334-.363H86.83v-2.792a1.185,1.185,0,0,1,1.185-1.186h2.668a.335.335,0,0,0,.335-.335v-3.935a.335.335,0,0,0-.335-.335H86.175a4.788,4.788,0,0,0-4.788,4.788v3.795H79a.335.335,0,0,0-.334.335v3.936a.335.335,0,0,0,.334.335h2.387Z" transform="translate(43.077 744.08)"/></g><text class="d" transform="translate(239 859)"><tspan x="-91.989" y="0">Login with Facebook</tspan></text></g></svg>