<svg xmlns="http://www.w3.org/2000/svg" xmlns:xlink="http://www.w3.org/1999/xlink" width="398.889" height="267.399" viewBox="0 0 398.889 267.399"><defs><style>.a{fill:#ecf3fe;}.b{fill:#b7cae5;}.c{fill:#fbad1d;}.d{fill:#97d9ef;}.e{fill:#b5b5e5;}.f{fill:#795e35;}.g{fill:#fff;}.h{fill:#f3f1fa;}.i{fill:#edeafb;}.j{fill:#ff5c7f;}.k{fill:#897edc;}.l{fill:#8474d7;}.m{fill:#ffe07e;}.n{fill:#1f0a5a;}.o{fill:url(#a);}.p{fill:url(#b);}.q{fill:#362370;}.r{fill:url(#c);}.s{fill:url(#d);}.t{fill:#150342;}.u{fill:url(#e);}.v{fill:url(#f);}.w{fill:#ff8d6a;}.x{fill:#a8bad5;}.y{fill:#ffefcc;}.z{fill:url(#g);}.aa{fill:url(#h);}.ab{fill:url(#i);}.ac{fill:url(#j);}.ad{fill:url(#k);}.ae{fill:url(#l);}.af{fill:url(#m);}.ag{fill:url(#n);}.ah{fill:#fee124;}.ai{fill:#20bec9;}.aj{fill:url(#o);}.ak{fill:#d7e5ff;}.al{fill:url(#p);}</style><linearGradient id="a" x1="-0.402" y1="0.445" x2="0.844" y2="0.542" gradientUnits="objectBoundingBox"><stop offset="0" stop-color="#6060a1"/><stop offset="0.997" stop-color="#200c54"/></linearGradient><linearGradient id="b" x1="0.736" y1="0.161" x2="0.316" y2="0.822" xlink:href="#a"/><linearGradient id="c" x1="-0.835" y1="0.45" x2="0.6" y2="0.507" xlink:href="#a"/><linearGradient id="d" x1="-0.888" y1="0.526" x2="0.557" y2="0.492" xlink:href="#a"/><linearGradient id="e" x1="0.827" y1="0.449" x2="0.224" y2="0.657" gradientUnits="objectBoundingBox"><stop offset="0" stop-color="#edb39d"/><stop offset="1" stop-color="#ed825e"/></linearGradient><linearGradient id="f" x1="0.947" y1="0.467" x2="-0.325" y2="0.613" xlink:href="#e"/><linearGradient id="g" x1="484.773" y1="-884.135" x2="484.904" y2="-883.653" xlink:href="#e"/><linearGradient id="h" x1="-1012.057" y1="1271.971" x2="-1012.889" y2="1271.558" xlink:href="#e"/><linearGradient id="i" x1="-5493.805" y1="0.707" x2="-5493.753" y2="0.419" xlink:href="#e"/><linearGradient id="j" x1="1023.169" y1="0.461" x2="1022.844" y2="0.03" xlink:href="#e"/><linearGradient id="k" x1="-1583.772" y1="0.517" x2="-1583.13" y2="0.589" gradientUnits="objectBoundingBox"><stop offset="0" stop-color="#8d89dd"/><stop offset="1" stop-color="#5129b3"/></linearGradient><linearGradient id="l" x1="1348.725" y1="0.407" x2="1348.566" y2="-0.078" xlink:href="#e"/><linearGradient id="m" x1="-1272.717" y1="0.513" x2="-1272.454" y2="-0.096" xlink:href="#k"/><linearGradient id="n" x1="-2827.315" y1="0.5" x2="-2826.315" y2="0.5" xlink:href="#e"/><linearGradient id="o" x1="-4358.029" y1="0.756" x2="-4357.216" y2="0.377" xlink:href="#e"/><linearGradient id="p" x1="-2269.118" y1="1.517" x2="-2268.909" y2="-0.107" xlink:href="#k"/></defs><g transform="translate(-11606 -3241)"><g transform="translate(11606 3241)"><g transform="translate(17.186 0)"><path class="a" d="M642.194,811.117a140.2,140.2,0,1,0-134.23,0Z" transform="translate(-434.878 -547.867)"/><path class="a" d="M1053.966,917.211h112.163a123.844,123.844,0,1,0-112.163,0Z" transform="translate(-867.465 -653.961)"/><ellipse class="b" cx="157.449" cy="9.676" rx="157.449" ry="9.676" transform="translate(32.75 248.046)"/></g><ellipse class="c" cx="6.383" cy="6.383" rx="6.383" ry="6.383" transform="matrix(0.23, -0.973, 0.973, 0.23, 353.262, 42.589)"/><ellipse class="c" cx="5.918" cy="5.918" rx="5.918" ry="5.918" transform="translate(0 114.551)"/><circle class="d" cx="8.95" cy="8.95" r="8.95" transform="translate(373.575 214.758) rotate(-45)"/><circle class="d" cx="6.383" cy="6.383" r="6.383" transform="translate(50.459 196.557) rotate(-45)"/><ellipse class="c" cx="8.37" cy="8.37" rx="8.37" ry="8.37" transform="translate(102.839 37.152)"/></g><g transform="translate(11652.594 3295.899)"><g transform="translate(0 0)"><path class="e" d="M1535.651,434.6c-8.294-2.407-16.888,1.274-20.318,3.04,1.392-4.408,2.517-8.7,3.426-12.826,12.507,5.468,19.817-8.914,19.817-8.914a27.254,27.254,0,0,0-19.355,6.74c1.077-5.241,1.809-10.166,2.293-14.613q.11-1.005.2-1.993c5.138,4.16,17.9-10.025,17.9-10.025a29.746,29.746,0,0,0-17.669,7.324c.419-5.259.551-10.083.522-14.288,11.844-1.482,13.45-15.417,13.45-15.417a21.232,21.232,0,0,0-13.51,12.048,124.483,124.483,0,0,0-1.022-13.41c4.744-9.114-.253-20.16-.253-20.16-6.644,9.273-4.232,16.419-2.285,19.776a1.239,1.239,0,0,0,.006.318,118.576,118.576,0,0,1,1.062,15.125,21.354,21.354,0,0,0-13.47-13.487s1.181,14.41,13.489,15.929c0,3.868-.135,8.246-.511,13.012-1.849-2.78-6.033-7.46-14.444-10.334,0,0,9.24,16.581,14.065,14.466-.476,4.563-1.176,9.418-2.176,14.466-3.054-8.324-13.415-14.09-13.415-14.09,1.747,13.524,9.5,16.575,12.755,17.262-.9,4.082-2,8.273-3.344,12.523-3.379-9.478-13.019-14.156-13.019-14.156,2.758,13.584,10.2,15.211,12.63,15.374a134.526,134.526,0,0,1-5.161,13.412c-2.018-7.92-13.843-15.442-13.843-15.442,1.4,16.262,8.951,18.428,12.391,18.558a121.511,121.511,0,0,1-14.773,23.517,1.248,1.248,0,0,0,.192,1.754,1.231,1.231,0,0,0,.652.268,1.248,1.248,0,0,0,1.1-.459,124.373,124.373,0,0,0,15.214-24.289c3.766,6.95,20.206.252,20.206.252-6.61-4.616-15.691-3.115-19.259-2.268a137.533,137.533,0,0,0,5.333-13.512C1519.325,447.368,1535.651,434.6,1535.651,434.6Z" transform="translate(-1220.51 -290.527)"/><g transform="translate(25.274)"><path class="f" d="M1440.073,467.635l-235.324-.126c-4.674,0-8.461-3.365-8.46-7.51l.094-174.438c0-4.145,3.793-7.5,8.467-7.5l235.324.126c4.674,0,8.461,3.365,8.459,7.51l-.094,174.438C1448.537,464.279,1444.746,467.637,1440.073,467.635Z" transform="translate(-1196.195 -278.06)"/><g transform="translate(0 14.384)"><rect class="d" width="252.39" height="185.354"/></g><g transform="translate(11.857 22.783)"><path class="g" d="M1439.1,309.151l-.082,153.743a3.575,3.575,0,0,1-3.578,3.573l-221.429-.119a3.576,3.576,0,0,1-3.573-3.577l.083-153.743a3.574,3.574,0,0,1,3.577-3.573l221.43.119A3.575,3.575,0,0,1,1439.1,309.151Z" transform="translate(-1210.434 -305.455)"/></g><rect class="h" width="201.61" height="3.072" rx="1.525" transform="translate(24.338 30.967)"/><g transform="translate(30.995 40.63)"><rect class="i" width="12.74" height="12.615" transform="translate(158.348 34.665)"/><rect class="i" width="14.836" height="12.615" transform="translate(121.742 34.665)"/><rect class="i" width="12.773" height="12.615" transform="translate(104.393 34.665)"/><rect class="i" width="12.74" height="12.615" transform="translate(87.077 34.665)"/><rect class="i" width="12.618" height="12.615" transform="translate(69.884 34.665)"/><rect class="i" width="13.45" height="12.615" transform="translate(51.858 34.665)"/><rect class="i" width="12.773" height="12.615" transform="translate(34.509 34.665)"/><rect class="i" width="12.74" height="12.615" transform="translate(17.194 34.665)"/><rect class="i" width="12.618" height="12.615" transform="translate(0 34.665)"/><rect class="i" width="12.618" height="13.447" transform="translate(0 51.858)"/><rect class="i" width="12.74" height="13.447" transform="translate(17.194 51.858)"/><rect class="i" width="12.773" height="13.447" transform="translate(34.509 51.858)"/><rect class="i" width="13.45" height="13.447" transform="translate(51.858 51.858)"/><rect class="i" width="12.618" height="13.447" transform="translate(69.884 51.858)"/><rect class="i" width="12.74" height="13.447" transform="translate(87.077 51.858)"/><rect class="i" width="12.773" height="13.447" transform="translate(104.393 51.858)"/><rect class="i" width="14.836" height="13.447" transform="translate(121.742 51.858)"/><rect class="i" width="12.618" height="13.447" transform="translate(141.154 51.858)"/><rect class="i" width="12.74" height="13.447" transform="translate(158.348 51.858)"/><rect class="i" width="12.618" height="12.77"/><rect class="i" width="12.74" height="12.77" transform="translate(17.194)"/><rect class="i" width="12.773" height="12.77" transform="translate(34.509)"/><rect class="i" width="13.45" height="12.77" transform="translate(51.858)"/><rect class="i" width="12.618" height="12.77" transform="translate(69.884)"/><rect class="i" width="12.74" height="12.77" transform="translate(87.077)"/><rect class="i" width="12.773" height="12.77" transform="translate(104.393)"/><rect class="i" width="14.836" height="12.77" transform="translate(121.742)"/><rect class="i" width="12.618" height="12.77" transform="translate(141.154)"/><rect class="i" width="12.74" height="12.77" transform="translate(158.348)"/><rect class="i" width="12.618" height="12.737" transform="translate(0 17.349)"/><rect class="i" width="12.74" height="12.737" transform="translate(17.194 17.349)"/><rect class="i" width="12.773" height="12.737" transform="translate(34.509 17.349)"/><rect class="i" width="13.45" height="12.737" transform="translate(51.858 17.349)"/><rect class="i" width="12.618" height="12.737" transform="translate(69.884 17.349)"/><rect class="i" width="12.74" height="12.737" transform="translate(87.077 17.349)"/><rect class="i" width="12.773" height="12.737" transform="translate(104.393 17.349)"/><rect class="i" width="14.836" height="12.737" transform="translate(121.742 17.349)"/><rect class="i" width="12.618" height="12.737" transform="translate(141.154 17.349)"/><rect class="i" width="12.74" height="12.737" transform="translate(158.348 17.349)"/><rect class="i" width="12.618" height="12.615" transform="translate(141.018 34.665)"/><rect class="i" width="12.74" height="12.615" transform="translate(175.489 34.665)"/><rect class="i" width="12.74" height="13.447" transform="translate(175.489 51.858)"/><rect class="i" width="12.74" height="12.77" transform="translate(175.489)"/><rect class="i" width="12.74" height="12.737" transform="translate(175.489 17.349)"/></g><g transform="translate(45.744 60.7)"><path class="j" d="M1255.557,386.005l-1.1-1.884,29.907-17.5,27.881,10.238,33.249-23.406,29.384,15.35,32.485-13.338.829,2.019-33.424,13.724L1345.661,356l-33.1,23.3-27.989-10.277Z" transform="translate(-1251.733 -351.454)"/><path class="j" d="M1292.938,370.484a3.164,3.164,0,1,1-3.164-3.164A3.164,3.164,0,0,1,1292.938,370.484Z" transform="translate(-1257.147 -353.788)"/><path class="j" d="M1257.511,390.953a3.164,3.164,0,1,1-3.164-3.164A3.164,3.164,0,0,1,1257.511,390.953Z" transform="translate(-1251.182 -357.235)"/><circle class="j" cx="3.165" cy="3.165" r="3.165" transform="translate(57.398 23.57)"/><path class="j" d="M1366.418,354.214a3.165,3.165,0,1,1-3.164-3.165A3.165,3.165,0,0,1,1366.418,354.214Z" transform="translate(-1269.518 -351.049)"/><path class="j" d="M1401.583,372.583a3.165,3.165,0,1,1-3.165-3.164A3.165,3.165,0,0,1,1401.583,372.583Z" transform="translate(-1275.438 -354.142)"/><path class="j" d="M1440.422,357.363a3.165,3.165,0,1,1-3.165-3.164A3.165,3.165,0,0,1,1440.422,357.363Z" transform="translate(-1281.977 -351.579)"/></g><g transform="translate(30.926 116.061)"><path class="k" d="M7.668,0H58.225a1.39,1.39,0,0,1,1.39,1.39V14.06a1.39,1.39,0,0,1-1.39,1.39H7.668A7.668,7.668,0,0,1,0,7.782V7.668A7.668,7.668,0,0,1,7.668,0Z" transform="translate(15.45 0) rotate(90)"/><path class="l" d="M7.668,0H47.279a1.39,1.39,0,0,1,1.39,1.39V14.06a1.39,1.39,0,0,1-1.39,1.39H7.668A7.668,7.668,0,0,1,0,7.782V7.668A7.668,7.668,0,0,1,7.668,0Z" transform="translate(55.083 10.946) rotate(90)"/><path class="j" d="M7.668,0h49.11a1.39,1.39,0,0,1,1.39,1.39V14.06a1.39,1.39,0,0,1-1.39,1.39H7.668A7.668,7.668,0,0,1,0,7.782V7.668A7.668,7.668,0,0,1,7.668,0Z" transform="translate(74.573 1.447) rotate(90)"/><path class="m" d="M7.668,0h27a1.39,1.39,0,0,1,1.39,1.39V14.06a1.39,1.39,0,0,1-1.39,1.39h-27A7.668,7.668,0,0,1,0,7.782V7.668A7.668,7.668,0,0,1,7.668,0Z" transform="translate(35.594 23.557) rotate(90)"/></g><path class="d" d="M1441.258,443.587v34.723a2.4,2.4,0,0,1-2.4,2.4h-86.507a2.4,2.4,0,0,1-2.4-2.4V459.516a5.128,5.128,0,0,1,4.339-1.1c2.191.453,3.979,1.978,5.7,3.411s3.6,2.882,5.822,3.134c2.937.333,5.717-1.539,7.576-3.835s3.079-5.041,4.8-7.439,4.206-4.543,7.156-4.715c4.077-.238,7.315,3.221,9.865,6.411s5.645,6.72,9.729,6.705c3.835-.014,6.87-3.208,8.953-6.427,2.511-3.879,4.4-8.177,7.383-11.709s7.461-6.285,12.025-5.566C1436.564,438.9,1439.124,440.983,1441.258,443.587Z" transform="translate(-1222.067 -305.034)"/></g><g transform="translate(0 153.047)"><path class="d" d="M1177.221,462.091l8.866,20.469-20.3-9.245A22.225,22.225,0,0,1,1177.221,462.091Z" transform="translate(-1165.786 -462.091)"/><path class="j" d="M1198.7,465.839a22.307,22.307,0,1,1-29.546,11.055l20.3,9.245-8.865-20.469.3-.129q.243-.1.49-.2l.278-.106c.175-.065.349-.127.526-.189l.27-.091q.3-.1.612-.192c.054-.017.108-.033.163-.048.106-.031.21-.061.317-.09.086-.024.173-.047.259-.069l.138-.036c.076-.021.151-.039.226-.057.161-.039.323-.077.486-.112l.21-.047c.116-.024.232-.048.349-.071l.15-.027c.047-.01.094-.018.141-.027.264-.048.529-.091.8-.129.088-.013.178-.026.266-.037s.163-.022.244-.031l.035,0c.055-.007.108-.013.163-.018s.132-.015.2-.022c.082-.009.162-.017.243-.023l.084-.008.182-.015.2-.016.26-.016c.155-.01.311-.017.466-.022l.234-.008h.061l.273,0,.25,0h.134l.206,0q.408.006.816.027c.091,0,.181.01.272.016.063,0,.127.008.19.013.118.008.236.017.354.028.091.007.182.017.272.026l.242.026.064.008.231.028.015,0,.24.032.058.007.206.03c.2.029.393.062.59.1l.257.047q.68.13,1.355.3l.155.041.167.045.25.069.181.052.078.023.177.054c.083.025.166.052.249.078.052.015.1.032.155.049l.12.04.156.052.169.059.051.017.242.087.25.093c.119.045.238.092.357.14.063.024.126.051.19.077.088.036.176.073.265.111Q1198.433,465.719,1198.7,465.839Z" transform="translate(-1166.014 -462.383)"/></g><g transform="translate(64.569 60.288)"><path class="n" d="M1258.14,365.207a.2.2,0,0,1-.165-.082c-5.667-7.644-3.923-10.345-3.254-10.989a1.391,1.391,0,0,1,1.7-.358.2.2,0,0,1-.255.319c-.16-.128-.685-.127-1.163.333-.609.586-2.17,3.075,3.3,10.451a.2.2,0,0,1-.164.326Z" transform="translate(-1245.196 -351.069)"/><path class="o" d="M1255.833,514.047c-.279,1.4-1.676,2.374-2.653,3.212s-4.608,1.117-5.866.419c-.413-.23-.5-1.23-.43-2.47a46.113,46.113,0,0,1,.931-6.047,6.786,6.786,0,0,1,5.155.434c.053.655,1.863,2.095,2.586,3.361A1.636,1.636,0,0,1,1255.833,514.047Z" transform="translate(-1244.005 -377.199)"/><path class="p" d="M1285.419,519.852a.479.479,0,0,1-.1.088,1.638,1.638,0,0,1-.155.1c-1.528.807-7.951.895-12.454.793a31.047,31.047,0,0,1-6.94-.734l-.037-.01c-.355-.108-.586-.192-.669-.221l-.029-.012,0,0a10.676,10.676,0,0,1,.112-2.431l0,0a14.962,14.962,0,0,1,1.7-5.093,9.635,9.635,0,0,1,5.719-.2,5.6,5.6,0,0,0,1.822,1.861c1.4.979,6.7,1.955,8.936,2.235a2.729,2.729,0,0,1,2.186,1.526A1.989,1.989,0,0,1,1285.419,519.852Z" transform="translate(-1247.06 -377.698)"/><path class="n" d="M1255.833,514.885c-.279,1.4-1.676,2.374-2.653,3.212s-4.608,1.117-5.866.419c-.413-.23-.5-1.23-.43-2.47a9.132,9.132,0,0,0,5.737-.044,5.867,5.867,0,0,0,2.936-2.207A1.636,1.636,0,0,1,1255.833,514.885Z" transform="translate(-1244.005 -378.037)"/><path class="n" d="M1285.419,520.993a.484.484,0,0,1-.1.088,1.614,1.614,0,0,1-.155.1c-1.528.807-7.951.895-12.454.793a31.05,31.05,0,0,1-6.94-.733l-.037-.01a4.764,4.764,0,0,1-.669-.221l-.029-.012,0,0a10.676,10.676,0,0,1,.112-2.431l0,0s1.283,1.177,5.471,1.457,13.587.4,14.893-1.128A1.989,1.989,0,0,1,1285.419,520.993Z" transform="translate(-1247.06 -378.84)"/><path class="q" d="M1277.925,517.174a.2.2,0,0,1-.1-.027.2.2,0,0,1-.077-.279,4.364,4.364,0,0,1,1.3-1.457.2.2,0,0,1,.183.366,3.891,3.891,0,0,0-1.129,1.294A.2.2,0,0,1,1277.925,517.174Z" transform="translate(-1249.201 -378.306)"/><path class="q" d="M1279.6,517.649a.224.224,0,0,1-.057-.008.2.2,0,0,1-.139-.254,3.492,3.492,0,0,1,1-1.623.2.2,0,1,1,.239.331,3.141,3.141,0,0,0-.848,1.407A.2.2,0,0,1,1279.6,517.649Z" transform="translate(-1249.484 -378.362)"/><path class="q" d="M1281.452,517.856a.171.171,0,0,1-.036,0,.2.2,0,0,1-.165-.235,2.355,2.355,0,0,1,1-1.459.2.2,0,1,1,.221.343,1.971,1.971,0,0,0-.819,1.186A.2.2,0,0,1,1281.452,517.856Z" transform="translate(-1249.795 -378.43)"/><path class="b" d="M1247.993,376.578s-2.793,1.4-4.05,9.356.14,15.64.419,18.712,1.4,7.821,6.7,12.289c0,0,2.234-9.356,1.536-15.361S1247.993,376.578,1247.993,376.578Z" transform="translate(-1243.427 -354.935)"/><path class="r" d="M1251.581,422.33s-2.073,6.479-.838,12.149c.443,7.91-.418,17.595-.837,23.46s-3,7.549-3.415,39.108c0,0,4.695,2.012,7.713-1.006,0,0,2.684-23.439,4.359-28.745s5.167-15.5,5.167-15.5l-3.072-29.465S1254.653,421.353,1251.581,422.33Z" transform="translate(-1243.943 -362.565)"/><path class="s" d="M1275.117,424.566s1.4,15.36,1.4,19.131,0,18.014-1.4,24.438-2.982,24.362-2.423,30.087c0,0-6.652,1.983-8.886,1.006,0,0-.7-22.715.557-28.161s.14-23.6-2.653-30.023-4.416-12.722-3.884-19.138A103.742,103.742,0,0,1,1275.117,424.566Z" transform="translate(-1245.834 -362.567)"/><path class="t" d="M1272.658,499.091h-.008a.2.2,0,0,1-.2-.212c.012-.279.022-.7.037-1.257a230.705,230.705,0,0,1,3.37-34.751c3.167-17.488-2.176-37.553-2.23-37.754a.2.2,0,1,1,.394-.106c.054.2,5.421,20.356,2.238,37.933a230.163,230.163,0,0,0-3.362,34.689c-.015.558-.026.983-.037,1.263A.2.2,0,0,1,1272.658,499.091Z" transform="translate(-1248.314 -363.064)"/><path class="u" d="M1276.316,374.041a18.721,18.721,0,0,0-1.606-3.281,6.519,6.519,0,0,1-1.118-3.771c0-.419-.6-1.244-1.257.977-.7,2.374.279,3.212.279,3.212s-2.653-.279-2.793,1.4C1269.678,374.3,1273.383,375.019,1276.316,374.041Z" transform="translate(-1247.87 -353.236)"/><path class="v" d="M1269.561,369.707c2.136,0,.256-12.5-.5-13.652s-8.3-.172-10.252,9.463a15.729,15.729,0,0,1-.907,4.818,19.854,19.854,0,0,0,9.985.349l.14-1.677A2.08,2.08,0,0,0,1269.561,369.707Z" transform="translate(-1245.864 -351.415)"/><path class="w" d="M1269.737,371.277a.133.133,0,0,1-.094-.038,7.969,7.969,0,0,1-1.568-2.705.133.133,0,1,1,.252-.084,7.858,7.858,0,0,0,1.5,2.6.132.132,0,0,1-.094.226Z" transform="translate(-1247.576 -353.551)"/><path class="w" d="M1267.386,363.416a.14.14,0,0,1-.06-.014,4.26,4.26,0,0,1-1.593-1.731.133.133,0,1,1,.232-.129,4.081,4.081,0,0,0,1.48,1.622.133.133,0,0,1-.06.252Z" transform="translate(-1247.18 -352.392)"/><path class="c" d="M1256.1,373.276s-5.516,2.164-7.471,2.723c0,0-3.212,8.1,0,14.243s3,11.94,2.723,17.246a36.632,36.632,0,0,1-1.676,7.681s.2,2.764,5.167,3.49c5.725.838,14.174-2.583,19.41-2.234,0,0-.192-10.844-.07-16.827.349-17.106-2.374-25-2.374-25a42.311,42.311,0,0,1-5.655-1.466S1259.381,374.323,1256.1,373.276Z" transform="translate(-1244.062 -354.355)"/><path class="b" d="M1276.792,374.89s-6.633-1.466-6.633,12.218c0,3.327,4.818,9.147,5.655,11.94s2.793,8.1,7.262,7.4,4.888-8.657,3.212-12.847S1276.792,374.89,1276.792,374.89Z" transform="translate(-1247.928 -354.643)"/><path class="x" d="M1286.442,397.154a.2.2,0,0,1-.186-.119c-1.178-2.562-2.277-5.8-3.339-8.933-1.821-5.37-3.7-10.922-5.967-12.924a.2.2,0,1,1,.271-.306c2.343,2.073,4.16,7.428,6.083,13.1,1.059,3.122,2.154,6.35,3.323,8.894a.2.2,0,0,1-.1.27A.194.194,0,0,1,1286.442,397.154Z" transform="translate(-1249.059 -354.639)"/><path class="n" d="M1258.255,364.793s-3.49-4.888-3.63-8.379,1.815-2.932,1.815-2.932-.139-1.955,2.235-2.095,9.915.559,10.752,2.095-1.815,1.676-1.815,3.212-.7,3.491-1.257,2.374-1.676-3.63-2.513-2.374.14,3.072.14,3.072S1262.026,365.072,1258.255,364.793Z" transform="translate(-1245.311 -350.691)"/><path class="n" d="M1256.824,353.758a.2.2,0,0,1-.189-.13,2.194,2.194,0,0,1,.387-2.222c1.439-1.478,5.48-1.034,12.011,1.321a.2.2,0,0,1-.138.384c-7.925-2.856-10.67-2.35-11.578-1.422a1.781,1.781,0,0,0-.3,1.791.2.2,0,0,1-.117.264A.192.192,0,0,1,1256.824,353.758Z" transform="translate(-1245.626 -350.553)"/><path class="n" d="M1269.565,360.424c-.3,0-.544-.308-.706-.55a.2.2,0,1,1,.34-.226c.257.385.375.366.374.367.236-.047.463-1.173.615-1.919a6,6,0,0,1,.931-2.694.2.2,0,0,1,.285.293,6.09,6.09,0,0,0-.815,2.483c-.276,1.366-.456,2.144-.936,2.239A.453.453,0,0,1,1269.565,360.424Z" transform="translate(-1247.703 -351.36)"/><path class="y" d="M1256.523,424.727c-4.4,0-5.953-2.64-6.022-2.762a.2.2,0,0,1,.355-.2h0c.017.031,1.789,3.026,6.89,2.489a49.909,49.909,0,0,0,5.8-1.124c4.053-.943,8.245-1.918,11.287-.857a.2.2,0,1,1-.135.386c-2.929-1.022-7.062-.062-11.06.869a50.074,50.074,0,0,1-5.855,1.132A11.968,11.968,0,0,1,1256.523,424.727Z" transform="translate(-1244.613 -362.525)"/></g><g transform="translate(182.357 43.142)"><path class="z" d="M1389.736,337.665s.822-4.319.073-5.442c-.465-.7-.734,2.1-.734,2.1a5.1,5.1,0,0,1-.3-1.045c-.292-1.439-.215-3.663-.838-3.3-.5.289-.454,2.726-.454,2.726s.5-.962-.54-.49c-.544.249-.338.921-.338.921s.5-.744-.189-.43a1.567,1.567,0,0,0-.736.954s.919-.75.027-.13c-.7.485-1,.921-.033,2.683a9.26,9.26,0,0,0,1.918,2.171Z" transform="translate(-1385.06 -329.936)"/><path class="aa" d="M1431.894,430.63s-2.135,5.368-1.208,5.263,1.433-1.856,1.433-1.856a4.666,4.666,0,0,1,.553,1.877c.254,1.977.8,3.508,1.153,2.953s-.011-2.915-.011-2.915.489,3.671,1.113,3.5-.141-3.914-.141-3.914.573,3.149.953,2.967c.659-.317.077-3.48.077-3.48s1.092,2.443,1.164,1.66c.076-.817-.58-2.516-1.521-4.474a11.282,11.282,0,0,0-1.811-2.556A1.388,1.388,0,0,0,1431.894,430.63Z" transform="translate(-1392.703 -346.714)"/><path class="ab" d="M1407.6,370.432l.779,4.673,1.752-2.531Z" transform="translate(-1388.855 -336.755)"/><path class="ac" d="M1428.323,474.987a54.363,54.363,0,0,1,2.2,10.815c.55,5.866,1.466,13.931,2.017,15.581a2.251,2.251,0,0,1-2.017,1.283l-10.081-22.912,2.383-3.116Z" transform="translate(-1391.017 -354.358)"/><path class="ad" d="M1426.538,516.879a6.232,6.232,0,0,0,2.286.223c1.985-.049,4.5-.41,4.863-.773.55-.55,1.283-6.6,1.283-7.515a1.054,1.054,0,0,0-.044-.29,6.548,6.548,0,0,0-1.484-2.117,1.061,1.061,0,0,0-1.588.023c-.55.551-1.833,5.133-2.383,6.782s-1.283,2.2-1.833,2.384S1425.439,516.329,1426.538,516.879Z" transform="translate(-1391.982 -359.59)"/><path class="ae" d="M1409.956,510.27a2.436,2.436,0,0,0,1.23.04s-.037-.339-.095-.92c-.228-2.314-.125-8.27-.054-12.083.1-5.447-.389-12.109-.389-12.109l-4.778-.733-3.86.733s1.845,7.333,2.761,10.448c.762,2.594,3.049,10.524,3.794,13.107l.237.827A2.764,2.764,0,0,0,1409.956,510.27Z" transform="translate(-1387.914 -355.953)"/><path class="af" d="M1401.362,515.679c0,.733,5.316,3.3,6.049,3.483s4.216.367,4.766-.734-1.193-4.034-1.193-4.034l0,0c-.393-.426-.853-.161-1.289.332-.1.111-.2.236-.3.368-.568.773-1.059,1.774-1.252,1.87-.367.183-3.667-1.1-3.667-1.467s1.834-1.1,1.834-1.1l-.112-.007C1403.849,514.236,1401.362,514.957,1401.362,515.679Z" transform="translate(-1387.805 -360.956)"/><path class="ag" d="M1405.109,515.41c0,.367,3.3,1.65,3.667,1.467.192-.1.684-1.1,1.252-1.869a2.73,2.73,0,0,1-.7-.514s-.088-.3-.237-.822l0,0s-2.181.638-2.144.641C1406.943,514.31,1405.109,515.044,1405.109,515.41Z" transform="translate(-1388.436 -360.87)"/><path class="ah" d="M1417.43,396.122s10.723,23.4,11.688,26.981a29.243,29.243,0,0,1,3.115-1.168s-3.895-21.03-11.666-39.366C1420.567,382.568,1418.2,393.668,1417.43,396.122Z" transform="translate(-1390.51 -338.798)"/><path class="ai" d="M1410.893,446.615c.257,1.069.55,2.145.863,3.246.733,2.571,1.575,5.275,2.28,8.292,1.188,5.075,4.858,12.373,4.858,12.373,2.382-2.749,8.065-4.582,8.065-4.582-.55-2.383-3.941-13.839-4.491-18.239-.376-3,1.558-18.788.458-23.371a30.647,30.647,0,0,0-3.191-6.852l-.017-.022c-1.741.091-6.324.091-6.324.091l-2.658,27.036A5.633,5.633,0,0,0,1410.893,446.615Z" transform="translate(-1389.378 -344.672)"/><path class="aj" d="M1408.765,370.43a2.471,2.471,0,0,1-2.239-.682c-.779-.974-1.169-6.036.364-9.165C1406.891,360.583,1409.933,366.73,1408.765,370.43Z" transform="translate(-1388.559 -335.096)"/><path class="ai" d="M1398.938,449.5c0,7.891,1.168,20.548,2.269,24.1,0,0,6.277,1.466,9.21.366,0,0-.275-11.433-.275-13.815,0-1.756.619-12.4,2.36-16.337,5.317-12.035,4.94-14.755,4.023-21.354a21.914,21.914,0,0,0-1.833-5.316s-7.6.367-11.722-2.107c0,0-2.2,8.615-2.75,12.464S1398.938,446.381,1398.938,449.5Z" transform="translate(-1387.397 -344.264)"/><path class="ah" d="M1418.038,376.9a52.225,52.225,0,0,1,0,10.125c-.584,4.479-.779,9.931.195,12.657s7.789,7.595,5.841,10.71-11.488,3.895-16.161,1.948-9.638-8.666-9.442-9.833,3.405-6.329,3.016-9.055-3.7-9.736-2.337-13.047l5.063-3.115,3.505-3.7S1408.886,378.656,1418.038,376.9Z" transform="translate(-1387.317 -337.287)"/><path class="ah" d="M1405.306,368.535s-5.452-3.31-7.01-4.868-5.063-6.036-6.036-10.125-1.948-14.6-1.948-14.6a3.043,3.043,0,0,0-2.531.974s-.389,10.515,0,15.188c.354,4.253,7.4,18.1,11.453,23.051a2.437,2.437,0,0,0,2.7.763C1404.514,378,1408.974,375.367,1405.306,368.535Z" transform="translate(-1385.489 -331.45)"/><g transform="translate(13.377 127.07)"><path class="ak" d="M1411.746,483.545a.092.092,0,0,1-.092-.082.094.094,0,0,1,.082-.1c.348-.041.55-.07.55-.07a.093.093,0,1,1,.027.184s-.2.03-.556.072Z" transform="translate(-1402.915 -482.825)"/><path class="ak" d="M1406.423,483.793c-.286,0-.568,0-.837-.013a.093.093,0,0,1,.006-.186c.377.013.782.017,1.179.012a.093.093,0,0,1,0,.186C1406.657,483.793,1406.54,483.793,1406.423,483.793Zm1.533-.04a.093.093,0,0,1-.005-.186c.384-.019.78-.046,1.178-.079a.094.094,0,0,1,.1.085.092.092,0,0,1-.085.1c-.4.033-.8.06-1.183.08Zm-3.548-.049h-.009c-.422-.041-.819-.1-1.18-.165a.093.093,0,0,1,.035-.183c.356.068.748.123,1.163.163a.094.094,0,0,1,.083.1A.092.092,0,0,1,1404.408,483.7Z" transform="translate(-1401.482 -482.836)"/><path class="ak" d="M1401.755,483.133a.1.1,0,0,1-.031-.005,5.017,5.017,0,0,1-.526-.22.092.092,0,0,1-.043-.124.094.094,0,0,1,.125-.043,4.871,4.871,0,0,0,.506.211.093.093,0,0,1,.057.119A.1.1,0,0,1,1401.755,483.133Z" transform="translate(-1401.146 -482.732)"/></g><g transform="translate(28.54 119.066)"><path class="ak" d="M1428.688,473.437a.093.093,0,0,1-.026-.182c.341-.1.542-.145.542-.145a.093.093,0,0,1,.044.18s-.2.048-.536.143A.089.089,0,0,1,1428.688,473.437Z" transform="translate(-1420.93 -473.108)"/><path class="ak" d="M1420.952,476.414a.1.1,0,0,1-.075-.037.094.094,0,0,1,.019-.131,10.769,10.769,0,0,1,.99-.662.093.093,0,0,1,.095.16,10.557,10.557,0,0,0-.972.65A.1.1,0,0,1,1420.952,476.414Zm2.019-1.219a.093.093,0,0,1-.042-.176c.337-.167.7-.334,1.079-.495a.093.093,0,0,1,.122.05.092.092,0,0,1-.049.121c-.375.16-.734.324-1.068.49A.092.092,0,0,1,1422.97,475.195Zm2.17-.928a.093.093,0,0,1-.032-.18c.362-.134.739-.265,1.119-.389a.1.1,0,0,1,.118.06.094.094,0,0,1-.06.117c-.378.123-.753.254-1.112.387A.089.089,0,0,1,1425.141,474.267Z" transform="translate(-1419.627 -473.206)"/><path class="ak" d="M1419.471,478.3a.09.09,0,0,1-.054-.017.092.092,0,0,1-.022-.13,4.775,4.775,0,0,1,.361-.442.093.093,0,0,1,.131-.005.092.092,0,0,1,.005.131,4.552,4.552,0,0,0-.346.424A.094.094,0,0,1,1419.471,478.3Z" transform="translate(-1419.378 -473.879)"/></g><path class="n" d="M1410.238,377.611s-4.868-9.541-3.5-16.941,10.515-7.788,14.409-2.141,3.311,12.657,8.763,13.631,2.921,4.868,5.257,6.231,7.594-.195,7.789,7.01S1424.647,405.066,1410.238,377.611Z" transform="translate(-1388.669 -334.099)"/><path class="al" d="M1429.362,517.52c1.985-.049,4.5-.41,4.862-.773.55-.55,1.283-6.6,1.283-7.515a1.059,1.059,0,0,0-.044-.29,1.437,1.437,0,0,0-1.331-.352C1432.809,508.92,1431.041,515.664,1429.362,517.52Z" transform="translate(-1392.519 -360.008)"/><path class="n" d="M1417.093,387.9a.2.2,0,0,0,.128-.347c-8.682-7.421-10.878-14.569-11.192-19.259a17.38,17.38,0,0,1,1.409-8.485.2.2,0,1,0-.349-.183,17.425,17.425,0,0,0-1.456,8.671c.314,4.771,2.535,12.036,11.331,19.557A.2.2,0,0,0,1417.093,387.9Z" transform="translate(-1388.517 -334.917)"/><path class="n" d="M1445.487,388.7a.2.2,0,0,0,.176-.109c.069-.138,1.677-3.4.838-5.639-1.063-2.834-3.342-3.228-5.352-3.574a15.642,15.642,0,0,1-1.74-.368c-.895-.264-1.109-1.175-1.38-2.328-.423-1.8-.951-4.046-4.542-4.542-4.8-.662-7.976-10.184-8.008-10.28a.2.2,0,0,0-.374.123c.131.4,3.285,9.852,8.329,10.548,3.323.458,3.795,2.468,4.211,4.241.277,1.176.538,2.287,1.652,2.616a16.01,16.01,0,0,0,1.785.378c2,.345,4.065.7,5.048,3.325.78,2.08-.8,5.292-.82,5.324a.2.2,0,0,0,.176.285Z" transform="translate(-1391.801 -335.289)"/></g></g></g></g></svg>