<svg xmlns="http://www.w3.org/2000/svg" xmlns:xlink="http://www.w3.org/1999/xlink" width="398.645" height="267.235" viewBox="0 0 398.645 267.235"><defs><style>.a{fill:#ecf3fe;}.b{fill:#b7cae5;}.c{fill:#5ecc74;}.d,.y{fill:#34b44d;}.e{fill:url(#a);}.f{fill:url(#b);}.g{fill:#ffefb8;}.h{fill:url(#c);}.i{fill:#fbad1d;}.j{fill:url(#d);}.k{fill:#fff;}.l{fill:#f3f1fa;}.m{fill:#edeafb;}.n{fill:#1f0a5a;}.o{fill:url(#e);}.p{fill:url(#f);}.q{fill:url(#g);}.r{fill:#795e35;}.s{fill:url(#h);}.t{fill:url(#i);}.u{fill:url(#j);}.v{fill:url(#k);}.w{fill:url(#l);}.x{fill:#ff8d6a;}.y{opacity:0.379;}.z{fill:#efeeff;}.aa{fill:url(#m);}.ab{fill:#d9d3f7;}.ac{fill:url(#n);}.ad{fill:url(#o);}.ae{fill:url(#p);}.af{fill:url(#q);}.ag{fill:url(#r);}.ah{fill:url(#s);}.ai{fill:url(#t);}.aj{fill:url(#u);}.ak{fill:url(#v);}.al{fill:url(#w);}.am{fill:url(#x);}.an{fill:url(#y);}.ao{fill:url(#z);}.ap{fill:url(#aa);}.aq{fill:url(#ab);}.ar{fill:#362370;}.as{fill:url(#ac);}.at{fill:url(#ad);}.au{fill:#d10b52;}.av{fill:#fce222;}.aw{fill:#1ab7c2;}.ax{fill:url(#ae);}.ay{fill:#ff4a71;}.az{fill:#40248e;}.ba{fill:#3c2a7c;}.bb{fill:#ff375c;}.bc{fill:url(#af);}.bd{fill:url(#ag);}.be{fill:url(#ah);}.bf{fill:url(#ai);}.bg{fill:#57669f;}.bh{fill:#010a5a;}.bi{fill:url(#aj);}.bj{fill:url(#ak);}.bk{fill:url(#al);}.bl{fill:url(#am);}.bm{fill:url(#an);}.bn{fill:#240a5a;}.bo{fill:url(#ao);}.bp{fill:url(#ap);}.bq{fill:url(#aq);}.br{fill:#fff2a2;}.bs{fill:#f7cb7a;}.bt{fill:#97d9ef;}</style><linearGradient id="a" x1="12.935" y1="15.349" x2="13.161" y2="15.71" gradientUnits="objectBoundingBox"><stop offset="0" stop-color="#fff4a8"/><stop offset="1" stop-color="#ffce64"/></linearGradient><linearGradient id="b" x1="16.509" y1="4.996" x2="16.546" y2="3.926" gradientUnits="objectBoundingBox"><stop offset="0" stop-color="#edb39d"/><stop offset="1" stop-color="#ed825e"/></linearGradient><linearGradient id="c" x1="5.716" y1="1.587" x2="5.619" y2="0.165" gradientUnits="objectBoundingBox"><stop offset="0" stop-color="#6060a1"/><stop offset="0.997" stop-color="#200c54"/></linearGradient><linearGradient id="d" x1="-35.494" y1="-0.747" x2="-36.287" y2="-0.606" gradientUnits="objectBoundingBox"><stop offset="0" stop-color="#f5f5fa"/><stop offset="1" stop-color="#c8c2f3"/></linearGradient><linearGradient id="e" x1="9.584" y1="-0.222" x2="9.464" y2="0.623" xlink:href="#a"/><linearGradient id="f" x1="7.146" y1="0.821" x2="6.51" y2="-0.15" xlink:href="#b"/><linearGradient id="g" x1="3.722" y1="0.411" x2="2.83" y2="0.563" xlink:href="#c"/><linearGradient id="h" x1="17.478" y1="0.734" x2="17.839" y2="0.301" xlink:href="#b"/><linearGradient id="i" x1="6.859" y1="0.226" x2="6.768" y2="1.073" xlink:href="#b"/><linearGradient id="j" x1="12.524" y1="0.791" x2="12.405" y2="0.036" xlink:href="#b"/><linearGradient id="k" x1="12.498" y1="0.625" x2="14.047" y2="0.347" gradientUnits="objectBoundingBox"><stop offset="0" stop-color="#ee4969"/><stop offset="1" stop-color="#bf2041"/></linearGradient><linearGradient id="l" x1="16.48" y1="-1.001" x2="16.282" y2="1.944" xlink:href="#b"/><linearGradient id="m" x1="0.39" y1="-0.007" x2="0.639" y2="1.142" xlink:href="#d"/><linearGradient id="n" x1="-0.249" y1="-17.395" x2="1.216" y2="17.612" xlink:href="#d"/><linearGradient id="o" x1="-1.056" y1="-0.997" x2="2.882" y2="2.791" xlink:href="#d"/><linearGradient id="p" x1="-1.174" y1="-16.306" x2="1.342" y2="8.952" xlink:href="#d"/><linearGradient id="q" x1="-1.207" y1="-16.641" x2="1.308" y2="8.616" xlink:href="#d"/><linearGradient id="r" x1="-1.238" y1="-16.946" x2="1.278" y2="8.312" xlink:href="#d"/><linearGradient id="s" x1="-1.342" y1="-1.272" x2="2.597" y2="2.517" xlink:href="#d"/><linearGradient id="t" x1="-1.356" y1="-18.135" x2="1.16" y2="7.123" xlink:href="#d"/><linearGradient id="u" x1="-1.389" y1="-18.471" x2="1.126" y2="6.787" xlink:href="#d"/><linearGradient id="v" x1="-1.42" y1="-18.775" x2="1.096" y2="6.482" xlink:href="#d"/><linearGradient id="w" x1="0.316" y1="0.787" x2="0.714" y2="0.301" xlink:href="#b"/><linearGradient id="x" x1="0.605" y1="0.61" x2="-0.316" y2="-0.169" xlink:href="#b"/><linearGradient id="y" x1="1.122" y1="0.377" x2="-0.1" y2="0.562" xlink:href="#k"/><linearGradient id="z" x1="1.261" y1="0.593" x2="0.224" y2="0.452" xlink:href="#c"/><linearGradient id="aa" x1="-0.71" y1="0.188" x2="0.546" y2="0.501" gradientUnits="objectBoundingBox"><stop offset="0" stop-color="#8d81dd"/><stop offset="1" stop-color="#5129b3"/></linearGradient><linearGradient id="ab" x1="0.83" y1="0.095" x2="0.198" y2="0.908" xlink:href="#c"/><linearGradient id="ac" x1="2.68" y1="0.529" x2="0.325" y2="0.496" xlink:href="#aa"/><linearGradient id="ad" x1="0.942" y1="0.651" x2="0.214" y2="0.097" xlink:href="#b"/><linearGradient id="ae" x1="0.539" y1="0.277" x2="0.579" y2="-0.117" xlink:href="#b"/><linearGradient id="af" x1="-0.169" y1="-0.072" x2="1.461" y2="1.181" xlink:href="#b"/><linearGradient id="ag" x1="-0.246" y1="0.213" x2="1.563" y2="0.705" xlink:href="#b"/><linearGradient id="ah" x1="0" y1="0.5" x2="1" y2="0.5" xlink:href="#b"/><linearGradient id="ai" x1="-0.007" y1="0.329" x2="0.441" y2="0.433" xlink:href="#c"/><linearGradient id="aj" x1="0" y1="0.5" x2="1" y2="0.5" xlink:href="#b"/><linearGradient id="ak" x1="0.026" y1="0.321" x2="1.134" y2="0.714" xlink:href="#b"/><linearGradient id="al" x1="0" y1="0.5" x2="1" y2="0.5" xlink:href="#b"/><linearGradient id="am" x1="1.056" y1="0.361" x2="0.569" y2="0.46" xlink:href="#c"/><linearGradient id="an" x1="1.392" y1="0.516" x2="0.377" y2="0.5" xlink:href="#c"/><linearGradient id="ao" x1="-0.536" y1="0.5" x2="0.601" y2="0.5" xlink:href="#c"/><linearGradient id="ap" x1="0.091" y1="0.5" x2="1.517" y2="0.5" xlink:href="#b"/><linearGradient id="aq" x1="1.112" y1="0.332" x2="-0.514" y2="0.813" xlink:href="#b"/></defs><g transform="translate(-5.203 -362.427)"><g transform="translate(22.378 362.427)"><path class="a" d="M642.067,810.956a140.115,140.115,0,1,0-134.148,0Z" transform="translate(-434.878 -547.867)"/><path class="a" d="M1053.925,917.067h112.094a123.768,123.768,0,1,0-112.094,0Z" transform="translate(-867.538 -653.979)"/><ellipse class="b" cx="157.352" cy="9.67" rx="157.352" ry="9.67" transform="translate(32.73 247.894)"/><g transform="translate(16.961 58.774)"><g transform="translate(0 0)"><g transform="translate(249.037 74.425)"><path class="c" d="M1448.259,910.679a13.754,13.754,0,0,0,5.5,3.193,5.791,5.791,0,0,0,4.382-.27,5.163,5.163,0,0,0,2.66-4.074c.13-1.774-.953-3.588-2.433-3.707-1.16-.092-2.528.722-3.395-.164a2.483,2.483,0,0,1,.115-2.975,4.647,4.647,0,0,1,2.489-1.485,17.2,17.2,0,0,0,3.5-1.252,5.123,5.123,0,0,0,2.507-3.056c.371-1.387-.116-3.1-1.243-3.554-1.453-.589-3.468.888-4.477-.473-.763-1.028-.106-2.747.8-3.691s2.067-1.622,2.636-2.878a3.605,3.605,0,0,0-.561-3.827,2.356,2.356,0,0,0-3.279-.006,6.421,6.421,0,0,0-1.5,2.989,9.945,9.945,0,0,1-1.256,3.169c-.651.892-1.8,1.407-2.611.816-.859-.624-1.025-2.193-1.951-2.67s-2.075.563-2.339,1.77a6.781,6.781,0,0,0,.465,3.569,8.562,8.562,0,0,1,.678,3.534c-.121,1.231-1.022,2.492-2.042,2.344-.447-.064-.839-.381-1.286-.445-.834-.12-1.643.707-1.933,1.669a6.191,6.191,0,0,0,.019,2.981,15.909,15.909,0,0,0,4.218,8.164Z" transform="translate(-1443.509 -881.8)"/><path class="d" d="M1448.03,916.154a.142.142,0,0,0,.142-.119c2.865-15.569,10.658-29.232,10.736-29.368a.151.151,0,0,0-.053-.2.141.141,0,0,0-.2.05c-.079.136-7.9,13.844-10.77,29.462a.149.149,0,0,0,.115.174A.136.136,0,0,0,1448.03,916.154Z" transform="translate(-1444.276 -882.613)"/><path class="d" d="M1453.941,901.68a.141.141,0,0,0,.092-.031c3.118-2.545,9.8-2.71,9.87-2.712a.148.148,0,0,0-.01-.3c-.278.006-6.85.169-10.043,2.775a.15.15,0,0,0-.021.208A.143.143,0,0,0,1453.941,901.68Z" transform="translate(-1445.311 -884.751)"/><path class="d" d="M1454.926,897.482a.112.112,0,0,0,.025,0,.145.145,0,0,0,.119-.168,11.868,11.868,0,0,0-2.02-4.416.144.144,0,0,0-.2-.03.15.15,0,0,0-.026.207,11.8,11.8,0,0,1,1.964,4.283A.147.147,0,0,0,1454.926,897.482Z" transform="translate(-1445.135 -883.734)"/><path class="d" d="M1457.833,914.642a.14.14,0,0,0,.12-.063.151.151,0,0,0-.038-.205c-3.542-2.526-7.817-.756-7.86-.738a.147.147,0,0,0-.076.193.145.145,0,0,0,.19.08c.041-.017,4.173-1.724,7.582.707A.143.143,0,0,0,1457.833,914.642Z" transform="translate(-1444.64 -887.269)"/><path class="d" d="M1450.385,909.548a.125.125,0,0,0,.035,0,.147.147,0,0,0,.105-.178,12.7,12.7,0,0,0-2.751-5.1.142.142,0,0,0-.2,0,.15.15,0,0,0,0,.209,12.388,12.388,0,0,1,2.677,4.961A.147.147,0,0,0,1450.385,909.548Z" transform="translate(-1444.213 -885.729)"/></g><g transform="translate(185.497 41.73)"><path class="e" d="M1510.028,950.925a6.313,6.313,0,0,0-.74,3.266.873.873,0,0,0,.775.859,104.876,104.876,0,0,0,14.756.573.5.5,0,0,0,.471-.611c-.134-.545-.627-1.321-2.287-1.679l-12.66-2.546A.3.3,0,0,0,1510.028,950.925Z" transform="translate(-1402.982 -862.148)"/><path class="f" d="M1516.874,933.548s-1.322,10.69-.247,12.9,6.648,3.675,6.648,3.675-8.225,1.382-12.946-2.61a13.184,13.184,0,0,0,1.055-2.776c.162-1.017-.906-7.616-.75-12.25C1510.634,932.486,1514.254,931.671,1516.874,933.548Z" transform="translate(-1403.164 -858.911)"/><path class="g" d="M1520.608,955.842a51.8,51.8,0,0,1-11.206-1.125.187.187,0,1,1,.09-.362A54.193,54.193,0,0,0,1525,955.3a.187.187,0,0,1,.029.372C1523.48,955.792,1522,955.842,1520.608,955.842Z" transform="translate(-1402.977 -862.773)"/><path class="h" d="M1488.96,906.6s19.507.223,26.9,3.6c.506,3.393-2.089,19.45-2.089,19.45s-6.311,0-7.716-.643a101.9,101.9,0,0,1-.161-12.056S1487.171,911.839,1488.96,906.6Z" transform="translate(-1399.399 -854.407)"/><g transform="translate(0 64.724)"><path class="i" d="M1384.241,1003.651l105.607-.055a3.552,3.552,0,0,0,3.8-3.242l-.042-75.323a3.552,3.552,0,0,0-3.8-3.238l-105.608.054a3.552,3.552,0,0,0-3.8,3.243l.042,75.322A3.553,3.553,0,0,0,1384.241,1003.651Z" transform="translate(-1380.398 -921.793)"/><g transform="translate(0 6.182)"><path class="j" d="M1380.4,929.346l.043,76.286a1.182,1.182,0,0,0,1.2,1.158l110.858-.058a1.18,1.18,0,0,0,1.2-1.159l-.042-76.286Z" transform="translate(-1380.398 -929.288)"/></g><g transform="translate(5.349 9.837)"><path class="k" d="M1386.883,935.316l.037,66.386a1.575,1.575,0,0,0,1.606,1.542l99.372-.051a1.575,1.575,0,0,0,1.6-1.545l-.037-66.385a1.575,1.575,0,0,0-1.605-1.543l-99.372.051A1.575,1.575,0,0,0,1386.883,935.316Z" transform="translate(-1386.883 -933.72)"/></g><rect class="l" width="90.478" height="1.326" rx="0.663" transform="translate(102.366 14.698) rotate(180)"/><g transform="translate(13.878 23.851)"><rect class="m" width="9.41" height="8.001" transform="translate(0 21.985)"/><rect class="m" width="8.101" height="8.001" transform="translate(12.312 21.985)"/><rect class="m" width="8.08" height="8.001" transform="translate(23.315 21.985)"/><rect class="m" width="8.003" height="8.001" transform="translate(34.297 21.985)"/><rect class="m" width="8.53" height="8.001" transform="translate(45.201 21.985)"/><rect class="m" width="8.101" height="8.001" transform="translate(56.633 21.985)"/><rect class="m" width="8.08" height="8.001" transform="translate(67.636 21.985)"/><rect class="m" width="8.003" height="8.001" transform="translate(78.619 21.985)"/><rect class="m" width="8.003" height="8.529" transform="translate(78.619 32.89)"/><rect class="m" width="8.08" height="8.529" transform="translate(67.636 32.89)"/><rect class="m" width="8.101" height="8.529" transform="translate(56.633 32.89)"/><rect class="m" width="8.53" height="8.529" transform="translate(45.201 32.89)"/><rect class="m" width="8.003" height="8.529" transform="translate(34.297 32.89)"/><rect class="m" width="8.08" height="8.529" transform="translate(23.315 32.89)"/><rect class="m" width="8.101" height="8.529" transform="translate(12.312 32.89)"/><rect class="m" width="9.41" height="8.529" transform="translate(0 32.89)"/><rect class="m" width="8.003" height="8.099" transform="translate(78.619)"/><rect class="m" width="8.08" height="8.099" transform="translate(67.636)"/><rect class="m" width="8.101" height="8.099" transform="translate(56.633)"/><rect class="m" width="8.53" height="8.099" transform="translate(45.201)"/><rect class="m" width="8.003" height="8.099" transform="translate(34.297)"/><rect class="m" width="8.08" height="8.099" transform="translate(23.315)"/><rect class="m" width="8.101" height="8.099" transform="translate(12.312)"/><rect class="m" width="9.41" height="8.099"/><rect class="m" width="8.003" height="8.078" transform="translate(78.619 11.003)"/><rect class="m" width="8.08" height="8.078" transform="translate(67.636 11.003)"/><rect class="m" width="8.101" height="8.078" transform="translate(56.633 11.003)"/><rect class="m" width="8.53" height="8.078" transform="translate(45.201 11.003)"/><rect class="m" width="8.003" height="8.078" transform="translate(34.297 11.003)"/><rect class="m" width="8.08" height="8.078" transform="translate(23.315 11.003)"/><rect class="m" width="8.101" height="8.078" transform="translate(12.312 11.003)"/><rect class="m" width="9.41" height="8.078" transform="translate(0 11.003)"/></g></g><path class="n" d="M1476.729,872.584a.218.218,0,0,1-.04,0c-2.528-.56-5.578-3.77-5.876-7.229-.19-2.21.663-5.289,5.807-7.4,4.422-1.816,5.444-4.885,6.434-7.853.973-2.921,1.893-5.68,6.141-6.465,3.715-.685,6.451-.246,8.133,1.309a5.934,5.934,0,0,1,1.739,4.575c1.561,1.3.362,6.5.309,6.72a.186.186,0,1,1-.363-.086c.35-1.486.986-5.532-.247-6.4l-.09-.063.012-.109a5.7,5.7,0,0,0-1.616-4.371c-1.591-1.468-4.219-1.876-7.81-1.213-4.031.745-4.877,3.28-5.856,6.216-.967,2.9-2.065,6.2-6.645,8.08-4.935,2.026-5.757,4.939-5.577,7.025.28,3.249,3.232,6.375,5.584,6.9a.187.187,0,0,1-.039.369Z" transform="translate(-1396.236 -843.319)"/><path class="o" d="M1535.4,951.662a10.469,10.469,0,0,0-.019,3.74.671.671,0,0,0,.518.507c1.136.233,5.21.789,14.091.454a.666.666,0,0,0,.567-.972,2.515,2.515,0,0,0-2-1.241Z" transform="translate(-1407.524 -862.302)"/><path class="p" d="M1525.639,936.39s4.762,5.173,8.338,9.771a13.066,13.066,0,0,1-.255,2.3s4.469,3,13.154,2.488c0,0-4.087-.7-6-2.616s-9.524-14.944-9.524-14.944A7.068,7.068,0,0,0,1525.639,936.39Z" transform="translate(-1405.847 -859.101)"/><path class="q" d="M1486.414,903.875a19.74,19.74,0,0,0,0,2.81s19.157.638,28.481,6L1522.482,928a18.685,18.685,0,0,1-7.234,4.179s-5.59-10.554-6.867-12.6c0,0-7.28-.256-22.989.127s-16.3-5.463-13.3-14.36C1472.088,905.352,1480.156,900.555,1486.414,903.875Z" transform="translate(-1396.214 -853.724)"/><path class="n" d="M1519.188,930.949a.187.187,0,0,1-.15-.075,68.4,68.4,0,0,1-4.858-8.8,38.018,38.018,0,0,0-3.225-5.859c-2.492-1-8.445-.75-14.746-.485-7.548.318-15.352.647-18.355-1.12a5.047,5.047,0,0,1-2.484-3.271c-.831-3.542,1.863-7.73,1.978-7.906a.187.187,0,0,1,.313.2c-.027.042-2.723,4.233-1.927,7.619a4.687,4.687,0,0,0,2.31,3.034c2.909,1.711,10.658,1.385,18.151,1.07,6.373-.269,12.392-.522,14.939.526l.035.014.026.026c.7.7,1.915,3.149,3.321,5.983a68.085,68.085,0,0,0,4.823,8.741.186.186,0,0,1-.149.3Z" transform="translate(-1397.011 -853.838)"/><path class="n" d="M1499.191,850.065s.643-5.626-7.384-5.932c-7.715-.294-7.462,8.492-12.329,12.736s-13.1,7.112-2.995,15.348Z" transform="translate(-1396.392 -843.46)"/><path class="r" d="M1482.988,864.947a8.616,8.616,0,0,0-4.6,3.96c-1.66,3.065-3.959,22.094-7.663,25.925s.894,4.087,3.321,3.832,8.94-1.532,12.132-1.405c0,0,3-7.479,4.725-10.856,2.409-4.721,3-6.174,1.788-9.323-1.63-4.239-2.043-5.237-2.043-5.237S1486.564,864.692,1482.988,864.947Z" transform="translate(-1395.981 -847.107)"/><path class="s" d="M1491.2,856.855s-2.884,6.033-5.31,6.672c0,0,.04.339,2.171,1.66,3.141,1.947,2.852,4.626,5.492,5.237a36.246,36.246,0,0,1-1.406-4.981c0-.894,1.895-2.667,1.895-2.667S1493.826,856.441,1491.2,856.855Z" transform="translate(-1398.881 -845.687)"/><path class="t" d="M1484.585,893.259s11.239,8.3,15.581,9.451c0,0,.638,1.277-.256,1.916,0,0-18.39-4.215-21.456-8.047C1478.455,896.579,1478.711,892.365,1484.585,893.259Z" transform="translate(-1397.579 -852.047)"/><path class="u" d="M1492.015,856.017a3.815,3.815,0,0,0,.591,3.313c1.183,1.775,3.786,3.787,5.206,3.431s4.281-5.972,4.754-11.532c0,0-3.779-1.483-6.37.861-2.7,2.444-2.818,1.031-3.236.022C1492.026,849.856,1489.53,854.006,1492.015,856.017Z" transform="translate(-1399.768 -844.624)"/><path class="v" d="M1488.591,874s-4.6,13.538-4.087,14.943c0,0-4.215.256-6.131,3.321,0,0-.383-.255-.383-1.532a75.439,75.439,0,0,1,1.787-12.388c1.278-5.619.894-8.3,3.576-9.579S1489.485,871.449,1488.591,874Z" transform="translate(-1397.498 -847.734)"/><path class="w" d="M1512.925,907.436a24.593,24.593,0,0,0-3.537-2.733c-.766-.256-1.607,0-4.712.013,0,0-.894,1.149-.256,1.916Z" transform="translate(-1402.088 -854.055)"/><path class="x" d="M1511.45,907.623a.122.122,0,0,1-.091-.042,4.628,4.628,0,0,0-1.994-1.1.122.122,0,0,1-.088-.148.12.12,0,0,1,.148-.087,4.8,4.8,0,0,1,2.117,1.181.122.122,0,0,1-.092.2Z" transform="translate(-1402.979 -854.343)"/><path class="x" d="M1513.214,907.64a.119.119,0,0,1-.076-.026,14.333,14.333,0,0,0-2.988-1.915.121.121,0,0,1,.048-.238,13.98,13.98,0,0,1,3.091,1.963.121.121,0,0,1-.075.216Z" transform="translate(-1403.116 -854.207)"/><path class="n" d="M1488.96,907.435h-.016c-2.474-.219-3.549-.222-3.56-.222a.186.186,0,1,1,0-.373c.044,0,1.1,0,3.593.223a.186.186,0,0,1-.016.372Z" transform="translate(-1398.76 -854.449)"/><path class="g" d="M1547.28,956.685a110.657,110.657,0,0,1-11.876-.807.187.187,0,0,1,.048-.37c.091.012,9.189,1.165,15.047.69a.187.187,0,1,1,.031.372C1549.52,956.651,1548.416,956.685,1547.28,956.685Z" transform="translate(-1407.529 -862.976)"/><path class="n" d="M1516.071,906.906l-16.8-2.444a.6.6,0,1,1,.172-1.184l16.105,2.343L1526.1,891.84a.6.6,0,1,1,.95.727Z" transform="translate(-1401.136 -851.78)"/></g><g transform="translate(65.113 104.813)"><path class="y" d="M1295.348,1001.46s-37.224.494-58.987-27.715l12.768-2.37-15.393-1.3a68.267,68.267,0,0,1-6.588-12.631l8.139-.824-9.248-2.133c-3.382-9.648-5.289-21.279-4.989-35.3a110.887,110.887,0,0,1,31.715,9.651l1.658,5.889,2.21-3.9c9.847,5.354,19.54,13.051,25.8,24.042C1298.74,983.479,1295.348,1001.46,1295.348,1001.46Z" transform="translate(-1220.6 -918.739)"/><path class="z" d="M1295.306,1001.812a.45.45,0,0,0,.3-.728c-31.652-39.518-73.908-81.885-74.331-82.308a.449.449,0,1,0-.636.635c.422.423,42.644,42.757,74.265,82.235A.449.449,0,0,0,1295.306,1001.812Z" transform="translate(-1220.511 -918.643)"/><path class="z" d="M1235.349,934.229l-1.521-12.123a.45.45,0,0,0-.892.111l1.392,11.093-12.789-.253a.45.45,0,1,0-.017.9Z" transform="translate(-1220.611 -919.181)"/><path class="z" d="M1225.017,950.888h0l23.612-2.464-.915-20.929a.45.45,0,1,0-.9.039l.877,20.083-22.77,2.375a.45.45,0,0,0,.093.895Z" transform="translate(-1221.214 -920.119)"/><path class="z" d="M1263.3,965.186l.685-28.3a.45.45,0,1,0-.9-.021l-.664,27.46-30.917,1.5a.45.45,0,1,0,.044.9Z" transform="translate(-1222.363 -921.76)"/><path class="z" d="M1244.664,985.3h0l32.945-3.572,5.312-26.606a.45.45,0,0,0-.882-.176l-5.182,25.958-32.289,3.5a.45.45,0,0,0,.095.894Z" transform="translate(-1224.656 -924.941)"/><path class="z" d="M1293.244,999.669l3.4-22.125a.449.449,0,0,0-.888-.136l-3.292,21.417-28.035,2.082a.45.45,0,0,0,.066.9Z" transform="translate(-1228.134 -928.873)"/></g><g transform="translate(93.302 43.235)"><path class="d" d="M1293.314,943.691s-30.96-15.241-37.079-47.695l11.544,3.41-12.17-7.545a63.3,63.3,0,0,1-.133-13.2l7.071,2.741-6.743-5.65c1.262-9.392,4.577-19.8,10.719-31.26a102.778,102.778,0,0,1,22.142,21.307l-1.105,5.561,3.467-2.3c5.883,8.563,10.655,19,11.209,30.709C1303.676,930.263,1293.314,943.691,1293.314,943.691Z" transform="translate(-1254.777 -844.072)"/><path class="z" d="M1295.483,943.992a.408.408,0,0,0,.234.019.416.416,0,0,0,.323-.492c-9.534-45.954-26.632-98.72-26.8-99.248a.417.417,0,0,0-.793.257c.172.528,17.255,53.251,26.78,99.16A.419.419,0,0,0,1295.483,943.992Z" transform="translate(-1257.095 -843.983)"/><path class="z" d="M1273.351,864.012l3.84-10.655a.417.417,0,0,0-.784-.283l-3.514,9.749-10.458-5.586a.417.417,0,0,0-.393.736Z" transform="translate(-1255.938 -845.528)"/><path class="z" d="M1256.776,874.363h0l20.542,7.892,8.043-17.674a.416.416,0,1,0-.758-.346l-7.718,16.96-19.81-7.61a.417.417,0,0,0-.3.779Z" transform="translate(-1255.008 -847.489)"/><path class="z" d="M1281.815,903.138l12.461-23.089a.417.417,0,1,0-.733-.4L1281.45,902.06,1255.276,890.3a.417.417,0,1,0-.341.76Z" transform="translate(-1254.689 -850.195)"/><path class="z" d="M1257.923,912.444h0l28.72,10.9,15.573-19.746a.417.417,0,1,0-.655-.515l-15.194,19.266-28.147-10.683a.417.417,0,0,0-.3.779Z" transform="translate(-1255.209 -854.311)"/><path class="z" d="M1292.547,944.19l12.11-16.848a.417.417,0,1,0-.677-.487l-11.723,16.309L1268.221,933.1a.417.417,0,1,0-.322.769Z" transform="translate(-1256.958 -858.473)"/></g><g transform="translate(125.295)"><path class="i" d="M13.014,0h95.722a13.013,13.013,0,0,1,13.013,13.013V177.837a13.014,13.014,0,0,1-13.014,13.014H13.014A13.014,13.014,0,0,1,0,177.837V13.014A13.014,13.014,0,0,1,13.014,0Z"/><rect class="aa" width="121.749" height="174.098" transform="translate(0 16.752)"/><path class="k" d="M1408.331,829.677V971.97a6.387,6.387,0,0,1-6.291,6.48h-92.116a6.388,6.388,0,0,1-6.291-6.48V829.677a6.388,6.388,0,0,1,6.291-6.48h92.116A6.387,6.387,0,0,1,1408.331,829.677Z" transform="translate(-1295.257 -797.172)"/><rect class="ab" width="92.135" height="3.291" rx="1.645" transform="translate(14.658 34.102)"/></g><g transform="translate(75.518 129.994)"><path class="i" d="M1236.017,1009.49l79.3-.03a2.651,2.651,0,0,0,2.85-2.39l-.037-55.51a2.652,2.652,0,0,0-2.854-2.387l-79.3.031a2.651,2.651,0,0,0-2.851,2.39l.037,55.51A2.651,2.651,0,0,0,1236.017,1009.49Z" transform="translate(-1233.127 -949.173)"/><g transform="translate(0.001 6.228)"><path class="b" d="M1233.128,956.757l.036,54.534a.869.869,0,0,0,.9.828l83.245-.033a.868.868,0,0,0,.9-.828l-.037-54.534Z" transform="translate(-1233.128 -956.724)"/></g><g transform="translate(4.018 8.841)"><path class="k" d="M1238,961.025l.031,47.456a1.159,1.159,0,0,0,1.206,1.1l74.621-.03a1.158,1.158,0,0,0,1.2-1.1l-.032-47.456a1.158,1.158,0,0,0-1.206-1.1l-74.62.029A1.157,1.157,0,0,0,1238,961.025Z" transform="translate(-1237.998 -959.892)"/></g><rect class="ac" width="69.262" height="1.509" rx="0.755" transform="translate(77.596 14.069) rotate(180)"/><rect class="ad" width="25.427" height="13.76" rx="1.865" transform="translate(8.196 20.052)"/><path class="ae" d="M1.047,0h38.29a1.047,1.047,0,0,1,1.047,1.047v0a1.047,1.047,0,0,1-1.047,1.047H1.047A1.047,1.047,0,0,1,0,1.047v0A1.047,1.047,0,0,1,1.047,0Z" transform="translate(37.213 22.744)"/><path class="af" d="M1.047,0h38.29a1.047,1.047,0,0,1,1.047,1.047v0a1.047,1.047,0,0,1-1.047,1.047H1.047A1.047,1.047,0,0,1,0,1.047v0A1.047,1.047,0,0,1,1.047,0Z" transform="translate(37.213 26.035)"/><path class="ag" d="M1.047,0h38.29a1.047,1.047,0,0,1,1.047,1.047v0a1.047,1.047,0,0,1-1.047,1.047H1.047A1.047,1.047,0,0,1,0,1.047v0A1.047,1.047,0,0,1,1.047,0Z" transform="translate(37.213 29.026)"/><rect class="ah" width="25.427" height="13.76" rx="1.865" transform="translate(8.196 38)"/><path class="ai" d="M1.047,0h38.29a1.047,1.047,0,0,1,1.047,1.047v0a1.047,1.047,0,0,1-1.047,1.047H1.047A1.047,1.047,0,0,1,0,1.047v0A1.047,1.047,0,0,1,1.047,0Z" transform="translate(37.213 40.692)"/><path class="aj" d="M1.047,0h38.29a1.047,1.047,0,0,1,1.047,1.047v0a1.047,1.047,0,0,1-1.047,1.047H1.047A1.047,1.047,0,0,1,0,1.047v0A1.047,1.047,0,0,1,1.047,0Z" transform="translate(37.213 43.983)"/><path class="ak" d="M1.047,0h38.29a1.047,1.047,0,0,1,1.047,1.047v0a1.047,1.047,0,0,1-1.047,1.047H1.047A1.047,1.047,0,0,1,0,1.047v0A1.047,1.047,0,0,1,1.047,0Z" transform="translate(37.213 46.974)"/></g><g transform="translate(154.305 59.778)"><rect class="r" width="86.313" height="28.311" rx="2.893"/><circle class="k" cx="9.313" cy="9.313" r="9.313" transform="translate(6.655 5.077)"/><g transform="translate(29.776 9.248)"><rect class="k" width="20.286" height="1.764" rx="0.882"/><rect class="k" width="10.964" height="1.764" rx="0.882" transform="translate(21.751)"/><rect class="k" width="14.762" height="1.764" rx="0.882" transform="translate(34.18)"/><rect class="k" width="20.286" height="1.764" rx="0.882" transform="translate(48.942 10.05) rotate(180)"/><rect class="k" width="10.964" height="1.764" rx="0.882" transform="translate(27.191 10.05) rotate(180)"/><rect class="k" width="14.762" height="1.764" rx="0.882" transform="translate(14.762 10.05) rotate(180)"/><rect class="k" width="14.762" height="1.764" rx="0.882" transform="translate(0 4.143)"/><rect class="k" width="22.357" height="1.764" rx="0.882" transform="translate(16.227 4.143)"/><rect class="k" width="8.547" height="1.764" rx="0.882" transform="translate(40.395 4.143)"/></g></g><g transform="translate(0 64.578)"><path class="n" d="M1184.111,873.211a.2.2,0,0,1-.124-.045,8.384,8.384,0,0,1-3.3-8.63c.478-2.144,1.718-3.812,2.576-4.027a.7.7,0,0,1,.326-.009,1.454,1.454,0,0,1,.869-.752c2.4-1.071,9.455-1.113,11.356,1.363.8,1.037.578,2.332-.651,3.849a.2.2,0,1,1-.3-.246c1.1-1.358,1.316-2.491.645-3.365-1.74-2.264-8.563-2.281-10.887-1.243-.274.122-.727.374-.67.676l.134.718-.476-.555a.215.215,0,0,0-.247-.056c-.644.161-1.825,1.658-2.288,3.732a8.007,8.007,0,0,0,3.161,8.24.2.2,0,0,1-.124.348Z" transform="translate(-1130.559 -859.053)"/><path class="n" d="M1184.159,873.268s-2.919-2.4-2.919-4.978.1-5.643,2.038-7.065c2.038-1.494,9.511-1.222,11.685,0s.272,3.8.272,3.8Z" transform="translate(-1130.69 -859.255)"/><path class="al" d="M1183.216,881.375s1.72-1.657,1.2-7.146c0,0,3.1-3.225,6.655,5.222a13.252,13.252,0,0,0,.093,1.993,8.805,8.805,0,0,1,1.291,4.551C1192.319,888.3,1182.944,887.625,1183.216,881.375Z" transform="translate(-1131.036 -861.606)"/><path class="am" d="M1208.053,939.393a3.692,3.692,0,0,0,.44,1.682,8.979,8.979,0,0,1,1.63,2.989s-.68-.271-.68.816a3.929,3.929,0,0,0,1.495,2.853c.68.407,1.9.543,2.31-.271a8.784,8.784,0,0,0,.679-3.669c-.135-.816-2.717-3.94-2.853-4.348s-.32-1.147-.32-1.147A3.191,3.191,0,0,0,1208.053,939.393Z" transform="translate(-1135.389 -872.937)"/><path class="x" d="M1211.894,947.984c-.868,0-1.423-2.653-1.484-2.955a.127.127,0,1,1,.25-.05c.228,1.142.762,2.751,1.234,2.751.005,0,.021,0,.047-.028.337-.359.322-2.59.233-3.912a.127.127,0,0,1,.119-.135.125.125,0,0,1,.135.118c.024.362.22,3.546-.3,4.1A.315.315,0,0,1,1211.894,947.984Z" transform="translate(-1135.801 -873.877)"/><path class="x" d="M1212.585,948.153a.127.127,0,0,1-.083-.223.769.769,0,0,1,1.063,0,.127.127,0,0,1-.177.183.516.516,0,0,0-.719,0A.128.128,0,0,1,1212.585,948.153Z" transform="translate(-1136.16 -874.589)"/><path class="an" d="M1200.828,909.873s8.288,20.38,9.1,23.233a26.689,26.689,0,0,0-4.62,2.038s-1.63-5.027-4.484-7.609C1200.828,927.536,1198.927,912.862,1200.828,909.873Z" transform="translate(-1133.975 -867.958)"/><path class="ao" d="M1170.183,1018.754c-.027.406-.089.727-.189.775a8.343,8.343,0,0,1-3.94-.271c-1.358-.544-3.669-2.718-3.8-3.533s-.136-6.386-.136-6.386c-.136-.407-.816-.407-.816-.407a24.453,24.453,0,0,1-.815-4.484,6.907,6.907,0,0,1,1.321-.462,8.243,8.243,0,0,1,3.37-.1c1.566.117,3.989,6.15,3.989,6.15a20.748,20.748,0,0,0-1.342,4.739c0,.271,1.9,1.631,2.173,2.038A4.757,4.757,0,0,1,1170.183,1018.754Z" transform="translate(-1127.053 -884.408)"/><path class="ap" d="M1194.889,937.561s-.815,22.147-3.8,30.571c-2.852,8.035-12.255,13.352-19.132,28.213q-.5,1.076-.977,2.221s-3.94-1.222-4.891-6.929c0,0,.327-.823.85-2.091a116.135,116.135,0,0,1,5.264-11.361c2.445-4.211,7.609-9.238,8.288-11.549s-.816-16.712,1.9-22.146a26.694,26.694,0,0,1,6.055-8.174S1192.579,935.251,1194.889,937.561Z" transform="translate(-1128.035 -872.548)"/><path class="n" d="M1170.183,1018.8c-.027.406-.089.727-.189.775a8.344,8.344,0,0,1-3.94-.271c-1.358-.544-3.669-2.718-3.8-3.533s-.136-6.386-.136-6.386c-.136-.407-.816-.407-.816-.407a24.455,24.455,0,0,1-.815-4.484,6.907,6.907,0,0,1,1.321-.462c.2,1.226.53,2.992.989,4.674.816,2.989-.407,6.929,1.223,8.152A11.441,11.441,0,0,0,1170.183,1018.8Z" transform="translate(-1127.053 -884.456)"/><path class="aq" d="M1208.123,1022.824a1.96,1.96,0,0,1-.454.985c-.952,1.087-9.375.816-10.6.408s-2.309-1.087-2.581-1.087-.272.407-.272.407a22.273,22.273,0,0,1-3.26-.543c-.02-.485-.016-.943.007-1.372a11.258,11.258,0,0,1,.926-4.247c1.885-1.679,6.723-.268,6.723-.268,1.948,1.448,7.018,3.17,8.241,3.442A1.967,1.967,0,0,1,1208.123,1022.824Z" transform="translate(-1132.391 -886.65)"/><path class="ar" d="M1202.284,1020.2a.2.2,0,0,1-.134-.339,7.672,7.672,0,0,1,1.258-.953.2.2,0,0,1,.187.344,7.348,7.348,0,0,0-1.178.9A.193.193,0,0,1,1202.284,1020.2Z" transform="translate(-1134.343 -887.058)"/><path class="ar" d="M1203.437,1020.548a.2.2,0,0,1-.152-.319,2.847,2.847,0,0,1,1.226-.909.2.2,0,0,1,.082.384,2.494,2.494,0,0,0-1,.774A.2.2,0,0,1,1203.437,1020.548Z" transform="translate(-1134.545 -887.134)"/><path class="n" d="M1208.123,1023.9a1.959,1.959,0,0,1-.454.985c-.952,1.087-9.375.816-10.6.408s-2.309-1.087-2.581-1.087-.272.407-.272.407a22.273,22.273,0,0,1-3.26-.543c-.02-.485-.016-.943.007-1.372a12.888,12.888,0,0,1,3.933.421,14.58,14.58,0,0,0,7.473,1.631A24.949,24.949,0,0,0,1208.123,1023.9Z" transform="translate(-1132.391 -887.727)"/><path class="as" d="M1196.931,1002.612a11.809,11.809,0,0,1-8.831,0,22.77,22.77,0,0,1-.245-2.469c-.508-7.807-.76-29.353-1.114-31.362-.407-2.31-3.94-18.479-6.793-23.1a14.45,14.45,0,0,1-2.126-9.109c7.521-3.266,15.965,0,15.965,0a86.2,86.2,0,0,0,1.514,17.941c1.359,6.114.952,14.4.272,19.021-.545,3.7.657,20.162,1.156,26.539C1196.851,1001.651,1196.931,1002.612,1196.931,1002.612Z" transform="translate(-1130.077 -872.382)"/><path class="ar" d="M1169.461,1015.608a.2.2,0,0,1-.061-.01,1.8,1.8,0,0,0-.838,0,.2.2,0,0,1-.1-.38,2.2,2.2,0,0,1,1.057,0,.2.2,0,0,1-.062.382Z" transform="translate(-1128.426 -886.405)"/><path class="ar" d="M1169.313,1016.432a.194.194,0,0,1-.06-.01,1.161,1.161,0,0,0-.672,0,.2.2,0,0,1-.133-.369,1.547,1.547,0,0,1,.924,0,.2.2,0,0,1-.059.383Z" transform="translate(-1128.426 -886.549)"/><path class="at" d="M1184.674,872.66s-.407,1.222,1.223,2.445,5.979,3.8,7.2,3.125,3.261-7.473,2.31-12.364a10.543,10.543,0,0,0-4.823-.883c-3.261,0-4.145,5.639-5.911,4.28s-2.445-.407-2.445.816S1183.587,873.068,1184.674,872.66Z" transform="translate(-1130.864 -860.092)"/><path class="r" d="M1181.86,883.021a57.714,57.714,0,0,1-6.385,2.854s2.779,19.833,2.989,23.5c.271,4.756-1.9,13.691-1.645,18.662,5.291-3.046,20.443,3.008,20.844.161,0,0,.481-21.792.481-27.1a37.8,37.8,0,0,0-1.416-11.355,6.124,6.124,0,0,0-2.209-3.523c-1.576-1.141-3.767-2.64-4.71-3.138,0,0,.68,2.038-1.223,2.445A7.271,7.271,0,0,1,1181.86,883.021Z" transform="translate(-1129.68 -863.253)"/><path class="au" d="M1180.272,930.193h-.024a.294.294,0,0,1-.27-.316c.1-1.257.382-2.988.708-4.992a87.173,87.173,0,0,0,1.33-11.432,99.671,99.671,0,0,0-.948-13.4.294.294,0,0,1,.582-.083,100.246,100.246,0,0,1,.953,13.5,87.7,87.7,0,0,1-1.337,11.511c-.323,1.992-.6,3.713-.7,4.945A.294.294,0,0,1,1180.272,930.193Z" transform="translate(-1130.469 -866.178)"/><g transform="translate(0 38.464)"><path class="av" d="M2.249,0H83.909a2.248,2.248,0,0,1,2.248,2.248V26.011a2.249,2.249,0,0,1-2.249,2.249H2.249A2.249,2.249,0,0,1,0,26.011V2.249A2.249,2.249,0,0,1,2.249,0Z" transform="translate(4.253 0) rotate(8.656)"/><path class="aw" d="M1148.808,925.239a9.3,9.3,0,1,1-7.792-10.59A9.3,9.3,0,0,1,1148.808,925.239Z" transform="translate(-1121.768 -907.24)"/><g transform="translate(30.738 13.6)"><rect class="aw" width="20.249" height="1.761" rx="0.88" transform="translate(1.51 0) rotate(8.656)"/><rect class="aw" width="10.944" height="1.761" rx="0.88" transform="matrix(0.989, 0.15, -0.15, 0.989, 22.974, 3.268)"/><rect class="aw" width="14.735" height="1.761" rx="0.88" transform="translate(35.24 5.135) rotate(8.656)"/><rect class="aw" width="20.249" height="1.761" rx="0.88" transform="matrix(-0.989, -0.151, 0.151, -0.989, 48.297, 17.27)"/><rect class="aw" width="10.944" height="1.761" rx="0.88" transform="matrix(-0.989, -0.15, 0.15, -0.989, 26.833, 14.002)"/><rect class="aw" width="14.735" height="1.761" rx="0.88" transform="translate(14.567 12.135) rotate(-171.344)"/><rect class="aw" width="14.735" height="1.761" rx="0.88" transform="translate(0.887 4.088) rotate(8.656)"/><rect class="aw" width="22.317" height="1.761" rx="0.88" transform="translate(16.901 6.526) rotate(8.656)"/><rect class="aw" width="8.532" height="1.761" rx="0.88" transform="translate(40.75 10.157) rotate(8.656)"/></g></g><path class="ax" d="M1169.125,943.321a7.851,7.851,0,0,0,1.07,2.64c.68.816.543,4.892.408,5.571s-.952,1.223-1.359.816c0,0-.951,1.222-1.766.135,0,0-.951.68-1.359-1.495,0,0-1.63-1.086-1.358-2.309s.815-2.174.951-2.854a25.83,25.83,0,0,0,.17-2.741A4.8,4.8,0,0,1,1169.125,943.321Z" transform="translate(-1127.798 -873.748)"/><path class="x" d="M1170.176,953.643a.127.127,0,0,1-.127-.127v-3.8a.127.127,0,0,1,.255,0v3.8A.128.128,0,0,1,1170.176,953.643Z" transform="translate(-1128.729 -874.916)"/><path class="x" d="M1168.035,953.808a.128.128,0,0,1-.128-.128v-3.8a.127.127,0,0,1,.255,0v3.8A.127.127,0,0,1,1168.035,953.808Z" transform="translate(-1128.354 -874.945)"/><path class="x" d="M1166.387,952.284a.127.127,0,0,1-.127-.128v-2.445a.127.127,0,0,1,.255,0v2.445A.127.127,0,0,1,1166.387,952.284Z" transform="translate(-1128.065 -874.916)"/><path class="r" d="M1173.512,886.481s-1.495.544-2.582,4.62-1.9,10.734-2.989,14.13-3.532,17.935-3.669,27.853l5.571.407s1.766-11.549,2.718-16.576,5.214-15.761,6.573-18.614C1179.135,898.3,1180.645,886.549,1173.512,886.481Z" transform="translate(-1127.717 -863.859)"/><path class="n" d="M1186.077,869.732h-.011a1.3,1.3,0,0,1-.99-.584.2.2,0,1,1,.305-.244.943.943,0,0,0,.689.436h.007c.544,0,1.175-.751,1.905-1.621,1.207-1.439,2.709-3.231,4.957-3.057a.2.2,0,1,1-.03.39c-2.044-.158-3.477,1.548-4.627,2.919C1187.457,868.954,1186.8,869.732,1186.077,869.732Z" transform="translate(-1131.355 -860.034)"/><path class="ay" d="M1188.793,886.833a8.39,8.39,0,0,1-6.466-3.069.294.294,0,0,1,.471-.351,7.946,7.946,0,0,0,6.288,2.828c1.132-.04,1.857-.323,2.158-.841a1.994,1.994,0,0,0-.093-1.674.293.293,0,0,1,.519-.275,2.549,2.549,0,0,1,.084,2.24,2.955,2.955,0,0,1-2.647,1.136C1189,886.832,1188.9,886.833,1188.793,886.833Z" transform="translate(-1130.871 -863.301)"/><path class="az" d="M1199.08,1016.41a11.809,11.809,0,0,1-8.831,0,22.838,22.838,0,0,1-.245-2.469,16.543,16.543,0,0,0,8.874-.068C1199,1015.449,1199.08,1016.41,1199.08,1016.41Z" transform="translate(-1132.226 -886.18)"/><path class="ba" d="M1171.953,1007.7q-.5,1.076-.977,2.221s-3.94-1.222-4.891-6.929c0,0,.327-.823.85-2.091C1167.639,1002.536,1169.685,1006.6,1171.953,1007.7Z" transform="translate(-1128.035 -883.908)"/><g transform="translate(37.428 22.514)"><path class="bb" d="M1175.7,887.3a.15.15,0,0,1-.072-.019.147.147,0,0,1-.055-.2,4.466,4.466,0,0,1,.445-.678.147.147,0,1,1,.222.192,4.493,4.493,0,0,0-.412.63A.146.146,0,0,1,1175.7,887.3Z" transform="translate(-1167.121 -886.35)"/><path class="bb" d="M1165.673,931.072h-.011a.147.147,0,0,1-.136-.158q.058-.8.118-1.577a.147.147,0,0,1,.293.023q-.059.771-.118,1.575A.145.145,0,0,1,1165.673,931.072Zm.246-3.152h-.013a.146.146,0,0,1-.134-.159q.068-.807.138-1.575a.147.147,0,1,1,.292.026q-.069.768-.137,1.574A.147.147,0,0,1,1165.919,927.92Zm.286-3.148h-.015a.146.146,0,0,1-.131-.161q.079-.808.162-1.574a.145.145,0,0,1,.161-.13.148.148,0,0,1,.13.162q-.082.765-.162,1.571A.147.147,0,0,1,1166.2,924.772Zm.338-3.143-.018,0a.146.146,0,0,1-.129-.163q.094-.811.191-1.571a.147.147,0,0,1,.291.037q-.1.758-.191,1.568A.146.146,0,0,1,1166.542,921.628Zm.4-3.137-.021,0a.146.146,0,0,1-.125-.166q.114-.814.23-1.566a.147.147,0,0,1,.29.045q-.116.75-.229,1.562A.147.147,0,0,1,1166.943,918.492Zm.484-3.124-.025,0a.147.147,0,0,1-.12-.17c.092-.535.187-1.059.283-1.558a.147.147,0,0,1,.289.055c-.1.5-.191,1.019-.283,1.552A.146.146,0,0,1,1167.427,915.367Zm.6-3.1a.144.144,0,0,1-.031,0,.147.147,0,0,1-.112-.175l.064-.286q.142-.635.29-1.256a.146.146,0,1,1,.285.067q-.146.622-.289,1.254l-.063.285A.147.147,0,0,1,1168.029,912.265Zm.719-3.077a.161.161,0,0,1-.035,0,.147.147,0,0,1-.108-.177l.372-1.537a.147.147,0,0,1,.285.069l-.372,1.536A.148.148,0,0,1,1168.748,909.187Zm.741-3.073a.117.117,0,0,1-.034,0,.146.146,0,0,1-.109-.177q.179-.754.359-1.537a.147.147,0,1,1,.286.065c-.12.524-.24,1.036-.359,1.54A.146.146,0,0,1,1169.489,906.114Zm.7-3.081a.138.138,0,0,1-.031,0,.147.147,0,0,1-.112-.175q.164-.751.325-1.544a.147.147,0,1,1,.288.059c-.108.531-.217,1.046-.326,1.548A.147.147,0,0,1,1170.193,903.033Zm.631-3.1-.028,0a.147.147,0,0,1-.117-.172q.144-.753.285-1.553a.147.147,0,0,1,.289.051q-.141.8-.285,1.556A.146.146,0,0,1,1170.824,899.936Zm.548-3.113-.024,0a.146.146,0,0,1-.121-.168q.06-.365.119-.74.066-.423.136-.822a.147.147,0,0,1,.289.051q-.069.4-.135.816-.058.376-.118.742A.147.147,0,0,1,1171.371,896.823Zm.553-3.113a.125.125,0,0,1-.031,0,.146.146,0,0,1-.113-.174c.113-.533.235-1.053.363-1.546a.147.147,0,0,1,.285.074c-.127.488-.248,1-.36,1.532A.147.147,0,0,1,1171.925,893.71Zm.8-3.057a.148.148,0,0,1-.14-.191c.172-.534.353-1.038.541-1.5a.147.147,0,0,1,.272.111c-.185.453-.364.949-.533,1.476A.146.146,0,0,1,1172.725,890.653Z" transform="translate(-1165.365 -886.792)"/><path class="bb" d="M1165.478,942.687h-.01a.146.146,0,0,1-.137-.156q.025-.395.051-.782a.147.147,0,0,1,.293.019c-.017.258-.034.519-.051.781A.146.146,0,0,1,1165.478,942.687Z" transform="translate(-1165.331 -896.033)"/></g></g><g transform="translate(163.268 62.231)"><path class="bc" d="M1336.764,895.452l-3.037,4.431,3.223.577,1.8-5.008Z" transform="translate(-1329.59 -870.214)"/><path class="bd" d="M1399.069,893.835l2.813-3.944s3.185-1.879,3.185,1.274l-1.211,6.646Z" transform="translate(-1341.04 -869.143)"/><path class="be" d="M1341.008,1018.639v-4.315s2.968-.526,4.73.5l-.279,4.369Z" transform="translate(-1330.866 -891.019)"/><path class="bf" d="M1345.468,1026.766a2.513,2.513,0,0,1-2.225.927,5.639,5.639,0,0,1-4.451-1.484c-1.855-1.484-3.339-2.411-2.968-3.338.037-.093.085-.2.146-.327.527-1.1,2.186-3.2,3.854-3.2v-1.113a26.094,26.094,0,0,0,5.273.29l.325,7.191Z" transform="translate(-1329.948 -891.728)"/><path class="bg" d="M1339.863,1023.743h-.011a.1.1,0,0,1-.089-.11c.184-1.838.658-4.069.663-4.091a.1.1,0,1,1,.2.041c0,.022-.477,2.242-.66,4.07A.1.1,0,0,1,1339.863,1023.743Z" transform="translate(-1330.648 -891.943)"/><path class="bh" d="M1345.468,1027.682a2.513,2.513,0,0,1-2.225.927,5.64,5.64,0,0,1-4.451-1.484c-1.855-1.484-3.339-2.411-2.968-3.338.037-.093.085-.2.146-.327a7.307,7.307,0,0,0,3.749,3.108,7.812,7.812,0,0,0,5.7.063Z" transform="translate(-1329.948 -892.644)"/><path class="bi" d="M1336.609,892.966s-1.669-3.391-2.412-4.875-1.855-4.028-1.113-4.028,2.226,3.895,2.411,3.895-1.669-5.564-.927-5.75,2.041,4.823,2.226,4.823-1.114-5.378-.186-5.75,1.854,5.564,2.04,5.564-.556-5.378.185-5.564,1.113,3.523,1.3,5.378,1.113,2.6,1.484,2.412,2.412-2.04,3.339-1.669-.927,2.225-.927,2.225S1340.5,894.821,1336.609,892.966Z" transform="translate(-1329.435 -867.729)"/><path class="bj" d="M1404.931,889.019s2.31-2.451,3.5-3.611,3.284-3.537,2.582-3.779-3.057,2.635-3.233,2.575,3.077-4.395,2.437-4.813-3.5,3.891-3.679,3.83,2.809-4.72,2.054-5.373-3.571,4.653-3.746,4.592,2.284-4.9,1.643-5.32-2.2,2.967-2.985,4.659-1.9,2.091-2.19,1.794-1.613-2.716-2.61-2.668.149,2.407.149,2.407S1400.643,889.5,1404.931,889.019Z" transform="translate(-1340.903 -866.996)"/><path class="bk" d="M1382.572,1018.642l.075,4.8-4.782.186-.564-4.71S1379.2,1017.739,1382.572,1018.642Z" transform="translate(-1337.225 -891.74)"/><path class="bl" d="M1383.67,1033.158c-1.3.557-.922.557-4.267.557-2.19,0-2.461-.909-2.378-2.428.03-.539.1-1.157.153-1.838.186-2.6.186-6.121.186-6.121a39.349,39.349,0,0,0,5.684-.371l.331,4.08a6.632,6.632,0,0,1,2.888,3.153C1387.007,1032.231,1385.286,1032.464,1383.67,1033.158Z" transform="translate(-1337.175 -892.555)"/><path class="bh" d="M1383.67,1034.694c-1.3.557-.922.557-4.267.557-2.19,0-2.461-.909-2.378-2.428a14,14,0,0,0,3.12.2c2.411,0,5.194-.185,6.121-1.3C1387.007,1033.767,1385.286,1034,1383.67,1034.694Z" transform="translate(-1337.175 -894.092)"/><path class="bg" d="M1385.185,1031.137a.1.1,0,0,1-.1-.1,10.041,10.041,0,0,0-.47-3.119.1.1,0,0,1,.188-.069,10.236,10.236,0,0,1,.483,3.187A.1.1,0,0,1,1385.185,1031.137Z" transform="translate(-1338.506 -893.401)"/><path class="bm" d="M1372.826,947.141s3.638,5.282,5.678,19.007.742,35.24,1.113,39.691c0,0-4.637.186-6.863.371,0,0-2.411-20.773-3.152-26.151s-5.379-18.919-6.677-19.846a5.746,5.746,0,0,0-3.339-.742s-3.153-9.458-2.411-14.1Z" transform="translate(-1333.679 -878.962)"/><path class="bn" d="M1373.573,993.082a.2.2,0,0,1-.073-.387,13.662,13.662,0,0,1,8.1-.006.2.2,0,1,1-.108.385,13.478,13.478,0,0,0-7.849-.006A.2.2,0,0,1,1373.573,993.082Z" transform="translate(-1336.537 -887.149)"/><path class="bo" d="M1344.578,947.9s-3.237,4.888-4.35,20.1,0,34.127,0,34.127a19.483,19.483,0,0,0,6.492.557,159.028,159.028,0,0,0,2.225-16.137c.557-7.6,5.008-24.417,5.379-25.715s2.225-1.364,2.225-1.364l-2.439-14.094S1350.226,944.866,1344.578,947.9Z" transform="translate(-1330.643 -878.955)"/><path class="bn" d="M1349.057,990.987a.208.208,0,0,1-.073-.014,13.518,13.518,0,0,0-7.811-.776.2.2,0,1,1-.107-.386,13.657,13.657,0,0,1,8.063.789.2.2,0,0,1-.073.387Z" transform="translate(-1330.851 -886.699)"/><path class="bp" d="M1366.7,882.735s-1.6,3.054-.145,5.671c0,0-7.675,1.451-11.384-.4,0,0,2.488-1.372,1.932-5.267C1357.107,882.735,1360.888,872.847,1366.7,882.735Z" transform="translate(-1333.349 -867.216)"/><path class="n" d="M1355.1,871.715c-.1-5.535,6.033-6.149,8.266-6.172,2.747-.028,7.379,1.3,5.525,5.565,0,0-.018,11.135-8.594,10.839C1356.075,881.8,1355.2,877.44,1355.1,871.715Z" transform="translate(-1333.335 -864.974)"/><path class="i" d="M1341.821,889.83l-7.419,8.717s-1.3-.556-3.339,2.04-3.71,5.75-.742,9.088,7.049-1.855,8.718-3.524,2.868-2.92,2.868-2.92S1344.417,890.572,1341.821,889.83Z" transform="translate(-1328.712 -869.229)"/><path class="bq" d="M1371.153,872.29s-1.3,6.862-1.484,6.121-1.439-1.825-1.63.742a3.559,3.559,0,0,0,.918,2.523,5.992,5.992,0,0,0-.72,3.848C1369.3,886.015,1372.266,878.967,1371.153,872.29Z" transform="translate(-1335.601 -866.156)"/><path class="i" d="M1380.332,890.954l12.983,5.935s1.113-2.968,3.153-2.968,3.9,2.226,3.9,4.637-1.855,5.75-4.823,6.306-14.961-4.276-15.641-1.86C1379.9,903,1377.921,893.551,1380.332,890.954Z" transform="translate(-1337.547 -869.426)"/><path class="br" d="M1400.2,900.27a.1.1,0,0,1-.071-.03,9.2,9.2,0,0,0-3.847-2.013.1.1,0,0,1,.045-.2,9.233,9.233,0,0,1,3.943,2.067.1.1,0,0,1,0,.142A.1.1,0,0,1,1400.2,900.27Z" transform="translate(-1340.538 -870.666)"/><path class="br" d="M1330.867,905.857a.094.094,0,0,1-.046-.012.1.1,0,0,1-.042-.134c2.212-4.24,3.859-5.37,3.928-5.416a.1.1,0,0,1,.111.167c-.016.012-1.678,1.157-3.862,5.342A.1.1,0,0,1,1330.867,905.857Z" transform="translate(-1329.072 -871.06)"/><path class="i" d="M1344.4,889.83a34.071,34.071,0,0,0,8.717.186l11.384.4s5.679,1.08,9.574.337c0,0,1.3,2.968-1.484,18.733s-3.339,20.031-1.484,27.45c0,0-3.709,3.339-16.136,3.895a31.909,31.909,0,0,1-.186-5.193,34.079,34.079,0,0,0-.927,5.193s-7.42,0-9.83-4.08c0,0,3.71-9.46,2.968-17.62a165.528,165.528,0,0,0-2.968-18.177C1343.476,897.991,1342.92,891.5,1344.4,889.83Z" transform="translate(-1331.294 -869.229)"/><path class="bs" d="M1355.175,889.659s-.186-2.041,5.564-1.855,5.82,2.259,5.82,2.259S1360.739,892.44,1355.175,889.659Z" transform="translate(-1333.348 -868.872)"/><path class="n" d="M1357.849,881.08a.2.2,0,0,1-.109-.032c-3.722-2.441-3.826-9.562-3.025-11.378a.8.8,0,0,1,.416-.479,3.845,3.845,0,0,1,1.919-2.793c2.8-1.808,7.855-1.923,10.645-.895a2.981,2.981,0,0,1,2.016,1.874,4.689,4.689,0,0,1-.87,3.562c.512,2.441-.188,5.829-.9,6.445a.4.4,0,0,1-.422.1c-.251-.1-.4-.453-.49-1.155a.2.2,0,0,1,.4-.05c.079.633.2.792.23.825.426-.186,1.37-3.513.777-6.16l-.02-.089.054-.073c.012-.018,1.307-1.8.862-3.286a2.611,2.611,0,0,0-1.772-1.613c-2.7-.993-7.668-.838-10.289.856a3.423,3.423,0,0,0-1.753,2.656l-.017.239-.233-.059c-.041.007-.224.181-.375.906-.54,2.6.024,8.239,3.069,10.236a.2.2,0,0,1-.11.367Z" transform="translate(-1333.198 -864.853)"/></g></g></g></g><ellipse class="i" cx="6.379" cy="6.379" rx="6.379" ry="6.379" transform="matrix(0.23, -0.973, 0.973, 0.23, 358.249, 404.99)"/><ellipse class="i" cx="5.915" cy="5.915" rx="5.915" ry="5.915" transform="translate(5.203 476.908)"/><circle class="bt" cx="8.944" cy="8.944" r="8.944" transform="translate(378.549 577.053) rotate(-45)"/><circle class="bt" cx="6.379" cy="6.379" r="6.379" transform="translate(57.546 577.053) rotate(-45)"/><ellipse class="i" cx="8.365" cy="8.365" rx="8.365" ry="8.365" transform="translate(107.979 399.556)"/></g></svg>