<svg xmlns="http://www.w3.org/2000/svg" width="314.271" height="188.643" viewBox="0 0 314.271 188.643"><defs><style>.a{fill:#ecf3fe;}.b{fill:#b7cae5;}.c{fill:#e6e6e6;}.d{fill:#e0e0e0;}.e,.s{fill:#fafafa;}.aa,.f{fill:#f5f5f5;}.g{fill:#f0f0f0;}.h,.z{fill:#fff;}.i{fill:#e58a7b;}.j,.k,.u{fill:#39b851;}.k,.l{opacity:0.2;}.m{fill:#e8ecf1;}.aa,.m{mix-blend-mode:multiply;isolation:isolate;}.n{fill:#263238;}.o{fill:#cf6f64;}.p{fill:#1a3166;}.q,.t{fill:#407bff;}.r{fill:#df5753;}.s{opacity:0.56;}.t{opacity:0.07;}.u{opacity:0.8;}.v{fill:#f4b545;}.w{opacity:0.6;}.x,.z{opacity:0.4;}.y{fill:#5fc973;}.ab,.ac{fill:#555;}.ac{opacity:0.3;}.ad{fill:#97d9ef;}.ae{fill:#fbad1d;}</style></defs><g transform="translate(-62.203 -260.498)"><g transform="translate(96.176 260.498)"><g transform="translate(0 0)"><path class="a" d="M580.128,732.354a98.228,98.228,0,1,0-94.044,0Z" transform="translate(-434.878 -547.867)"/><path class="a" d="M1033.68,847.139h78.584a86.767,86.767,0,1,0-78.584,0Z" transform="translate(-903.212 -662.652)"/><ellipse class="b" cx="110.212" cy="6.779" rx="110.212" ry="6.779" transform="translate(22.946 175.084)"/><g transform="translate(27.438 20.292)"><rect class="c" width="224.316" height="0.112" transform="translate(0 146.903)"/><rect class="c" width="14.86" height="0.112" transform="translate(41.142 153.69)"/><rect class="c" width="8.611" height="0.112" transform="translate(27.828 153.69)"/><rect class="c" width="8.61" height="0.112" transform="translate(85.851 155.341)"/><rect class="c" width="19.378" height="0.112" transform="translate(119.975 157.846)"/><rect class="c" width="2.841" height="0.112" transform="translate(113.139 157.846)"/><rect class="c" width="42.026" height="0.112" transform="translate(161.358 155.341)"/><g transform="translate(17.141)"><path class="c" d="M127.4,181.847H40.768a2.564,2.564,0,0,1-2.561-2.561V57.513a2.564,2.564,0,0,1,2.561-2.56H127.4a2.563,2.563,0,0,1,2.56,2.56V179.287A2.564,2.564,0,0,1,127.4,181.847ZM40.768,55.065a2.451,2.451,0,0,0-2.449,2.448V179.287a2.451,2.451,0,0,0,2.449,2.449H127.4a2.451,2.451,0,0,0,2.448-2.449V57.513a2.451,2.451,0,0,0-2.448-2.448Z" transform="translate(-38.207 -54.953)"/><path class="c" d="M343.7,181.847h-86.63a2.564,2.564,0,0,1-2.56-2.561V57.513a2.563,2.563,0,0,1,2.56-2.56H343.7a2.564,2.564,0,0,1,2.561,2.56V179.287A2.564,2.564,0,0,1,343.7,181.847ZM257.065,55.065a2.451,2.451,0,0,0-2.448,2.448V179.287a2.451,2.451,0,0,0,2.448,2.449H343.7a2.452,2.452,0,0,0,2.449-2.449V57.513a2.451,2.451,0,0,0-2.449-2.448Z" transform="translate(-157.467 -54.953)"/></g><g transform="translate(66.871 108.58)"><rect class="d" width="9.865" height="39.136" transform="translate(43.228)"/><path class="e" d="M260.808,377.661h1.874v-5.33h-3.838Z" transform="translate(-209.589 -338.525)"/><rect class="d" width="9.865" height="39.136"/><rect class="e" width="44.864" height="35.866" transform="translate(8.23)"/><path class="d" d="M212.422,300.694v9.489h-41.61v-9.489h41.61m.173-.173H170.639v9.835H212.6v-9.835Z" transform="translate(-160.956 -298.931)"/><path class="e" d="M169.273,377.661H167.4v-5.33h3.838Z" transform="translate(-159.169 -338.525)"/><path class="c" d="M215.187,310.263a.992.992,0,1,0,.992-.992A.992.992,0,0,0,215.187,310.263Z" transform="translate(-185.518 -303.756)"/><path class="d" d="M212.422,326.161v9.489h-41.61v-9.489h41.61m.173-.173H170.639v9.835H212.6v-9.835Z" transform="translate(-160.956 -312.973)"/><path class="c" d="M215.187,335.73a.992.992,0,1,0,.992-.992A.992.992,0,0,0,215.187,335.73Z" transform="translate(-185.518 -317.797)"/><path class="d" d="M212.422,351.628v9.489h-41.61v-9.489h41.61m.173-.173H170.639v9.836H212.6v-9.836Z" transform="translate(-160.956 -327.014)"/><path class="c" d="M215.187,361.2a.992.992,0,1,0,.992-.992A.992.992,0,0,0,215.187,361.2Z" transform="translate(-185.518 -331.839)"/></g><g transform="translate(23.974 85.852)"><rect class="d" width="9.865" height="61.865" transform="translate(36.87)"/><path class="e" d="M151.019,377.661h1.874v-5.33h-3.838Z" transform="translate(-106.158 -315.797)"/><rect class="d" width="9.865" height="61.865"/><rect class="e" width="38.505" height="58.594" transform="translate(8.23)"/><path class="d" d="M110.417,249.763v13.266H75.227V249.763h35.189m.2-.2h-35.6v13.675h35.6V249.559Z" transform="translate(-65.34 -248.104)"/><path class="d" d="M133.064,282.927v35.189H116.3V282.927h16.761m.2-.2H116.1v35.6h17.17v-35.6Z" transform="translate(-87.987 -266.39)"/><path class="d" d="M91.988,282.927v35.189H75.227V282.927H91.988m.2-.2H75.023v35.6h17.17v-35.6Z" transform="translate(-65.34 -266.39)"/><path class="e" d="M73.656,377.661H71.783v-5.33h3.838Z" transform="translate(-63.553 -315.797)"/><path class="c" d="M112.485,263.58a.992.992,0,1,0,.992-.992A.992.992,0,0,0,112.485,263.58Z" transform="translate(-85.995 -255.288)"/><path class="c" d="M120.4,319.306a.992.992,0,1,0,.992-.992A.992.992,0,0,0,120.4,319.306Z" transform="translate(-90.361 -286.013)"/><path class="c" d="M104.566,319.306a.992.992,0,1,0,.992-.992A.992.992,0,0,0,104.566,319.306Z" transform="translate(-81.629 -286.013)"/></g><path class="d" d="M96.525,207.869H92.363a43.953,43.953,0,0,1,.723,6.11c0,2.264-3.166,11.138,1.358,11.138s1.358-8.874,1.358-11.138A43.952,43.952,0,0,1,96.525,207.869Z" transform="translate(-50.731 -139.266)"/><path class="f" d="M66.8,228.148v2.7A5.463,5.463,0,0,0,72.25,236.3h2.7a5.463,5.463,0,0,0,5.446-5.447v-2.7Z" transform="translate(-36.833 -150.447)"/><path class="d" d="M195.667,284.265c0,3.136,3.513,5.7,7.807,5.7h3.876c4.294,0,7.808-2.567,7.808-5.7Z" transform="translate(-107.884 -181.388)"/><g transform="translate(163.296 43.178)"><path class="d" d="M391.183,206.3a41.061,41.061,0,0,0-8.568,10.376,26.785,26.785,0,0,0-3.7,11.3c.011-5.158.027-10.7.045-15.933.6-1.346,1.961-4.449,2.939-6.9,3.265-8.179,4.48-10.19,7.417-17.245,3.916-9.41,7.929-20.575,6.78-19.683-2.341,1.818-11.315,18.62-12.284,21.025a67.321,67.321,0,0,0-4.842,20.123c.018-4.913.038-9.425.056-12.906.06-11.354.253-15.019.347-16.149.363-.574.792-1.244,1.042-1.6,2.108-3.048,2.921-5.644,4.906-10.189,2.814-6.441,5.238-17.877,4.529-17.3-2.95,2.4-5.277,7.564-8.335,14.144s-2.183,10.363-2.79,15.982c-.128,1.1-.225,5.264-.3,11.031-.793-6.144-2.281-10.193-5-13.872a39.722,39.722,0,0,0-8.938-9.179c-2.37-1.6,4.092,9.52,7.182,14.372,2.752,4.321,5.287,8.134,6.717,11.889-.076,7.816-.111,17.713-.111,26.926a54.084,54.084,0,0,0-3.41-12.2c-1.856-4.2-4.71-10.643-6.983-12.829-.546-.525,2.376,12.005,4.251,15.337s3.252,6.472,4.432,8.361c.275.441,1.188,2.14,1.71,3.117.005,11.247.062,21.172.16,24.55h.486c-.033-.872-.038-6.593-.028-14.166,1.17-4.112,3.846-8.8,6.054-13.084C387.369,216.921,393.534,204.384,391.183,206.3Z" transform="translate(-363.987 -151.196)"/><g transform="translate(5.043 87.71)"><path class="g" d="M393.854,367.272H379.792l-1.061-13.784h16.184Z" transform="translate(-377.159 -350.444)"/><path class="f" d="M394.032,351.353h-18.28l-.524-4.651h19.328Z" transform="translate(-375.228 -346.702)"/></g></g><g transform="translate(30.6 9.217)"><rect class="d" width="25.147" height="27.613"/><rect class="f" width="25.975" height="27.613" transform="translate(1.896)"/><rect class="h" width="23.261" height="21.623" transform="translate(25.694 2.176) rotate(90)"/><rect class="f" width="11.985" height="11.141" transform="translate(20.453 7.814) rotate(90)"/></g><g transform="translate(160.602 12.436)"><rect class="d" width="23.36" height="25.651"/><rect class="f" width="24.13" height="25.651" transform="translate(1.761)"/><rect class="h" width="21.608" height="20.087" transform="translate(23.869 2.021) rotate(90)"/><circle class="f" cx="6.267" cy="6.267" r="6.267" transform="translate(7.559 6.559)"/></g><g transform="translate(63.217 25.681)"><rect class="d" width="18.654" height="20.484"/><rect class="f" width="19.269" height="20.484" transform="translate(1.406)"/><rect class="h" width="17.255" height="16.04" transform="translate(19.061 1.614) rotate(90)"/><path class="f" d="M160.127,125.3l-4.387,7.6h8.773Z" transform="translate(-149.087 -119.423)"/></g></g><g transform="translate(156.273 39.408)"><g transform="translate(0 0)"><path class="i" d="M321.239,161.214l-4.45-1.8s-5.873,10.71-7.554,11.25c-2.289.736-7.022,2.781-9.835,3.165a5.031,5.031,0,0,0-.945,2.35c3.774,1.258,12.065-.412,13.839-1.73C316.339,171.44,321.239,161.214,321.239,161.214Z" transform="translate(-293.39 -131.663)"/><g transform="translate(19.646 24.638)"><path class="j" d="M340.536,154.962c.828,3.068-3.667,9.232-3.667,9.232l-5.9-3.312s1.1-2.533,2.449-5.114C335.589,151.6,339.591,151.461,340.536,154.962Z" transform="translate(-330.964 -152.479)"/><path class="k" d="M340.536,154.962c.828,3.068-3.667,9.232-3.667,9.232l-5.9-3.312s1.1-2.533,2.449-5.114C335.589,151.6,339.591,151.461,340.536,154.962Z" transform="translate(-330.964 -152.479)"/></g><path class="l" d="M336.212,167l2.319,1.3.406-7.118C337.591,162.217,336.636,165.338,336.212,167Z" transform="translate(-314.211 -132.639)"/><g transform="translate(22.595 23.76)"><path class="j" d="M340.284,151.572s-4.585,10.2-1.912,29.2h18.066c.287-2.773-.662-16.3,2.779-29.37a46.055,46.055,0,0,0-6-.764,66.411,66.411,0,0,0-7.68,0A35.044,35.044,0,0,0,340.284,151.572Z" transform="translate(-337.536 -150.522)"/><path class="k" d="M340.284,151.572s-4.585,10.2-1.912,29.2h18.066c.287-2.773-.662-16.3,2.779-29.37a46.055,46.055,0,0,0-6-.764,66.411,66.411,0,0,0-7.68,0A35.044,35.044,0,0,0,340.284,151.572Z" transform="translate(-337.536 -150.522)"/></g><path class="m" d="M334.323,416.07c-.028.482,6.822.872,15.3.872s15.373-.39,15.4-.872-6.821-.873-15.3-.873S334.351,415.588,334.323,416.07Z" transform="translate(-313.169 -272.695)"/><rect class="i" width="3.445" height="7.669" transform="translate(30.431 132.504) rotate(-21.073)"/><path class="i" d="M387.377,399.841H384l-1.239-7.822h3.378Z" transform="translate(-339.876 -259.915)"/><path class="n" d="M378.365,408.582h3.795a.274.274,0,0,1,.274.231l.491,3a.53.53,0,0,1-.529.6c-1.323-.023-1.963-.1-3.632-.1-1.026,0-3.148.107-4.566.107-1.387,0-1.521-1.4-.933-1.529a8.951,8.951,0,0,0,4.54-2.1A.865.865,0,0,1,378.365,408.582Z" transform="translate(-334.459 -269.048)"/><path class="n" d="M351.147,404.645l3.6-1.046a.28.28,0,0,1,.333.14l1.333,2.69a.516.516,0,0,1-.337.714c-1.3.356-2.179.578-3.811,1.053-1.127.328-2.274.861-3.388,1.216a16.172,16.172,0,0,1-3.52.256c-1.387,0-1.7-1.463-1.1-1.529a5.844,5.844,0,0,0,2.537-.507,11.6,11.6,0,0,0,3.623-2.5A1.691,1.691,0,0,1,351.147,404.645Z" transform="translate(-318.486 -266.294)"/><path class="i" d="M295.384,189.547l-3.717-1.564-1.53,4.118a15.319,15.319,0,0,0,4.595,0Z" transform="translate(-288.807 -147.417)"/><path class="i" d="M287.27,187.758l-.1,2.74,1.33,1.479,1.53-4.118Z" transform="translate(-287.172 -147.293)"/><g transform="translate(30.431 131.266)"><rect class="o" width="3.447" height="3.953" transform="translate(0 1.241) rotate(-21.105)"/><path class="o" d="M386.139,392.023h-3.379l.64,4.032h3.379Z" transform="translate(-370.306 -391.184)"/></g><path class="l" d="M338.123,189.954c.065.812.143,1.641.24,2.494l13.434-4.361a9.625,9.625,0,0,0,5.168-3.748c.051-1.2.12-2.457.221-3.771.046-.641.1-1.3.162-1.96.065-.691.138-1.4.221-2.107Z" transform="translate(-315.265 -141.086)"/><path class="h" d="M347.338,168.746l-.458-.055c.266-2.238,1.938-4.008,3.7-3.966l-.013.461C349.046,165.142,347.577,166.738,347.338,168.746Z" transform="translate(-320.093 -134.593)"/><path class="h" d="M353.135,177.98h-.076l.013-.461c1.543.057,2.992-1.551,3.232-3.559l.457.055C356.5,176.219,354.881,177.98,353.135,177.98Z" transform="translate(-323.5 -139.684)"/><path class="i" d="M362.052,131.5c-.629,2.471-1.378,7,.254,8.648,0,0-1.14,2.507-5.732,2.507-4.2,0-1.948-2.507-1.948-2.507,2.794-.658,2.843-2.7,2.476-4.622Z" transform="translate(-324.033 -116.272)"/><path class="o" d="M363.818,135.158l-2.93,2.381a7.747,7.747,0,0,1,.157,1.363c.856.853,2.575-1.308,2.751-2.41A3.691,3.691,0,0,0,363.818,135.158Z" transform="translate(-327.817 -118.291)"/><path class="o" d="M349.412,128.649a2.944,2.944,0,0,0,1.9,1.407c1.077.24,1.619-.751,1.322-1.748-.267-.9-1.15-2.1-2.232-1.9A1.5,1.5,0,0,0,349.412,128.649Z" transform="translate(-321.377 -113.455)"/><path class="n" d="M351.765,113.635c-1.678.769-2.269,7.435-.16,8.42S354.944,112.179,351.765,113.635Z" transform="translate(-321.952 -106.349)"/><path class="i" d="M361.07,117.168c-.4,3.346-.467,5.315-2.258,7.032a4.313,4.313,0,0,1-7.336-2.289c-.542-3.006.206-7.973,3.559-9.3A4.322,4.322,0,0,1,361.07,117.168Z" transform="translate(-322.539 -105.662)"/><path class="n" d="M352.423,106.58c2.482-.635,4.308-1.067,3.656,1-.869,2.76-1.91,5.434-.513,5.558.85.076,4.619-1.523,4.14-3.14-.417-1.409,1.335-1.789,1.658-2.507,1.163-2.587-2.161-2.251-1.569-3.816.576-1.524-2.678-4.1-4.481-2.842-2.918,2.037-7.934,2.008-5.3-1.333,1.888-2.393-1.481-1.9-1.481-1.9s2.035,1.207-1.39,3.074C343.515,102.655,346.839,108.009,352.423,106.58Z" transform="translate(-319.402 -97.561)"/><path class="i" d="M371.841,128.649a3.446,3.446,0,0,1-2.069,1.407c-1.1.24-1.53-.751-1.116-1.748.372-.9,1.4-2.1,2.454-1.9A1.377,1.377,0,0,1,371.841,128.649Z" transform="translate(-332.014 -113.455)"/><path class="p" d="M335.378,217.94s-3.033,27.141-3.269,37.442c-.246,10.714,10.277,44.143,10.277,44.143l5.389-2.263s-6.274-30.54-5.4-41.062c.95-11.472,4.882-38.259,4.882-38.259Z" transform="translate(-311.946 -163.934)"/><path class="l" d="M354.673,233.215c-2.416,5.016-.788,14.933.521,20.811.5-4.149,1.088-8.654,1.651-12.821C356.789,234.8,356.291,229.85,354.673,233.215Z" transform="translate(-323.705 -171.757)"/><path class="q" d="M358.439,390.826c.025-.011.639,1.717.639,1.717l-6.211,2.608-.979-1.819Z" transform="translate(-322.855 -259.258)"/><path class="p" d="M353.686,217.94s2.32,25.813,3.857,35.484c1.684,10.59,8.3,45.866,8.3,45.866h6.187s-3.707-34.421-4.407-44.906c-.76-11.38-2.277-36.444-2.277-36.444Z" transform="translate(-323.846 -163.934)"/><path class="q" d="M386.081,395.362c.026,0,.207,1.729.207,1.729h-6.8L379,395.106Z" transform="translate(-337.804 -261.618)"/><path class="l" d="M381.961,300.127a.057.057,0,0,1-.057-.051c-.034-.313-3.377-31.389-4.006-40.81-.682-10.223-2.055-32.89-2.069-33.118a.058.058,0,0,1,.054-.061h0a.058.058,0,0,1,.057.054c.013.227,1.386,22.895,2.069,33.117.629,9.419,3.971,40.493,4,40.805a.057.057,0,0,1-.051.063Z" transform="translate(-336.055 -168.426)"/><path class="n" d="M360.83,124.687c-.016.272-.173.493-.351.493s-.31-.221-.293-.493.173-.493.351-.493S360.846,124.414,360.83,124.687Z" transform="translate(-327.429 -112.245)"/><path class="n" d="M353.966,124.687c-.016.272-.173.493-.351.493s-.31-.221-.294-.493.174-.493.352-.493S353.981,124.414,353.966,124.687Z" transform="translate(-323.643 -112.245)"/><path class="r" d="M355.157,125.6a10.509,10.509,0,0,1-1.438,2.33,1.533,1.533,0,0,0,1.287.244Z" transform="translate(-323.864 -113.018)"/><path class="n" d="M357.006,132.6a.075.075,0,0,1-.075-.08.086.086,0,0,1,.085-.08,2.308,2.308,0,0,0,1.809-.844.083.083,0,0,1,.112-.023.078.078,0,0,1,.017.11A2.445,2.445,0,0,1,357.006,132.6Z" transform="translate(-325.635 -116.309)"/><path class="n" d="M361,122.787a.159.159,0,0,1-.141-.012,1.263,1.263,0,0,0-1.143-.119.154.154,0,0,1-.209-.075.168.168,0,0,1,.087-.214,1.576,1.576,0,0,1,1.446.134.156.156,0,0,1,.041.22A.176.176,0,0,1,361,122.787Z" transform="translate(-327.046 -111.174)"/><path class="n" d="M351.973,120.438a.144.144,0,0,1-.061-.035.159.159,0,0,1,0-.226,1.668,1.668,0,0,1,1.383-.556.149.149,0,0,1,.124.182.171.171,0,0,1-.189.135h0a1.335,1.335,0,0,0-1.091.452A.166.166,0,0,1,351.973,120.438Z" transform="translate(-322.842 -109.72)"/><path class="i" d="M363.858,160.79l-4.667-1.242s-4.577,11.264-6.192,12a96.4,96.4,0,0,0-10.136,6.131,4.648,4.648,0,0,0,.27,2.451c4.025-.731,11.768-3.708,13.382-5.221C360.2,171.46,363.858,160.79,363.858,160.79Z" transform="translate(-317.847 -131.739)"/><path class="q" d="M381.505,408.845a.983.983,0,0,1-.64-.172.457.457,0,0,1-.14-.423.273.273,0,0,1,.15-.227c.381-.191,1.435.478,1.554.554a.078.078,0,0,1,.032.081.087.087,0,0,1-.064.065A4.081,4.081,0,0,1,381.505,408.845Zm-.461-.7a.235.235,0,0,0-.105.02.1.1,0,0,0-.056.094.31.31,0,0,0,.091.291,1.6,1.6,0,0,0,1.2.061A3.043,3.043,0,0,0,381.044,408.146Z" transform="translate(-338.751 -268.721)"/><path class="q" d="M383.279,407.753a.08.08,0,0,1-.038-.009c-.339-.19-.971-.93-.877-1.307a.28.28,0,0,1,.267-.21.418.418,0,0,1,.335.1c.374.321.4,1.3.4,1.337a.085.085,0,0,1-.041.073A.082.082,0,0,1,383.279,407.753Zm-.6-1.369-.037,0c-.1.013-.117.061-.122.081-.055.223.342.782.674,1.046a1.823,1.823,0,0,0-.336-1.059A.267.267,0,0,0,382.678,406.383Z" transform="translate(-339.653 -267.747)"/><path class="q" d="M354.606,407.766a1.278,1.278,0,0,1-.846-.005.417.417,0,0,1-.219-.343.267.267,0,0,1,.092-.238c.362-.322,1.825.024,1.991.065a.074.074,0,0,1,.057.07.087.087,0,0,1-.05.081A6.107,6.107,0,0,1,354.606,407.766Zm-.729-.533a.336.336,0,0,0-.142.064.1.1,0,0,0-.034.1.273.273,0,0,0,.142.227,2.22,2.22,0,0,0,1.5-.271A4.344,4.344,0,0,0,353.877,407.233Z" transform="translate(-323.765 -268.2)"/><path class="q" d="M356.438,406.233a.086.086,0,0,1-.034,0c-.435-.08-1.363-.6-1.372-.983,0-.09.04-.214.253-.288a.573.573,0,0,1,.462.027c.487.24.742,1.1.753,1.139a.084.084,0,0,1-.019.079A.086.086,0,0,1,356.438,406.233Zm-1.061-1.133-.047.014c-.139.049-.138.106-.138.125.005.231.651.658,1.105.8a1.732,1.732,0,0,0-.628-.9A.418.418,0,0,0,355.378,405.1Z" transform="translate(-324.588 -267.033)"/><path class="i" d="M337.361,199.373l-4.678,2.153-.543,1.32,1.729,1.163s3.227-.351,4.146-2.424Z" transform="translate(-311.966 -153.697)"/><path class="n" d="M343.153,201.8a6.455,6.455,0,0,0-.869-2.539l.738-.553a7.114,7.114,0,0,1,1.041,2.939Z" transform="translate(-317.559 -153.328)"/><path class="n" d="M343.929,200.269a.9.9,0,1,1-1.094-.349A.819.819,0,0,1,343.929,200.269Z" transform="translate(-317.538 -153.956)"/><path class="i" d="M326.3,205.911l.622.629,4.2-1.8-1.658-.573Z" transform="translate(-308.748 -156.343)"/><path class="l" d="M358.439,390.826c.025-.011.639,1.717.639,1.717l-6.211,2.608-.979-1.819Z" transform="translate(-322.855 -259.258)"/><path class="l" d="M386.081,395.362c.026,0,.207,1.729.207,1.729h-6.8L379,395.106Z" transform="translate(-337.804 -261.618)"/><g transform="translate(36.995 24.567)"><path class="j" d="M379.866,155.515c1.235,3.978-3.571,9.412-3.571,9.412l-6.661-2.719a68.333,68.333,0,0,1,2.725-6.762C374.389,151.045,378.62,151.5,379.866,155.515Z" transform="translate(-369.634 -152.322)"/><path class="k" d="M379.866,155.515c1.235,3.978-3.571,9.412-3.571,9.412l-6.661-2.719a68.333,68.333,0,0,1,2.725-6.762C374.389,151.045,378.62,151.5,379.866,155.515Z" transform="translate(-369.634 -152.322)"/></g></g></g><g transform="translate(112.492 27.298)"><g transform="translate(0 0)"><rect class="q" width="2.866" height="0.461" transform="translate(21.939)"/><rect class="q" width="7.706" height="0.461" transform="translate(61.572 25.986) rotate(-87.421)"/><path class="j" d="M254.5,75.194H201.558L196.63,185.431h52.938Z" transform="translate(-193.469 -73.119)"/><path class="s" d="M250.973,78.566H198.035L193.107,188.8h52.938Z" transform="translate(-191.527 -74.978)"/><path class="t" d="M247.45,81.938H194.512l-4.928,110.238h52.938Z" transform="translate(-189.584 -76.838)"/><path class="h" d="M249.14,189.106H203.955l-.377,8.437h45.185Z" transform="translate(-197.3 -135.927)"/><path class="j" d="M229.4,175.39H204.824l-.169,3.775h24.577Z" transform="translate(-197.894 -128.364)"/><path class="h" d="M246.872,239.849H201.687l-.377,8.437h45.185Z" transform="translate(-196.049 -163.905)"/><path class="u" d="M246.5,284.036H216.114l-.452,10.112h30.385Z" transform="translate(-203.963 -188.268)"/><path class="h" d="M242.459,297.507H212.074a.056.056,0,0,1-.039-.017.053.053,0,0,1-.014-.039l.452-10.112a.053.053,0,0,1,.053-.052h30.385a.054.054,0,0,1,.039.017.051.051,0,0,1,.015.039l-.452,10.112A.053.053,0,0,1,242.459,297.507ZM212.13,297.4h30.278l.447-10.005H212.577Z" transform="translate(-201.955 -190.061)"/><path class="j" d="M222.841,226.134H202.556l-.169,3.775h20.285Z" transform="translate(-196.643 -156.343)"/><path class="h" d="M254.847,114.254a11.877,11.877,0,0,1-2.5,6.754,12.067,12.067,0,0,1-9.511,4.739,10.9,10.9,0,0,1-10.975-11.493,12.135,12.135,0,0,1,12-11.494A10.9,10.9,0,0,1,254.847,114.254Z" transform="translate(-212.89 -88.318)"/><path class="v" d="M278.006,104.37a3.157,3.157,0,0,1-.663,1.795,3.207,3.207,0,0,1-2.527,1.259,2.9,2.9,0,0,1-2.917-3.054,3.225,3.225,0,0,1,3.189-3.054A2.9,2.9,0,0,1,278.006,104.37Z" transform="translate(-234.968 -87.522)"/><path class="n" d="M211.94,196.848a1.427,1.427,0,0,1-1.412,1.352,1.282,1.282,0,0,1-1.292-1.352,1.428,1.428,0,0,1,1.412-1.352A1.281,1.281,0,0,1,211.94,196.848Z" transform="translate(-200.419 -139.45)"/><path class="n" d="M225.428,196.848a1.427,1.427,0,0,1-1.412,1.352,1.281,1.281,0,0,1-1.291-1.352,1.427,1.427,0,0,1,1.412-1.352A1.281,1.281,0,0,1,225.428,196.848Z" transform="translate(-207.856 -139.45)"/><path class="n" d="M238.915,196.848A1.428,1.428,0,0,1,237.5,198.2a1.281,1.281,0,0,1-1.292-1.352,1.427,1.427,0,0,1,1.412-1.352A1.282,1.282,0,0,1,238.915,196.848Z" transform="translate(-215.292 -139.45)"/><path class="n" d="M209.672,247.591a1.428,1.428,0,0,1-1.412,1.352,1.281,1.281,0,0,1-1.292-1.352,1.427,1.427,0,0,1,1.412-1.352A1.282,1.282,0,0,1,209.672,247.591Z" transform="translate(-199.169 -167.428)"/><path class="n" d="M223.159,247.591a1.428,1.428,0,0,1-1.412,1.352,1.282,1.282,0,0,1-1.292-1.352,1.428,1.428,0,0,1,1.412-1.352A1.282,1.282,0,0,1,223.159,247.591Z" transform="translate(-206.605 -167.428)"/><path class="n" d="M236.646,247.591a1.427,1.427,0,0,1-1.412,1.352,1.282,1.282,0,0,1-1.292-1.352,1.428,1.428,0,0,1,1.413-1.352A1.281,1.281,0,0,1,236.646,247.591Z" transform="translate(-214.041 -167.428)"/><path class="n" d="M250.134,247.591a1.428,1.428,0,0,1-1.413,1.352,1.281,1.281,0,0,1-1.291-1.352,1.427,1.427,0,0,1,1.412-1.352A1.282,1.282,0,0,1,250.134,247.591Z" transform="translate(-221.478 -167.428)"/><path class="n" d="M263.621,247.591a1.428,1.428,0,0,1-1.412,1.352,1.282,1.282,0,0,1-1.292-1.352,1.427,1.427,0,0,1,1.412-1.352A1.282,1.282,0,0,1,263.621,247.591Z" transform="translate(-228.914 -167.428)"/><g transform="translate(20.867 15.52)"><ellipse class="q" cx="4.754" cy="4.546" rx="4.754" ry="4.546" transform="matrix(0.715, -0.699, 0.699, 0.715, 3.194, 6.646)"/><path class="q" d="M254.69,139.031a12.067,12.067,0,0,1-9.511,4.739,10.9,10.9,0,0,1-9.083-4.739,13.5,13.5,0,0,1,9.454-3.582A12.376,12.376,0,0,1,254.69,139.031Z" transform="translate(-236.097 -121.862)"/><ellipse class="j" cx="4.754" cy="4.546" rx="4.754" ry="4.546" transform="matrix(0.715, -0.699, 0.699, 0.715, 3.194, 6.646)"/><path class="j" d="M254.69,139.031a12.067,12.067,0,0,1-9.511,4.739,10.9,10.9,0,0,1-9.083-4.739,13.5,13.5,0,0,1,9.454-3.582A12.376,12.376,0,0,1,254.69,139.031Z" transform="translate(-236.097 -121.862)"/></g></g></g><g transform="translate(76.229 66.461)"><g transform="translate(2.379)"><path class="i" d="M121.393,210.488c-.425.932-.872,1.957-1.265,2.957s-.79,2.02-1.135,3.044a38.475,38.475,0,0,0-1.6,6.191l-.1.661a1.008,1.008,0,0,0,.033.334,3.44,3.44,0,0,0,.493,1.04,13.058,13.058,0,0,0,1.993,2.235,30.423,30.423,0,0,0,2.476,2.071c.861.662,1.769,1.31,2.657,1.917l-.836,1.575a31.824,31.824,0,0,1-6.048-3.45,14.455,14.455,0,0,1-2.71-2.547,6.371,6.371,0,0,1-1.073-1.917,4.292,4.292,0,0,1-.216-1.321c0-.111.009-.267.017-.341l.022-.223.045-.445a34.913,34.913,0,0,1,1.465-6.881c.35-1.107.724-2.2,1.15-3.279s.865-2.122,1.409-3.211Z" transform="translate(-114.058 -186.002)"/><path class="i" d="M135.884,255.455l3.17-1.608-.819,3.485s-2.177.608-3.189-.449Z" transform="translate(-125.63 -210.786)"/><path class="i" d="M145.877,254.419l-.843,2.88-2.879.032.819-3.484Z" transform="translate(-129.55 -210.786)"/><path class="r" d="M160.432,175a8.948,8.948,0,0,0,.711,1.774.727.727,0,0,1-.711.228Z" transform="translate(-139.627 -167.313)"/><ellipse class="n" cx="0.336" cy="0.514" rx="0.336" ry="0.514" transform="translate(20.375 6.687)"/><path class="n" d="M160.04,172.562l.682-.2S160.372,172.9,160.04,172.562Z" transform="translate(-139.411 -165.859)"/><path class="i" d="M140.106,182.336c.409,2.088.818,5.915-.643,7.309,0,0,.571,2.119,4.452,2.119,4.267,0,2.04-2.118,2.04-2.118-2.329-.556-2.269-2.284-1.863-3.907Z" transform="translate(-128.066 -171.357)"/><path class="i" d="M138.361,165.448c.214,3.487.23,4.967,1.991,6.756,2.649,2.692,6.884,1.666,7.716-1.814.749-3.133.273-8.308-3.14-9.7A4.764,4.764,0,0,0,138.361,165.448Z" transform="translate(-127.453 -159.222)"/><path class="n" d="M134.606,162.748c-1.748.638-4.081.163-3.166,5.56.969,5.714-.523,7.594-.523,7.594a35.616,35.616,0,0,0,13.411-.084s-2.068-3.617-1.488-6.256c.74-3.366.154-4.61.154-4.61S137.065,161.852,134.606,162.748Z" transform="translate(-123.354 -160.467)"/><path class="i" d="M155.64,174.594a3.517,3.517,0,0,0,.549,1.87c.473.727,1.034.431,1.174-.324a2.682,2.682,0,0,0-.572-2.34C156.194,173.343,155.648,173.8,155.64,174.594Z" transform="translate(-136.985 -166.551)"/><path class="n" d="M135.673,160.755c-.5-1.411,1.893-3.581,6.961-2.679s5.291,5.118,5.291,5.118l-1.026-1.217.046,1.281-5.209,1Z" transform="translate(-125.939 -157.863)"/><g transform="translate(10.153 17.013)"><path class="q" d="M136.7,197.3h0a.79.79,0,0,1,.651-.908,31.01,31.01,0,0,1,6.971-.538c1.341.186,1.7.969,1.753,1.61a.791.791,0,0,1-.827.854l-7.8-.352A.792.792,0,0,1,136.7,197.3Z" transform="translate(-136.689 -195.786)"/><path class="j" d="M136.7,197.3h0a.79.79,0,0,1,.651-.908,31.01,31.01,0,0,1,6.971-.538c1.341.186,1.7.969,1.753,1.61a.791.791,0,0,1-.827.854l-7.8-.352A.792.792,0,0,1,136.7,197.3Z" transform="translate(-136.689 -195.786)"/></g><path class="i" d="M146.761,365.8l2.891,2.007,4.841-6.561-2.891-2.007Z" transform="translate(-132.089 -268.894)"/><path class="i" d="M131.715,365.038l3.059,1.742,4.285-6.94L136,358.1Z" transform="translate(-123.794 -268.266)"/><g transform="translate(9.995 89.833)"><path class="o" d="M157.371,361.245l-2.5,3.383-2.892-2.008,2.5-3.383Z" transform="translate(-144.964 -358.728)"/><path class="o" d="M138.546,358.1l3.06,1.742-2.21,3.576-3.06-1.742Z" transform="translate(-136.336 -358.101)"/></g><g transform="translate(5.811 40.433)"><path class="q" d="M138.31,247.988s11.3,14.237,9.177,27.852c-1.712,11-11.625,25.887-11.625,25.887l-4.662-2.317a152.272,152.272,0,0,0,8.39-20.386,15.069,15.069,0,0,0-1.807-13.054c-5.722-8.358-14.89-3.385-8.723-17.983Z" transform="translate(-127.01 -247.988)"/><path class="w" d="M138.31,247.988s11.3,14.237,9.177,27.852c-1.712,11-11.625,25.887-11.625,25.887l-4.662-2.317a152.272,152.272,0,0,0,8.39-20.386,15.069,15.069,0,0,0-1.807-13.054c-5.722-8.358-14.89-3.385-8.723-17.983Z" transform="translate(-127.01 -247.988)"/></g><path class="x" d="M162.532,266.375l-1.641-1.632c0,.129,3.181,19.764,4.075,25.282a33.645,33.645,0,0,0,1.2-4.947C167.207,278.412,165.026,271.594,162.532,266.375Z" transform="translate(-139.88 -216.793)"/><g transform="translate(8.924 40.433)"><path class="q" d="M147.181,247.988s13.6,17.892,13.985,28.621c.32,8.99-14.817,26.355-14.817,26.355l-4.394-2.843s8.851-12.345,11.079-22.437c-.85-9.989-19.086-29.7-19.086-29.7Z" transform="translate(-133.949 -247.988)"/><path class="w" d="M147.181,247.988s13.6,17.892,13.985,28.621c.32,8.99-14.817,26.355-14.817,26.355l-4.394-2.843s8.851-12.345,11.079-22.437c-.85-9.989-19.086-29.7-19.086-29.7Z" transform="translate(-133.949 -247.988)"/></g><path class="y" d="M122.432,200.335c-1.457.344-2.849,5.632-2.849,5.632l5.681,3.792s1.893-4.179,1.232-6.01C125.808,201.841,124.271,199.9,122.432,200.335Z" transform="translate(-117.104 -181.247)"/><path class="l" d="M127.924,207.994l-.4,4.607,2.115,1.415a18.93,18.93,0,0,0,1.286-4.1Z" transform="translate(-121.484 -185.504)"/><path class="y" d="M144.444,199.385s1.677.591-1.682,21.243H128.467c.24-5.818.247-9.405-2.534-21.345a42.222,42.222,0,0,1,6.07-.8,45.507,45.507,0,0,1,6.491,0C141.282,198.738,144.444,199.385,144.444,199.385Z" transform="translate(-120.605 -180.195)"/><path class="i" d="M166.224,206.167c.324.9.667,1.863,1.023,2.793s.7,1.885,1.064,2.823l1.1,2.818.278.7.14.352.07.176c.012.032.01.029.005.026a.986.986,0,0,0-.314-.28,1.251,1.251,0,0,0-.586-.171,1.159,1.159,0,0,0-.5.09c-.2.1-.205.138-.2.131a.582.582,0,0,0,.1-.1,6.418,6.418,0,0,0,.641-1.045c.212-.411.413-.851.612-1.3.4-.894.758-1.827,1.126-2.762s.706-1.888,1.045-2.842l1.022-2.864,1.729.436c-.342,2.048-.784,4.054-1.311,6.067-.258,1.009-.555,2.009-.9,3.018-.17.506-.36,1.01-.577,1.524a9.368,9.368,0,0,1-.853,1.623,3.984,3.984,0,0,1-.391.484,2.5,2.5,0,0,1-.817.577,2.025,2.025,0,0,1-.871.163,2,2,0,0,1-.947-.285,2.373,2.373,0,0,1-.816-.847c-.069-.114-.127-.232-.167-.316l-.085-.174-.17-.348-.34-.7c-.443-.934-.877-1.872-1.289-2.821s-.8-1.908-1.189-2.872c-.369-.978-.733-1.926-1.057-2.967Z" transform="translate(-140.934 -183.697)"/><path class="y" d="M162.048,200.471c1.718.41,3.649,5.486,3.649,5.486l-5.106,4.351s-3.309-5.536-2.64-7.363C158.647,201.042,159.8,199.937,162.048,200.471Z" transform="translate(-138.209 -181.282)"/><path class="i" d="M185.95,199.347l1.792-1.5,1.247,1.942-.918,1.622s-1.463,1.339-2.758.658h0A2.327,2.327,0,0,1,185.95,199.347Z" transform="translate(-153.237 -179.91)"/><path class="i" d="M194.223,197.853l-.134.488-2.839.477-.28-.97Z" transform="translate(-156.465 -179.91)"/><path class="q" d="M156.106,365.02l-5.123-3.314.917-1.6,5.757,3.539Z" transform="translate(-134.417 -269.376)"/><path class="n" d="M141.372,375.909a3.071,3.071,0,0,1-1.268-.439.083.083,0,0,1-.042-.081.084.084,0,0,1,.057-.071c.138-.043,1.354-.416,1.7-.127a.284.284,0,0,1,.1.271.472.472,0,0,1-.253.389A.635.635,0,0,1,141.372,375.909Zm-1.009-.489c.558.284,1.006.388,1.222.281a.313.313,0,0,0,.163-.262.118.118,0,0,0-.038-.12C141.528,375.166,140.855,375.284,140.363,375.419Z" transform="translate(-128.395 -277.63)"/><path class="n" d="M140.144,374.261a.083.083,0,0,1-.08-.106c.012-.041.292-1.016.752-1.237a.434.434,0,0,1,.37-.011.29.29,0,0,1,.206.3c-.031.4-.853.961-1.228,1.052Zm.869-1.223a.29.29,0,0,0-.125.031c-.275.132-.505.658-.615.978.395-.166.934-.607.953-.852,0-.04-.006-.092-.1-.133A.274.274,0,0,0,141.014,373.038Z" transform="translate(-128.395 -276.412)"/><path class="n" d="M155.279,379.785c-.505,0-1.21-.649-1.595-1.048a.084.084,0,0,1-.015-.1.091.091,0,0,1,.085-.046c.178.023,1.738.234,1.959.675a.27.27,0,0,1-.01.262.462.462,0,0,1-.355.248A.558.558,0,0,1,155.279,379.785Zm-1.3-.988c.567.551,1.063.856,1.347.818a.3.3,0,0,0,.231-.165.1.1,0,0,0,.006-.105C155.444,379.1,154.611,378.9,153.979,378.8Z" transform="translate(-135.894 -279.567)"/><path class="n" d="M154.029,377.818a1.692,1.692,0,0,1-.3-.022.084.084,0,0,1-.049-.135c.026-.031.633-.763,1.206-.813a.606.606,0,0,1,.462.145c.176.151.164.286.123.371C155.328,377.663,154.553,377.818,154.029,377.818Zm-.116-.168c.5.028,1.3-.139,1.407-.357.009-.018.035-.074-.081-.173a.437.437,0,0,0-.338-.106A1.928,1.928,0,0,0,153.913,377.65Z" transform="translate(-135.894 -278.603)"/><path class="q" d="M133.8,373.582l-3.8-1.076a.279.279,0,0,0-.336.155l-1.284,2.888a.566.566,0,0,0,.373.756c1.333.352,1.995.455,3.668.928,1.03.291,2.5.823,3.925,1.225,1.39.393,1.895-.982,1.339-1.277a6.888,6.888,0,0,1-3.371-3.231A.918.918,0,0,0,133.8,373.582Z" transform="translate(-121.928 -276.204)"/><path class="q" d="M146.682,374.907l-3.248-2.255a.278.278,0,0,0-.368.038L140.912,375a.565.565,0,0,0,.107.836c1.146.767,1.738,1.079,3.166,2.071.879.61,2.633,1.964,3.847,2.806,1.187.824,2.111-.313,1.681-.772a9.543,9.543,0,0,1-2.671-4.523A.92.92,0,0,0,146.682,374.907Z" transform="translate(-128.788 -276.262)"/><path class="q" d="M140.876,362.91,135.019,360l.606-1.585,6.252,3.065Z" transform="translate(-125.615 -268.44)"/><g transform="translate(7.14 39.487)"><path class="q" d="M130.481,245.986l-.5,1.279c-.05.1.068.2.233.2H145.06c.129,0,.236-.063.244-.144l.129-1.279c.009-.089-.1-.164-.244-.164H130.713A.26.26,0,0,0,130.481,245.986Z" transform="translate(-129.973 -245.879)"/><path class="z" d="M130.481,245.986l-.5,1.279c-.05.1.068.2.233.2H145.06c.129,0,.236-.063.244-.144l.129-1.279c.009-.089-.1-.164-.244-.164H130.713A.26.26,0,0,0,130.481,245.986Z" transform="translate(-129.973 -245.879)"/></g><g transform="translate(9.463 39.373)"><path class="q" d="M135.67,247.465h-.388c-.077,0-.136-.039-.131-.088l.182-1.662c.005-.049.073-.089.15-.089h.388c.077,0,.136.04.131.089l-.182,1.662C135.815,247.426,135.747,247.465,135.67,247.465Z" transform="translate(-135.151 -245.626)"/><path class="q" d="M156.076,247.465h-.388c-.077,0-.136-.039-.131-.088l.182-1.662c.005-.049.073-.089.15-.089h.388c.077,0,.136.04.131.089l-.182,1.662C156.221,247.426,156.153,247.465,156.076,247.465Z" transform="translate(-146.402 -245.626)"/></g></g><g transform="translate(0 52.243)"><g transform="translate(0 4.465)"><ellipse class="aa" cx="12.019" cy="0.872" rx="12.019" ry="0.872" transform="translate(0 58.74)"/><path class="d" d="M133.325,342.649a29.286,29.286,0,0,1-5.915-2.259c-.04-.023-.083-.04-.124-.061v-9.614h4.277a1.28,1.28,0,1,0,0-2.561h-4.277V284.267h-2.561v43.887h-4.277a1.28,1.28,0,1,0,0,2.561h4.277v9.614c-.041.021-.083.038-.124.061a29.285,29.285,0,0,1-5.915,2.259.628.628,0,0,0,.176,1.23h14.288A.628.628,0,0,0,133.325,342.649Z" transform="translate(-113.981 -284.267)"/></g><g transform="translate(1.723)"><rect class="ab" width="20.603" height="9.391" rx="4.696"/><g transform="translate(2.177 9.391)"><path class="ab" d="M117.448,295.247v.816c0,.673.732,1.223,1.628,1.223h12.994c.9,0,1.628-.551,1.628-1.223v-.816Z" transform="translate(-117.448 -295.247)"/><path class="ac" d="M117.448,295.247v.816c0,.673.732,1.223,1.628,1.223h12.994c.9,0,1.628-.551,1.628-1.223v-.816Z" transform="translate(-117.448 -295.247)"/></g></g></g></g><circle class="ad" cx="5.051" cy="5.051" r="5.051" transform="translate(28.09 145.72) rotate(-45)"/><circle class="v" cx="6.624" cy="6.624" r="6.624" transform="translate(76.229 13.668)"/></g></g><circle class="v" cx="5.051" cy="5.051" r="5.051" transform="matrix(0.23, -0.973, 0.973, 0.23, 345.714, 293.719)"/><circle class="ae" cx="4.684" cy="4.684" r="4.684" transform="translate(62.203 336.981)"/><circle class="ad" cx="7.083" cy="7.083" r="7.083" transform="translate(356.44 411.419) rotate(-45)"/></g></svg>