<svg xmlns="http://www.w3.org/2000/svg" width="21" height="22" viewBox="0 0 21 22"><defs><style>.a{fill:#3e3e3e;}</style></defs><g transform="translate(-4.5 -3.375)"><path class="a" d="M28.905,9.492a.467.467,0,0,0,.657,0l.657-.657a.467.467,0,0,0,0-.657L28.736,6.694a.467.467,0,0,0-.657,0l-.657.657a.467.467,0,0,0,0,.657Z" transform="translate(-5.272 -0.55)"/><path class="a" d="M5.8,9.492a.467.467,0,0,0,.657,0L7.938,8.008a.467.467,0,0,0,0-.657L7.28,6.694a.467.467,0,0,0-.657,0L5.14,8.171a.467.467,0,0,0,0,.657Z" transform="translate(-0.087 -0.55)"/><path class="a" d="M16.313,5.147V4.221a.863.863,0,0,0-.875-.846h-.875a.863.863,0,0,0-.875.846v.925A10.28,10.28,0,0,0,4.5,15.221,10.334,10.334,0,0,0,15,25.375,10.334,10.334,0,0,0,25.5,15.221,10.28,10.28,0,0,0,16.313,5.147Zm-.547,11.6V17.76a.766.766,0,0,1-1.531,0V16.744a1.67,1.67,0,0,1,0-3.046V8.452a.766.766,0,0,1,1.531,0V13.7a1.67,1.67,0,0,1,0,3.046Z" transform="translate(0 0)"/></g></svg>