<svg xmlns="http://www.w3.org/2000/svg" width="15" height="15" viewBox="0 0 15 15">
  <path id="Icon_ionic-ios-star" data-name="Icon ionic-ios-star" d="M16.681,8.567H11.756l-1.5-4.81a.53.53,0,0,0-1.018,0l-1.5,4.81H2.786a.559.559,0,0,0-.536.577.455.455,0,0,0,.01.1.565.565,0,0,0,.224.407l4.048,3.072L4.979,17.585a.605.605,0,0,0,.184.649.5.5,0,0,0,.3.141.628.628,0,0,0,.335-.13L9.75,15.213,13.7,18.245a.6.6,0,0,0,.335.13.465.465,0,0,0,.3-.141.6.6,0,0,0,.184-.649l-1.554-4.864,4.015-3.1.1-.09a.624.624,0,0,0,.174-.386A.587.587,0,0,0,16.681,8.567Z" transform="translate(-2.25 -3.375)" fill="#34b94c"/>
</svg>
