<svg xmlns="http://www.w3.org/2000/svg" width="22" height="19" viewBox="0 0 22 19"><defs><style>.a{fill:#00b5e0;}</style></defs><path class="a" d="M19.938,11.75H16.5V9.036a2.735,2.735,0,0,1,2.75-2.714h.344A1.022,1.022,0,0,0,20.625,5.3V3.268A1.022,1.022,0,0,0,19.594,2.25H19.25a6.829,6.829,0,0,0-6.875,6.786V19.214a2.05,2.05,0,0,0,2.063,2.036h5.5A2.05,2.05,0,0,0,22,19.214V13.786A2.05,2.05,0,0,0,19.938,11.75Zm-12.375,0H4.125V9.036a2.735,2.735,0,0,1,2.75-2.714h.344A1.022,1.022,0,0,0,8.25,5.3V3.268A1.022,1.022,0,0,0,7.219,2.25H6.875A6.829,6.829,0,0,0,0,9.036V19.214A2.05,2.05,0,0,0,2.063,21.25h5.5a2.05,2.05,0,0,0,2.063-2.036V13.786A2.05,2.05,0,0,0,7.563,11.75Z" transform="translate(0 -2.25)"/></svg>