<svg xmlns="http://www.w3.org/2000/svg" xmlns:xlink="http://www.w3.org/1999/xlink" width="100" height="100" viewBox="0 0 100 100"><defs><style>.a{fill:#f9ab20;}.b{fill:#fff;}.c{filter:url(#a);}</style><filter id="a" x="0" y="0" width="100" height="100" filterUnits="userSpaceOnUse"><feOffset dy="10" input="SourceAlpha"/><feGaussianBlur stdDeviation="10" result="b"/><feFlood flood-opacity="0.102"/><feComposite operator="in" in2="b"/><feComposite in="SourceGraphic"/></filter></defs><g transform="translate(-379 -97)"><g class="c" transform="matrix(1, 0, 0, 1, 379, 97)"><circle class="a" cx="20" cy="20" r="20" transform="translate(30 20)"/></g><path class="b" d="M4.368,20.66a1.456,1.456,0,0,0,.244.8l.777,1.168a1.455,1.455,0,0,0,1.211.649H9.406a1.455,1.455,0,0,0,1.211-.649l.777-1.168a1.455,1.455,0,0,0,.244-.8l0-1.744H4.366ZM0,8a7.958,7.958,0,0,0,1.981,5.265,13.067,13.067,0,0,1,2.374,4.158c0,.012,0,.024.005.035h7.286c0-.012,0-.023.005-.035a13.067,13.067,0,0,1,2.374-4.158A8,8,0,1,0,0,8ZM8,4.365A3.642,3.642,0,0,0,4.365,8,.728.728,0,1,1,2.91,8,5.1,5.1,0,0,1,8,2.91.728.728,0,0,1,8,4.365Z" transform="translate(421 125)"/></g></svg>