<svg xmlns="http://www.w3.org/2000/svg" width="300.016" height="191" viewBox="0 0 300.016 191"><defs><style>.a{fill:#ecf3fe;}.b{fill:#b7cae5;}.c{fill:#ebebeb;}.d,.o{fill:#fff;}.d{stroke:#707070;}.e{fill:#e0e0e0;}.f{fill:#268aed;}.g{fill:#f4f4f4;}.h{fill:#d8d8d8;}.i{fill:#bfbfbf;}.j{fill:#7a7a7a;}.k{fill:#455a64;}.l{fill:#263238;}.m{fill:#191919;}.n{fill:#ed2020;}.p{fill:#ffbe9d;}.q{fill:#262626;}.r,.s{fill:#111;}.s{opacity:0.2;}.t{fill:#a0a0a0;}.u{fill:#0c0c0c;}.v{fill:#707070;}.w{fill:#fbad1d;}.x{fill:#97d9ef;}</style></defs><g transform="translate(-62.203 -317.414)"><g transform="translate(19.734 27.512)"><path class="a" d="M581.98,734.658a99.48,99.48,0,1,0-95.244,0Z" transform="translate(-371.145 -257.965)"/><path class="a" d="M1034.285,849.184h79.586a87.874,87.874,0,1,0-79.586,0Z" transform="translate(-838.219 -372.491)"/><ellipse class="b" cx="111.719" cy="6.866" rx="111.719" ry="6.866" transform="translate(86.972 467.17)"/><g transform="translate(257.185 310.879)"><circle class="c" cx="0.945" cy="0.945" r="0.945" transform="translate(5.535 0)"/><circle class="c" cx="0.945" cy="0.945" r="0.945" transform="translate(8.307 14.51) rotate(-46.927)"/><circle class="c" cx="0.945" cy="0.945" r="0.945" transform="translate(10.72 0.923) rotate(-3.61)"/><circle class="c" cx="0.945" cy="0.945" r="0.945" transform="translate(3.337 14.415) rotate(-82.345)"/><circle class="c" cx="0.945" cy="0.945" r="0.945" transform="translate(13.876 5.178)"/><circle class="c" cx="0.945" cy="0.945" r="0.945" transform="matrix(0.527, -0.85, 0.85, 0.527, 0, 9.592)"/><path class="c" d="M4076.255,808.709a.946.946,0,1,1,1.3-.3A.946.946,0,0,1,4076.255,808.709Z" transform="translate(-4062.793 -796.538)"/><circle class="c" cx="0.945" cy="0.945" r="0.945" transform="translate(1.1 4.855) rotate(-82.345)"/><path class="c" d="M4172.087,1387.678a.548.548,0,1,1-.658-.409A.549.549,0,0,1,4172.087,1387.678Z" transform="translate(-4153.598 -1350.063)"/><circle class="c" cx="0.548" cy="0.548" r="0.548" transform="matrix(0.484, -0.875, 0.875, 0.484, 19.043, 45.788)"/><circle class="c" cx="0.548" cy="0.548" r="0.548" transform="translate(20.218 38.239) rotate(-45)"/><circle class="c" cx="0.548" cy="0.548" r="0.548" transform="translate(16.201 44.527)"/><path class="c" d="M4276.449,1453.375a.548.548,0,1,1,.408-.658A.548.548,0,0,1,4276.449,1453.375Z" transform="translate(-4253.537 -1412.102)"/><circle class="c" cx="0.548" cy="0.548" r="0.548" transform="translate(14.279 42.953) rotate(-74.369)"/><circle class="c" cx="0.548" cy="0.548" r="0.548" transform="translate(21.63 43.37) rotate(-13.17)"/><circle class="c" cx="0.548" cy="0.548" r="0.548" transform="translate(14.887 39.006) rotate(-1.902)"/></g><g transform="translate(161.88 312.692)"><path class="d" d="M1800.161,627.612V757.846a7.256,7.256,0,0,1-7.257,7.254h-56.539a7.251,7.251,0,0,1-7.257-7.254V627.612a7.255,7.255,0,0,1,7.257-7.254H1792.9A7.255,7.255,0,0,1,1800.161,627.612Z" transform="translate(-1729.108 -620.358)"/><path class="c" d="M2011.991,1004.65a24.76,24.76,0,1,1-24.761-24.76A24.685,24.685,0,0,1,2011.991,1004.65Z" transform="translate(-1951.704 -963.304)"/><path class="e" d="M2159.007,1519.139q0,.582-.038,1.154a24.76,24.76,0,0,1-34.5,0q-.038-.572-.038-1.154a17.289,17.289,0,0,1,34.577,0Z" transform="translate(-2106.193 -1461.201)"/><circle class="e" cx="8.008" cy="8.008" r="8.008" transform="translate(24.201 30.371) rotate(-45)"/><path class="c" d="M4.188,0H49.665a4.188,4.188,0,0,1,4.188,4.188v0a4.188,4.188,0,0,1-4.188,4.188H4.188A4.188,4.188,0,0,1,0,4.188v0A4.188,4.188,0,0,1,4.188,0Z" transform="translate(8.599 71.937)"/><rect class="c" width="53.853" height="8.376" rx="4.188" transform="translate(8.599 86.517)"/><path class="f" d="M1852.47,716.783l-2.846,2.331h.729v3.308h4.232v-3.308h.73Z" transform="translate(-1844.065 -712.334)"/><rect class="f" width="6.643" height="0.505" transform="translate(59.564 5.387)"/><rect class="f" width="6.643" height="0.505" transform="translate(59.564 7.015)"/><rect class="f" width="6.643" height="0.505" transform="translate(59.564 8.642)"/></g><g transform="translate(238.427 446.971)"><rect class="g" width="16.753" height="9.503" transform="translate(6.409 2.433)"/><rect class="h" width="7.298" height="9.503" transform="translate(30.46 11.935) rotate(180)"/><rect class="h" width="18.245" height="2.433" transform="translate(4.917)"/><rect class="i" width="8.92" height="2.433" transform="translate(32.082 2.433) rotate(180)"/><rect class="g" width="21.042" height="11.935" transform="translate(1.874 14.938)"/><rect class="h" width="9.166" height="11.935" transform="translate(32.082 26.873) rotate(180)"/><rect class="h" width="22.916" height="3.055" transform="translate(0 11.883)"/><rect class="i" width="11.203" height="3.055" transform="translate(34.119 14.938) rotate(180)"/></g><g transform="translate(274.112 419.618)"><rect class="j" width="38.34" height="0.277" transform="translate(6.953 41.924) rotate(-81.918)"/><path class="k" d="M4173.992,3832.307l-.239,1.908-.08.636-.088.707-.08.636-1.17,9.36h-10.863l-1.17-9.36-.08-.636-.088-.707-.079-.636-.239-1.908Z" transform="translate(-4159.815 -3791.106)"/><path class="l" d="M4178.692,3873.676l-.08.636h-13.541l-.079-.636Z" transform="translate(-4164.753 -3830.566)"/><path class="l" d="M4181.992,3902.79l-.079.636h-13.2l-.08-.636Z" transform="translate(-4168.223 -3858.338)"/><rect class="j" width="0.277" height="12.96" transform="matrix(0.627, -0.779, 0.779, 0.627, 0.095, 11.479)"/><rect class="j" width="14.74" height="0.277" transform="translate(8.134 34.013) rotate(-27.116)"/><path class="f" d="M4394.088,3532.216a1.63,1.63,0,1,1,.231-3.094A4.4,4.4,0,0,1,4394.088,3532.216Z" transform="translate(-4381.205 -3501.907)"/><path class="m" d="M4395,3556.652a.061.061,0,0,1-.018,0,.047.047,0,0,1-.025-.06l1.77-4.366a.046.046,0,1,1,.086.035l-1.77,4.366A.046.046,0,0,1,4395,3556.652Z" transform="translate(-4384.107 -3523.915)"/><path class="f" d="M4479.192,3601.832a1.63,1.63,0,1,1,3.089-.3A4.4,4.4,0,0,1,4479.192,3601.832Z" transform="translate(-4461.895 -3569.365)"/><path class="m" d="M4480.155,3609.413h-.01l-4.6-1a.046.046,0,0,1-.035-.055.046.046,0,0,1,.055-.035l4.6,1a.046.046,0,0,1,.036.055A.047.047,0,0,1,4480.155,3609.413Z" transform="translate(-4460.941 -3577.454)"/><path class="f" d="M4561.2,3446.287a1.629,1.629,0,1,1,.119-3.1A4.395,4.395,0,0,1,4561.2,3446.287Z" transform="translate(-4540.652 -3419.937)"/><path class="m" d="M4563.082,3471.117l-.016,0a.045.045,0,0,1-.028-.059l1.61-4.427a.047.047,0,0,1,.061-.028.046.046,0,0,1,.026.059l-1.61,4.427A.046.046,0,0,1,4563.082,3471.117Z" transform="translate(-4544.434 -3442.268)"/><path class="f" d="M4231.629,3690.3a1.63,1.63,0,1,1-2.822-1.291A4.4,4.4,0,0,1,4231.629,3690.3Z" transform="translate(-4225.624 -3654.416)"/><path class="m" d="M4250.522,3708.8a.05.05,0,0,1-.032-.012l-3.48-3.175a.046.046,0,1,1,.062-.068l3.481,3.175a.047.047,0,0,1,0,.065A.046.046,0,0,1,4250.522,3708.8Z" transform="translate(-4242.974 -3670.179)"/><path class="f" d="M4260.741,3483.548a1.63,1.63,0,1,1-2.822-1.291A4.4,4.4,0,0,1,4260.741,3483.548Z" transform="translate(-4253.393 -3457.204)"/><path class="m" d="M4279.634,3502.049a.046.046,0,0,1-.031-.012l-3.48-3.175a.046.046,0,0,1,0-.065.046.046,0,0,1,.065,0l3.48,3.175a.046.046,0,0,1,0,.065A.047.047,0,0,1,4279.634,3502.049Z" transform="translate(-4270.743 -3472.968)"/><path class="f" d="M4370.776,3394.836a1.629,1.629,0,1,1,1.859-2.485A4.392,4.392,0,0,1,4370.776,3394.836Z" transform="translate(-4358.223 -3371.423)"/><path class="m" d="M4366.862,3409.727a.045.045,0,0,1-.038-.02.046.046,0,0,1,.01-.064l3.84-2.729a.046.046,0,1,1,.053.075l-3.839,2.729A.049.049,0,0,1,4366.862,3409.727Z" transform="translate(-4357.266 -3385.33)"/><path class="f" d="M4322.453,3205.011a1.63,1.63,0,1,1-1.061-2.916A4.4,4.4,0,0,1,4322.453,3205.011Z" transform="translate(-4313.137 -3189.968)"/><path class="m" d="M4338.963,3231.856a.047.047,0,0,1-.046-.045l-.181-4.708a.046.046,0,1,1,.092,0l.181,4.708a.046.046,0,0,1-.044.048Z" transform="translate(-4330.482 -3213.777)"/><path class="f" d="M4164.3,3273.865a1.629,1.629,0,1,1-2.762,1.414A4.4,4.4,0,0,1,4164.3,3273.865Z" transform="translate(-4161.461 -3258.35)"/><path class="m" d="M4186.223,3285.292a.046.046,0,0,1-.007-.091l4.649-.763a.046.046,0,0,1,.015.091l-4.649.763Z" transform="translate(-4184.961 -3268.51)"/><path class="f" d="M4190.854,3096.067a1.629,1.629,0,1,1-.856-2.982A4.395,4.395,0,0,1,4190.854,3096.067Z" transform="translate(-4187.611 -3085.987)"/><path class="m" d="M4206.647,3122.853h0a.046.046,0,0,1-.045-.048l.145-4.709a.046.046,0,0,1,.046-.045h0a.047.047,0,0,1,.045.048l-.145,4.709A.047.047,0,0,1,4206.647,3122.853Z" transform="translate(-4204.443 -3109.801)"/><path class="f" d="M4400.98,3179.159a1.629,1.629,0,1,1,1.916-2.44A4.39,4.39,0,0,1,4400.98,3179.159Z" transform="translate(-4387.014 -3165.73)"/><path class="m" d="M4397.045,3193.688a.045.045,0,0,1-.038-.02.046.046,0,0,1,.012-.064l3.9-2.639a.046.046,0,1,1,.051.076l-3.9,2.64A.048.048,0,0,1,4397.045,3193.688Z" transform="translate(-4386.057 -3179.344)"/><path class="f" d="M4339.317,3043.937a1.629,1.629,0,1,1-2.546-1.774A4.394,4.394,0,0,1,4339.317,3043.937Z" transform="translate(-4328.595 -3037.414)"/><path class="m" d="M4354.724,3065.655a.047.047,0,0,1-.037-.018l-2.857-3.746a.045.045,0,0,1,.009-.064.046.046,0,0,1,.064.009l2.857,3.746a.044.044,0,0,1-.009.064A.043.043,0,0,1,4354.724,3065.655Z" transform="translate(-4342.962 -3056.162)"/><path class="f" d="M4433.153,2941.948a1.63,1.63,0,1,1,1.468-2.733A4.394,4.394,0,0,1,4433.153,2941.948Z" transform="translate(-4417.886 -2939.214)"/><path class="m" d="M4429.411,2959.608a.046.046,0,0,1-.032-.079l3.391-3.27a.046.046,0,1,1,.064.066l-3.391,3.27A.047.047,0,0,1,4429.411,2959.608Z" transform="translate(-4416.929 -2955.46)"/></g><g transform="translate(96.239 393.489)"><path class="n" d="M440.266,2421.187H392.375v-24.415a23.945,23.945,0,0,1,47.891,0Zm-38.517-9.374h29.143v-15.041a14.571,14.571,0,0,0-29.143,0Z" transform="translate(-388.505 -2372.826)"/><rect class="n" width="55.631" height="46.087" transform="translate(0 34.241)"/><path class="o" d="M792.344,3337.482a6.053,6.053,0,1,0-8.018,5.725v9.6a1.965,1.965,0,0,0,3.931,0v-9.6A6.053,6.053,0,0,0,792.344,3337.482Z" transform="translate(-758.476 -3287.207)"/></g><g transform="translate(237.133 329.853)"><path class="n" d="M3563.913,1233.17a9.389,9.389,0,1,0-1.332,13.211A9.388,9.388,0,0,0,3563.913,1233.17Zm-10.132,8.276a3.693,3.693,0,1,1,5.2.524A3.693,3.693,0,0,1,3553.781,1241.445Z" transform="translate(-3547.252 -1210.101)"/><rect class="n" width="6.701" height="35.479" transform="translate(39.608 0) rotate(50.759)"/><rect class="n" width="6.039" height="3.651" transform="translate(41.602 7.023) rotate(50.759)"/><rect class="n" width="6.039" height="3.651" transform="translate(37.034 10.754) rotate(50.759)"/></g><g transform="translate(160.225 338.121)"><path class="p" d="M1698.337,1859.058l-.713-1.386-1.121-1.132a.175.175,0,0,0-.3.1h0a.889.889,0,0,0,.1.541l.253.625a.616.616,0,0,1,.074.3l0,.165a.083.083,0,0,1-.146.051l-.8-.97-.55-1.125a.5.5,0,0,0-.776-.154,2.966,2.966,0,0,0-.976,2.825,1.4,1.4,0,0,0,.508.857l2.325,1.847Z" transform="translate(-1693.327 -1824.43)"/><path class="p" d="M2995.369,1179.408l-.7-1.159a.583.583,0,0,1-.083-.3v-1.871a.236.236,0,0,1,.374-.191h0a.614.614,0,0,1,.243.383l.14.736a.308.308,0,0,0,.1.173l.261.228a.072.072,0,0,0,.12-.054v-4.309a.413.413,0,0,1,.413-.413h0a.413.413,0,0,1,.413.413v1.79a.331.331,0,0,0,.191.3l2.106.975a.756.756,0,0,1,.436.752l-.224,2.548Z" transform="translate(-2934.56 -1172.632)"/><rect class="p" width="6.75" height="5.615" transform="translate(33.517 15.524)"/><circle class="p" cx="1.565" cy="1.565" r="1.565" transform="translate(30.706 9.293) rotate(-22.5)"/><circle class="p" cx="1.565" cy="1.565" r="1.565" transform="translate(38.821 10.14) rotate(-45)"/><path class="l" d="M2401.57,1222.122a.274.274,0,0,0-.349-.244c-1.281.372-3.127-.587-5.886-1.182-2.992-.644-2.853,2.47-2.853,2.47a1.577,1.577,0,0,0-1.365.614c-.314.438-.079,1.457.146,2.165a5.841,5.841,0,0,1,.269,1.76v5.064a4.142,4.142,0,0,0,4.142,4.142h0a4.142,4.142,0,0,0,4.142-4.142v-4.917a2.39,2.39,0,0,1,.661-1.667C2401.643,1224.981,2401.631,1222.949,2401.57,1222.122Z" transform="translate(-2358.781 -1218.395)"/><path class="n" d="M1814.2,1338.211a3.3,3.3,0,0,1-2.491,3.261l-14.213,3.588-1.545,14.721,2.033,12.118-.44,3.009h-24.069l-.54-1.138.976-9.271-.845-8.393-1.836,2.156a6.929,6.929,0,0,1-6.95,2.23h0a6.931,6.931,0,0,1-3.022-1.629l-9.458-8.72,2.44-2.928,10.851,6.12,4.41-14.385a2.291,2.291,0,0,1,1.464-1.5l11.655-3.9,6.75-.038,5.038.411.378-.209a1.392,1.392,0,0,1,.759-.174l12.2.708,1.952-14.72h4.147Z" transform="translate(-1749.103 -1312.746)"/><path class="q" d="M2170.295,2520.053l-2.485,69.889h7.068l7.935-57.71,9.4,57.71h7.356l-5.2-69.889Z" transform="translate(-2145.921 -2457.893)"/><path class="k" d="M2422.488,1363.476a5.833,5.833,0,0,1-2.369-.468,3.965,3.965,0,0,1-1.422-.991l.108-.087a3.915,3.915,0,0,0,1.378.955,6.578,6.578,0,0,0,4.38.17l.035.134A8.328,8.328,0,0,1,2422.488,1363.476Z" transform="translate(-2385.233 -1353.196)"/><path class="k" d="M2432.261,1248.878l-.125-.058a2.573,2.573,0,0,1,.739-.877,2.365,2.365,0,0,1,2.418-.216c.27.106.515.206.753.3,1.626.659,2.442.989,3.34.365l.079.114c-.959.667-1.8.327-3.471-.351-.238-.1-.483-.2-.751-.3a2.231,2.231,0,0,0-2.284.2A2.476,2.476,0,0,0,2432.261,1248.878Z" transform="translate(-2398.052 -1244.047)"/><path class="k" d="M2403.433,1285.8a1.148,1.148,0,0,1,.205-1.022,1.227,1.227,0,0,1,.936-.317l-.013.138a1.107,1.107,0,0,0-.821.274,1.022,1.022,0,0,0-.17.9Z" transform="translate(-2370.644 -1279.298)"/><path class="k" d="M2430.723,1398.645a5.531,5.531,0,0,1-1.693-.258,4.17,4.17,0,0,1-1.331-.677l.089-.106a5.316,5.316,0,0,0,4.852.6l.041.132A6.59,6.59,0,0,1,2430.723,1398.645Z" transform="translate(-2393.82 -1387.225)"/><path class="r" d="M2000.17,2055.252l-.128-.052,1.6-3.965-1.6,1.253-.086-.109,1.8-1.413a.069.069,0,0,1,.107.08Z" transform="translate(-1985.81 -2010.433)"/><rect class="r" width="0.138" height="7.218" transform="translate(23.063 36.196) rotate(-6.631)"/><rect class="r" width="0.138" height="5.22" transform="matrix(0.987, -0.159, 0.159, 0.987, 21.407, 25.752)"/><rect class="r" width="4.433" height="0.138" transform="translate(48.327 32.306) rotate(-84.022)"/><rect class="r" width="0.138" height="2.489" transform="translate(46.177 21.453) rotate(-33.69)"/><rect class="r" width="6.112" height="0.138" transform="translate(41.748 60.516) rotate(-18.446)"/><path class="r" d="M2269.506,2409.684a16.854,16.854,0,0,1-7.521-1.641,9.982,9.982,0,0,1-2.469-1.647l.1-.1a9.829,9.829,0,0,0,2.438,1.624,16.718,16.718,0,0,0,7.453,1.624Z" transform="translate(-2233.396 -2349.386)"/><path class="s" d="M2273,2410.62s-6.27,0-9.676-3.268C2263.327,2407.352,2270.483,2410,2273,2410.62Z" transform="translate(-2237.031 -2350.391)"/><path class="s" d="M2031.138,2045.712l-1.837,2.156a6.925,6.925,0,0,1-6.95,2.23,6.273,6.273,0,0,0,.687-.045,8.668,8.668,0,0,0,7.1-5.478,8.482,8.482,0,0,0,.621-2.093Z" transform="translate(-2007.172 -2002.354)"/><path class="t" d="M2283.3,2611.848l-2.773-1.369v-5.5h5.546v5.5Zm-2.542-1.512,2.542,1.254,2.542-1.254v-5.129h-5.085Z" transform="translate(-2253.441 -2538.9)"/><path class="t" d="M2567.611,2611.848l-2.773-1.369v-5.5h5.546v5.5Zm-2.542-1.512,2.542,1.254,2.543-1.254v-5.129h-5.085Z" transform="translate(-2524.633 -2538.9)"/><rect class="r" width="7.628" height="0.138" transform="translate(33.476 74.761) rotate(-8.326)"/><rect class="t" width="59.401" height="0.231" transform="translate(25.224 132.04) rotate(-85.632)"/><rect class="t" width="0.231" height="59.634" transform="translate(42.864 72.834) rotate(-6.681)"/><rect class="t" width="0.231" height="4.033" transform="translate(29.747 62.16)"/><rect class="t" width="0.231" height="4.033" transform="translate(42.863 62.16)"/><path class="u" d="M2178.5,4038.779H2172.8l.384-3.773h5.707Z" transform="translate(-2150.678 -3902.957)"/><path class="u" d="M2722.9,4038.782h-5.707l-.062-.613-.321-3.16h5.707l.1,1.005.219,2.155Z" transform="translate(-2669.593 -3902.959)"/><path class="u" d="M2080.132,4051.78h-7.087a2.786,2.786,0,0,1,.068-.613,3.652,3.652,0,0,1,6.952,0A2.771,2.771,0,0,1,2080.132,4051.78Z" transform="translate(-2055.528 -3915.957)"/><path class="u" d="M2736.527,4051.78h-7.087a2.771,2.771,0,0,1,.068-.613,3.462,3.462,0,0,1,3.476-2.531,3.888,3.888,0,0,1,1.683.376,3.209,3.209,0,0,1,1.793,2.155A2.771,2.771,0,0,1,2736.527,4051.78Z" transform="translate(-2681.641 -3915.957)"/><path class="v" d="M2083.416,4103.509l-.062.613h-10.309a2.789,2.789,0,0,1,.068-.613Z" transform="translate(-2055.528 -3968.299)"/><path class="v" d="M2731.117,4104.122h-7.286l-.062-.613h7.281A2.8,2.8,0,0,1,2731.117,4104.122Z" transform="translate(-2676.231 -3968.299)"/><rect class="t" width="0.092" height="2.024" transform="translate(52.877 132.054) rotate(-5.765)"/></g></g><circle class="w" cx="4.728" cy="4.728" r="4.728" transform="matrix(0.23, -0.973, 0.973, 0.23, 327.56, 351.592)"/><circle class="w" cx="4.384" cy="4.384" r="4.384" transform="translate(62.203 392.084)"/><circle class="x" cx="6.63" cy="6.63" r="6.63" transform="translate(343.467 463.624) rotate(-45)"/><circle class="x" cx="4.728" cy="4.728" r="4.728" transform="translate(100.291 456.888) rotate(-45)"/><circle class="w" cx="6.2" cy="6.2" r="6.2" transform="translate(142.641 340.948)"/></g></svg>