<svg xmlns="http://www.w3.org/2000/svg" width="294.148" height="196.149" viewBox="0 0 294.148 196.149"><defs><style>.a{fill:#ecf3fe;}.b{fill:#7d95b7;opacity:0.3;}.c{fill:#b7cae5;}.d{fill:#dfe5ea;}.e{fill:#5b97ef;}.f{fill:#fff;}.g{fill:#e4ecf9;}.h{fill:#3b82f4;}.i{fill:#474747;opacity:0.29;}.j{fill:#fdc8aa;}.k{fill:#9fb8d6;}.l{fill:#d7e3f4;}.m{fill:#15315e;}.n{fill:#122c51;}.o{fill:#1f3a6f;}.p{fill:#fbb188;}.q{fill:#efa57f;}.r{fill:#f4b545;}.s{fill:#e59d29;}.ac,.t{fill:#232323;}.ag,.t{opacity:0.2;}.u{fill:#ffdca4;}.v{fill:#e09f36;}.w{fill:#f4cb95;}.x{fill:#d8a471;}.y{fill:#edc28e;}.z{fill:#e5b67f;}.aa{fill:#cc8e2b;}.ab{fill:#e29d2d;}.ac{opacity:0.1;}.ad{fill:#f4b698;}.ae{opacity:0.28;}.af{fill:#e29586;}.ag{fill:#363636;}.ah{fill:#eee;}.ai{fill:#92afcc;}.aj{fill:#7f9fba;}.ak{fill:#fbad1d;}.al{fill:#97d9ef;}</style></defs><g transform="translate(-279.437 -452.303)"><g transform="translate(279.437 452.303)"><path class="a" d="M575.205,726.1a94.9,94.9,0,1,0-90.857,0Z" transform="translate(-412.272 -533.969)"/><path class="a" d="M1032.071,841.577h75.921a83.827,83.827,0,1,0-75.921,0Z" transform="translate(-883.418 -649.444)"/><path class="b" d="M1704.89,1005.53c-.208-.479-.484-1.037-.849-1.713-1.363-2.537-2.049-3.208-2.322-3.385a.3.3,0,0,0-.145-.065l.136-.146c-3.206-5.519-8.038-9.619-9.7-9.81s-2.268-.515-4.8-1.619-2.667,0-2.667,0h0c-.241-.154-.444-.263-.569-.361a2.991,2.991,0,0,1-.526-1.444c-.13-.651-.225-1.366-.3-1.828a6.432,6.432,0,0,0,1.089-3.611,6.681,6.681,0,0,0-.062-.89,1.988,1.988,0,0,0,1.4-2.029,5.384,5.384,0,0,0-2.239-4.54c-1.74-1.141-2.862-1.922-4.254-1.827s-6.815.055-6.829,4.2c0,.1-.8,2.5-.12,3.725.331.6.6.658.855.565a6.645,6.645,0,0,0-.053.792,6.233,6.233,0,0,0,2.726,5.234,12.513,12.513,0,0,1,.106,1.636,2.286,2.286,0,0,1-.186.553c-.092.216-.208.462-.326.7-.386-.213-.9.356-1.438.959-.642.725-1.565-.34-2.183.32a3.459,3.459,0,0,1-1.76.828c-4.4.983-7.754,4.545-7.948,5.1s-1.469,1.357-1.825,1.632a.816.816,0,0,0-.317.655,8.424,8.424,0,0,0-2.686,1.806,3.818,3.818,0,0,1-3.4.978c-.448-.02-4.185,1.979-4.429,3.822s-.379,4.942,2.221,6.988a3.072,3.072,0,0,0,2.15.918l0,0a1.112,1.112,0,0,0,.873-.837,6.4,6.4,0,0,0-.844-3.464c-.952-1.344-.423-2.441,1.1-2.794s1.7-.1,1.966-.569c.2-.342,3.635-1.906,5.488-2.73.1.148.17.258.215.314.369.461.746.116,1.708-.105s1.814.316,2.566-.285a3.074,3.074,0,0,1,1.536-.654c1.7,1.939,3.113,11.89,3.148,14.856v.034c.007,1.408-.618,3.744-.683,5.672-.058,1.751.346,3.164,2.108,3.24a47.221,47.221,0,0,0-.641,17.089c1.52,8.954,2.183,12.329,5.723,17.241.719,1,1.588,2.266,2.53,3.656.114.172.233.345.352.522-.157.618-.322,1.227-.5,1.823,0,0-.031.2-.085.553-.358,2.288-1.677,10.929-1.332,11.65a2.772,2.772,0,0,0,.943.912l-.115,1.148c-.087.1-.152.115-.2.307v0a10.8,10.8,0,0,0-.136,1.861c-.085,2.752.587,4.019,1.625,4.628a8.814,8.814,0,0,0,4.72.28c.322-.119.5-.564.558-1.12a4.286,4.286,0,0,0-.41-2.25,8.684,8.684,0,0,1-.611-1.632c-.148-.509-.283-1.051-.4-1.564l.063-.683c.4-.161.738-.6,1.169-1.75.235-.622.7-2.387,1.263-4.736.5.661.963,1.227,1.359,1.666.593.66,1.044,1.03,1.29.992a1.2,1.2,0,0,0,.165-.042,8.033,8.033,0,0,1,.78,2.509c.136,1,.26,2.2.349,3.218.105,1.178.17,2.12.175,2.255a4.89,4.89,0,0,0,.206,1.332c.188.553.553.992,1.26.649,1.4-.681,3.453-2.212,3.9-3.73s.354-3.453,1.529-5.457,1.868-4.173,1.014-4.493c-.146-.054-.356-.144-.6-.253-.713-.311-1.746-.782-2.539-1.079a.714.714,0,0,0,.123-.6c-.208-.43-2.77-3.636-5.7-7.492-.264-.352-.535-.708-.806-1.068a66.376,66.376,0,0,0,1.42-9.942c-.061-3.758,2.352-21.4,1.864-27.858a2.936,2.936,0,0,0,.877-.144,4.125,4.125,0,0,0,1.6-1.021c1.722-1.7,2.465-2.906,2.606-3.746a5.054,5.054,0,0,1,1.567-2.365c.788-.849,4.449-4.671,5.094-7.329C1705.375,1008.152,1705.749,1007.525,1704.89,1005.53Zm-23.157,44.52q-.067-.265-.114-.531a13.429,13.429,0,0,1,1.238-7.991l.269-.184s.063,3.094-.172,7.463c-.058,1.095-.134,2.271-.237,3.5A10.322,10.322,0,0,1,1681.733,1050.05Zm10.505-30.268c-.027-.079-.055-.158-.082-.228a3.5,3.5,0,0,1-.112-2.125,0,0,0,0,0,0,0c.013-.043.022-.065.022-.065,1.288-3.526.251-14.659.251-14.659a5.435,5.435,0,0,1,5.291,1.9l.121-.129s0,.325.582.83a7.405,7.405,0,0,0,1.7,1.032s1.124.412-.116,3.032a5.184,5.184,0,0,0-.186,1.429c-.011.911-1.672,4.326-3.37,5.837C1695.256,1017.6,1693.424,1018.7,1692.238,1019.782Z" transform="translate(-1449.946 -896.638)"/><path class="c" d="M1665.288,1583.334l-8.327-13.094s12.456,11.011,12.456,10.8,9.481-21.2,9.481-21.2-4.8,19.681-4.664,22.572c0,0,4.807-4.375,7.083-4.734s-3.127,4.11-3.121,6.73h-12.411Z" transform="translate(-1456.627 -1398.778)"/><ellipse class="c" cx="106.477" cy="6.55" rx="106.477" ry="6.55" transform="translate(44.774 183.049)"/><g transform="translate(28.962 42.697)"><ellipse class="c" cx="8.568" cy="25.325" rx="8.568" ry="25.325" transform="matrix(0.588, -0.809, 0.809, 0.588, 0, 13.856)"/><ellipse class="c" cx="25.325" cy="8.568" rx="25.325" ry="8.568" transform="translate(44.926 47.516) rotate(-62.278)"/><ellipse class="c" cx="8.568" cy="25.325" rx="8.568" ry="25.325" transform="translate(5.893 49.685) rotate(-57.867)"/><path class="c" d="M743.1,802.243s24.5,82.057,14.479,140.691h16.859S762.586,831.673,743.1,802.243Z" transform="translate(-704.631 -794.047)"/></g><g transform="translate(77.138 66.675)"><path class="d" d="M938.464,1225.977v67.347c0,.082,0,.164-.008.25,0,.039,0,.078-.008.117s0,.074-.008.113c0,.016,0,.031,0,.047s-.008.051-.012.074c0,.058-.016.117-.023.176s-.019.113-.031.168a.633.633,0,0,1-.02.082.171.171,0,0,1-.012.062.621.621,0,0,1-.02.082c-.012.051-.027.1-.039.148a.073.073,0,0,1-.008.027c-.027.086-.051.172-.082.253a.014.014,0,0,1,0,.012c-.016.043-.031.086-.047.125s-.031.074-.043.109a.16.16,0,0,0-.012.031c-.047.105-.094.214-.148.316-.016.031-.035.07-.055.105s-.039.066-.058.1-.035.066-.059.1c-.039.066-.082.133-.125.2-.027.043-.055.078-.078.117-.066.086-.129.172-.2.253q-.076.094-.152.176c-.051.058-.105.113-.16.168-.023.027-.051.051-.078.078a.569.569,0,0,1-.074.066c-.027.027-.059.055-.09.082-.008.008-.019.015-.027.023-.074.066-.152.129-.23.187a.1.1,0,0,0-.023.019c-.062.043-.125.09-.191.133-.023.016-.043.031-.063.043-.035.024-.07.047-.105.066a.628.628,0,0,1-.086.051,1.083,1.083,0,0,1-.094.055,4.365,4.365,0,0,1-.687.316c-.016,0-.027.012-.043.016l-.051.016c-.055.019-.109.039-.168.055-.1.031-.2.055-.293.078l-.152.035a.843.843,0,0,1-.1.016l-.121.023c-.008,0-.012,0-.016,0l-.1.012c-.016,0-.031,0-.047,0l-.086.012c-.016,0-.031,0-.051,0l-.18.012c-.086,0-.172.008-.258.008H814.663c-.086,0-.172,0-.258-.008l-.179-.012a1.7,1.7,0,0,1-.2-.023.959.959,0,0,1-.113-.016c-.094-.011-.187-.031-.277-.051a.579.579,0,0,1-.078-.019c-.1-.023-.2-.047-.293-.078-.059-.02-.113-.035-.168-.055a5.249,5.249,0,0,1-.757-.332l-.176-.106c-.066-.039-.133-.082-.2-.125a4.857,4.857,0,0,1-1.026-.932q-.105-.123-.2-.257a4.607,4.607,0,0,1-.534-.96c-.031-.078-.062-.164-.094-.246s-.055-.168-.082-.253-.047-.172-.066-.258-.035-.16-.051-.242c0-.012,0-.027-.008-.039-.012-.078-.023-.16-.031-.238a.029.029,0,0,1,0-.02c-.008-.062-.012-.121-.016-.183-.012-.121-.016-.242-.016-.367v-67.347a4.8,4.8,0,0,1,1.756-3.718.24.24,0,0,1,.031-.023l.25-.191a4.78,4.78,0,0,1,2.782-.886H933.646a3.25,3.25,0,0,1,.343.016.166.166,0,0,1,.062,0c.109.008.222.02.328.035l.074.012c.094.016.187.035.277.059a.44.44,0,0,1,.07.016c.113.027.222.059.331.094s.207.07.3.109a3.889,3.889,0,0,1,.41.191,2.385,2.385,0,0,1,.219.117,3.162,3.162,0,0,1,.359.234s0,0,0,0l.25.191a.243.243,0,0,1,.031.023c.066.051.125.105.183.16.047.039.09.082.133.125a4.237,4.237,0,0,1,.375.414q.082.1.152.2a4.521,4.521,0,0,1,.511.9c.039.086.074.176.109.265,0,0,0,.008,0,.012a4.4,4.4,0,0,1,.137.441c.019.074.035.144.051.218.012.058.023.113.031.172s.019.117.027.176a1.957,1.957,0,0,1,.023.211,1.4,1.4,0,0,1,.012.179C938.46,1225.809,938.464,1225.9,938.464,1225.977Z" transform="translate(-809.845 -1176.019)"/><path class="e" d="M939.872,959.083H811.83a4.816,4.816,0,0,1,1.467-2.072.216.216,0,0,1,.031-.023l.25-.191L872.9,911.766a4.875,4.875,0,0,1,5.9,0L938.12,956.8s0,0,0,0l.25.191a.221.221,0,0,1,.031.023c.066.051.125.105.183.16.047.039.09.082.133.125a4.224,4.224,0,0,1,.375.414q.082.1.152.2a4.517,4.517,0,0,1,.511.9c.039.086.074.176.109.265C939.868,959.075,939.872,959.079,939.872,959.083Z" transform="translate(-811.541 -910.771)"/><path class="f" d="M55.869,0h0a55.869,55.869,0,0,1,55.869,55.869V110.01a0,0,0,0,1,0,0H0a0,0,0,0,1,0,0V55.869A55.869,55.869,0,0,1,55.869,0Z" transform="translate(7.647 8.607)"/><path class="g" d="M2.536,0H83.751a2.536,2.536,0,0,1,2.536,2.536v0a2.536,2.536,0,0,1-2.536,2.536H2.536A2.536,2.536,0,0,1,0,2.536v0A2.536,2.536,0,0,1,2.536,0Z" transform="translate(20.372 27.878)"/><path class="g" d="M2.536,0H83.751a2.536,2.536,0,0,1,2.536,2.536v0a2.536,2.536,0,0,1-2.536,2.536H2.536A2.536,2.536,0,0,1,0,2.536v0A2.536,2.536,0,0,1,2.536,0Z" transform="translate(20.372 38.713)"/><path class="g" d="M2.536,0H83.751a2.536,2.536,0,0,1,2.536,2.536v0a2.536,2.536,0,0,1-2.536,2.536H2.536A2.536,2.536,0,0,1,0,2.536v0A2.536,2.536,0,0,1,2.536,0Z" transform="translate(20.372 49.548)"/><path class="g" d="M2.536,0H83.751a2.536,2.536,0,0,1,2.536,2.536v0a2.536,2.536,0,0,1-2.536,2.536H2.536A2.536,2.536,0,0,1,0,2.536v0A2.536,2.536,0,0,1,2.536,0Z" transform="translate(20.372 60.383)"/><path class="g" d="M2.536,0H83.751a2.536,2.536,0,0,1,2.536,2.536v0a2.536,2.536,0,0,1-2.536,2.536H2.536A2.536,2.536,0,0,1,0,2.536v0A2.536,2.536,0,0,1,2.536,0Z" transform="translate(20.372 71.219)"/><path class="h" d="M874.157,1261.457v0a3.163,3.163,0,0,1-.663.546l-58.565,36.135h-.265a4.7,4.7,0,0,1-1.4-.207l-.183-.059a4.773,4.773,0,0,1-1.986-1.315q-.076-.082-.152-.176a4.514,4.514,0,0,1-.4-.566c-.043-.066-.078-.133-.117-.2s-.074-.141-.105-.211a4.8,4.8,0,0,1-.476-2.087v-67.347a4.8,4.8,0,0,1,1.756-3.718.24.24,0,0,1,.031-.023l.25-.191a4.78,4.78,0,0,1,2.782-.886h1.1l5.142,3.172,47.4,29.249,1.783,1.1,3.4,2.1a3.16,3.16,0,0,1,.663.546v0A3.083,3.083,0,0,1,874.157,1261.457Z" transform="translate(-809.845 -1176.019)"/><path class="h" d="M1311.691,1225.977v67.347c0,.082,0,.164-.008.25,0,.039,0,.078-.008.117s0,.074-.008.113c0,.016,0,.031,0,.047s-.008.051-.012.074c0,.058-.016.117-.024.176s-.019.113-.031.168c0,.008,0,.02,0,.027a.389.389,0,0,1-.016.055.173.173,0,0,1-.012.062.612.612,0,0,1-.02.082c-.011.051-.023.1-.039.148a.076.076,0,0,1-.008.027c-.023.086-.051.172-.082.253a.015.015,0,0,1,0,.012c-.016.043-.027.082-.047.125s-.027.07-.043.109a.239.239,0,0,0-.012.031c-.047.105-.094.214-.148.316-.016.031-.035.07-.055.105s-.039.066-.058.1-.035.066-.059.1c-.039.066-.082.133-.125.2-.027.043-.055.078-.078.117-.066.09-.133.172-.2.253q-.076.094-.152.176c-.051.058-.105.113-.16.168-.023.027-.051.051-.078.078a.594.594,0,0,1-.074.066c-.027.027-.059.055-.09.082-.008.008-.019.015-.027.023-.074.066-.152.129-.23.187a.1.1,0,0,0-.023.019c-.063.043-.125.09-.191.133-.023.016-.043.031-.062.043-.035.024-.07.047-.105.066a.623.623,0,0,1-.086.051,1.072,1.072,0,0,1-.094.055,4.373,4.373,0,0,1-.687.316c-.016,0-.031.012-.043.016l-.051.016c-.055.019-.109.039-.168.055-.1.031-.195.055-.293.078l-.152.035a.85.85,0,0,1-.1.016l-.121.023h-.012c-.035,0-.07.012-.1.016-.015,0-.031,0-.047,0l-.086.012c-.016,0-.031,0-.051,0l-.18.012c-.086,0-.172.008-.257.008h-.265l-58.565-36.135a3.036,3.036,0,0,1-.659-.546v0a3.074,3.074,0,0,1,0-4.128v0a3.032,3.032,0,0,1,.659-.546l3.4-2.1,1.783-1.1,47.406-29.249,5.142-3.172h1.1a3.252,3.252,0,0,1,.344.016.166.166,0,0,1,.062,0c.109.008.222.02.328.035l.074.012c.094.016.187.035.277.059a.439.439,0,0,1,.07.016c.113.027.222.059.332.094s.207.07.3.109a3.867,3.867,0,0,1,.41.191,2.364,2.364,0,0,1,.219.117,3.156,3.156,0,0,1,.359.234s0,0,0,0l.25.191a.236.236,0,0,1,.031.023c.066.051.125.105.183.16.047.039.09.082.133.125a4.222,4.222,0,0,1,.375.414q.082.1.152.2a4.521,4.521,0,0,1,.511.9c.039.086.074.176.109.265,0,0,0,.008,0,.012a4.368,4.368,0,0,1,.136.441c.02.074.035.144.051.218.011.058.023.113.031.172s.02.117.027.176a1.926,1.926,0,0,1,.023.211,1.4,1.4,0,0,1,.012.179C1311.687,1225.809,1311.691,1225.9,1311.691,1225.977Z" transform="translate(-1183.071 -1176.019)"/><path class="i" d="M938.464,1469v.7a4.928,4.928,0,0,1-4.818,5.029H814.663a4.928,4.928,0,0,1-4.818-5.029v-.7l61.2-40.264a5.624,5.624,0,0,1,6.219,0Z" transform="translate(-809.845 -1352.606)"/><path class="e" d="M938.464,1480.819v.671a4.819,4.819,0,0,1-4.818,4.818H814.663a4.819,4.819,0,0,1-4.818-4.818v-.671l61.2-38.574a5.83,5.83,0,0,1,6.219,0Z" transform="translate(-809.845 -1364.185)"/><path class="h" d="M2.536,0H37.454A2.536,2.536,0,0,1,39.99,2.536v0a2.536,2.536,0,0,1-2.536,2.536H2.536A2.536,2.536,0,0,1,0,2.536v0A2.536,2.536,0,0,1,2.536,0Z" transform="translate(20.372 17.042)"/></g><g transform="translate(197.887 73.628)"><path class="j" d="M1849.833,1694.174l-.261,2.594,5.12.813.291-3.145Z" transform="translate(-1819.113 -1587.196)"/><path class="a" d="M1854.7,1694.713c-.054.555-.235,1-.558,1.12a8.816,8.816,0,0,1-4.72-.28c-1.039-.609-1.711-1.876-1.626-4.628a10.772,10.772,0,0,1,.137-1.861v0c.083-.311.2-.155.392-.658l.2-.293s.009-.074.034-.193c.107-.551.54-2.1,1.935-2.1a2.118,2.118,0,0,1,2.463,1.979c.166.781.416,1.979.723,3.032a8.716,8.716,0,0,0,.611,1.632A4.286,4.286,0,0,1,1854.7,1694.713Z" transform="translate(-1817.592 -1580.056)"/><path class="k" d="M1854.7,1713.777c-.054.556-.235,1-.558,1.12a8.815,8.815,0,0,1-4.72-.28c-1.039-.609-1.711-1.876-1.626-4.628a10.767,10.767,0,0,1,.137-1.861c.054,1.455.293,4.465,1.357,5.49C1850.395,1714.682,1853.406,1714.1,1854.7,1713.777Z" transform="translate(-1817.592 -1599.121)"/><path class="l" d="M1858.2,1690.83a7.532,7.532,0,0,1-4-.251c-.66-.323-.983-1.543-1.122-2.662.107-.551.54-2.1,1.935-2.1a2.118,2.118,0,0,1,2.463,1.979C1857.64,1688.58,1857.891,1689.778,1858.2,1690.83Z" transform="translate(-1822.108 -1580.056)"/><path class="m" d="M1813.25,1368c-.246.038-.7-.331-1.29-.992-.4-.439-.855-1.005-1.359-1.666-.782-1.026-1.672-2.277-2.6-3.62-.9-1.3-1.843-2.694-2.756-4.048-.4-.6-.8-1.187-1.187-1.76-.119-.177-.237-.349-.352-.522-.943-1.39-1.811-2.66-2.53-3.656-3.54-4.913-4.2-8.287-5.723-17.241a47.337,47.337,0,0,1,.786-17.693l9.254-1.644.56,15.571.148.694.2.967-.269.183a13.429,13.429,0,0,0-1.238,7.991q.047.265.114.531a10.312,10.312,0,0,0,.983,2.255c.694,1.274,1.681,2.817,2.812,4.465,1.023,1.487,2.161,3.059,3.3,4.6q.5.672.992,1.33c.271.36.542.717.806,1.068,2.929,3.856,5.49,7.062,5.7,7.492C1820.091,1363.3,1814.574,1367.791,1813.25,1368Z" transform="translate(-1772.418 -1263.297)"/><path class="n" d="M1890.687,1573.746c-.49,3.155-1.429,8.979-1.946,12.194-.4-.439-.855-1.005-1.359-1.666-.782-1.026-1.673-2.277-2.6-3.62,1.073-3.1,3-8.656,3.2-9.057.094-.186.461-.249.909-.249q.5.672.992,1.33C1890.152,1573.038,1890.423,1573.394,1890.687,1573.746Z" transform="translate(-1849.199 -1482.233)"/><path class="n" d="M1858.211,1487.782c-.022.1-.793,2.246-1.836,5.139-1.072,2.974-2.432,6.735-3.562,9.859-1.247,3.442-2.214,6.113-2.214,6.113l.443-5.5c.054-.352.085-.553.085-.553.177-.6.343-1.2.5-1.823-.119-.177-.237-.349-.352-.522l1.191-14.827q.047.265.114.531a10.3,10.3,0,0,0,.983,2.255c.1-1.227.179-2.4.237-3.5C1855.473,1485.922,1858.262,1487.565,1858.211,1487.782Z" transform="translate(-1819.99 -1408.407)"/><path class="o" d="M1856.533,1333.607a66.378,66.378,0,0,1-1.42,9.942c-.772,4.01-1.724,8.361-2.5,11.6-.56,2.349-1.028,4.113-1.263,4.736-.9,2.4-1.386,1.706-2.931,1.841s-3.869-1.146-4.27-1.979c-.345-.721.974-9.361,1.332-11.65.053-.351.085-.553.085-.553.177-.6.342-1.2.5-1.823a79.741,79.741,0,0,0,1.937-12.564c.1-1.227.179-2.4.237-3.5.235-4.369.172-7.463.172-7.463l-.19-.287-.013-.681-.334-15.741s7.463-2.987,9.792-2.091S1856.459,1329.068,1856.533,1333.607Z" transform="translate(-1814.432 -1253.103)"/><path class="a" d="M1927.591,1647.946c-1.176,2-1.088,3.936-1.529,5.456s-2.492,3.05-3.9,3.73c-.707.343-1.073-.1-1.26-.649a4.9,4.9,0,0,1-.206-1.332c0-.134-.069-1.077-.175-2.255-.089-1.019-.213-2.214-.349-3.218-.293-2.161-1.317-3.175-1.223-3.674s2.145-.761,3.209-1.012c.432-.1.873-.638,1.245-1.238a12.562,12.562,0,0,0,.8-1.556.515.515,0,0,1,.6-.3,31.376,31.376,0,0,1,3.193,1.3c.249.11.459.2.6.253C1929.458,1643.772,1928.766,1645.944,1927.591,1647.946Z" transform="translate(-1878.398 -1542.512)"/><path class="n" d="M1857.554,1328.481l-1.783-2.724-.954-14.106,2.737-.6Z" transform="translate(-1823.595 -1259.793)"/><path class="j" d="M1654.366,1145.84s-6.381,2.772-6.65,3.242-.446.215-1.966.569-2.049,1.451-1.1,2.794a6.4,6.4,0,0,1,.844,3.464,1.112,1.112,0,0,1-.873.838l0,0a3.071,3.071,0,0,1-2.149-.918c-2.6-2.047-2.463-5.147-2.221-6.988s3.981-3.843,4.429-3.822a3.819,3.819,0,0,0,3.4-.979,9.154,9.154,0,0,1,3.287-2.049l2.584,3.318Z" transform="translate(-1640.13 -1115.319)"/><path class="p" d="M1676.088,1165.339s-6.381,2.772-6.65,3.242-.446.215-1.966.569-2.049,1.451-1.1,2.794a6.4,6.4,0,0,1,.844,3.464,1.112,1.112,0,0,1-.873.837c.681-.282.551-2.257-.195-3.412a4.817,4.817,0,0,1-.522-3.285c.112-.71,2.687-.934,3.73-1.865.761-.678,4.189-2.031,6.316-2.873Z" transform="translate(-1661.852 -1134.818)"/><path class="j" d="M1827.786,1052.766c.15,3.768-8.285,5.448-9.888,4.254s-2.2-6.758-2.2-6.758.593-1.082.9-1.814a2.3,2.3,0,0,0,.186-.553,22.53,22.53,0,0,0-.195-2.407l7.465-1.307c.1.208.219,1.319.412,2.284a2.994,2.994,0,0,0,.526,1.444C1825.545,1048.343,1827.638,1049,1827.786,1052.766Z" transform="translate(-1790.162 -1031.732)"/><path class="q" d="M1837.76,1073.064c-.14.2-2.8,5.822-7,5.6s4.786,2.883,5.038,2.715,5.542-4.814,5.57-5.01a11.4,11.4,0,0,0-1.148-2.953C1840.027,1073.456,1837.76,1073.064,1837.76,1073.064Z" transform="translate(-1802.086 -1056.414)"/><path class="r" d="M1755.215,1080.84l-4.1,4.38a5.435,5.435,0,0,0-5.291-1.9s1.037,11.133-.251,14.659c0,0-.009.022-.022.065a0,0,0,0,1,0,0,3.5,3.5,0,0,0,.112,2.125c.15.392.313.931.464,1.482.307,1.113.567,2.257.567,2.257s-13.173,1.467-18.9,2.888c-3.018.748-3.65-.9-3.578-3.061.065-1.928.69-4.263.683-5.672v-.034c-.036-2.967-1.449-12.917-3.148-14.856a3.074,3.074,0,0,0-1.536.654c-.752.6-1.605.065-2.566.284s-1.339.566-1.708.105-2.649-4.409-2.649-4.409a.815.815,0,0,1,.316-.676c.356-.275,1.632-1.077,1.825-1.632s3.553-4.12,7.949-5.1a3.458,3.458,0,0,0,1.76-.829c.618-.661,1.541.405,2.183-.32s1.26-1.4,1.655-.732a6.947,6.947,0,0,0,4.505,4.59c.085.027,4.8-2.747,4.568-5.7,0,0,.134-1.1,2.667,0s3.146,1.431,4.8,1.619S1752.009,1075.32,1755.215,1080.84Z" transform="translate(-1702.647 -1052.874)"/><path class="p" d="M1829.731,1046.465c-1.057,1.435-3.28,2.9-7.868,1.984a2.3,2.3,0,0,0,.186-.553,22.53,22.53,0,0,0-.195-2.407l7.465-1.307C1829.422,1044.389,1829.538,1045.5,1829.731,1046.465Z" transform="translate(-1795.426 -1031.732)"/><path class="j" d="M1815.015,986.516a6.314,6.314,0,0,1-1.977,4.651,5.365,5.365,0,0,1-3.672,1.473,6.143,6.143,0,0,1,0-12.246,5.344,5.344,0,0,1,3.37,1.209A6.29,6.29,0,0,1,1815.015,986.516Z" transform="translate(-1779.927 -977.221)"/><path class="p" d="M1849,993.621a6.313,6.313,0,0,1-1.977,4.651c2.9-5.745-3.538-8.771-3.538-8.771s1.451-.358,3.235-.793A6.29,6.29,0,0,1,1849,993.621Z" transform="translate(-1813.911 -984.326)"/><path class="m" d="M1796.7,962.791c0,.1-.8,2.5-.12,3.725s1.1.194,1.687.194,1.623-2.267,2.323-2.211,5.934-.448,6.661,1.539,2.89.576,2.771-1.083a5.383,5.383,0,0,0-2.239-4.54c-1.74-1.14-2.862-1.922-4.254-1.827S1796.718,958.643,1796.7,962.791Z" transform="translate(-1773.596 -958.579)"/><path class="s" d="M1872.578,1272.8c-9.715.678-15.176-.224-8.11-.616,4.12-.229,6.334-1.567,7.534-2.991a3.5,3.5,0,0,0,.112,2.125C1872.265,1271.714,1872.429,1272.253,1872.578,1272.8Z" transform="translate(-1829.102 -1224.024)"/><path class="s" d="M1788.413,1215.742c.065-1.928.69-4.263.683-5.672a25.674,25.674,0,0,0,5.506-8C1798.3,1194.419,1794.476,1209.846,1788.413,1215.742Z" transform="translate(-1766.848 -1164.876)"/><path class="j" d="M1941.481,1161.807c-.645,2.658-4.306,6.48-5.094,7.328a5.059,5.059,0,0,0-1.567,2.365c-.141.84-.884,2.051-2.606,3.746a4.124,4.124,0,0,1-1.6,1.021,2.562,2.562,0,0,1-2.631-.535c-.732-.768-.257-2.629-.257-2.629,0-1.6,3.544-3.451,5.242-4.962s3.359-4.926,3.37-5.838a5.19,5.19,0,0,1,.186-1.428c1.24-2.62.116-3.032.116-3.032a7.391,7.391,0,0,1-1.7-1.032c-.582-.508-.582-.831-.582-.831l3.844-4.1a.3.3,0,0,1,.146.065c.273.177.958.849,2.322,3.385.365.676.641,1.234.849,1.713C1942.374,1159.035,1942,1159.662,1941.481,1161.807Z" transform="translate(-1885.768 -1123.766)"/><path class="p" d="M1959.343,1192.148c-.645,2.658-4.306,6.48-5.094,7.328a5.06,5.06,0,0,0-1.567,2.365c-.141.84-.884,2.051-2.606,3.746a4.127,4.127,0,0,1-1.6,1.021c.8-.929,3-2.819,3.157-4,.2-1.511,2.873-4.03,5.746-7.911a11.52,11.52,0,0,0,2-7.315C1960.236,1189.376,1959.862,1190,1959.343,1192.148Z" transform="translate(-1903.63 -1154.106)"/><path class="q" d="M1978.2,1151.942a19.736,19.736,0,0,1-3.408,4.87c-.582-.508-.582-.831-.582-.831l3.845-4.1A.3.3,0,0,1,1978.2,1151.942Z" transform="translate(-1925.629 -1123.766)"/><path class="k" d="M1939.1,1655.662c-1.176,2-1.088,3.936-1.529,5.457s-2.492,3.049-3.9,3.73c-.708.343-1.073-.1-1.261-.649a10.519,10.519,0,0,0,4.223-3.224c.533-.784.085-2.8,1.482-5.123a12.934,12.934,0,0,0,1.39-4.937c.249.11.459.2.6.253C1940.967,1651.488,1940.275,1653.66,1939.1,1655.662Z" transform="translate(-1889.907 -1550.228)"/><path class="l" d="M1920.524,1663.875c-.089-1.019-.213-2.214-.349-3.217-.293-2.161-1.317-3.175-1.223-3.674s2.145-.761,3.209-1.012c.432-.1.873-.638,1.245-1.238C1923.907,1657.035,1924.389,1661.782,1920.524,1663.875Z" transform="translate(-1878.398 -1553.491)"/></g><path class="t" d="M700.215,1144.818l-57.849-.134a1.5,1.5,0,0,0-1.5,1.494l-.054,23.5a1.5,1.5,0,0,0,1.494,1.5l57.849.134a1.5,1.5,0,0,0,1.5-1.494l.054-23.5A1.5,1.5,0,0,0,700.215,1144.818Z" transform="translate(-588.255 -1043.99)"/><g transform="translate(46.807 94.841)"><path class="r" d="M674.273,1146.919l-57.849-.134a1.5,1.5,0,0,1-1.494-1.5l.054-23.5a1.5,1.5,0,0,1,1.5-1.494l57.849.134a1.5,1.5,0,0,1,1.494,1.5l-.054,23.5A1.5,1.5,0,0,1,674.273,1146.919Z" transform="translate(-612.945 -1117.986)"/><g transform="translate(0 0)"><circle class="u" cx="11.017" cy="11.017" r="11.017" transform="translate(0 15.58) rotate(-45)"/><g transform="translate(9.621 6.502)"><path class="r" d="M676.25,1253.281a1.687,1.687,0,0,1-.184-.007h0a9.387,9.387,0,0,1-5.1-1.7,5.186,5.186,0,0,1,3.205-2.653h0a4.625,4.625,0,0,1,.711-.146,5.042,5.042,0,0,1,.68-.045l1.866,0a5.046,5.046,0,0,1,.677.049h0a4.634,4.634,0,0,1,.71.149,5.149,5.149,0,0,1,2.5,1.617,5.241,5.241,0,0,1,.641.95,9.442,9.442,0,0,1-4.979,1.771c-.084.007-.167.01-.255.01a.165.165,0,0,1-.04,0h0a.146.146,0,0,1-.054,0,.114.114,0,0,1-.047,0,1.883,1.883,0,0,1-.2.006h-.121Z" transform="translate(-670.451 -1234.245)"/><path class="v" d="M675.244,1156.336s-.571-6.314,2.881-6.43,4.863-.988,5.688-.694,1.446,6.03,1.224,7.147S675.244,1156.336,675.244,1156.336Z" transform="translate(-674.079 -1149.151)"/><path class="w" d="M701.133,1234.675l0,1.766a1.635,1.635,0,0,1-3.224-.007l0-1.766a1.222,1.222,0,0,1,.334-.823,1.388,1.388,0,0,1,.158-.15,1.608,1.608,0,0,1,.368-.227,1.867,1.867,0,0,1,1.508,0,1.606,1.606,0,0,1,.367.228l.017.014a1.42,1.42,0,0,1,.141.138A1.221,1.221,0,0,1,701.133,1234.675Z" transform="translate(-693.474 -1221.071)"/><path class="x" d="M687.745,1175.759l-.006,2.572a4.218,4.218,0,0,1-2.773,3.941v.678a4.164,4.164,0,0,1-1.44.252h-.345a4.149,4.149,0,0,1-1.439-.259l0-.678a4.219,4.219,0,0,1-2.754-3.954l.006-2.572a4.217,4.217,0,0,1,4.213-4.174h.345a4.18,4.18,0,0,1,2.611.923h0A4.2,4.2,0,0,1,687.745,1175.759Z" transform="translate(-677.309 -1168.305)"/><path class="w" d="M687.75,1171.12l-.007,3.231a4.159,4.159,0,0,1-.635,2.207c-.062.1-.133.2-.2.291a3.727,3.727,0,0,1-.273.33,4.187,4.187,0,0,1-3.1,1.365h-.342a4.213,4.213,0,0,1-4.193-4.213l.008-3.351a4.2,4.2,0,0,1,1.477-3.064,3.825,3.825,0,0,1,.436-.326,4.161,4.161,0,0,1,2.3-.683h.342a4.075,4.075,0,0,1,1.838.436,3.247,3.247,0,0,1,.326.176,3.938,3.938,0,0,1,.373.254A4.2,4.2,0,0,1,687.75,1171.12Z" transform="translate(-677.315 -1164.325)"/><g transform="translate(10.43 6.812)"><path class="y" d="M740.845,1197.682a1.684,1.684,0,0,1-1.688,1.68l.008-3.367a1.671,1.671,0,0,1,.658.135h0A1.684,1.684,0,0,1,740.845,1197.682Z" transform="translate(-739.157 -1195.994)"/><path class="x" d="M740.211,1201.448a1.043,1.043,0,0,1-1.045,1.04l0-2.085A1.043,1.043,0,0,1,740.211,1201.448Z" transform="translate(-739.165 -1199.762)"/></g><g transform="translate(0 6.792)"><path class="y" d="M669.127,1195.855l-.008,3.367a1.684,1.684,0,0,1-.37-3.325c.026-.006.052-.012.079-.015l.042-.006A1.647,1.647,0,0,1,669.127,1195.855Z" transform="translate(-667.44 -1195.855)"/><path class="x" d="M671.846,1201.3a1.043,1.043,0,0,0,1.04,1.045l0-2.085A1.043,1.043,0,0,0,671.846,1201.3Z" transform="translate(-671.205 -1199.623)"/></g><path class="z" d="M713.54,1174.719l-.007,3.231a4.159,4.159,0,0,1-.635,2.207c-.062.1-.133.2-.2.291.85-6.091-.17-6.976-1.617-6.967-1.555,0-1.9-1.909-1.9-1.909l2.338-.453a3.9,3.9,0,0,1,.373.254A4.2,4.2,0,0,1,713.54,1174.719Z" transform="translate(-703.104 -1167.923)"/><path class="aa" d="M711.409,1251.766l.407.7-1.528,1.759c-.084.007-.168.01-.255.01a.173.173,0,0,1-.04,0h0a.151.151,0,0,1-.053,0l1.243-2.969,0-.007.206-.489,0,0,.02-.05,0-.871.891,1.516-.848.38Z" transform="translate(-703.756 -1235.205)"/><path class="f" d="M697.638,1257.762h.047c.067,0,.134,0,.2-.006a.118.118,0,0,0,.047,0,.152.152,0,0,0,.054,0h0l.209-.335,1.11-1.8v-.539l.39-.374-.193-.73a1.775,1.775,0,0,1-.1.154l-.007.007v.007a3.473,3.473,0,0,1-1.2,1.136,2.06,2.06,0,0,1-.416.16,2.167,2.167,0,0,1-.559-.249,3.386,3.386,0,0,1-1.043-1.061l0-.007a1.817,1.817,0,0,1-.1-.154l-.2.73.388.376v.539l.948,1.557.357.59,0,0Z" transform="translate(-691.749 -1238.723)"/><path class="v" d="M711.18,1251.1l.36.721-1.783,1.768a.166.166,0,0,1-.04,0h0a.141.141,0,0,1-.054,0,.112.112,0,0,1-.047,0l1.2-2.848v0l.32-.763v-.007l.007-.007,0-.871.891,1.627-.9.29Z" transform="translate(-703.48 -1234.556)"/><path class="aa" d="M694,1254.2a1.655,1.655,0,0,1-.184-.007h0l-1.594-1.776.41-.7-.047-.02-.847-.384.9-1.512,0,.761v.111l0,.007.01.027,0,.007.21.506v0l1.232,2.981h-.074Z" transform="translate(-688.203 -1235.161)"/><path class="v" d="M694,1253.547l-1.781-1.783.363-.719.047-.091-.894-.293.9-1.623v.111l0,.76,0,.007.32.771v0l1.183,2.86h-.121Z" transform="translate(-688.204 -1234.511)"/><path class="v" d="M686.092,1163.181a22.119,22.119,0,0,0-2.508-.64,7.283,7.283,0,0,0-1.739.239,7.941,7.941,0,0,0-2.024,1.065l-.229.433a1.469,1.469,0,0,0-.264.324c-.006.04-.035.172-.062.292l-.189.358c.026-.01.089-.029.166-.057l.107.344a3.644,3.644,0,0,1,1.148-1,3.35,3.35,0,0,1,3.029.237c1.588,1.17,4.554.5,4.554.5Z" transform="translate(-677.384 -1160.594)"/></g></g><path class="ab" d="M834.557,1151.334l-25.244-.058a1.188,1.188,0,0,1-1.182-1.187v-.059a1.188,1.188,0,0,1,1.187-1.182l25.244.058a1.188,1.188,0,0,1,1.182,1.187v.059A1.188,1.188,0,0,1,834.557,1151.334Z" transform="translate(-778.049 -1142.389)"/><path class="u" d="M834.472,1187.751l-25.244-.059a1.188,1.188,0,0,1-1.182-1.187v-.059a1.188,1.188,0,0,1,1.187-1.182l25.244.058a1.188,1.188,0,0,1,1.182,1.187v.059A1.188,1.188,0,0,1,834.472,1187.751Z" transform="translate(-777.977 -1173.51)"/><path class="u" d="M1.214,0H26.4a1.214,1.214,0,0,1,1.214,1.214v0A1.214,1.214,0,0,1,26.4,2.428H1.214A1.214,1.214,0,0,1,0,1.214v0A1.214,1.214,0,0,1,1.214,0Z" transform="translate(30.06 17.048) rotate(0.133)"/><path class="u" d="M834.3,1260.587l-25.244-.058a1.188,1.188,0,0,1-1.182-1.187v-.059a1.188,1.188,0,0,1,1.187-1.182l25.244.058a1.188,1.188,0,0,1,1.182,1.187v.059A1.188,1.188,0,0,1,834.3,1260.587Z" transform="translate(-777.833 -1235.753)"/></g><path class="r" d="M1409.395,769.731a.823.823,0,0,1-.522-.187,31.711,31.711,0,0,1-3.287-3.1.826.826,0,1,1,1.216-1.117,30.1,30.1,0,0,0,3.116,2.938.826.826,0,0,1-.523,1.465Zm-5.927-6.471a.825.825,0,0,1-.686-.365,28.543,28.543,0,0,1-2.227-3.946.826.826,0,0,1,1.5-.693,26.881,26.881,0,0,0,2.1,3.717.826.826,0,0,1-.684,1.287Zm12.846-6.678a21.79,21.79,0,0,1-2.924-.193.826.826,0,1,1,.222-1.636,20.844,20.844,0,0,0,4.226.124.826.826,0,1,1,.116,1.647C1417.407,756.562,1416.855,756.581,1416.314,756.581Zm5.92-.791a.826.826,0,0,1-.219-1.622,17.426,17.426,0,0,0,3.889-1.571.826.826,0,1,1,.808,1.44,19.069,19.069,0,0,1-4.258,1.722A.818.818,0,0,1,1422.234,755.79Zm-22.433-.5a.826.826,0,0,1-.8-.613,24.118,24.118,0,0,1-.763-4.489.826.826,0,1,1,1.647-.119,22.509,22.509,0,0,0,.712,4.182.826.826,0,0,1-.8,1.039Zm9.461-.034a.822.822,0,0,1-.32-.065,19.532,19.532,0,0,1-3.979-2.282.826.826,0,0,1,.979-1.331,17.871,17.871,0,0,0,3.641,2.091.826.826,0,0,1-.32,1.587Zm20.476-3.842a.826.826,0,0,1-.622-1.369,8.9,8.9,0,0,0,1.742-2.994q.087-.256.157-.518a.826.826,0,0,1,1.594.432c-.056.2-.119.411-.187.615a10.553,10.553,0,0,1-2.061,3.55A.825.825,0,0,1,1429.737,751.417Zm-27.561-1.28a.824.824,0,0,1-.6-.262,29.675,29.675,0,0,1-2.709-3.384.826.826,0,0,1-.478-.868,19.531,19.531,0,0,1,1.16-4.439.826.826,0,1,1,1.537.605,17.782,17.782,0,0,0-.987,3.579l.024.034a28.1,28.1,0,0,0,2.661,3.346.826.826,0,0,1-.6,1.389Zm29.866-6.927a.826.826,0,0,1-.817-.711,13.739,13.739,0,0,0-1.213-3.958.826.826,0,0,1,1.493-.706,15.392,15.392,0,0,1,1.355,4.435.828.828,0,0,1-.819.941Zm-34.83-.316a.825.825,0,0,1-.739-.456,36.38,36.38,0,0,1-1.761-4.146.826.826,0,0,1,1.557-.551,34.756,34.756,0,0,0,1.681,3.957.826.826,0,0,1-.738,1.2Zm5.19-4.449a.826.826,0,0,1-.678-1.3,24.087,24.087,0,0,1,2.94-3.48.826.826,0,1,1,1.156,1.18,22.415,22.415,0,0,0-2.739,3.241A.825.825,0,0,1,1402.4,738.445Zm25.984-3.128a.824.824,0,0,1-.634-.3,16.412,16.412,0,0,0-3.065-2.847.826.826,0,0,1,.958-1.346,18.05,18.05,0,0,1,3.374,3.133.826.826,0,0,1-.633,1.356Zm-34.107-.706a.826.826,0,0,1-.806-.648,35.55,35.55,0,0,1-.692-4.454.826.826,0,1,1,1.645-.148,33.942,33.942,0,0,0,.66,4.246.826.826,0,0,1-.807,1Zm14.393-2.281a.826.826,0,0,1-.449-1.52,18.611,18.611,0,0,1,4.131-2.019.826.826,0,1,1,.528,1.565,16.975,16.975,0,0,0-3.763,1.841A.821.821,0,0,1,1408.672,732.329Zm12.594-2.011a.823.823,0,0,1-.264-.043q-.253-.085-.51-.159a12.131,12.131,0,0,0-3.371-.479h-.174a.826.826,0,1,1-.023-1.651l.2,0a13.777,13.777,0,0,1,3.829.544q.291.084.578.181a.826.826,0,0,1-.264,1.609Zm-27.759-4.457h-.04a.826.826,0,0,1-.786-.864,30.062,30.062,0,0,1,.55-4.491.826.826,0,1,1,1.619.326,28.369,28.369,0,0,0-.519,4.244A.826.826,0,0,1,1393.507,725.861Zm1.753-8.595a.827.827,0,0,1-.771-1.121,25.427,25.427,0,0,1,1.626-3.452q.182-.321.372-.633a.826.826,0,0,1,1.41.86q-.177.29-.346.589a23.771,23.771,0,0,0-1.521,3.227A.826.826,0,0,1,1395.26,717.266Zm4.548-7.483a.826.826,0,0,1-.616-1.376,26.474,26.474,0,0,1,3.306-3.11.826.826,0,1,1,1.026,1.294,24.821,24.821,0,0,0-3.1,2.915A.824.824,0,0,1,1399.808,709.783Zm6.856-5.469a.826.826,0,0,1-.41-1.543,34.675,34.675,0,0,1,4.061-1.967.826.826,0,0,1,.624,1.529,33.094,33.094,0,0,0-3.866,1.872A.82.82,0,0,1,1406.663,704.314Zm8.131-3.345a.826.826,0,0,1-.223-1.621,43.7,43.7,0,0,1,4.383-.991.826.826,0,0,1,.281,1.628,42.034,42.034,0,0,0-4.217.953A.824.824,0,0,1,1414.794,700.969Z" transform="translate(-1230.781 -662.563)"/><g transform="translate(169.051 6.517)"><circle class="ac" cx="21.003" cy="21.003" r="21.003" transform="matrix(0.882, -0.47, 0.47, 0.882, 4.117, 25.458)"/><g transform="translate(0 0)"><circle class="r" cx="21.003" cy="21.003" r="21.003" transform="translate(0 29.703) rotate(-45)"/><g transform="translate(15.019 15.196)"><path class="f" d="M1563.552,610.029l.5-1.649,3.987.284-3.066,10.664a8.624,8.624,0,0,0-.308,1.344.792.792,0,0,0,.135.556.536.536,0,0,0,.4.226,3.752,3.752,0,0,0,2.182-.915,9.249,9.249,0,0,0,2.457-2.739,8.865,8.865,0,0,0,.8-7.4,7.956,7.956,0,0,0-1.788-2.92,9.229,9.229,0,0,0-3.078-2.071,13.163,13.163,0,0,0-4.28-.972,15.12,15.12,0,0,0-4.561.32,11.456,11.456,0,0,0-3.74,1.586,10.354,10.354,0,0,0-2.808,2.782,12.906,12.906,0,0,0-1.647,3.313,15.266,15.266,0,0,0-.755,3.786,10.837,10.837,0,0,0,.7,4.823,9.639,9.639,0,0,0,2.748,3.823,12.374,12.374,0,0,0,4.617,2.408,20.051,20.051,0,0,0,6.295.7,15.008,15.008,0,0,0,4.825-.932,9.342,9.342,0,0,0,3.471-2.394l3.216.229a10.712,10.712,0,0,1-2.251,2.739,11.626,11.626,0,0,1-3.1,1.927,15.4,15.4,0,0,1-3.885,1.052,21.749,21.749,0,0,1-4.608.127,21.489,21.489,0,0,1-6.62-1.45,13.758,13.758,0,0,1-4.807-3.165,11.936,11.936,0,0,1-2.761-4.6,14.744,14.744,0,0,1-.642-5.7,16.677,16.677,0,0,1,1.5-5.934,13.851,13.851,0,0,1,8.586-7.509,17.164,17.164,0,0,1,6.493-.706,15.874,15.874,0,0,1,5.2,1.213,11.688,11.688,0,0,1,3.929,2.7,10.524,10.524,0,0,1,2.34,3.908,12.241,12.241,0,0,1,.561,4.813,11.451,11.451,0,0,1-3.332,7.253,10.119,10.119,0,0,1-3.353,2.22,8.826,8.826,0,0,1-4.005.618,3.66,3.66,0,0,1-1.873-.551,2.055,2.055,0,0,1-.812-1.386,5.869,5.869,0,0,1-3.137,1.424,5.646,5.646,0,0,1-3.285-.552,5.514,5.514,0,0,1-2.432-2.4,7.027,7.027,0,0,1-.717-3.906,11.43,11.43,0,0,1,1.351-4.594,9.658,9.658,0,0,1,3.167-3.554,6.754,6.754,0,0,1,4.355-1.163A4.365,4.365,0,0,1,1563.552,610.029Zm-8.817,7.235a4.442,4.442,0,0,0,.557,2.832,2.4,2.4,0,0,0,1.91,1.107,3.366,3.366,0,0,0,2.58-.955,7.365,7.365,0,0,0,1.842-2.745,10.889,10.889,0,0,0,.8-3.305,5.121,5.121,0,0,0-.086-1.455,3.434,3.434,0,0,0-.479-1.165,2.451,2.451,0,0,0-.839-.8,2.72,2.72,0,0,0-1.168-.334,3.36,3.36,0,0,0-2.467.864,6.771,6.771,0,0,0-1.83,2.571A10.376,10.376,0,0,0,1554.735,617.264Z" transform="translate(-1545.126 -601.607)"/></g></g></g><path class="t" d="M809.721,1382.479l-57.468-.009a1.492,1.492,0,0,0-1.488,1.488l0,23.344a1.492,1.492,0,0,0,1.487,1.488l57.468.01a1.492,1.492,0,0,0,1.488-1.488l0-23.344A1.492,1.492,0,0,0,809.721,1382.479Z" transform="translate(-682.216 -1247.194)"/><g transform="translate(62.64 128.587)"><path class="f" d="M783.142,1379.731l-57.468-.01a1.492,1.492,0,0,1-1.488-1.488l0-23.344a1.492,1.492,0,0,1,1.488-1.488l57.468.01a1.492,1.492,0,0,1,1.488,1.488l0,23.344A1.492,1.492,0,0,1,783.142,1379.731Z" transform="translate(-722.146 -1350.942)"/><path class="h" d="M942.08,1385.412l-25.078,0a1.18,1.18,0,0,1-1.176-1.177v-.059A1.18,1.18,0,0,1,917,1383l25.078,0a1.18,1.18,0,0,1,1.177,1.177v.059A1.18,1.18,0,0,1,942.08,1385.412Z" transform="translate(-885.915 -1376.232)"/><path class="a" d="M1.206,0H26.225a1.206,1.206,0,0,1,1.206,1.206v0a1.206,1.206,0,0,1-1.206,1.206H1.206A1.206,1.206,0,0,1,0,1.206v0A1.206,1.206,0,0,1,1.206,0Z" transform="translate(29.91 12.027)"/><path class="a" d="M942.068,1457.769l-25.078,0a1.18,1.18,0,0,1-1.176-1.177v-.059a1.18,1.18,0,0,1,1.177-1.176l25.078,0a1.18,1.18,0,0,1,1.176,1.177v.059A1.18,1.18,0,0,1,942.068,1457.769Z" transform="translate(-885.905 -1438.066)"/><path class="a" d="M942.062,1493.947l-25.078,0a1.18,1.18,0,0,1-1.176-1.177v-.059a1.18,1.18,0,0,1,1.177-1.176l25.078,0a1.18,1.18,0,0,1,1.177,1.177v.059A1.18,1.18,0,0,1,942.062,1493.947Z" transform="translate(-885.9 -1468.982)"/><g transform="translate(0 0)"><circle class="a" cx="11.046" cy="11.046" r="11.046" transform="translate(0 15.622) rotate(-45)"/><g transform="translate(9.647 6.806)"><path class="r" d="M791.386,1477.461a8.714,8.714,0,0,1-1.966,1.145,8.393,8.393,0,0,1-1.11.38,8.555,8.555,0,0,1-1.241.24,8.848,8.848,0,0,1-2.106,0,8.738,8.738,0,0,1-4.316-1.766,5.092,5.092,0,0,1,3.075-2.472h0a4.766,4.766,0,0,1,.7-.145l.029,0a4.929,4.929,0,0,1,.642-.042h1.838a4.884,4.884,0,0,1,.642.042.131.131,0,0,1,.029,0,4.8,4.8,0,0,1,.7.145h0A5.088,5.088,0,0,1,791.386,1477.461Z" transform="translate(-780.043 -1461.487)"/><path class="m" d="M792.48,1388.311v5.922a2.361,2.361,0,0,1-2.362,2.362h-5.567a2.362,2.362,0,0,1-2.361-2.363v-5.922c0-5.26,5.145-5.021,5.145-5.021a6.115,6.115,0,0,1,2.651.578,4.376,4.376,0,0,1,2.476,3.944C792.475,1387.97,792.48,1388.138,792.48,1388.311Z" transform="translate(-781.361 -1383.287)"/><path class="ad" d="M809.816,1460.917v1.741a1.612,1.612,0,0,1-3.179,0v-1.742a1.2,1.2,0,0,1,.327-.812,1.372,1.372,0,0,1,.156-.149,1.592,1.592,0,0,1,.363-.224,1.841,1.841,0,0,1,1.488,0,1.592,1.592,0,0,1,.362.224l.017.014a1.375,1.375,0,0,1,.14.136A1.2,1.2,0,0,1,809.816,1460.917Z" transform="translate(-802.253 -1448.479)"/><path class="ae" d="M796.533,1402.808v2.536a4.16,4.16,0,0,1-2.726,3.892v.669a4.1,4.1,0,0,1-1.42.252h-.34a4.1,4.1,0,0,1-1.419-.252v-.669a4.16,4.16,0,0,1-2.725-3.893v-2.536a4.159,4.159,0,0,1,4.146-4.125h.34a4.121,4.121,0,0,1,2.577.9h0A4.146,4.146,0,0,1,796.533,1402.808Z" transform="translate(-786.243 -1396.443)"/><path class="ad" d="M796.532,1398.225v3.186a4.121,4.121,0,0,1-.735,2.35l0,0a4.4,4.4,0,0,1-.353.441,4.177,4.177,0,0,1-1.635,1.1,4.1,4.1,0,0,1-1.42.251h-.34a4.085,4.085,0,0,1-1.419-.252,4.161,4.161,0,0,1-2.726-3.894v-3.169c0-.044,0-.088,0-.132a4.138,4.138,0,0,1,1.449-3.028,4.214,4.214,0,0,1,.429-.324,4.116,4.116,0,0,1,2.265-.678h.34a4.117,4.117,0,0,1,2.5.849,4.169,4.169,0,0,1,.951,1.015,4.119,4.119,0,0,1,.69,2.282Z" transform="translate(-786.242 -1392.51)"/><g transform="translate(10.29 5.733)"><path class="ad" d="M848.9,1424.37a1.661,1.661,0,0,1-1.661,1.66v-3.321a1.652,1.652,0,0,1,.649.132h0A1.661,1.661,0,0,1,848.9,1424.37Z" transform="translate(-847.244 -1422.709)"/><path class="af" d="M848.272,1428.085a1.028,1.028,0,0,1-1.028,1.028v-2.056A1.028,1.028,0,0,1,848.272,1428.085Z" transform="translate(-847.244 -1426.424)"/></g><path class="m" d="M806.381,1476.107h0l-1.242,4.238a8.848,8.848,0,0,1-2.106,0l-1.24-4.238h.878l.031.032,1.385,1.432,1.387-1.432.031-.032Z" transform="translate(-798.113 -1462.607)"/><g transform="translate(0 5.732)"><path class="ad" d="M778.151,1422.7v3.321a1.661,1.661,0,0,1-.372-3.279c.026-.006.052-.011.078-.015l.042-.006A1.585,1.585,0,0,1,778.151,1422.7Z" transform="translate(-776.491 -1422.699)"/><path class="af" d="M780.837,1428.075a1.028,1.028,0,0,0,1.028,1.028v-2.056A1.028,1.028,0,0,0,780.837,1428.075Z" transform="translate(-780.205 -1426.415)"/></g><path class="m" d="M834.445,1500.993a8.372,8.372,0,0,1-1.11.38v-.381Z" transform="translate(-825.068 -1483.875)"/><path class="ag" d="M817.562,1477.572l1.233.875,1.061-2.339Z" transform="translate(-811.589 -1462.609)"/><path class="ah" d="M819.856,1474.989l-1.083,2.257-1.212-.793,1.418-1.464.185-.19Z" transform="translate(-811.589 -1461.49)"/><path class="ag" d="M801.8,1476.1l1.049,2.339,1.244-.875Z" transform="translate(-798.115 -1462.604)"/><path class="ah" d="M804.088,1476.45l-1.211.793-1.082-2.257.692-.19.185.19Z" transform="translate(-798.115 -1461.487)"/><path class="m" d="M837.269,1393.9c-3.093.223-2.8-2.576-2.476-3.944A4.376,4.376,0,0,1,837.269,1393.9Z" transform="translate(-826.15 -1388.988)"/><path class="m" d="M791.076,1392.086c-.107.17-1.173,2.089-3.092,2.089s-4.966,1.152-5.06,3.063-2.4-5.837,3.426-6.44S791.076,1392.086,791.076,1392.086Z" transform="translate(-781.537 -1389.605)"/></g></g></g><g transform="translate(106.263 0)"><path class="ai" d="M1113,492.931l-.344-30.629,47.042-10Z" transform="translate(-1097.742 -452.303)"/><path class="c" d="M1025.24,472.039c.238-.119,46.832-19.736,46.832-19.736l-61.954,8.267Z" transform="translate(-1010.118 -452.303)"/><path class="aj" d="M1120.018,607.6l-5,16.982,21.453-18.223Z" transform="translate(-1099.761 -583.959)"/><path class="c" d="M1149.411,475.949l15.215,11.472,26.482-35.118Z" transform="translate(-1129.153 -452.303)"/></g><circle class="ak" cx="4.728" cy="4.728" r="4.728" transform="matrix(0.23, -0.973, 0.973, 0.23, 265.357, 49.561)"/><circle class="al" cx="4.728" cy="4.728" r="4.728" transform="translate(38.088 144.857) rotate(-45)"/><circle class="ak" cx="6.2" cy="6.2" r="6.2" transform="translate(80.438 28.918)"/><circle class="ak" cx="4.384" cy="4.384" r="4.384" transform="translate(0 90.053)"/><circle class="al" cx="6.63" cy="6.63" r="6.63" transform="translate(275.396 159.724) rotate(-45)"/></g></g></svg>