<svg id="Notification" xmlns="http://www.w3.org/2000/svg" width="18" height="21.6" viewBox="0 0 18 21.6">
  <g id="Icon_ionic-ios-notifications" data-name="Icon ionic-ios-notifications">
    <path id="Path_3014" data-name="Path 3014" d="M17.1,31.082a2.443,2.443,0,0,0,2.492-2.746H14.6A2.444,2.444,0,0,0,17.1,31.082Z" transform="translate(-8.113 -9.482)" fill="#fff"/>
    <path id="Path_3015" data-name="Path 3015" d="M24.533,20.068c-.867-1.106-2.571-1.754-2.571-6.7,0-5.081-2.318-7.124-4.479-7.614-.2-.049-.349-.114-.349-.321V5.27a1.373,1.373,0,0,0-2.746,0v.158c0,.2-.146.272-.349.321-2.166.5-4.479,2.533-4.479,7.614,0,4.951-1.7,5.593-2.571,6.7A1.079,1.079,0,0,0,7.883,21.8H23.644A1.079,1.079,0,0,0,24.533,20.068Z" transform="translate(-6.761 -3.93)" fill="#fff"/>
  </g>
</svg>
