<svg xmlns="http://www.w3.org/2000/svg" width="18" height="18" viewBox="0 0 18 18"><defs><style>.a{fill:#00b5e0;}</style></defs><g transform="translate(-349 -50.121)"><g transform="translate(349 50.121)"><path class="a" d="M12.831,15.988H1.532A1.6,1.6,0,0,0,0,17.638v8.8a1.6,1.6,0,0,0,1.532,1.65H3.063v2.749a.507.507,0,0,0,.871.389L6.7,28.247a.492.492,0,0,1,.361-.161h5.772a1.6,1.6,0,0,0,1.532-1.65v-8.8A1.6,1.6,0,0,0,12.831,15.988Zm-10.279,3.3H9.768a.551.551,0,0,1,0,1.1H2.553a.551.551,0,0,1,0-1.1Zm5.173,5.5H2.553a.551.551,0,0,1,0-1.1H7.726a.551.551,0,0,1,0,1.1Zm4.084-2.2H2.553a.551.551,0,0,1,0-1.1H11.81a.551.551,0,0,1,0,1.1Z" transform="translate(0 -15.988)"/><path class="a" d="M193.275,75.989h-.5v8.248a2.665,2.665,0,0,1-2.559,2.749H184.72l-1.089,1.092h4.328l2.914,3.146a.507.507,0,0,0,.871-.389V88.079h1.532a1.589,1.589,0,0,0,1.532-1.642v-8.8A1.6,1.6,0,0,0,193.275,75.989Z" transform="translate(-176.807 -73.386)"/></g></g></svg>