<svg xmlns="http://www.w3.org/2000/svg" width="31.144" height="17.372" viewBox="0 0 31.144 17.372"><defs><style>.a{fill:#fff;}</style></defs><path class="a" d="M25.185,11.584a1.149,1.149,0,0,0-.009,1.665l5.732,5.51H5.091a1.177,1.177,0,1,0,0,2.352H30.9l-5.732,5.51a1.157,1.157,0,0,0,.009,1.665,1.257,1.257,0,0,0,1.725-.009l7.769-7.509h0a1.318,1.318,0,0,0,.255-.371,1.083,1.083,0,0,0,.094-.452,1.155,1.155,0,0,0-.349-.823L26.9,11.611A1.237,1.237,0,0,0,25.185,11.584Z" transform="translate(-3.875 -11.252)"/></svg>